<svg width="218" height="193" viewBox="0 0 218 193" fill="none" xmlns="http://www.w3.org/2000/svg">
<rect width="218" height="193" fill="none"/>
<path d="M99.3573 22.7598L106.622 16.5959C108.475 15.0242 111.189 15.0115 113.056 16.5657L113.826 17.2068C115.965 18.9871 116.239 22.1712 114.435 24.2904L107.618 32.2996L102.635 37.0429C100.657 38.9251 97.5354 38.8731 95.6216 36.926L93.5508 34.8191C91.5282 32.7612 91.6624 29.4233 93.8436 27.5344L99.3573 22.7598Z" fill="white" stroke="#080809"/>
<path d="M104.274 30.3332L104.836 20.8222C104.979 18.3971 106.845 16.4259 109.258 16.1495L110.254 16.0355C113.019 15.7189 115.51 17.7205 115.796 20.4886L116.878 30.9501L116.865 37.8301C116.86 40.5603 114.666 42.7816 111.936 42.8202L108.982 42.8621C106.097 42.903 103.776 40.5001 103.917 37.6182L104.274 30.3332Z" fill="white" stroke="#080809"/>
<path d="M104.274 48.3333L104.836 38.8223C104.979 36.3972 106.845 34.426 109.258 34.1496L110.254 34.0356C113.019 33.719 115.51 35.7206 115.796 38.4887L116.878 48.9502L116.865 55.8303C116.86 58.5604 114.666 60.7817 111.936 60.8204L108.982 60.8622C106.097 60.9031 103.776 58.5002 103.917 55.6183L104.274 48.3333Z" fill="white" stroke="#080809"/>
<path d="M104.274 67.3333L104.836 57.8223C104.979 55.3972 106.845 53.426 109.258 53.1496L110.254 53.0356C113.019 52.719 115.51 54.7206 115.796 57.4887L116.878 67.9502L116.865 74.8303C116.86 77.5604 114.666 79.7817 111.936 79.8204L108.982 79.8622C106.097 79.9031 103.776 77.5002 103.917 74.6183L104.274 67.3333Z" fill="white" stroke="#080809"/>
<path d="M104.274 85.3333L104.836 75.8223C104.979 73.3972 106.845 71.426 109.258 71.1496L110.254 71.0356C113.019 70.719 115.51 72.7206 115.796 75.4887L116.878 85.9502L116.865 92.8303C116.86 95.5604 114.666 97.7817 111.936 97.8204L108.982 97.8622C106.097 97.9031 103.776 95.5002 103.917 92.6183L104.274 85.3333Z" fill="white" stroke="#080809"/>
<path d="M104.274 101.333L104.836 91.8223C104.979 89.3972 106.845 87.426 109.258 87.1496L110.254 87.0356C113.019 86.719 115.51 88.7206 115.796 91.4887L116.878 101.95L116.865 108.83C116.86 111.56 114.666 113.782 111.936 113.82L108.982 113.862C106.097 113.903 103.776 111.5 103.917 108.618L104.274 101.333Z" fill="white" stroke="#080809"/>
<path d="M104.274 119.333L104.836 109.822C104.979 107.397 106.845 105.426 109.258 105.149L110.254 105.035C113.019 104.719 115.51 106.72 115.796 109.489L116.878 119.95L116.865 126.83C116.86 129.56 114.666 131.781 111.936 131.82L108.982 131.862C106.097 131.903 103.776 129.5 103.917 126.618L104.274 119.333Z" fill="white" stroke="#080809"/>
<path d="M104.274 138.333L104.836 128.822C104.979 126.397 106.845 124.426 109.258 124.149L110.254 124.035C113.019 123.719 115.51 125.72 115.796 128.489L116.878 138.95L116.865 145.83C116.86 148.56 114.666 150.781 111.936 150.82L108.982 150.862C106.097 150.903 103.776 148.5 103.917 145.618L104.274 138.333Z" fill="white" stroke="#080809"/>
<path d="M104.274 156.333L104.836 146.822C104.979 144.397 106.845 142.426 109.258 142.149L110.254 142.035C113.019 141.719 115.51 143.72 115.796 146.489L116.878 156.95L116.865 163.83C116.86 166.56 114.666 168.781 111.936 168.82L108.982 168.862C106.097 168.903 103.776 166.5 103.917 163.618L104.274 156.333Z" fill="white" stroke="#080809"/>
<path d="M109.656 157.175L119.178 157.509C121.606 157.595 123.621 159.412 123.955 161.819L124.093 162.811C124.476 165.568 122.534 168.106 119.774 168.459L109.341 169.791L102.463 169.942C99.7332 170.003 97.4601 167.862 97.3561 165.134L97.2436 162.182C97.1337 159.299 99.4803 156.921 102.365 156.993L109.656 157.175Z" fill="white" stroke="#080809"/>
</svg>
