<svg width="215" height="191" viewBox="0 0 215 191" fill="none" xmlns="http://www.w3.org/2000/svg">
<rect width="215" height="191" fill="none"/>
<path d="M154.142 32.5L159.346 40.4804C160.673 42.5152 160.346 45.2095 158.57 46.867L157.837 47.5508C155.803 49.4496 152.61 49.322 150.733 47.2669L143.642 39.5L139.56 33.9612C137.941 31.7633 138.384 28.6726 140.555 27.018L142.905 25.2276C145.2 23.479 148.495 24.0305 150.096 26.4313L154.142 32.5Z" fill="white" stroke="#080809"/>
<path d="M137.741 18.4894L145.458 24.0768C147.426 25.5015 148.085 28.1344 147.02 30.318L146.581 31.2188C145.362 33.7201 142.334 34.7445 139.847 33.4976L130.444 28.7851L124.65 25.0751C122.351 23.6029 121.658 20.5585 123.093 18.236L124.646 15.7229C126.163 13.2683 129.436 12.6034 131.79 14.2719L137.741 18.4894Z" fill="white" stroke="#080809"/>
<path d="M115.434 12.7252L124.76 14.6757C127.138 15.1731 128.814 17.3076 128.734 19.7356L128.7 20.7372C128.608 23.5185 126.263 25.6893 123.483 25.5666L112.975 25.1027L106.172 24.081C103.472 23.6755 101.596 21.1793 101.958 18.4733L102.35 15.5452C102.733 12.6853 105.45 10.7419 108.28 11.3041L115.434 12.7252Z" fill="white" stroke="#080809"/>
<path d="M93.1374 13.5565L102.628 12.7159C105.048 12.5015 107.271 14.0575 107.899 16.4043L108.158 17.3724C108.877 20.0607 107.263 22.8189 104.567 23.5085L94.3777 26.1148L87.5704 27.1122C84.8691 27.5079 82.3497 25.6637 81.9106 22.9691L81.4355 20.0533C80.9715 17.2055 83.0076 14.557 85.879 14.2734L93.1374 13.5565Z" fill="white" stroke="#080809"/>
<path d="M72.9493 20.5778L81.4396 16.2545C83.6044 15.1522 86.2483 15.7654 87.7068 17.7081L88.3085 18.5096C89.9793 20.735 89.5117 23.8964 87.2681 25.5427L78.7887 31.7648L72.846 35.2316C70.4878 36.6074 67.462 35.8371 66.0487 33.5013L64.5193 30.9737C63.0255 28.5051 63.9255 25.288 66.4834 23.9528L72.9493 20.5778Z" fill="white" stroke="#080809"/>
<path d="M58.3564 31.8196L65.2258 25.2175C66.9773 23.5342 69.6854 23.3534 71.6451 24.7889L72.4536 25.3811C74.6986 27.0256 75.1689 30.1866 73.4999 32.4134L67.1923 40.8294L62.5121 45.8723C60.6549 47.8734 57.5359 48.0148 55.5052 46.1899L53.3079 44.2153C51.1617 42.2867 51.0889 38.9468 53.149 36.9265L58.3564 31.8196Z" fill="white" stroke="#080809"/>
<path d="M159.978 55.6076L162.549 46.4333C163.204 44.094 162.083 41.6222 159.892 40.5739L158.988 40.1414C156.477 38.9405 153.47 40.0204 152.296 42.5438L147.862 52.0806L145.63 58.5887C144.745 61.1713 146.095 63.9867 148.663 64.9134L151.442 65.9163C154.156 66.8957 157.133 65.381 157.94 62.6106L159.978 55.6076Z" fill="white" stroke="#080809"/>
<path d="M146.995 75.5624L152.69 67.9245C154.142 65.977 153.985 63.2675 152.316 61.5017L151.628 60.7733C149.717 58.7505 146.522 58.6774 144.52 60.6106L136.955 67.9169L132.534 73.1885C130.78 75.2804 131.028 78.3928 133.091 80.1804L135.324 82.1149C137.505 84.0042 140.828 83.6606 142.576 81.3651L146.995 75.5624Z" fill="white" stroke="#080809"/>
<path d="M53.3049 145.905L50.7345 155.079C50.0791 157.419 51.2 159.89 53.3915 160.939L54.2955 161.371C56.8059 162.572 59.8137 161.492 60.987 158.969L65.4214 149.432L67.6527 142.924C68.5381 140.341 67.1883 137.526 64.6203 136.599L61.8414 135.596C59.1274 134.617 56.1499 136.132 55.3434 138.902L53.3049 145.905Z" fill="white" stroke="#080809"/>
<path d="M66.2884 125.95L60.593 133.588C59.1408 135.536 59.2985 138.245 60.9669 140.011L61.6551 140.739C63.5663 142.762 66.7612 142.835 68.7629 140.902L76.3282 133.596L80.7491 128.324C82.5035 126.232 82.2555 123.12 80.192 121.332L77.9592 119.398C75.7784 117.508 72.4554 117.852 70.7073 120.148L66.2884 125.95Z" fill="white" stroke="#080809"/>
<path d="M132.506 90.0453L138.987 83.0615C140.64 81.2808 140.773 78.57 139.303 76.6356L138.697 75.8377C137.014 73.6218 133.845 73.2068 131.648 74.9144L123.343 81.3682L118.383 86.1359C116.415 88.0278 116.328 91.1488 118.188 93.1472L120.201 95.3097C122.167 97.4218 125.507 97.4362 127.491 95.3412L132.506 90.0453Z" fill="white" stroke="#080809"/>
<path d="M116 104.178L124.1 99.1596C126.165 97.8801 127.011 95.3014 126.106 93.0469L125.733 92.1169C124.697 89.5343 121.751 88.2949 119.18 89.3596L109.463 93.3836L103.417 96.6674C101.018 97.9704 100.107 100.957 101.372 103.377L102.74 105.995C104.076 108.552 107.294 109.451 109.762 107.956L116 104.178Z" fill="white" stroke="#080809"/>
<path d="M100 113.178L108.1 108.16C110.165 106.88 111.011 104.301 110.106 102.047L109.733 101.117C108.697 98.5343 105.751 97.2949 103.18 98.3596L93.4627 102.384L87.4169 105.667C85.0178 106.97 84.1075 109.957 85.3719 112.377L86.74 114.995C88.0763 117.552 91.2938 118.451 93.7618 116.956L100 113.178Z" fill="white" stroke="#080809"/>
<path d="M84.136 123.991L91.0171 117.401C92.7716 115.721 93.0645 113.023 91.7114 111.005L91.1532 110.173C89.6032 107.862 86.4645 107.261 84.1704 108.836L75.5002 114.789L70.2677 119.256C68.1913 121.029 67.9207 124.14 69.6598 126.244L71.5417 128.521C73.3797 130.746 76.7137 130.957 78.8176 128.982L84.136 123.991Z" fill="white" stroke="#080809"/>
<path d="M149.919 157.019L159.424 157.666C161.848 157.831 163.802 159.715 164.057 162.131L164.162 163.127C164.453 165.895 162.429 168.368 159.659 168.629L149.188 169.617L142.308 169.542C139.578 169.512 137.377 167.298 137.363 164.568L137.348 161.613C137.333 158.728 139.757 156.429 142.637 156.596L149.919 157.019Z" fill="white" stroke="#080809"/>
<path d="M133.92 156.804L143.426 157.452C145.849 157.617 147.803 159.5 148.058 161.916L148.163 162.913C148.455 165.681 146.431 168.154 143.66 168.415L133.189 169.402L126.31 169.327C123.58 169.297 121.378 167.083 121.364 164.353L121.349 161.399C121.334 158.514 123.758 156.215 126.639 156.382L133.92 156.804Z" fill="white" stroke="#080809"/>
<path d="M116.921 156.576L126.427 157.224C128.85 157.389 130.805 159.273 131.059 161.689L131.164 162.685C131.456 165.453 129.432 167.926 126.661 168.187L116.19 169.175L109.311 169.099C106.581 169.07 104.379 166.856 104.365 164.125L104.35 161.171C104.335 158.286 106.759 155.987 109.64 156.154L116.921 156.576Z" fill="white" stroke="#080809"/>
<path d="M98.9217 156.414L108.427 157.062C110.851 157.227 112.805 159.11 113.06 161.526L113.165 162.523C113.456 165.29 111.432 167.763 108.662 168.024L98.1909 169.012L91.3113 168.937C88.5813 168.907 86.3799 166.693 86.3659 163.963L86.3508 161.009C86.336 158.123 88.7597 155.824 91.6402 155.991L98.9217 156.414Z" fill="white" stroke="#080809"/>
<path d="M79.9224 156.242L89.428 156.89C91.8517 157.055 93.8059 158.938 94.0605 161.354L94.1655 162.351C94.4571 165.118 92.4331 167.592 89.6625 167.853L79.1916 168.84L72.312 168.765C69.582 168.735 67.3807 166.521 67.3667 163.791L67.3515 160.837C67.3367 157.952 69.7604 155.653 72.641 155.82L79.9224 156.242Z" fill="white" stroke="#080809"/>
<path d="M61.9232 156.079L71.4288 156.727C73.8525 156.892 75.8067 158.776 76.0613 161.192L76.1663 162.188C76.4579 164.956 74.4339 167.429 71.6633 167.69L61.1924 168.678L54.3128 168.603C51.5828 168.573 49.3815 166.359 49.3675 163.629L49.3523 160.674C49.3375 157.789 51.7612 155.49 54.6418 155.657L61.9232 156.079Z" fill="white" stroke="#080809"/>
</svg>
