<svg width="210" height="193" viewBox="0 0 210 193" fill="none" xmlns="http://www.w3.org/2000/svg">
<g clip-path="url(#clip0)">
<rect width="210" height="193" fill="none"/>
<path d="M154.5 165.5L159.705 157.52C161.032 155.485 160.704 152.791 158.928 151.133L158.196 150.449C156.161 148.55 152.968 148.678 151.092 150.733L144 158.5L139.919 164.039C138.299 166.237 138.742 169.327 140.914 170.982L143.264 172.772C145.559 174.521 148.854 173.97 150.454 171.569L154.5 165.5Z" fill="white" stroke="#080809"/>
<path d="M137.099 181.378L144.817 175.791C146.784 174.366 147.443 171.733 146.379 169.55L145.94 168.649C144.72 166.148 141.693 165.123 139.205 166.37L129.802 171.083L124.008 174.793C121.709 176.265 121.016 179.309 122.451 181.632L124.004 184.145C125.521 186.6 128.795 187.264 131.149 185.596L137.099 181.378Z" fill="white" stroke="#080809"/>
<path d="M114.792 187.143L124.118 185.192C126.496 184.695 128.172 182.56 128.092 180.132L128.059 179.131C127.966 176.349 125.621 174.179 122.841 174.301L112.334 174.765L105.53 175.787C102.83 176.192 100.955 178.688 101.317 181.394L101.709 184.323C102.091 187.183 104.808 189.126 107.639 188.564L114.792 187.143Z" fill="white" stroke="#080809"/>
<path d="M92.4958 186.311L101.986 187.152C104.406 187.366 106.63 185.81 107.258 183.464L107.517 182.495C108.236 179.807 106.621 177.049 103.925 176.359L93.7361 173.753L86.9288 172.756C84.2275 172.36 81.7081 174.204 81.269 176.899L80.7939 179.814C80.3299 182.662 82.366 185.311 85.2374 185.594L92.4958 186.311Z" fill="white" stroke="#080809"/>
<path d="M72.3077 179.29L80.798 183.613C82.9628 184.716 85.6067 184.102 87.0652 182.16L87.6669 181.358C89.3377 179.133 88.8701 175.971 86.6265 174.325L78.1471 168.103L72.2044 164.636C69.8462 163.26 66.8204 164.031 65.4071 166.367L63.8777 168.894C62.3839 171.363 63.2839 174.58 65.8418 175.915L72.3077 179.29Z" fill="white" stroke="#080809"/>
<path d="M161.065 140.838L160.516 150.35C160.376 152.775 158.513 154.749 156.1 155.029L155.104 155.144C152.34 155.464 149.846 153.466 149.556 150.698L148.46 140.238L148.464 133.358C148.465 130.628 150.656 128.404 153.386 128.362L156.34 128.316C159.225 128.271 161.549 130.671 161.412 133.553L161.065 140.838Z" fill="white" stroke="#080809"/>
<path d="M157.873 120.218L159.947 129.517C160.476 131.888 159.225 134.297 156.98 135.226L156.054 135.609C153.483 136.674 150.537 135.434 149.501 132.852L145.584 123.091L143.705 116.472C142.96 113.846 144.458 111.107 147.072 110.319L149.901 109.467C152.664 108.634 155.556 110.306 156.213 113.116L157.873 120.218Z" fill="white" stroke="#080809"/>
<path d="M144.001 101.401L151.57 107.187C153.5 108.663 154.09 111.312 152.969 113.467L152.506 114.356C151.222 116.825 148.169 117.77 145.715 116.459L136.438 111.503L130.743 107.643C128.482 106.112 127.869 103.051 129.364 100.766L130.982 98.2943C132.562 95.8801 135.852 95.3006 138.162 97.0298L144.001 101.401Z" fill="white" stroke="#080809"/>
<path d="M121.063 92.8333L130.25 95.3586C132.592 96.0025 134.133 98.237 133.902 100.655L133.807 101.653C133.542 104.423 131.067 106.444 128.299 106.149L117.841 105.034L111.114 103.593C108.444 103.02 106.727 100.413 107.257 97.7344L107.829 94.8362C108.389 92.0055 111.221 90.2345 114.011 90.9711L121.063 92.8333Z" fill="white" stroke="#080809"/>
<path d="M83.9588 92.3297L93.4608 93.0275C95.8836 93.2054 97.8279 95.099 98.0698 97.5163L98.1695 98.5135C98.4466 101.282 96.4095 103.745 93.6376 103.992L83.1617 104.924L76.2826 104.813C73.5528 104.768 71.3631 102.543 71.3635 99.8126L71.3639 96.8583C71.3642 93.9729 73.8 91.6867 76.6797 91.869L83.9588 92.3297Z" fill="white" stroke="#080809"/>
<path d="M103.959 92.3297L113.461 93.0275C115.884 93.2054 117.828 95.099 118.07 97.5163L118.17 98.5135C118.447 101.282 116.41 103.745 113.638 103.992L103.162 104.924L96.2826 104.813C93.5528 104.768 91.3631 102.543 91.3635 99.8126L91.3639 96.8583C91.3642 93.9729 93.8 91.6867 96.6797 91.869L103.959 92.3297Z" fill="white" stroke="#080809"/>
<path d="M154.5 29.3678L159.705 37.3482C161.032 39.383 160.704 42.0773 158.928 43.7348L158.196 44.4186C156.161 46.3174 152.968 46.1898 151.092 44.1347L144 36.3678L139.919 30.829C138.299 28.6311 138.742 25.5404 140.914 23.8858L143.264 22.0954C145.559 20.3468 148.854 20.8983 150.454 23.2991L154.5 29.3678Z" fill="white" stroke="#080809"/>
<path d="M137.099 13.4894L144.817 19.0768C146.784 20.5015 147.443 23.1344 146.379 25.318L145.94 26.2188C144.72 28.7201 141.693 29.7445 139.205 28.4976L129.802 23.7851L124.008 20.0751C121.709 18.6029 121.016 15.5585 122.451 13.236L124.004 10.7229C125.521 8.26829 128.795 7.60341 131.149 9.27187L137.099 13.4894Z" fill="white" stroke="#080809"/>
<path d="M114.792 7.72515L124.118 9.67574C126.496 10.1731 128.172 12.3076 128.092 14.7356L128.059 15.7372C127.966 18.5185 125.621 20.6893 122.841 20.5666L112.334 20.1027L105.53 19.081C102.83 18.6755 100.955 16.1793 101.317 13.4733L101.709 10.5452C102.091 7.68527 104.808 5.74193 107.639 6.30411L114.792 7.72515Z" fill="white" stroke="#080809"/>
<path d="M92.4958 8.55652L101.986 7.71585C104.406 7.5015 106.63 9.0575 107.258 11.4043L107.517 12.3724C108.236 15.0607 106.621 17.8189 103.925 18.5085L93.7361 21.1148L86.9288 22.1122C84.2275 22.5079 81.7081 20.6637 81.269 17.9691L80.7939 15.0533C80.3299 12.2055 82.366 9.55703 85.2374 9.27342L92.4958 8.55652Z" fill="white" stroke="#080809"/>
<path d="M72.3077 15.5778L80.798 11.2545C82.9628 10.1522 85.6067 10.7654 87.0652 12.7081L87.6669 13.5096C89.3377 15.735 88.8701 18.8964 86.6265 20.5427L78.1471 26.7648L72.2044 30.2316C69.8462 31.6074 66.8204 30.8371 65.4071 28.5013L63.8777 25.9737C62.3839 23.5051 63.2839 20.288 65.8418 18.9528L72.3077 15.5778Z" fill="white" stroke="#080809"/>
<path d="M161.065 54.0294L160.516 44.5176C160.376 42.0924 158.513 40.1187 156.1 39.8391L155.104 39.7237C152.34 39.4034 149.846 41.4018 149.556 44.1695L148.46 54.6295L148.464 61.5096C148.465 64.2397 150.656 66.4639 153.386 66.5062L156.34 66.552C159.225 66.5967 161.549 64.197 161.412 61.3148L161.065 54.0294Z" fill="white" stroke="#080809"/>
<path d="M157.873 74.6494L159.947 65.3505C160.476 62.9794 159.225 60.5713 156.98 59.6419L156.054 59.2586C153.483 58.194 150.537 59.4336 149.501 62.0162L145.584 71.7771L143.705 78.3955C142.96 81.0218 144.458 83.7608 147.072 84.5485L149.901 85.4009C152.664 86.2335 155.556 84.5613 156.213 81.7516L157.873 74.6494Z" fill="white" stroke="#080809"/>
<path d="M144.001 93.467L151.57 87.6805C153.5 86.2051 154.09 83.556 152.969 81.4009L152.506 80.5118C151.222 78.043 148.169 77.0979 145.715 78.4091L136.438 83.3647L130.743 87.2243C128.482 88.7559 127.869 91.8172 129.364 94.1016L130.982 96.5735C132.562 98.9877 135.852 99.5672 138.162 97.838L144.001 93.467Z" fill="white" stroke="#080809"/>
<path d="M121.063 102.035L130.25 99.5092C132.592 98.8653 134.133 96.6308 133.902 94.2125L133.807 93.2149C133.542 90.4447 131.067 88.4236 128.299 88.7186L117.841 89.8333L111.114 91.2752C108.444 91.8474 106.727 94.4551 107.257 97.1334L107.829 100.032C108.389 102.862 111.221 104.633 114.011 103.897L121.063 102.035Z" fill="white" stroke="#080809"/>
</g>
<defs>
<clipPath id="clip0">
<rect width="210" height="193" fill="white"/>
</clipPath>
</defs>
</svg>
