<svg width="207" height="193" viewBox="0 0 207 193" fill="none" xmlns="http://www.w3.org/2000/svg">
<rect width="207" height="193" fill="none"/>
<path d="M141.7 85.2563L151.214 85.7766C153.639 85.9092 155.619 87.7662 155.906 90.1786L156.024 91.1737C156.353 93.937 154.362 96.437 151.595 96.7354L141.138 97.8632L134.258 97.8803C131.528 97.8871 129.297 95.7027 129.247 92.973L129.192 90.0193C129.139 87.1344 131.531 84.8031 134.414 84.9316L141.7 85.2563Z" fill="white" stroke="#080809"/>
<path d="M124.7 85.2563L134.213 85.7766C136.639 85.9093 138.618 87.7663 138.905 90.1786L139.023 91.1738C139.352 93.9371 137.361 96.4371 134.595 96.7355L124.138 97.8633L117.258 97.8804C114.528 97.8872 112.297 95.7027 112.246 92.9731L112.192 90.0193C112.138 87.1344 114.531 84.8031 117.413 84.9316L124.7 85.2563Z" fill="white" stroke="#080809"/>
<path d="M106.7 85.335L116.213 85.8553C118.639 85.988 120.618 87.845 120.905 90.2573L121.024 91.2524C121.352 94.0158 119.362 96.5158 116.595 96.8142L106.138 97.9419L99.2581 97.959C96.528 97.9658 94.2971 95.7814 94.2465 93.0517L94.1918 90.098C94.1383 87.2131 96.531 84.8818 99.4135 85.0103L106.7 85.335Z" fill="white" stroke="#080809"/>
<path d="M87.7001 85.418L97.2135 85.9383C99.6392 86.071 101.619 87.928 101.905 90.3403L102.024 91.3354C102.353 94.0988 100.362 96.5988 97.595 96.8972L87.1383 98.0249L80.2583 98.0421C77.5282 98.0488 75.2973 95.8644 75.2467 93.1348L75.1919 90.181C75.1385 87.2961 77.5312 84.9648 80.4137 85.0933L87.7001 85.418Z" fill="white" stroke="#080809"/>
<path d="M69.7003 85.4966L79.2137 86.0169C81.6394 86.1496 83.6187 88.0066 83.9057 90.4189L84.024 91.414C84.3527 94.1774 82.362 96.6774 79.5952 96.9758L69.1385 98.1036L62.2585 98.1207C59.5283 98.1275 57.2975 95.943 57.2469 93.2134L57.1921 90.2596C57.1386 87.3747 59.5313 85.0434 62.4139 85.1719L69.7003 85.4966Z" fill="white" stroke="#080809"/>
<path d="M110.274 30.3332L110.836 20.8222C110.979 18.3971 112.845 16.4259 115.258 16.1495L116.254 16.0355C119.019 15.7189 121.51 17.7205 121.796 20.4886L122.879 30.9501L122.866 37.8301C122.86 40.5603 120.666 42.7816 117.936 42.8202L114.982 42.8621C112.097 42.903 109.777 40.5001 109.918 37.6182L110.274 30.3332Z" fill="white" stroke="#080809"/>
<path d="M110.274 48.3333L110.836 38.8223C110.979 36.3972 112.845 34.426 115.258 34.1496L116.254 34.0356C119.019 33.719 121.51 35.7206 121.796 38.4887L122.879 48.9502L122.866 55.8303C122.86 58.5604 120.666 60.7817 117.936 60.8204L114.982 60.8622C112.097 60.9031 109.777 58.5002 109.918 55.6183L110.274 48.3333Z" fill="white" stroke="#080809"/>
<path d="M110.274 67.3333L110.836 57.8223C110.979 55.3972 112.845 53.426 115.258 53.1496L116.254 53.0356C119.019 52.719 121.51 54.7206 121.796 57.4887L122.879 67.9502L122.866 74.8303C122.86 77.5604 120.666 79.7817 117.936 79.8204L114.982 79.8622C112.097 79.9031 109.777 77.5002 109.918 74.6183L110.274 67.3333Z" fill="white" stroke="#080809"/>
<path d="M110.274 85.3333L110.836 75.8223C110.979 73.3972 112.845 71.426 115.258 71.1496L116.254 71.0356C119.019 70.719 121.51 72.7206 121.796 75.4887L122.879 85.9502L122.866 92.8303C122.86 95.5604 120.666 97.7817 117.936 97.8204L114.982 97.8622C112.097 97.9031 109.777 95.5002 109.918 92.6183L110.274 85.3333Z" fill="white" stroke="#080809"/>
<path d="M57.2387 33.376L57.7173 23.8604C57.8393 21.4342 59.6876 19.4467 62.0987 19.1492L63.0933 19.0265C65.8552 18.6857 68.3638 20.6655 68.6744 23.4309L69.848 33.8826L69.8952 40.7625C69.914 43.4925 67.7394 45.7329 65.01 45.7955L62.0565 45.8632C59.1718 45.9293 56.8301 43.5469 56.9459 40.6638L57.2387 33.376Z" fill="white" stroke="#080809"/>
<path d="M57.3964 51.3754L57.875 41.8598C57.997 39.4336 59.8453 37.4461 62.2563 37.1486L63.251 37.0259C66.0128 36.6851 68.5215 38.6649 68.8321 41.4303L70.0056 51.882L70.0529 58.7619C70.0717 61.4919 67.897 63.7323 65.1676 63.7949L62.2142 63.8626C59.3295 63.9287 56.9878 61.5463 57.1036 58.6632L57.3964 51.3754Z" fill="white" stroke="#080809"/>
<path d="M57.5626 70.3748L58.0412 60.8592C58.1633 58.433 60.0116 56.4455 62.4226 56.148L63.4172 56.0253C66.1791 55.6845 68.6878 57.6643 68.9983 60.4297L70.1719 70.8814L70.2192 77.7612C70.2379 80.4913 68.0633 82.7317 65.3339 82.7943L62.3804 82.862C59.4958 82.9281 57.154 80.5457 57.2699 77.6626L57.5626 70.3748Z" fill="white" stroke="#080809"/>
<path d="M57.7204 88.3741L58.199 78.8585C58.321 76.4322 60.1693 74.4448 62.5803 74.1473L63.5749 74.0245C66.3368 73.6837 68.8455 75.6635 69.156 78.429L70.3296 88.8806L70.3769 95.7605C70.3957 98.4906 68.221 100.731 65.4916 100.794L62.5381 100.861C59.6535 100.927 57.3117 98.5449 57.4276 95.6619L57.7204 88.3741Z" fill="white" stroke="#080809"/>
<path d="M110.274 101.333L110.836 91.8222C110.979 89.3972 112.845 87.426 115.258 87.1496L116.254 87.0355C119.019 86.7189 121.51 88.7206 121.796 91.4887L122.879 101.95L122.866 108.83C122.86 111.56 120.666 113.782 117.936 113.82L114.982 113.862C112.097 113.903 109.777 111.5 109.918 108.618L110.274 101.333Z" fill="white" stroke="#080809"/>
<path d="M110.274 119.333L110.836 109.822C110.979 107.397 112.845 105.426 115.258 105.149L116.254 105.035C119.019 104.719 121.51 106.72 121.796 109.488L122.879 119.95L122.866 126.83C122.86 129.56 120.666 131.781 117.936 131.82L114.982 131.862C112.097 131.903 109.777 129.5 109.918 126.618L110.274 119.333Z" fill="white" stroke="#080809"/>
<path d="M110.274 138.333L110.836 128.822C110.979 126.397 112.845 124.426 115.258 124.149L116.254 124.035C119.019 123.719 121.51 125.72 121.796 128.488L122.879 138.95L122.866 145.83C122.86 148.56 120.666 150.781 117.936 150.82L114.982 150.862C112.097 150.903 109.777 148.5 109.918 145.618L110.274 138.333Z" fill="white" stroke="#080809"/>
<path d="M110.274 156.333L110.836 146.822C110.979 144.397 112.845 142.426 115.258 142.149L116.254 142.035C119.019 141.719 121.51 143.72 121.796 146.488L122.879 156.95L122.866 163.83C122.86 166.56 120.666 168.781 117.936 168.82L114.982 168.862C112.097 168.903 109.777 166.5 109.918 163.618L110.274 156.333Z" fill="white" stroke="#080809"/>
</svg>
