<svg width="224" height="193" viewBox="0 0 224 193" fill="none" xmlns="http://www.w3.org/2000/svg">
<rect width="224" height="193" fill="none"/>
<path d="M160.5 156.5L165.705 148.52C167.032 146.485 166.704 143.791 164.928 142.133L164.196 141.449C162.161 139.55 158.968 139.678 157.092 141.733L150 149.5L145.919 155.039C144.299 157.237 144.742 160.327 146.914 161.982L149.264 163.772C151.559 165.521 154.854 164.97 156.454 162.569L160.5 156.5Z" fill="white" stroke="#080809"/>
<path d="M143.1 172.378L150.817 166.791C152.784 165.366 153.443 162.733 152.379 160.55L151.94 159.649C150.72 157.148 147.693 156.123 145.205 157.37L135.802 162.083L130.008 165.793C127.709 167.265 127.016 170.309 128.451 172.632L130.004 175.145C131.521 177.6 134.795 178.264 137.149 176.596L143.1 172.378Z" fill="white" stroke="#080809"/>
<path d="M120.793 178.143L130.118 176.192C132.496 175.695 134.172 173.56 134.092 171.132L134.059 170.131C133.966 167.349 131.621 165.179 128.841 165.301L118.334 165.765L111.53 166.787C108.83 167.192 106.955 169.688 107.317 172.394L107.709 175.323C108.091 178.183 110.809 180.126 113.639 179.564L120.793 178.143Z" fill="white" stroke="#080809"/>
<path d="M98.4958 177.311L107.986 178.152C110.406 178.366 112.63 176.81 113.258 174.464L113.517 173.495C114.236 170.807 112.621 168.049 109.925 167.359L99.7362 164.753L92.9288 163.756C90.2275 163.36 87.7081 165.204 87.2691 167.899L86.794 170.814C86.3299 173.662 88.366 176.311 91.2374 176.594L98.4958 177.311Z" fill="white" stroke="#080809"/>
<path d="M78.3077 170.29L86.798 174.613C88.9628 175.716 91.6067 175.102 93.0653 173.16L93.667 172.358C95.3378 170.133 94.8701 166.971 92.6265 165.325L84.1471 159.103L78.2044 155.636C75.8462 154.26 72.8205 155.031 71.4071 157.367L69.8777 159.894C68.384 162.363 69.284 165.58 71.8419 166.915L78.3077 170.29Z" fill="white" stroke="#080809"/>
<path d="M167.065 131.838L166.516 141.35C166.376 143.775 164.513 145.749 162.1 146.029L161.104 146.144C158.34 146.464 155.846 144.466 155.556 141.698L154.46 131.238L154.464 124.358C154.465 121.628 156.656 119.404 159.386 119.362L162.34 119.316C165.225 119.271 167.549 121.671 167.412 124.553L167.065 131.838Z" fill="white" stroke="#080809"/>
<path d="M163.873 111.218L165.947 120.517C166.476 122.888 165.225 125.297 162.98 126.226L162.054 126.609C159.483 127.674 156.538 126.434 155.501 123.852L151.584 114.091L149.705 107.472C148.96 104.846 150.459 102.107 153.073 101.319L155.901 100.467C158.664 99.6343 161.556 101.306 162.213 104.116L163.873 111.218Z" fill="white" stroke="#080809"/>
<path d="M150.001 92.4008L157.57 98.1873C159.5 99.6627 160.09 102.312 158.969 104.467L158.506 105.356C157.222 107.825 154.169 108.77 151.715 107.459L142.438 102.503L136.743 98.6435C134.483 97.1119 133.869 94.0506 135.364 91.7662L136.982 89.2943C138.562 86.8801 141.852 86.3006 144.162 88.0298L150.001 92.4008Z" fill="white" stroke="#080809"/>
<path d="M127.063 83.8333L136.25 86.3586C138.592 87.0025 140.133 89.237 139.902 91.6553L139.807 92.6529C139.542 95.4231 137.067 97.4442 134.299 97.1492L123.841 96.0345L117.114 94.5926C114.445 94.0204 112.727 91.4127 113.257 88.7344L113.829 85.8362C114.389 83.0055 117.221 81.2345 120.011 81.9711L127.063 83.8333Z" fill="white" stroke="#080809"/>
<path d="M106.814 83.2565L116.328 83.7768C118.753 83.9095 120.733 85.7665 121.02 88.1788L121.138 89.1739C121.467 91.9373 119.476 94.4373 116.709 94.7357L106.252 95.8634L99.3725 95.8806C96.6423 95.8873 94.4115 93.7029 94.3609 90.9733L94.3061 88.0195C94.2526 85.1346 96.6453 82.8033 99.5279 82.9318L106.814 83.2565Z" fill="white" stroke="#080809"/>
<path d="M88.8145 83.3351L98.3279 83.8554C100.754 83.9881 102.733 85.8451 103.02 88.2574L103.138 89.2525C103.467 92.0159 101.476 94.5159 98.7094 94.8143L88.2527 95.9421L81.3726 95.9592C78.6425 95.966 76.4117 93.7815 76.3611 91.0519L76.3063 88.0981C76.2528 85.2132 78.6455 82.8819 81.5281 83.0104L88.8145 83.3351Z" fill="white" stroke="#080809"/>
<path d="M74.2387 30.376L74.7173 20.8604C74.8393 18.4342 76.6876 16.4467 79.0987 16.1492L80.0933 16.0265C82.8552 15.6857 85.3638 17.6655 85.6744 20.4309L86.848 30.8826L86.8952 37.7625C86.914 40.4925 84.7394 42.7329 82.0099 42.7955L79.0565 42.8632C76.1718 42.9293 73.8301 40.5469 73.9459 37.6638L74.2387 30.376Z" fill="white" stroke="#080809"/>
<path d="M74.3964 48.3754L74.875 38.8598C74.997 36.4336 76.8453 34.4461 79.2564 34.1486L80.251 34.0259C83.0129 33.6851 85.5216 35.6649 85.8321 38.4303L87.0057 48.882L87.0529 55.7619C87.0717 58.4919 84.8971 60.7323 82.1677 60.7949L79.2142 60.8626C76.3296 60.9287 73.9878 58.5463 74.1036 55.6632L74.3964 48.3754Z" fill="white" stroke="#080809"/>
<path d="M74.5627 67.3748L75.0413 57.8592C75.1633 55.433 77.0116 53.4455 79.4226 53.148L80.4172 53.0253C83.1791 52.6845 85.6878 54.6643 85.9983 57.4297L87.1719 67.8814L87.2192 74.7612C87.238 77.4913 85.0633 79.7317 82.3339 79.7943L79.3805 79.862C76.4958 79.9281 74.1541 77.5457 74.2699 74.6626L74.5627 67.3748Z" fill="white" stroke="#080809"/>
<path d="M74.7204 85.3741L75.199 75.8585C75.321 73.4322 77.1693 71.4448 79.5803 71.1473L80.575 71.0245C83.3368 70.6837 85.8455 72.6635 86.1561 75.429L87.3296 85.8806L87.3769 92.7605C87.3957 95.4906 85.2211 97.731 82.4916 97.7936L79.5382 97.8613C76.6535 97.9274 74.3118 95.5449 74.4276 92.6619L74.7204 85.3741Z" fill="white" stroke="#080809"/>
<path d="M139.814 15.2566L149.327 15.7769C151.753 15.9096 153.732 17.7666 154.019 20.1789L154.138 21.174C154.466 23.9374 152.476 26.4373 149.709 26.7357L139.252 27.8635L132.372 27.8806C129.642 27.8874 127.411 25.703 127.361 22.9733L127.306 20.0196C127.252 17.1347 129.645 14.8034 132.528 14.9319L139.814 15.2566Z" fill="white" stroke="#080809"/>
<path d="M121.814 15.3353L131.328 15.8556C133.753 15.9882 135.733 17.8452 136.019 20.2575L136.138 21.2527C136.467 24.016 134.476 26.516 131.709 26.8144L121.252 27.9422L114.372 27.9593C111.642 27.9661 109.411 25.7817 109.361 23.052L109.306 20.0983C109.252 17.2133 111.645 14.8821 114.528 15.0105L121.814 15.3353Z" fill="white" stroke="#080809"/>
<path d="M102.814 15.4183L112.328 15.9386C114.753 16.0712 116.733 17.9282 117.02 20.3405L117.138 21.3357C117.467 24.099 115.476 26.599 112.709 26.8974L102.252 28.0252L95.3725 28.0423C92.6423 28.0491 90.4115 25.8647 90.3609 23.135L90.3061 20.1813C90.2526 17.2964 92.6453 14.9651 95.5279 15.0935L102.814 15.4183Z" fill="white" stroke="#080809"/>
<path d="M84.8145 15.4969L94.3279 16.0172C96.7536 16.1498 98.7329 18.0068 99.0198 20.4192L99.1382 21.4143C99.4669 24.1776 97.4761 26.6776 94.7094 26.976L84.2527 28.1038L77.3726 28.1209C74.6425 28.1277 72.4117 25.9433 72.3611 23.2136L72.3063 20.2599C72.2528 17.375 74.6455 15.0437 77.5281 15.1722L84.8145 15.4969Z" fill="white" stroke="#080809"/>
<path d="M160.5 156.5L165.705 148.52C167.032 146.485 166.704 143.791 164.928 142.133L164.196 141.449C162.161 139.55 158.968 139.678 157.092 141.733L150 149.5L145.919 155.039C144.299 157.237 144.742 160.327 146.914 161.982L149.264 163.772C151.559 165.521 154.854 164.97 156.454 162.569L160.5 156.5Z" fill="white" stroke="#080809"/>
<path d="M143.1 172.378L150.817 166.791C152.784 165.366 153.443 162.733 152.379 160.55L151.94 159.649C150.72 157.148 147.693 156.123 145.205 157.37L135.802 162.083L130.008 165.793C127.709 167.265 127.016 170.309 128.451 172.632L130.004 175.145C131.521 177.6 134.795 178.264 137.149 176.596L143.1 172.378Z" fill="white" stroke="#080809"/>
<path d="M120.793 178.143L130.118 176.192C132.496 175.695 134.173 173.56 134.092 171.132L134.059 170.131C133.966 167.349 131.621 165.179 128.841 165.301L118.334 165.765L111.53 166.787C108.83 167.192 106.955 169.688 107.317 172.394L107.709 175.323C108.091 178.183 110.809 180.126 113.639 179.564L120.793 178.143Z" fill="white" stroke="#080809"/>
<path d="M98.4958 177.311L107.986 178.152C110.406 178.366 112.63 176.81 113.258 174.464L113.517 173.495C114.236 170.807 112.622 168.049 109.925 167.359L99.7362 164.753L92.9288 163.756C90.2275 163.36 87.7082 165.204 87.2691 167.899L86.794 170.814C86.33 173.662 88.366 176.311 91.2375 176.594L98.4958 177.311Z" fill="white" stroke="#080809"/>
<path d="M78.3077 170.29L86.798 174.613C88.9628 175.716 91.6067 175.102 93.0653 173.16L93.667 172.358C95.3378 170.133 94.8701 166.971 92.6265 165.325L84.1472 159.103L78.2044 155.636C75.8462 154.26 72.8205 155.031 71.4071 157.367L69.8777 159.894C68.384 162.363 69.284 165.58 71.8419 166.915L78.3077 170.29Z" fill="white" stroke="#080809"/>
<path d="M167.065 131.838L166.516 141.35C166.376 143.775 164.513 145.749 162.1 146.029L161.104 146.144C158.34 146.464 155.846 144.466 155.556 141.698L154.46 131.238L154.464 124.358C154.465 121.628 156.656 119.404 159.386 119.362L162.34 119.316C165.225 119.271 167.549 121.671 167.412 124.553L167.065 131.838Z" fill="white" stroke="#080809"/>
<path d="M163.873 111.218L165.948 120.517C166.477 122.888 165.225 125.297 162.98 126.226L162.054 126.609C159.483 127.674 156.538 126.434 155.501 123.852L151.585 114.091L149.705 107.472C148.96 104.846 150.459 102.107 153.073 101.319L155.901 100.467C158.664 99.6343 161.556 101.306 162.213 104.116L163.873 111.218Z" fill="white" stroke="#080809"/>
<path d="M150.001 92.4008L157.57 98.1873C159.5 99.6627 160.09 102.312 158.969 104.467L158.506 105.356C157.222 107.825 154.169 108.77 151.715 107.459L142.438 102.503L136.743 98.6435C134.483 97.1119 133.869 94.0506 135.364 91.7662L136.982 89.2943C138.562 86.8801 141.852 86.3006 144.162 88.0298L150.001 92.4008Z" fill="white" stroke="#080809"/>
<path d="M127.063 83.8333L136.25 86.3586C138.592 87.0025 140.133 89.237 139.902 91.6553L139.807 92.6529C139.542 95.4231 137.067 97.4442 134.299 97.1492L123.841 96.0345L117.114 94.5926C114.445 94.0204 112.728 91.4127 113.257 88.7344L113.829 85.8362C114.389 83.0055 117.221 81.2345 120.011 81.9711L127.063 83.8333Z" fill="white" stroke="#080809"/>
<path d="M74.2387 30.376L74.7173 20.8604C74.8394 18.4342 76.6877 16.4467 79.0987 16.1492L80.0933 16.0265C82.8552 15.6857 85.3639 17.6655 85.6744 20.4309L86.848 30.8826L86.8953 37.7625C86.914 40.4925 84.7394 42.7329 82.01 42.7955L79.0565 42.8632C76.1719 42.9293 73.8301 40.5469 73.9459 37.6638L74.2387 30.376Z" fill="white" stroke="#080809"/>
<path d="M74.3964 48.3754L74.875 38.8598C74.9971 36.4336 76.8454 34.4461 79.2564 34.1486L80.251 34.0259C83.0129 33.6851 85.5216 35.6649 85.8321 38.4303L87.0057 48.882L87.053 55.7619C87.0717 58.4919 84.8971 60.7323 82.1677 60.7949L79.2142 60.8626C76.3296 60.9287 73.9878 58.5463 74.1037 55.6632L74.3964 48.3754Z" fill="white" stroke="#080809"/>
<path d="M74.5627 67.3748L75.0413 57.8592C75.1633 55.433 77.0116 53.4455 79.4227 53.148L80.4173 53.0253C83.1792 52.6845 85.6878 54.6643 85.9984 57.4297L87.172 67.8814L87.2192 74.7612C87.238 77.4913 85.0634 79.7317 82.334 79.7943L79.3805 79.862C76.4958 79.9281 74.1541 77.5457 74.2699 74.6626L74.5627 67.3748Z" fill="white" stroke="#080809"/>
<path d="M74.7204 85.3741L75.199 75.8585C75.321 73.4322 77.1694 71.4448 79.5804 71.1473L80.575 71.0245C83.3369 70.6837 85.8456 72.6635 86.1561 75.429L87.3297 85.8806L87.377 92.7605C87.3957 95.4906 85.2211 97.731 82.4917 97.7936L79.5382 97.8613C76.6536 97.9274 74.3118 95.5449 74.4276 92.6619L74.7204 85.3741Z" fill="white" stroke="#080809"/>
<path d="M139.814 15.2566L149.327 15.7769C151.753 15.9096 153.732 17.7666 154.019 20.1789L154.138 21.174C154.466 23.9374 152.476 26.4373 149.709 26.7357L139.252 27.8635L132.372 27.8806C129.642 27.8874 127.411 25.703 127.361 22.9733L127.306 20.0196C127.252 17.1347 129.645 14.8034 132.528 14.9319L139.814 15.2566Z" fill="white" stroke="#080809"/>
<path d="M121.814 15.3353L131.328 15.8556C133.753 15.9882 135.733 17.8452 136.02 20.2575L136.138 21.2527C136.467 24.016 134.476 26.516 131.709 26.8144L121.252 27.9422L114.372 27.9593C111.642 27.9661 109.411 25.7817 109.361 23.052L109.306 20.0983C109.252 17.2133 111.645 14.8821 114.528 15.0105L121.814 15.3353Z" fill="white" stroke="#080809"/>
<path d="M102.814 15.4183L112.328 15.9386C114.753 16.0712 116.733 17.9282 117.02 20.3405L117.138 21.3357C117.467 24.099 115.476 26.599 112.709 26.8974L102.252 28.0252L95.3725 28.0423C92.6424 28.0491 90.4115 25.8647 90.3609 23.135L90.3061 20.1813C90.2527 17.2964 92.6454 14.9651 95.5279 15.0935L102.814 15.4183Z" fill="white" stroke="#080809"/>
<path d="M84.8145 15.4969L94.3279 16.0172C96.7536 16.1498 98.7329 18.0068 99.0199 20.4192L99.1382 21.4143C99.4669 24.1776 97.4762 26.6776 94.7094 26.976L84.2527 28.1038L77.3727 28.1209C74.6425 28.1277 72.4117 25.9433 72.3611 23.2136L72.3063 20.2599C72.2528 17.375 74.6455 15.0437 77.5281 15.1722L84.8145 15.4969Z" fill="white" stroke="#080809"/>
</svg>
