<svg width="220" height="195" viewBox="0 0 220 195" fill="none" xmlns="http://www.w3.org/2000/svg">
<g clip-path="url(#clip0)">
<rect width="220" height="195" fill="none"/>
<path d="M149.5 161.5L154.705 153.52C156.032 151.485 155.704 148.791 153.928 147.133L153.196 146.449C151.161 144.55 147.968 144.678 146.092 146.733L139 154.5L134.919 160.039C133.299 162.237 133.742 165.327 135.914 166.982L138.264 168.772C140.559 170.521 143.854 169.97 145.454 167.569L149.5 161.5Z" fill="white" stroke="#080809"/>
<path d="M132.1 177.378L139.817 171.791C141.784 170.366 142.443 167.733 141.379 165.55L140.94 164.649C139.72 162.148 136.693 161.123 134.205 162.37L124.802 167.083L119.008 170.793C116.709 172.265 116.016 175.309 117.451 177.632L119.004 180.145C120.521 182.6 123.795 183.264 126.149 181.596L132.1 177.378Z" fill="white" stroke="#080809"/>
<path d="M83.6273 18.4893L75.9101 24.0768C73.9424 25.5015 73.2835 28.1344 74.3481 30.318L74.7873 31.2187C76.0068 33.7201 79.034 34.7444 81.5219 33.4975L90.9244 28.7851L96.7184 25.075C99.0176 23.6028 99.7107 20.5585 98.2756 18.236L96.7227 15.7228C95.2059 13.2683 91.9321 12.6034 89.578 14.2718L83.6273 18.4893Z" fill="white" stroke="#080809"/>
<path d="M105.934 12.7251L96.6085 14.6757C94.2307 15.1731 92.5544 17.3076 92.6349 19.7356L92.6681 20.7372C92.7604 23.5185 95.1057 25.6893 97.8859 25.5665L108.393 25.1027L115.197 24.081C117.897 23.6755 119.772 21.1793 119.41 18.4733L119.018 15.5452C118.636 12.6852 115.918 10.7419 113.088 11.3041L105.934 12.7251Z" fill="white" stroke="#080809"/>
<path d="M128.231 13.5565L118.741 12.7158C116.321 12.5015 114.097 14.0575 113.469 16.4043L113.21 17.3724C112.491 20.0607 114.105 22.8189 116.801 23.5085L126.991 26.1148L133.798 27.1122C136.499 27.5079 139.019 25.6637 139.458 22.9691L139.933 20.0533C140.397 17.2054 138.361 14.557 135.489 14.2734L128.231 13.5565Z" fill="white" stroke="#080809"/>
<path d="M146.909 26.5831L140.169 19.8492C138.451 18.1322 135.747 17.8989 133.76 19.2962L132.94 19.8726C130.663 21.4733 130.132 24.6245 131.757 26.8833L137.901 35.4199L142.482 40.5526C144.3 42.5893 147.416 42.7912 149.482 41.006L151.717 39.0744C153.9 37.1877 154.037 33.8499 152.017 31.79L146.909 26.5831Z" fill="white" stroke="#080809"/>
<path d="M109.793 183.143L119.118 181.192C121.496 180.695 123.173 178.56 123.092 176.132L123.059 175.131C122.966 172.349 120.621 170.179 117.841 170.301L107.334 170.765L100.53 171.787C97.8303 172.192 95.9548 174.688 96.3169 177.394L96.7087 180.323C97.0913 183.183 99.8085 185.126 102.639 184.564L109.793 183.143Z" fill="white" stroke="#080809"/>
<path d="M87.4958 182.311L96.9863 183.152C99.4061 183.366 101.63 181.81 102.258 179.464L102.517 178.495C103.236 175.807 101.622 173.049 98.9255 172.359L88.7362 169.753L81.9288 168.756C79.2275 168.36 76.7082 170.204 76.2691 172.899L75.794 175.814C75.33 178.662 77.366 181.311 80.2375 181.594L87.4958 182.311Z" fill="white" stroke="#080809"/>
<path d="M68.8175 169.285L75.5576 176.019C77.2762 177.736 79.9802 177.969 81.9674 176.572L82.7872 175.995C85.0637 174.395 85.5952 171.243 83.9697 168.985L77.8264 160.448L73.2448 155.315C71.4268 153.278 68.3111 153.077 66.2454 154.862L64.0102 156.793C61.8271 158.68 61.6895 162.018 63.7101 164.078L68.8175 169.285Z" fill="white" stroke="#080809"/>
<path d="M156.065 136.838L155.516 146.35C155.376 148.775 153.513 150.749 151.1 151.029L150.104 151.144C147.34 151.464 144.846 149.466 144.556 146.698L143.46 136.238L143.464 129.358C143.465 126.628 145.656 124.404 148.386 124.362L151.34 124.316C154.225 124.271 156.549 126.671 156.412 129.553L156.065 136.838Z" fill="white" stroke="#080809"/>
<path d="M152.873 116.218L154.948 125.517C155.477 127.888 154.225 130.297 151.98 131.226L151.054 131.609C148.483 132.674 145.538 131.434 144.501 128.852L140.585 119.091L138.705 112.472C137.96 109.846 139.459 107.107 142.073 106.319L144.901 105.467C147.664 104.634 150.556 106.306 151.213 109.116L152.873 116.218Z" fill="white" stroke="#080809"/>
<path d="M139.001 97.4008L146.57 103.187C148.5 104.663 149.09 107.312 147.969 109.467L147.506 110.356C146.222 112.825 143.169 113.77 140.715 112.459L131.438 107.503L125.743 103.643C123.483 102.112 122.869 99.0506 124.364 96.7662L125.982 94.2943C127.562 91.8801 130.852 91.3006 133.162 93.0298L139.001 97.4008Z" fill="white" stroke="#080809"/>
<path d="M116.063 88.8333L125.25 91.3586C127.592 92.0025 129.133 94.237 128.902 96.6553L128.807 97.6529C128.542 100.423 126.067 102.444 123.299 102.149L112.841 101.034L106.114 99.5926C103.445 99.0204 101.728 96.4127 102.257 93.7344L102.829 90.8362C103.389 88.0055 106.221 86.2345 109.011 86.9711L116.063 88.8333Z" fill="white" stroke="#080809"/>
<path d="M95.8143 88.2565L105.328 88.7768C107.753 88.9095 109.733 90.7665 110.02 93.1788L110.138 94.1739C110.467 96.9373 108.476 99.4373 105.709 99.7357L95.2525 100.863L88.3725 100.881C85.6424 100.887 83.4115 98.7029 83.3609 95.9733L83.3061 93.0195C83.2527 90.1346 85.6454 87.8033 88.5279 87.9318L95.8143 88.2565Z" fill="white" stroke="#080809"/>
<path d="M77.8145 88.3351L87.3279 88.8554C89.7536 88.9881 91.7329 90.8451 92.0198 93.2574L92.1382 94.2525C92.4669 97.0159 90.4761 99.5159 87.7094 99.8143L77.2527 100.942L70.3726 100.959C67.6425 100.966 65.4117 98.7815 65.3611 96.0519L65.3063 93.0981C65.2528 90.2132 67.6455 87.8819 70.5281 88.0104L77.8145 88.3351Z" fill="white" stroke="#080809"/>
<path d="M69.612 33.2143L74.8782 25.2744C76.221 23.2499 78.8246 22.4835 81.05 23.4576L81.9681 23.8595C84.5174 24.9754 85.665 27.958 84.5212 30.4949L80.1984 40.0829L76.7292 46.0242C75.3525 48.3818 72.3392 49.1993 69.9598 47.8606L67.385 46.4121C64.8703 44.9973 64.0717 41.7535 65.6422 39.333L69.612 33.2143Z" fill="white" stroke="#080809"/>
<path d="M63.3964 53.3754L63.875 43.8598C63.9971 41.4336 65.8454 39.4461 68.2564 39.1486L69.251 39.0259C72.0129 38.6851 74.5216 40.6649 74.8321 43.4303L76.0057 53.882L76.053 60.7619C76.0717 63.4919 73.8971 65.7323 71.1677 65.7949L68.2142 65.8626C65.3296 65.9287 62.9878 63.5463 63.1037 60.6632L63.3964 53.3754Z" fill="white" stroke="#080809"/>
<path d="M63.5627 72.3748L64.0413 62.8592C64.1633 60.433 66.0116 58.4455 68.4227 58.148L69.4173 58.0253C72.1792 57.6845 74.6878 59.6643 74.9984 62.4297L76.172 72.8814L76.2192 79.7612C76.238 82.4913 74.0634 84.7317 71.334 84.7943L68.3805 84.862C65.4958 84.9281 63.1541 82.5457 63.2699 79.6626L63.5627 72.3748Z" fill="white" stroke="#080809"/>
<path d="M63.7204 90.3741L64.199 80.8585C64.321 78.4322 66.1694 76.4448 68.5804 76.1473L69.575 76.0245C72.3369 75.6837 74.8456 77.6635 75.1561 80.429L76.3297 90.8806L76.377 97.7605C76.3957 100.491 74.2211 102.731 71.4917 102.794L68.5382 102.861C65.6536 102.927 63.3118 100.545 63.4276 97.6619L63.7204 90.3741Z" fill="white" stroke="#080809"/>
<path d="M63.2387 110.376L63.7173 100.86C63.8394 98.4342 65.6877 96.4467 68.0987 96.1492L69.0933 96.0265C71.8552 95.6857 74.3639 97.6655 74.6744 100.431L75.848 110.883L75.8953 117.762C75.914 120.493 73.7394 122.733 71.01 122.796L68.0565 122.863C65.1719 122.929 62.8301 120.547 62.9459 117.664L63.2387 110.376Z" fill="white" stroke="#080809"/>
<path d="M63.2387 129.376L63.7173 119.86C63.8394 117.434 65.6877 115.447 68.0987 115.149L69.0933 115.027C71.8552 114.686 74.3639 116.665 74.6744 119.431L75.848 129.883L75.8953 136.762C75.914 139.493 73.7394 141.733 71.01 141.796L68.0565 141.863C65.1719 141.929 62.8301 139.547 62.9459 136.664L63.2387 129.376Z" fill="white" stroke="#080809"/>
<path d="M63.2387 147.376L63.7173 137.86C63.8394 135.434 65.6877 133.447 68.0987 133.149L69.0933 133.027C71.8552 132.686 74.3639 134.665 74.6744 137.431L75.848 147.883L75.8953 154.762C75.914 157.493 73.7394 159.733 71.01 159.796L68.0565 159.863C65.1719 159.929 62.8301 157.547 62.9459 154.664L63.2387 147.376Z" fill="white" stroke="#080809"/>
</g>
<defs>
<clipPath id="clip0">
<rect width="220" height="195" fill="white"/>
</clipPath>
</defs>
</svg>
