<svg width="217" height="196" viewBox="0 0 217 196" fill="none" xmlns="http://www.w3.org/2000/svg">
<rect width="217" height="196" fill="none"/>
<path d="M130.501 164.641L128.117 173.866C127.509 176.218 125.298 177.792 122.876 177.598L121.878 177.518C119.104 177.296 117.045 174.852 117.297 172.08L118.252 161.607L119.591 154.858C120.122 152.18 122.703 150.423 125.389 150.911L128.296 151.44C131.135 151.956 132.949 154.761 132.255 157.562L130.501 164.641Z" fill="white" stroke="#080809"/>
<path d="M133.97 146.979L131.586 156.203C130.978 158.555 128.767 160.13 126.345 159.936L125.347 159.856C122.573 159.634 120.514 157.189 120.766 154.418L121.721 143.944L123.06 137.195C123.591 134.518 126.172 132.761 128.858 133.249L131.765 133.777C134.604 134.293 136.418 137.098 135.724 139.899L133.97 146.979Z" fill="white" stroke="#080809"/>
<path d="M137.632 128.335L135.248 137.559C134.64 139.911 132.429 141.486 130.008 141.292L129.009 141.212C126.235 140.99 124.176 138.546 124.428 135.774L125.383 125.3L126.722 118.552C127.253 115.874 129.834 114.117 132.52 114.605L135.427 115.133C138.266 115.649 140.08 118.455 139.386 121.255L137.632 128.335Z" fill="white" stroke="#080809"/>
<path d="M141.101 110.672L138.717 119.897C138.109 122.249 135.898 123.823 133.477 123.629L132.478 123.549C129.704 123.327 127.645 120.883 127.897 118.112L128.852 107.638L130.191 100.889C130.722 98.2112 133.303 96.4545 135.989 96.9427L138.896 97.4709C141.735 97.9869 143.549 100.792 142.855 103.593L141.101 110.672Z" fill="white" stroke="#080809"/>
<path d="M144.185 94.9722L141.801 104.197C141.193 106.549 138.982 108.123 136.561 107.929L135.562 107.849C132.788 107.627 130.729 105.183 130.981 102.412L131.936 91.9376L133.275 85.189C133.806 82.5111 136.387 80.7543 139.073 81.2425L141.98 81.7708C144.819 82.2867 146.633 85.0918 145.939 87.8926L144.185 94.9722Z" fill="white" stroke="#080809"/>
<path d="M147.654 77.3097L145.27 86.5342C144.662 88.8862 142.451 90.4608 140.03 90.2669L139.031 90.1869C136.257 89.9647 134.198 87.5204 134.45 84.749L135.405 74.2751L136.744 67.5266C137.275 64.8486 139.856 63.0919 142.542 63.5801L145.449 64.1083C148.288 64.6243 150.102 67.4294 149.408 70.2301L147.654 77.3097Z" fill="white" stroke="#080809"/>
<path d="M151.316 58.6659L148.932 67.8904C148.324 70.2424 146.113 71.817 143.692 71.6231L142.693 71.5431C139.919 71.3209 137.86 68.8766 138.113 66.1052L139.067 55.6313L140.406 48.8828C140.937 46.2048 143.518 44.4481 146.204 44.9363L149.111 45.4645C151.95 45.9805 153.764 48.7856 153.07 51.5863L151.316 58.6659Z" fill="white" stroke="#080809"/>
<path d="M154.785 41.0034L152.401 50.2278C151.793 52.5798 149.582 54.1545 147.161 53.9605L146.162 53.8805C143.388 53.6583 141.329 51.2141 141.582 48.4427L142.536 37.9688L143.875 31.2202C144.406 28.5423 146.987 26.7855 149.673 27.2737L152.58 27.802C155.419 28.3179 157.233 31.123 156.539 33.9238L154.785 41.0034Z" fill="white" stroke="#080809"/>
<path d="M69.3547 39.0514L59.8413 38.5311C57.4156 38.3984 55.4363 36.5414 55.1494 34.1291L55.031 33.134C54.7023 30.3706 56.6931 27.8706 59.4599 27.5722L69.9166 26.4445L76.7966 26.4273C79.5267 26.4205 81.7576 28.605 81.8082 31.3346L81.8629 34.2884C81.9164 37.1733 79.5237 39.5046 76.6412 39.3761L69.3547 39.0514Z" fill="white" stroke="#080809"/>
<path d="M88.3547 39.0514L78.8413 38.5311C76.4156 38.3984 74.4363 36.5414 74.1494 34.1291L74.031 33.134C73.7023 30.3706 75.6931 27.8706 78.4599 27.5722L88.9166 26.4445L95.7966 26.4273C98.5267 26.4205 100.758 28.605 100.808 31.3346L100.863 34.2884C100.916 37.1733 98.5237 39.5046 95.6412 39.3761L88.3547 39.0514Z" fill="white" stroke="#080809"/>
<path d="M107.355 39.0514L97.8413 38.5311C95.4156 38.3984 93.4363 36.5414 93.1493 34.1291L93.031 33.134C92.7023 30.3706 94.693 27.8706 97.4598 27.5722L107.917 26.4445L114.797 26.4273C117.527 26.4205 119.757 28.605 119.808 31.3346L119.863 34.2884C119.916 37.1733 117.524 39.5046 114.641 39.3761L107.355 39.0514Z" fill="white" stroke="#080809"/>
<path d="M125.355 39.0514L115.841 38.5311C113.416 38.3984 111.436 36.5414 111.149 34.1291L111.031 33.134C110.702 30.3706 112.693 27.8706 115.46 27.5722L125.917 26.4445L132.797 26.4273C135.527 26.4205 137.757 28.605 137.808 31.3346L137.863 34.2884C137.916 37.1733 135.524 39.5046 132.641 39.3761L125.355 39.0514Z" fill="white" stroke="#080809"/>
<path d="M144.355 39.0514L134.841 38.5311C132.416 38.3984 130.436 36.5414 130.149 34.1291L130.031 33.134C129.702 30.3706 131.693 27.8706 134.46 27.5722L144.917 26.4445L151.797 26.4273C154.527 26.4205 156.757 28.605 156.808 31.3346L156.863 34.2884C156.916 37.1733 154.524 39.5046 151.641 39.3761L144.355 39.0514Z" fill="white" stroke="#080809"/>
</svg>
