<svg width="218" height="198" viewBox="0 0 218 198" fill="none" xmlns="http://www.w3.org/2000/svg">
<g clip-path="url(#clip0)">
<rect width="218" height="198" fill="none"/>
<path d="M157.5 167.5L162.705 159.52C164.032 157.485 163.704 154.791 161.928 153.133L161.196 152.449C159.161 150.55 155.968 150.678 154.092 152.733L147 160.5L142.919 166.039C141.299 168.237 141.742 171.327 143.914 172.982L146.264 174.772C148.559 176.521 151.854 175.97 153.454 173.569L157.5 167.5Z" fill="white" stroke="#080809"/>
<path d="M140.099 183.378L147.817 177.791C149.784 176.366 150.443 173.733 149.379 171.55L148.94 170.649C147.72 168.148 144.693 167.123 142.205 168.37L132.802 173.083L127.008 176.793C124.709 178.265 124.016 181.309 125.451 183.632L127.004 186.145C128.521 188.6 131.795 189.264 134.149 187.596L140.099 183.378Z" fill="white" stroke="#080809"/>
<path d="M117.792 189.143L127.118 187.192C129.496 186.695 131.172 184.56 131.092 182.132L131.059 181.131C130.966 178.349 128.621 176.179 125.841 176.301L115.334 176.765L108.53 177.787C105.83 178.192 103.955 180.688 104.317 183.394L104.709 186.323C105.091 189.183 107.808 191.126 110.639 190.564L117.792 189.143Z" fill="white" stroke="#080809"/>
<path d="M95.4958 188.311L104.986 189.152C107.406 189.366 109.63 187.81 110.258 185.464L110.517 184.495C111.236 181.807 109.621 179.049 106.925 178.359L96.7361 175.753L89.9288 174.756C87.2275 174.36 84.7081 176.204 84.269 178.899L83.7939 181.814C83.3299 184.662 85.366 187.311 88.2374 187.594L95.4958 188.311Z" fill="white" stroke="#080809"/>
<path d="M75.3077 181.29L83.798 185.613C85.9628 186.716 88.6067 186.102 90.0652 184.16L90.6669 183.358C92.3377 181.133 91.8701 177.971 89.6265 176.325L81.1471 170.103L75.2044 166.636C72.8462 165.26 69.8204 166.031 68.4071 168.367L66.8777 170.894C65.3839 173.363 66.2839 176.58 68.8418 177.915L75.3077 181.29Z" fill="white" stroke="#080809"/>
<path d="M164.065 142.838L163.516 152.35C163.376 154.775 161.513 156.749 159.1 157.029L158.104 157.144C155.34 157.464 152.846 155.466 152.556 152.698L151.46 142.238L151.464 135.358C151.465 132.628 153.656 130.404 156.386 130.362L159.34 130.316C162.225 130.271 164.549 132.671 164.412 135.553L164.065 142.838Z" fill="white" stroke="#080809"/>
<path d="M160.873 122.218L162.947 131.517C163.476 133.888 162.225 136.297 159.98 137.226L159.054 137.609C156.483 138.674 153.537 137.434 152.501 134.852L148.584 125.091L146.705 118.472C145.96 115.846 147.458 113.107 150.072 112.319L152.901 111.467C155.664 110.634 158.556 112.306 159.213 115.116L160.873 122.218Z" fill="white" stroke="#080809"/>
<path d="M147.001 103.401L154.57 109.187C156.5 110.663 157.09 113.312 155.969 115.467L155.506 116.356C154.222 118.825 151.169 119.77 148.715 118.459L139.438 113.503L133.743 109.643C131.482 108.112 130.869 105.051 132.364 102.766L133.982 100.294C135.562 97.8801 138.852 97.3006 141.162 99.0298L147.001 103.401Z" fill="white" stroke="#080809"/>
<path d="M124.063 94.8333L133.25 97.3586C135.592 98.0025 137.133 100.237 136.902 102.655L136.807 103.653C136.542 106.423 134.067 108.444 131.299 108.149L120.841 107.034L114.114 105.593C111.444 105.02 109.727 102.413 110.257 99.7344L110.829 96.8362C111.389 94.0055 114.221 92.2345 117.011 92.9711L124.063 94.8333Z" fill="white" stroke="#080809"/>
<path d="M59.8338 167.5L54.6292 159.52C53.3021 157.485 53.6297 154.791 55.4056 153.133L56.1383 152.449C58.1727 150.55 61.3659 150.678 63.2423 152.733L70.3338 160.5L74.415 166.039C76.0345 168.237 75.5916 171.327 73.42 172.982L71.0701 174.772C68.7749 176.521 65.4801 175.97 63.8796 173.569L59.8338 167.5Z" fill="white" stroke="#080809"/>
<path d="M53.2687 142.838L53.8179 152.35C53.9579 154.775 55.8209 156.749 58.2341 157.029L59.2296 157.144C61.9939 157.464 64.4878 155.466 64.7778 152.698L65.8738 142.238L65.8701 135.358C65.8686 132.628 63.6774 130.404 60.9476 130.362L57.9937 130.316C55.1086 130.271 52.7846 132.671 52.9218 135.553L53.2687 142.838Z" fill="white" stroke="#080809"/>
<path d="M56.4611 122.218L54.3864 131.517C53.8573 133.888 55.1091 136.297 57.3536 137.226L58.2796 137.609C60.8507 138.674 63.7963 137.434 64.8326 134.852L68.7493 125.091L70.6285 118.472C71.3742 115.846 69.8753 113.107 67.2613 112.319L64.4327 111.467C61.67 110.634 58.778 112.306 58.1213 115.116L56.4611 122.218Z" fill="white" stroke="#080809"/>
<path d="M70.3332 103.401L62.764 109.187C60.8341 110.663 60.2439 113.312 61.365 115.467L61.8275 116.356C63.1118 118.825 66.1646 119.77 68.6191 118.459L77.8958 113.503L83.5913 109.643C85.8513 108.112 86.465 105.051 84.9699 102.766L83.3521 100.294C81.772 97.8801 78.4819 97.3006 76.1721 99.0298L70.3332 103.401Z" fill="white" stroke="#080809"/>
<path d="M59.8338 31.3678L54.6292 39.3482C53.3021 41.383 53.6297 44.0773 55.4056 45.7348L56.1383 46.4186C58.1727 48.3174 61.3659 48.1898 63.2423 46.1347L70.3338 38.3678L74.415 32.829C76.0345 30.6311 75.5916 27.5404 73.42 25.8858L71.0701 24.0954C68.7749 22.3468 65.4801 22.8983 63.8796 25.2991L59.8338 31.3678Z" fill="white" stroke="#080809"/>
<path d="M53.2687 56.0294L53.8179 46.5176C53.9579 44.0924 55.8209 42.1187 58.2341 41.8391L59.2296 41.7237C61.9939 41.4034 64.4878 43.4018 64.7778 46.1695L65.8738 56.6295L65.8701 63.5096C65.8686 66.2397 63.6774 68.4639 60.9476 68.5062L57.9937 68.552C55.1086 68.5967 52.7846 66.197 52.9218 63.3148L53.2687 56.0294Z" fill="white" stroke="#080809"/>
<path d="M56.4611 76.6494L54.3864 67.3505C53.8573 64.9794 55.1091 62.5713 57.3536 61.6419L58.2796 61.2586C60.8507 60.194 63.7963 61.4336 64.8326 64.0162L68.7493 73.7771L70.6285 80.3955C71.3742 83.0218 69.8753 85.7608 67.2613 86.5485L64.4327 87.4009C61.67 88.2335 58.778 86.5613 58.1213 83.7516L56.4611 76.6494Z" fill="white" stroke="#080809"/>
<path d="M70.3332 95.467L62.764 89.6805C60.8341 88.2051 60.2439 85.556 61.365 83.4009L61.8275 82.5118C63.1118 80.043 66.1646 79.0979 68.6191 80.4091L77.8958 85.3647L83.5913 89.2243C85.8513 90.7559 86.465 93.8172 84.9699 96.1016L83.3521 98.5735C81.772 100.988 78.4819 101.567 76.1721 99.838L70.3332 95.467Z" fill="white" stroke="#080809"/>
<path d="M86.9588 94.3297L96.4608 95.0275C98.8836 95.2054 100.828 97.099 101.07 99.5163L101.17 100.513C101.447 103.282 99.4095 105.745 96.6376 105.992L86.1617 106.924L79.2826 106.813C76.5528 106.768 74.3631 104.543 74.3635 101.813L74.3639 98.8583C74.3642 95.9729 76.8 93.6867 79.6797 93.869L86.9588 94.3297Z" fill="white" stroke="#080809"/>
<path d="M102.959 94.3297L112.461 95.0275C114.884 95.2054 116.828 97.099 117.07 99.5163L117.17 100.513C117.447 103.282 115.41 105.745 112.638 105.992L102.162 106.924L95.2826 106.813C92.5528 106.768 90.3631 104.543 90.3635 101.813L90.3639 98.8583C90.3642 95.9729 92.8 93.6867 95.6797 93.869L102.959 94.3297Z" fill="white" stroke="#080809"/>
<path d="M157.5 31.3678L162.705 39.3482C164.032 41.383 163.704 44.0773 161.928 45.7348L161.196 46.4186C159.161 48.3174 155.968 48.1898 154.092 46.1347L147 38.3678L142.919 32.829C141.299 30.6311 141.742 27.5404 143.914 25.8858L146.264 24.0954C148.559 22.3468 151.854 22.8983 153.454 25.2991L157.5 31.3678Z" fill="white" stroke="#080809"/>
<path d="M140.099 15.4894L147.817 21.0768C149.784 22.5015 150.443 25.1344 149.379 27.318L148.94 28.2188C147.72 30.7201 144.693 31.7445 142.205 30.4976L132.802 25.7851L127.008 22.0751C124.709 20.6029 124.016 17.5585 125.451 15.236L127.004 12.7229C128.521 10.2683 131.795 9.60341 134.149 11.2719L140.099 15.4894Z" fill="white" stroke="#080809"/>
<path d="M117.792 9.72515L127.118 11.6757C129.496 12.1731 131.172 14.3076 131.092 16.7356L131.059 17.7372C130.966 20.5185 128.621 22.6893 125.841 22.5666L115.334 22.1027L108.53 21.081C105.83 20.6755 103.955 18.1793 104.317 15.4733L104.709 12.5452C105.091 9.68527 107.808 7.74193 110.639 8.30411L117.792 9.72515Z" fill="white" stroke="#080809"/>
<path d="M95.4958 10.5565L104.986 9.71585C107.406 9.5015 109.63 11.0575 110.258 13.4043L110.517 14.3724C111.236 17.0607 109.621 19.8189 106.925 20.5085L96.7361 23.1148L89.9288 24.1122C87.2275 24.5079 84.7081 22.6637 84.269 19.9691L83.7939 17.0533C83.3299 14.2055 85.366 11.557 88.2374 11.2734L95.4958 10.5565Z" fill="white" stroke="#080809"/>
<path d="M75.3077 17.5778L83.798 13.2545C85.9628 12.1522 88.6067 12.7654 90.0652 14.7081L90.6669 15.5096C92.3377 17.735 91.8701 20.8964 89.6265 22.5427L81.1471 28.7648L75.2044 32.2316C72.8462 33.6074 69.8204 32.8371 68.4071 30.5013L66.8777 27.9737C65.3839 25.5051 66.2839 22.288 68.8418 20.9528L75.3077 17.5778Z" fill="white" stroke="#080809"/>
<path d="M164.065 56.0294L163.516 46.5176C163.376 44.0924 161.513 42.1187 159.1 41.8391L158.104 41.7237C155.34 41.4034 152.846 43.4018 152.556 46.1695L151.46 56.6295L151.464 63.5096C151.465 66.2397 153.656 68.4639 156.386 68.5062L159.34 68.552C162.225 68.5967 164.549 66.197 164.412 63.3148L164.065 56.0294Z" fill="white" stroke="#080809"/>
<path d="M160.873 76.6494L162.947 67.3505C163.476 64.9794 162.225 62.5713 159.98 61.6419L159.054 61.2586C156.483 60.194 153.537 61.4336 152.501 64.0162L148.584 73.7771L146.705 80.3955C145.96 83.0218 147.458 85.7608 150.072 86.5485L152.901 87.4009C155.664 88.2335 158.556 86.5613 159.213 83.7516L160.873 76.6494Z" fill="white" stroke="#080809"/>
<path d="M147.001 95.467L154.57 89.6805C156.5 88.2051 157.09 85.556 155.969 83.4009L155.506 82.5118C154.222 80.043 151.169 79.0979 148.715 80.4091L139.438 85.3647L133.743 89.2243C131.482 90.7559 130.869 93.8172 132.364 96.1016L133.982 98.5735C135.562 100.988 138.852 101.567 141.162 99.838L147.001 95.467Z" fill="white" stroke="#080809"/>
<path d="M124.063 104.035L133.25 101.509C135.592 100.865 137.133 98.6308 136.902 96.2125L136.807 95.2149C136.542 92.4447 134.067 90.4236 131.299 90.7186L120.841 91.8333L114.114 93.2752C111.444 93.8474 109.727 96.4551 110.257 99.1334L110.829 102.032C111.389 104.862 114.221 106.633 117.011 105.897L124.063 104.035Z" fill="white" stroke="#080809"/>
</g>
<defs>
<clipPath id="clip0">
<rect width="218" height="198" fill="white"/>
</clipPath>
</defs>
</svg>
