<svg width="215" height="200" viewBox="0 0 215 200" fill="none" xmlns="http://www.w3.org/2000/svg">
<rect width="215" height="200" fill="none"/>
<path d="M66.4602 34.5L61.2556 42.4804C59.9285 44.5152 60.2561 47.2095 62.032 48.867L62.7647 49.5508C64.7991 51.4496 67.9923 51.322 69.8687 49.2669L76.9602 41.5L81.0414 35.9612C82.661 33.7633 82.218 30.6726 80.0464 29.018L77.6965 27.2276C75.4013 25.479 72.1065 26.0305 70.506 28.4313L66.4602 34.5Z" fill="white" stroke="#080809"/>
<path d="M83.8607 18.6216L76.1435 24.209C74.1758 25.6337 73.5169 28.2666 74.5815 30.4502L75.0207 31.351C76.2402 33.8523 79.2674 34.8767 81.7553 33.6298L91.1578 28.9173L96.9518 25.2073C99.251 23.7351 99.9441 20.6907 98.509 18.3682L96.9561 15.8551C95.4393 13.4005 92.1655 12.7356 89.8114 14.4041L83.8607 18.6216Z" fill="white" stroke="#080809"/>
<path d="M132.333 177.511L140.05 171.923C142.018 170.498 142.677 167.866 141.612 165.682L141.173 164.781C139.953 162.28 136.926 161.256 134.438 162.502L125.036 167.215L119.242 170.925C116.943 172.397 116.249 175.441 117.685 177.764L119.238 180.277C120.754 182.732 124.028 183.397 126.382 181.728L132.333 177.511Z" fill="white" stroke="#080809"/>
<path d="M110.026 183.275L119.352 181.324C121.73 180.827 123.406 178.692 123.325 176.264L123.292 175.263C123.2 172.481 120.854 170.311 118.074 170.433L107.567 170.897L100.763 171.919C98.0636 172.324 96.1881 174.821 96.5502 177.527L96.942 180.455C97.3247 183.315 100.042 185.258 102.872 184.696L110.026 183.275Z" fill="white" stroke="#080809"/>
<path d="M87.7291 182.443L97.2196 183.284C99.6394 183.498 101.863 181.943 102.491 179.596L102.75 178.628C103.469 175.939 101.855 173.181 99.1588 172.491L88.9695 169.885L82.1622 168.888C79.4609 168.492 76.9415 170.336 76.5024 173.031L76.0273 175.947C75.5633 178.795 77.5994 181.443 80.4708 181.727L87.7291 182.443Z" fill="white" stroke="#080809"/>
<path d="M69.0507 169.417L75.7909 176.151C77.5094 177.868 80.2135 178.101 82.2007 176.704L83.0205 176.127C85.2969 174.527 85.8284 171.375 84.2029 169.117L78.0596 160.58L73.4781 155.447C71.66 153.411 68.5443 153.209 66.4786 154.994L64.2434 156.926C62.0603 158.812 61.9228 162.15 63.9433 164.21L69.0507 169.417Z" fill="white" stroke="#080809"/>
<path d="M106.168 12.8574L96.8419 14.8079C94.464 15.3053 92.7878 17.4398 92.8683 19.8678L92.9015 20.8694C92.9938 23.6507 95.3391 25.8215 98.1193 25.6988L108.626 25.235L115.43 24.2132C118.13 23.8077 120.005 21.3115 119.643 18.6055L119.252 15.6774C118.869 12.8175 116.152 10.8741 113.322 11.4363L106.168 12.8574Z" fill="white" stroke="#080809"/>
<path d="M128.464 13.6887L118.974 12.8481C116.554 12.6337 114.33 14.1897 113.703 16.5365L113.444 17.5046C112.725 20.1929 114.339 22.9511 117.035 23.6407L127.224 26.247L134.031 27.2444C136.733 27.6401 139.252 25.7959 139.691 23.1013L140.166 20.1855C140.63 17.3377 138.594 14.6892 135.723 14.4056L128.464 13.6887Z" fill="white" stroke="#080809"/>
<path d="M147.143 26.7153L140.403 19.9814C138.684 18.2644 135.98 18.0311 133.993 19.4284L133.173 20.0048C130.897 21.6055 130.365 24.7567 131.991 27.0155L138.134 35.5521L142.715 40.6848C144.534 42.7215 147.649 42.9234 149.715 41.1382L151.95 39.2066C154.133 37.3199 154.271 33.9821 152.25 31.9222L147.143 26.7153Z" fill="white" stroke="#080809"/>
<path d="M59.8951 59.1616L60.4443 49.6498C60.5843 47.2246 62.4473 45.2509 64.8605 44.9713L65.856 44.8559C68.6203 44.5356 71.1143 46.534 71.4042 49.3017L72.5002 59.7617L72.4965 66.6418C72.495 69.3719 70.3038 71.5961 67.574 71.6384L64.6201 71.6842C61.735 71.7289 59.411 69.3292 59.5482 66.447L59.8951 59.1616Z" fill="white" stroke="#080809"/>
<path d="M63.0875 79.7816L61.0128 70.4827C60.4837 68.1116 61.7355 65.7035 63.98 64.7741L64.906 64.3908C67.4771 63.3262 70.4227 64.5658 71.459 67.1484L75.3757 76.9093L77.2549 83.5277C78.0006 86.154 76.5017 88.893 73.8877 89.6807L71.0591 90.5331C68.2964 91.3657 65.4044 89.6935 64.7477 86.8838L63.0875 79.7816Z" fill="white" stroke="#080809"/>
<path d="M76.9596 98.5992L69.3905 92.8127C67.4605 91.3373 66.8703 88.6882 67.9914 86.5331L68.4539 85.644C69.7382 83.1752 72.791 82.2301 75.2455 83.5413L84.5222 88.4969L90.2177 92.3565C92.4777 93.8881 93.0914 96.9494 91.5963 99.2338L89.9785 101.706C88.3984 104.12 85.1083 104.699 82.7985 102.97L76.9596 98.5992Z" fill="white" stroke="#080809"/>
<path d="M99.8972 107.167L90.7103 104.641C88.3679 103.997 86.8273 101.763 87.0583 99.3447L87.1536 98.3471C87.4182 95.5769 89.8937 93.5558 92.6609 93.8508L103.119 94.9655L109.846 96.4074C112.516 96.9796 114.233 99.5873 113.703 102.266L113.131 105.164C112.571 107.994 109.739 109.766 106.949 109.029L99.8972 107.167Z" fill="white" stroke="#080809"/>
<path d="M120.146 107.744L110.633 107.223C108.207 107.091 106.228 105.234 105.941 102.821L105.822 101.826C105.494 99.0627 107.484 96.5628 110.251 96.2644L120.708 95.1366L127.588 95.1195C130.318 95.1127 132.549 97.2971 132.599 100.027L132.654 102.981C132.708 105.865 130.315 108.197 127.432 108.068L120.146 107.744Z" fill="white" stroke="#080809"/>
<path d="M138.146 107.665L128.632 107.145C126.207 107.012 124.227 105.155 123.94 102.743L123.822 101.747C123.493 98.9841 125.484 96.4841 128.251 96.1857L138.708 95.058L145.588 95.0409C148.318 95.0341 150.549 97.2185 150.599 99.9482L150.654 102.902C150.707 105.787 148.315 108.118 145.432 107.99L138.146 107.665Z" fill="white" stroke="#080809"/>
<path d="M146.348 162.786L141.082 170.726C139.739 172.75 137.136 173.517 134.91 172.542L133.992 172.141C131.443 171.025 130.295 168.042 131.439 165.505L135.762 155.917L139.231 149.976C140.608 147.618 143.621 146.801 146.001 148.139L148.575 149.588C151.09 151.003 151.889 154.246 150.318 156.667L146.348 162.786Z" fill="white" stroke="#080809"/>
<path d="M152.564 142.625L152.085 152.14C151.963 154.566 150.115 156.554 147.704 156.851L146.709 156.974C143.947 157.315 141.439 155.335 141.128 152.57L139.955 142.118L139.907 135.238C139.889 132.508 142.063 130.268 144.793 130.205L147.746 130.137C150.631 130.071 152.972 132.454 152.857 135.337L152.564 142.625Z" fill="white" stroke="#080809"/>
<path d="M152.398 123.625L151.919 133.141C151.797 135.567 149.949 137.554 147.538 137.852L146.543 137.975C143.781 138.316 141.272 136.336 140.962 133.57L139.788 123.119L139.741 116.239C139.722 113.509 141.897 111.268 144.626 111.206L147.58 111.138C150.464 111.072 152.806 113.454 152.69 116.337L152.398 123.625Z" fill="white" stroke="#080809"/>
<path d="M152.24 105.626L151.761 115.142C151.639 117.568 149.791 119.555 147.38 119.853L146.385 119.975C143.623 120.316 141.115 118.336 140.804 115.571L139.631 105.119L139.583 98.2395C139.565 95.5094 141.739 93.269 144.469 93.2064L147.422 93.1387C150.307 93.0726 152.648 95.4551 152.533 98.3381L152.24 105.626Z" fill="white" stroke="#080809"/>
<path d="M152.722 85.624L152.243 95.1396C152.121 97.5658 150.273 99.5533 147.862 99.8508L146.867 99.9735C144.105 100.314 141.596 98.3345 141.286 95.5691L140.112 85.1174L140.065 78.2375C140.046 75.5075 142.221 73.2671 144.95 73.2045L147.904 73.1368C150.788 73.0707 153.13 75.4531 153.014 78.3362L152.722 85.624Z" fill="white" stroke="#080809"/>
<path d="M152.722 66.624L152.243 76.1396C152.121 78.5658 150.273 80.5533 147.862 80.8508L146.867 80.9735C144.105 81.3143 141.596 79.3345 141.286 76.5691L140.112 66.1174L140.065 59.2375C140.046 56.5075 142.221 54.2671 144.95 54.2045L147.904 54.1368C150.788 54.0707 153.13 56.4531 153.014 59.3362L152.722 66.624Z" fill="white" stroke="#080809"/>
<path d="M152.722 48.624L152.243 58.1396C152.121 60.5658 150.273 62.5533 147.862 62.8508L146.867 62.9735C144.105 63.3143 141.596 61.3345 141.286 58.5691L140.112 48.1174L140.065 41.2375C140.046 38.5075 142.221 36.2671 144.95 36.2045L147.904 36.1368C150.788 36.0707 153.13 38.4531 153.014 41.3362L152.722 48.624Z" fill="white" stroke="#080809"/>
</svg>
