<svg width="218" height="190" viewBox="0 0 218 190" fill="none" xmlns="http://www.w3.org/2000/svg">
<g clip-path="url(#clip0)">
<rect width="218" height="190" fill="none"/>
<path d="M128.774 96.2565L138.288 96.7768C140.713 96.9095 142.693 98.7665 142.98 101.179L143.098 102.174C143.427 104.937 141.436 107.437 138.669 107.736L128.212 108.863L121.332 108.881C118.602 108.887 116.371 106.703 116.321 103.973L116.266 101.019C116.213 98.1346 118.605 95.8033 121.488 95.9318L128.774 96.2565Z" fill="white" stroke="#080809"/>
<path d="M110.774 96.3352L120.288 96.8555C122.714 96.9881 124.693 98.8451 124.98 101.257L125.098 102.253C125.427 105.016 123.436 107.516 120.669 107.814L110.213 108.942L103.333 108.959C100.602 108.966 98.3717 106.782 98.321 104.052L98.2663 101.098C98.2128 98.2133 100.605 95.882 103.488 96.0104L110.774 96.3352Z" fill="white" stroke="#080809"/>
<path d="M91.7747 96.4182L101.288 96.9385C103.714 97.0711 105.693 98.9281 105.98 101.34L106.098 102.336C106.427 105.099 104.436 107.599 101.67 107.897L91.2128 109.025L84.3328 109.042C81.6027 109.049 79.3718 106.865 79.3212 104.135L79.2665 101.181C79.213 98.2963 81.6057 95.965 84.4882 96.0934L91.7747 96.4182Z" fill="white" stroke="#080809"/>
<path d="M46.7705 162.409L43.6433 171.409C42.846 173.704 43.8134 176.24 45.9366 177.42L46.8125 177.907C49.2447 179.259 52.3129 178.366 53.6385 175.919L58.6484 166.671L61.2739 160.312C62.3157 157.789 61.1407 154.896 58.6342 153.814L55.922 152.643C53.273 151.499 50.2083 152.828 49.2338 155.544L46.7705 162.409Z" fill="white" stroke="#080809"/>
<path d="M53.9907 145.959L50.8635 154.958C50.0662 157.253 51.0336 159.789 53.1568 160.969L54.0327 161.456C56.4649 162.809 59.5332 161.915 60.8587 159.468L65.8686 150.221L68.4941 143.861C69.5359 141.338 68.3609 138.445 65.8545 137.363L63.1422 136.192C60.4932 135.048 57.4286 136.378 56.454 139.094L53.9907 145.959Z" fill="white" stroke="#080809"/>
<path d="M60.8911 129.334L57.7639 138.334C56.9666 140.628 57.934 143.164 60.0572 144.345L60.9331 144.832C63.3653 146.184 66.4335 145.29 67.7591 142.843L72.769 133.596L75.3945 127.236C76.4363 124.713 75.2613 121.82 72.7548 120.738L70.0426 119.567C67.3936 118.423 64.329 119.753 63.3544 122.469L60.8911 129.334Z" fill="white" stroke="#080809"/>
<path d="M68.1746 111.785L65.0475 120.785C64.2502 123.08 65.2176 125.616 67.3408 126.796L68.2167 127.283C70.6488 128.635 73.7171 127.742 75.0427 125.295L80.0525 116.047L82.678 109.688C83.7199 107.165 82.5449 104.272 80.0384 103.19L77.3262 102.019C74.6772 100.875 71.6125 102.204 70.638 104.92L68.1746 111.785Z" fill="white" stroke="#080809"/>
<path d="M75.075 95.1604L71.9479 104.16C71.1506 106.455 72.118 108.991 74.2412 110.171L75.1171 110.658C77.5492 112.01 80.6175 111.117 81.9431 108.67L86.9529 99.4225L89.5784 93.0631C90.6203 90.5396 89.4453 87.6469 86.9388 86.5646L84.2266 85.3936C81.5776 84.2498 78.5129 85.5794 77.5384 88.2953L75.075 95.1604Z" fill="white" stroke="#080809"/>
<path d="M81.2083 80.3828L78.0811 89.3826C77.2838 91.6773 78.2512 94.2131 80.3744 95.3936L81.2503 95.8806C83.6825 97.2329 86.7507 96.3392 88.0763 93.8924L93.0862 84.6449L95.7117 78.2855C96.7535 75.762 95.5785 72.8693 93.072 71.787L90.3598 70.616C87.7108 69.4722 84.6462 70.8018 83.6716 73.5177L81.2083 80.3828Z" fill="white" stroke="#080809"/>
<path d="M88.1085 63.7583L84.9813 72.7581C84.184 75.0529 85.1514 77.5887 87.2746 78.7692L88.1505 79.2562C90.5827 80.6085 93.651 79.7148 94.9765 77.2679L99.9864 68.0204L102.612 61.6611C103.654 59.1375 102.479 56.2448 99.9723 55.1626L97.26 53.9915C94.611 52.8478 91.5464 54.1774 90.5718 56.8932L88.1085 63.7583Z" fill="white" stroke="#080809"/>
<path d="M95.3923 46.2099L92.2652 55.2097C91.4679 57.5044 92.4353 60.0402 94.5585 61.2207L95.4344 61.7077C97.8666 63.06 100.935 62.1663 102.26 59.7194L107.27 50.472L109.896 44.1126C110.938 41.5891 109.763 38.6964 107.256 37.6141L104.544 36.4431C101.895 35.2993 98.8302 36.6289 97.8557 39.3448L95.3923 46.2099Z" fill="white" stroke="#080809"/>
<path d="M102.293 29.5849L99.1656 38.5847C98.3683 40.8795 99.3357 43.4153 101.459 44.5958L102.335 45.0828C104.767 46.4351 107.835 45.5414 109.161 43.0945L114.171 33.847L116.796 27.4877C117.838 24.9641 116.663 22.0714 114.157 20.9892L111.444 19.8181C108.795 18.6744 105.731 20.004 104.756 22.7198L102.293 29.5849Z" fill="white" stroke="#080809"/>
<path d="M176.404 161.409L179.531 170.409C180.329 172.704 179.361 175.24 177.238 176.42L176.362 176.907C173.93 178.26 170.862 177.366 169.536 174.919L164.526 165.671L161.901 159.312C160.859 156.789 162.034 153.896 164.541 152.814L167.253 151.643C169.902 150.499 172.966 151.828 173.941 154.544L176.404 161.409Z" fill="white" stroke="#080809"/>
<path d="M168.857 143.959L171.984 152.958C172.782 155.253 171.814 157.789 169.691 158.969L168.815 159.456C166.383 160.809 163.315 159.915 161.989 157.468L156.979 148.221L154.354 141.861C153.312 139.338 154.487 136.445 156.993 135.363L159.705 134.192C162.355 133.048 165.419 134.378 166.394 137.093L168.857 143.959Z" fill="white" stroke="#080809"/>
<path d="M161.957 127.334L165.084 136.334C165.881 138.628 164.914 141.164 162.79 142.345L161.915 142.832C159.482 144.184 156.414 143.29 155.089 140.843L150.079 131.596L147.453 125.236C146.411 122.713 147.586 119.82 150.093 118.738L152.805 117.567C155.454 116.423 158.519 117.753 159.493 120.469L161.957 127.334Z" fill="white" stroke="#080809"/>
<path d="M154.673 109.785L157.8 118.785C158.598 121.08 157.63 123.616 155.507 124.796L154.631 125.283C152.199 126.635 149.131 125.742 147.805 123.295L142.795 114.047L140.17 107.688C139.128 105.164 140.303 102.272 142.809 101.19L145.522 100.018C148.171 98.8747 151.235 100.204 152.21 102.92L154.673 109.785Z" fill="white" stroke="#080809"/>
<path d="M147.773 93.1603L150.9 102.16C151.697 104.455 150.73 106.991 148.607 108.171L147.731 108.658C145.298 110.01 142.23 109.117 140.905 106.67L135.895 97.4224L133.269 91.063C132.227 88.5395 133.402 85.6468 135.909 84.5646L138.621 83.3935C141.27 82.2497 144.335 83.5794 145.309 86.2952L147.773 93.1603Z" fill="white" stroke="#080809"/>
<path d="M141.639 78.3827L144.767 87.3825C145.564 89.6773 144.596 92.213 142.473 93.3936L141.597 93.8805C139.165 95.2328 136.097 94.3391 134.771 91.8923L129.762 82.6448L127.136 76.2854C126.094 73.7619 127.269 70.8692 129.776 69.787L132.488 68.6159C135.137 67.4722 138.202 68.8018 139.176 71.5176L141.639 78.3827Z" fill="white" stroke="#080809"/>
<path d="M134.739 61.7582L137.866 70.758C138.664 73.0527 137.696 75.5885 135.573 76.769L134.697 77.256C132.265 78.6083 129.197 77.7146 127.871 75.2678L122.861 66.0203L120.236 59.6609C119.194 57.1374 120.369 54.2447 122.875 53.1625L125.588 51.9914C128.237 50.8477 131.301 52.1773 132.276 54.8931L134.739 61.7582Z" fill="white" stroke="#080809"/>
<path d="M127.455 44.2097L130.582 53.2095C131.38 55.5043 130.412 58.0401 128.289 59.2206L127.413 59.7076C124.981 61.0599 121.913 60.1662 120.587 57.7193L115.577 48.4718L112.952 42.1125C111.91 39.5889 113.085 36.6962 115.592 35.614L118.304 34.443C120.953 33.2992 124.017 34.6288 124.992 37.3447L127.455 44.2097Z" fill="white" stroke="#080809"/>
<path d="M120.555 27.5849L123.682 36.5847C124.479 38.8794 123.512 41.4152 121.389 42.5957L120.513 43.0827C118.081 44.435 115.012 43.5413 113.687 41.0944L108.677 31.847L106.052 25.4876C105.01 22.9641 106.185 20.0714 108.691 18.9891L111.403 17.8181C114.052 16.6743 117.117 18.0039 118.092 20.7198L120.555 27.5849Z" fill="white" stroke="#080809"/>
</g>
<defs>
<clipPath id="clip0">
<rect width="218" height="190" fill="white"/>
</clipPath>
</defs>
</svg>
