<svg width="289" height="281" viewBox="0 0 289 281" fill="none" xmlns="http://www.w3.org/2000/svg">
<rect width="289" height="281" fill="none"/>
<circle cx="154.895" cy="72.4971" r="25" transform="rotate(-9.61294 154.895 72.4971)" fill="#080809"/>
<circle cx="143.978" cy="109.845" r="25" transform="rotate(-9.61294 143.978 109.845)" fill="#080809"/>
<circle cx="129.937" cy="146.707" r="25" transform="rotate(-9.61294 129.937 146.707)" fill="#080809"/>
<circle cx="115.896" cy="183.569" r="25" transform="rotate(-9.61294 115.896 183.569)" fill="#080809"/>
<circle cx="101.52" cy="218.46" r="25" transform="rotate(-9.61294 101.52 218.46)" fill="#080809"/>
<circle r="25" transform="matrix(-0.990392 -0.138287 -0.138287 0.990392 172.412 72.3104)" fill="#080809"/>
<circle r="25" transform="matrix(-0.990392 -0.138287 -0.138287 0.990392 184.409 109.325)" fill="#080809"/>
<circle r="25" transform="matrix(-0.990392 -0.138287 -0.138287 0.990392 199.515 145.764)" fill="#080809"/>
<circle r="25" transform="matrix(-0.990392 -0.138287 -0.138287 0.990392 214.621 182.203)" fill="#080809"/>
<circle r="25" transform="matrix(-0.990392 -0.138287 -0.138287 0.990392 166.09 166.74)" fill="#080809"/>
<circle r="25" transform="matrix(-0.990392 -0.138287 -0.138287 0.990392 230.003 216.661)" fill="#080809"/>
</svg>
