<svg width="215" height="190" viewBox="0 0 215 190" fill="none" xmlns="http://www.w3.org/2000/svg">
<rect width="215" height="190" fill="none"/>
<path d="M153.368 145.905L159.713 138.798C161.331 136.986 164.017 136.599 166.081 137.881L166.932 138.409C169.296 139.878 170.006 142.993 168.512 145.341L162.866 154.214L158.584 159.6C156.885 161.737 153.786 162.116 151.622 160.451L149.28 158.65C146.993 156.891 146.666 153.567 148.565 151.395L153.368 145.905Z" fill="white" stroke="#080809"/>
<path d="M173.226 129.225L170.947 138.476C170.366 140.835 168.174 142.434 165.75 142.268L164.75 142.2C161.974 142.009 159.887 139.589 160.108 136.815L160.943 126.33L162.204 119.567C162.705 116.883 165.266 115.097 167.957 115.554L170.87 116.049C173.714 116.533 175.56 119.317 174.899 122.125L173.226 129.225Z" fill="white" stroke="#080809"/>
<path d="M173.111 108.286L174.952 117.634C175.421 120.017 174.109 122.393 171.842 123.266L170.907 123.626C168.309 124.625 165.396 123.312 164.425 120.704L160.755 110.848L159.043 104.184C158.363 101.54 159.931 98.8398 162.564 98.118L165.413 97.337C168.196 96.5742 171.045 98.3186 171.63 101.144L173.111 108.286Z" fill="white" stroke="#080809"/>
<path d="M163.262 89.7102L169.07 97.263C170.551 99.1888 170.433 101.9 168.791 103.691L168.114 104.429C166.233 106.48 163.039 106.6 161.009 104.697L153.337 97.5034L148.838 92.2978C147.053 90.2321 147.255 87.1164 149.292 85.2983L151.496 83.3311C153.648 81.4097 156.976 81.7041 158.758 83.9735L163.262 89.7102Z" fill="white" stroke="#080809"/>
<path d="M145.263 77.9004L154.21 81.1748C156.492 82.0096 157.843 84.3635 157.413 86.7545L157.236 87.7409C156.744 90.4798 154.11 92.2899 151.377 91.7678L141.046 89.7944L134.461 87.8027C131.848 87.0123 130.351 84.2719 131.1 81.6463L131.909 78.8052C132.7 76.0303 135.669 74.4989 138.389 75.4631L145.263 77.9004Z" fill="white" stroke="#080809"/>
<path d="M131.261 71.8394L137.248 64.4274C138.774 62.5376 141.438 62.0184 143.563 63.1966L144.439 63.6827C146.873 65.0324 147.736 68.1094 146.36 70.5281L141.158 79.6691L137.148 85.2594C135.556 87.4778 132.48 88.0095 130.236 86.4539L127.808 84.7706C125.437 83.1266 124.946 79.8223 126.736 77.5594L131.261 71.8394Z" fill="white" stroke="#080809"/>
<path d="M123.774 76.2566L133.288 76.7769C135.713 76.9096 137.693 78.7666 137.979 81.1789L138.098 82.174C138.427 84.9374 136.436 87.4374 133.669 87.7358L123.212 88.8635L116.332 88.8806C113.602 88.8874 111.371 86.703 111.321 83.9733L111.266 81.0196C111.212 78.1347 113.605 75.8034 116.488 75.9319L123.774 76.2566Z" fill="white" stroke="#080809"/>
<path d="M105.774 76.3353L115.288 76.8556C117.713 76.9883 119.693 78.8453 119.98 81.2576L120.098 82.2527C120.427 85.0161 118.436 87.516 115.669 87.8144L105.212 88.9422L98.3324 88.9593C95.6023 88.9661 93.3715 86.7817 93.3209 84.052L93.2661 81.0983C93.2126 78.2134 95.6053 75.8821 98.4879 76.0106L105.774 76.3353Z" fill="white" stroke="#080809"/>
<path d="M86.7745 76.4183L96.2879 76.9386C98.7136 77.0713 100.693 78.9283 100.98 81.3406L101.098 82.3357C101.427 85.0991 99.4361 87.599 96.6693 87.8974L86.2126 89.0252L79.3326 89.0423C76.6025 89.0491 74.3717 86.8647 74.321 84.135L74.2663 81.1813C74.2128 78.2964 76.6055 75.9651 79.488 76.0936L86.7745 76.4183Z" fill="white" stroke="#080809"/>
<path d="M68.7747 76.4969L78.2881 77.0172C80.7137 77.1499 82.6931 79.0069 82.98 81.4192L83.0984 82.4143C83.4271 85.1777 81.4363 87.6777 78.6695 87.9761L68.2128 89.1038L61.3328 89.1209C58.6027 89.1277 56.3718 86.9433 56.3212 84.2136L56.2665 81.2599C56.213 78.375 58.6057 76.0437 61.4882 76.1722L68.7747 76.4969Z" fill="white" stroke="#080809"/>
<path d="M55.2342 34.3333L55.7961 24.8223C55.9393 22.3972 57.8049 20.426 60.2185 20.1496L61.2141 20.0356C63.9789 19.719 66.4702 21.7206 66.7565 24.4887L67.8385 34.9502L67.8256 41.8302C67.8205 44.5604 65.6263 46.7817 62.8965 46.8203L59.9425 46.8622C57.0574 46.9031 54.7366 44.5002 54.8776 41.6183L55.2342 34.3333Z" fill="white" stroke="#080809"/>
<path d="M55.2342 52.3334L55.7961 42.8224C55.9393 40.3973 57.8049 38.4261 60.2185 38.1497L61.2141 38.0357C63.9789 37.7191 66.4702 39.7207 66.7565 42.4888L67.8385 52.9503L67.8256 59.8304C67.8205 62.5605 65.6263 64.7818 62.8965 64.8205L59.9425 64.8623C57.0574 64.9032 54.7366 62.5003 54.8776 59.6184L55.2342 52.3334Z" fill="white" stroke="#080809"/>
<path d="M55.2342 71.3334L55.7961 61.8224C55.9393 59.3973 57.8049 57.4261 60.2185 57.1497L61.2141 57.0357C63.9789 56.7191 66.4702 58.7207 66.7565 61.4888L67.8385 71.9503L67.8256 78.8304C67.8205 81.5605 65.6263 83.7818 62.8965 83.8205L59.9425 83.8623C57.0574 83.9032 54.7366 81.5003 54.8776 78.6184L55.2342 71.3334Z" fill="white" stroke="#080809"/>
<path d="M55.2342 89.3334L55.7961 79.8224C55.9393 77.3973 57.8049 75.4261 60.2185 75.1497L61.2141 75.0357C63.9789 74.7191 66.4702 76.7207 66.7565 79.4888L67.8385 89.9503L67.8256 96.8304C67.8205 99.5605 65.6263 101.782 62.8965 101.82L59.9425 101.862C57.0574 101.903 54.7366 99.5003 54.8776 96.6184L55.2342 89.3334Z" fill="white" stroke="#080809"/>
<path d="M152.938 58.4038L148.954 67.0586C147.938 69.2654 145.483 70.4227 143.135 69.8021L142.166 69.5461C139.475 68.8351 137.883 66.0643 138.623 63.3817L141.422 53.2435L143.937 46.8396C144.935 44.2985 147.787 43.0277 150.344 43.9848L153.11 45.0205C155.813 46.0321 157.1 49.1147 155.92 51.7478L152.938 58.4038Z" fill="white" stroke="#080809"/>
<path d="M153.111 36.2856L154.952 45.6338C155.421 48.0174 154.109 50.3933 151.842 51.2659L150.907 51.6258C148.309 52.6254 145.396 51.3122 144.425 48.7042L140.755 38.848L139.043 32.1844C138.363 29.5401 139.931 26.8398 142.564 26.118L145.413 25.337C148.196 24.5742 151.045 26.3186 151.63 29.1439L153.111 36.2856Z" fill="white" stroke="#080809"/>
<path d="M141.475 19.9985L148.451 26.4887C150.229 28.1435 150.561 30.8373 149.237 32.8741L148.691 33.7143C147.174 36.0476 144.044 36.6936 141.728 35.1515L132.973 29.3235L127.677 24.932C125.575 23.1894 125.26 20.0831 126.968 17.9538L128.817 15.6496C130.623 13.3992 133.954 13.1401 136.086 15.0842L141.475 19.9985Z" fill="white" stroke="#080809"/>
<path d="M122.774 12.2566L132.288 12.7769C134.713 12.9095 136.693 14.7665 136.979 17.1788L137.098 18.174C137.427 20.9373 135.436 23.4373 132.669 23.7357L122.212 24.8635L115.332 24.8806C112.602 24.8874 110.371 22.703 110.321 19.9733L110.266 17.0196C110.212 14.1346 112.605 11.8034 115.488 11.9318L122.774 12.2566Z" fill="white" stroke="#080809"/>
<path d="M104.774 12.3352L114.288 12.8555C116.713 12.9882 118.693 14.8452 118.98 17.2575L119.098 18.2526C119.427 21.016 117.436 23.516 114.669 23.8144L104.212 24.9421L97.3324 24.9593C94.6023 24.9661 92.3715 22.7816 92.3209 20.052L92.2661 17.0982C92.2126 14.2133 94.6053 11.882 97.4879 12.0105L104.774 12.3352Z" fill="white" stroke="#080809"/>
<path d="M85.7745 12.4182L95.2879 12.9385C97.7136 13.0712 99.6929 14.9282 99.9798 17.3405L100.098 18.3356C100.427 21.099 98.4361 23.599 95.6693 23.8974L85.2126 25.0252L78.3326 25.0423C75.6025 25.0491 73.3717 22.8646 73.321 20.135L73.2663 17.1812C73.2128 14.2963 75.6055 11.965 78.488 12.0935L85.7745 12.4182Z" fill="white" stroke="#080809"/>
<path d="M67.7747 12.4968L77.2881 13.0172C79.7137 13.1498 81.6931 15.0068 81.98 17.4191L82.0984 18.4143C82.4271 21.1776 80.4363 23.6776 77.6695 23.976L67.2128 25.1038L60.3328 25.1209C57.6027 25.1277 55.3718 22.9432 55.3212 20.2136L55.2665 17.2598C55.213 14.3749 57.6057 12.0437 60.4882 12.1721L67.7747 12.4968Z" fill="white" stroke="#080809"/>
<path d="M55.2342 105.333L55.7961 95.8224C55.9393 93.3973 57.8049 91.4261 60.2185 91.1497L61.2141 91.0357C63.9789 90.7191 66.4702 92.7207 66.7565 95.4888L67.8385 105.95L67.8256 112.83C67.8205 115.56 65.6263 117.782 62.8965 117.82L59.9425 117.862C57.0574 117.903 54.7366 115.5 54.8776 112.618L55.2342 105.333Z" fill="white" stroke="#080809"/>
<path d="M55.2342 123.333L55.7961 113.822C55.9393 111.397 57.8049 109.426 60.2185 109.149L61.2141 109.035C63.9789 108.719 66.4702 110.72 66.7565 113.489L67.8385 123.95L67.8256 130.83C67.8205 133.56 65.6263 135.782 62.8965 135.82L59.9425 135.862C57.0574 135.903 54.7366 133.5 54.8776 130.618L55.2342 123.333Z" fill="white" stroke="#080809"/>
<path d="M55.2342 142.333L55.7961 132.822C55.9393 130.397 57.8049 128.426 60.2185 128.149L61.2141 128.035C63.9789 127.719 66.4702 129.72 66.7565 132.489L67.8385 142.95L67.8256 149.83C67.8205 152.56 65.6263 154.782 62.8965 154.82L59.9425 154.862C57.0574 154.903 54.7366 152.5 54.8776 149.618L55.2342 142.333Z" fill="white" stroke="#080809"/>
<path d="M55.2342 160.333L55.7961 150.822C55.9393 148.397 57.8049 146.426 60.2185 146.149L61.2141 146.035C63.9789 145.719 66.4702 147.72 66.7565 150.489L67.8385 160.95L67.8256 167.83C67.8205 170.56 65.6263 172.782 62.8965 172.82L59.9425 172.862C57.0574 172.903 54.7366 170.5 54.8776 167.618L55.2342 160.333Z" fill="white" stroke="#080809"/>
<path d="M140.041 156.619L148.968 153.291C151.245 152.442 153.802 153.352 155.029 155.448L155.536 156.313C156.943 158.714 156.118 161.802 153.702 163.182L144.569 168.398L138.27 171.166C135.771 172.264 132.852 171.155 131.714 168.673L130.482 165.988C129.279 163.365 130.54 160.272 133.233 159.236L140.041 156.619Z" fill="white" stroke="#080809"/>
<path d="M122.774 160.257L132.288 160.777C134.713 160.91 136.693 162.767 136.979 165.179L137.098 166.174C137.427 168.937 135.436 171.437 132.669 171.736L122.212 172.864L115.332 172.881C112.602 172.887 110.371 170.703 110.321 167.973L110.266 165.02C110.212 162.135 112.605 159.803 115.488 159.932L122.774 160.257Z" fill="white" stroke="#080809"/>
<path d="M104.774 160.335L114.288 160.856C116.713 160.988 118.693 162.845 118.98 165.258L119.098 166.253C119.427 169.016 117.436 171.516 114.669 171.814L104.212 172.942L97.3324 172.959C94.6023 172.966 92.3715 170.782 92.3209 168.052L92.2661 165.098C92.2126 162.213 94.6053 159.882 97.4879 160.011L104.774 160.335Z" fill="white" stroke="#080809"/>
<path d="M85.7745 160.418L95.2879 160.939C97.7136 161.071 99.6929 162.928 99.9798 165.341L100.098 166.336C100.427 169.099 98.4361 171.599 95.6693 171.897L85.2126 173.025L78.3326 173.042C75.6025 173.049 73.3717 170.865 73.321 168.135L73.2663 165.181C73.2128 162.296 75.6055 159.965 78.488 160.094L85.7745 160.418Z" fill="white" stroke="#080809"/>
<path d="M67.7747 160.497L77.2881 161.017C79.7137 161.15 81.6931 163.007 81.98 165.419L82.0984 166.414C82.4271 169.178 80.4363 171.678 77.6695 171.976L67.2128 173.104L60.3328 173.121C57.6027 173.128 55.3718 170.943 55.3212 168.214L55.2665 165.26C55.213 162.375 57.6057 160.044 60.4882 160.172L67.7747 160.497Z" fill="white" stroke="#080809"/>
</svg>
