<svg width="231" height="281" viewBox="0 0 231 281" fill="none" xmlns="http://www.w3.org/2000/svg">
<g clip-path="url(#clip0)">
<rect width="231" height="281" fill="none"/>
<circle cx="88.1127" cy="66.8642" r="25" transform="rotate(-28.3 88.1127 66.8642)" fill="#080809"/>
<circle cx="87.9552" cy="107.164" r="25" transform="rotate(-28.3 87.9552 107.164)" fill="#080809"/>
<circle cx="86.4647" cy="146.582" r="25" transform="rotate(-28.3 86.4647 146.582)" fill="#080809"/>
<circle cx="84.974" cy="186" r="25" transform="rotate(-28.3 84.974 186)" fill="#080809"/>
<circle cx="82.5353" cy="223.657" r="25" transform="rotate(-28.3 82.5353 223.657)" fill="#080809"/>
<circle cx="128.113" cy="63.8642" r="25" transform="rotate(-28.3 128.113 63.8642)" fill="#080809"/>
<circle cx="164.113" cy="80.8642" r="25" transform="rotate(-28.3 164.113 80.8642)" fill="#080809"/>
<circle cx="169.113" cy="115.864" r="25" transform="rotate(-28.3 169.113 115.864)" fill="#080809"/>
<circle cx="127.113" cy="143.864" r="25" transform="rotate(-28.3 127.113 143.864)" fill="#080809"/>
<circle cx="169.113" cy="156.864" r="25" transform="rotate(-28.3 169.113 156.864)" fill="#080809"/>
<circle cx="125.113" cy="224.864" r="25" transform="rotate(-28.3 125.113 224.864)" fill="#080809"/>
<circle cx="164.113" cy="214.864" r="25" transform="rotate(-28.3 164.113 214.864)" fill="#080809"/>
<circle cx="191.113" cy="194.864" r="25" transform="rotate(-28.3 191.113 194.864)" fill="#080809"/>
</g>
<defs>
<clipPath id="clip0">
<rect width="231" height="281" fill="white"/>
</clipPath>
</defs>
</svg>
