<svg width="210" height="190" viewBox="0 0 210 190" fill="none" xmlns="http://www.w3.org/2000/svg">
<rect width="210" height="190" fill="none"/>
<path d="M164.247 40.5L169.452 48.4804C170.779 50.5152 170.451 53.2095 168.675 54.867L167.943 55.5508C165.908 57.4496 162.715 57.322 160.839 55.2669L153.747 47.5L149.666 41.9612C148.046 39.7633 148.489 36.6726 150.661 35.018L153.011 33.2276C155.306 31.479 158.601 32.0305 160.201 34.4313L164.247 40.5Z" fill="white" stroke="#080809"/>
<path d="M147.847 26.4894L155.564 32.0769C157.532 33.5016 158.19 36.1344 157.126 38.318L156.687 39.2188C155.467 41.7202 152.44 42.7445 149.952 41.4976L140.55 36.7852L134.756 33.0751C132.456 31.6029 131.763 28.5586 133.198 26.2361L134.751 23.7229C136.268 21.2683 139.542 20.6035 141.896 22.2719L147.847 26.4894Z" fill="white" stroke="#080809"/>
<path d="M125.54 20.7252L134.865 22.6757C137.243 23.1731 138.92 25.3076 138.839 27.7356L138.806 28.7372C138.714 31.5185 136.368 33.6893 133.588 33.5666L123.081 33.1027L116.277 32.081C113.577 31.6755 111.702 29.1793 112.064 26.4733L112.456 23.5452C112.838 20.6853 115.556 18.7419 118.386 19.3041L125.54 20.7252Z" fill="white" stroke="#080809"/>
<path d="M103.243 21.5565L112.733 20.7159C115.153 20.5015 117.377 22.0575 118.005 24.4043L118.264 25.3724C118.983 28.0607 117.369 30.8189 114.673 31.5085L104.483 34.1148L97.6759 35.1122C94.9746 35.5079 92.4552 33.6637 92.0161 30.9691L91.541 28.0533C91.077 25.2055 93.1131 22.557 95.9845 22.2734L103.243 21.5565Z" fill="white" stroke="#080809"/>
<path d="M83.0548 28.5778L91.5451 24.2545C93.7099 23.1522 96.3538 23.7654 97.8123 25.7081L98.414 26.5096C100.085 28.735 99.6172 31.8964 97.3736 33.5427L88.8942 39.7648L82.9515 43.2316C80.5933 44.6074 77.5675 43.8371 76.1542 41.5013L74.6248 38.9737C73.131 36.5051 74.031 33.288 76.5889 31.9528L83.0548 28.5778Z" fill="white" stroke="#080809"/>
<path d="M68.4619 39.8196L75.3313 33.2175C77.0828 31.5342 79.7909 31.3534 81.7507 32.7889L82.5591 33.3811C84.8041 35.0256 85.2744 38.1866 83.6055 40.4134L77.2979 48.8294L72.6176 53.8723C70.7604 55.8734 67.6414 56.0148 65.6107 54.1899L63.4134 52.2153C61.2673 50.2867 61.1945 46.9468 63.2545 44.9265L68.4619 39.8196Z" fill="white" stroke="#080809"/>
<path d="M57.6144 57.6096L60.4087 48.501C61.1212 46.1786 63.4 44.7043 65.8105 45.0063L66.8048 45.1309C69.5661 45.4768 71.5135 48.0107 71.1373 50.768L69.7156 61.1888L68.0765 67.8707C67.4261 70.5223 64.7691 72.1619 62.1074 71.5541L59.2273 70.8965C56.4143 70.2541 54.7274 67.3707 55.5457 64.6038L57.6144 57.6096Z" fill="white" stroke="#080809"/>
<path d="M53.4894 75.667L54.736 66.2212C55.0538 63.8128 57.0568 61.9813 59.484 61.8798L60.4852 61.8379C63.2656 61.7215 65.606 63.8977 65.6919 66.6792L66.0164 77.1915L65.5072 84.0527C65.3051 86.7754 62.9565 88.8326 60.2309 88.6742L57.2816 88.5029C54.4011 88.3355 52.2597 85.7715 52.6083 82.9072L53.4894 75.667Z" fill="white" stroke="#080809"/>
<path d="M54.3046 94.7835L54.2742 85.2559C54.2665 82.8266 56.006 80.7433 58.3977 80.3175L59.3844 80.1418C62.1241 79.6539 64.7349 81.4969 65.1927 84.2418L66.9229 94.6159L67.3375 101.483C67.5021 104.209 65.4502 106.562 62.7281 106.77L59.7824 106.996C56.9054 107.216 54.4398 104.962 54.4014 102.077L54.3046 94.7835Z" fill="white" stroke="#080809"/>
<path d="M54.75 115.605L54.7197 106.077C54.7119 103.648 56.4515 101.565 58.8432 101.139L59.8298 100.963C62.5695 100.475 65.1804 102.318 65.6382 105.063L67.3683 115.437L67.783 122.305C67.9475 125.03 65.8957 127.383 63.1735 127.592L60.2279 127.817C57.3509 128.037 54.8852 125.783 54.8469 122.898L54.75 115.605Z" fill="white" stroke="#080809"/>
<path d="M60.1702 137.616L56.6413 128.766C55.7416 126.509 56.5939 123.932 58.6619 122.658L59.5149 122.132C61.8838 120.671 64.9892 121.426 66.4235 123.811L71.8443 132.823L74.7533 139.058C75.9077 141.532 74.864 144.475 72.4088 145.669L69.752 146.961C67.1571 148.223 64.0357 147.032 62.94 144.363L60.1702 137.616Z" fill="white" stroke="#080809"/>
<path d="M73.6042 155.632L67.3997 148.401C65.8177 146.557 65.7898 143.843 67.3335 141.968L67.9703 141.194C69.7387 139.045 72.9211 138.754 75.0504 140.545L83.0975 147.317L87.8687 152.274C89.762 154.241 89.7274 157.363 87.791 159.288L85.6957 161.371C83.6492 163.405 80.3105 163.289 78.4095 161.118L73.6042 155.632Z" fill="white" stroke="#080809"/>
<path d="M92.605 168.825L84.068 164.595C81.8913 163.516 80.8048 161.029 81.4925 158.699L81.7763 157.738C82.5641 155.069 85.3795 153.557 88.0397 154.374L98.0935 157.462L104.423 160.159C106.934 161.23 108.123 164.117 107.092 166.645L105.978 169.381C104.889 172.053 101.771 173.252 99.1727 171.997L92.605 168.825Z" fill="white" stroke="#080809"/>
<path d="M113.324 172.789L103.796 172.749C101.367 172.739 99.2964 170.984 98.8882 168.589L98.7198 167.601C98.2522 164.858 100.114 162.261 102.863 161.823L113.249 160.17L120.119 159.805C122.846 159.661 125.184 161.73 125.372 164.454L125.576 167.401C125.775 170.28 123.503 172.729 120.617 172.746L113.324 172.789Z" fill="white" stroke="#080809"/>
<path d="M136.371 169.085L127.237 171.795C124.908 172.486 122.419 171.404 121.338 169.228L120.891 168.331C119.652 165.839 120.686 162.815 123.191 161.604L132.659 157.024L139.132 154.693C141.701 153.768 144.537 155.075 145.502 157.629L146.548 160.392C147.569 163.09 146.1 166.091 143.342 166.94L136.371 169.085Z" fill="white" stroke="#080809"/>
<path d="M157.88 159.19L149.438 163.607C147.286 164.733 144.635 164.149 143.155 162.223L142.545 161.428C140.849 159.222 141.282 156.055 143.507 154.384L151.917 148.068L157.821 144.536C160.164 143.134 163.198 143.871 164.637 146.191L166.194 148.701C167.715 151.153 166.851 154.38 164.308 155.744L157.88 159.19Z" fill="white" stroke="#080809"/>
</svg>
