<svg width="232" height="190" viewBox="0 0 232 190" fill="none" xmlns="http://www.w3.org/2000/svg">
<rect width="232" height="190" fill="none"/>
<path d="M93.0563 175.243L83.5791 174.264C81.1626 174.014 79.2753 172.064 79.1052 169.641L79.0351 168.641C78.8402 165.865 80.9494 163.464 83.7274 163.299L94.2263 162.678L101.099 162.993C103.826 163.118 105.949 165.408 105.868 168.137L105.78 171.09C105.694 173.974 103.191 176.187 100.319 175.919L93.0563 175.243Z" fill="white" stroke="#080809"/>
<path d="M74.2342 33.3332L74.7961 23.8222C74.9393 21.3971 76.805 19.4259 79.2185 19.1495L80.2141 19.0355C82.9789 18.7189 85.4702 20.7206 85.7565 23.4886L86.8386 33.9502L86.8256 40.8302C86.8205 43.5603 84.6263 45.7816 81.8965 45.8203L78.9425 45.8621C76.0574 45.903 73.7366 43.5002 73.8777 40.6182L74.2342 33.3332Z" fill="white" stroke="#080809"/>
<path d="M74.2342 51.3332L74.7961 41.8222C74.9393 39.3971 76.805 37.4259 79.2185 37.1495L80.2141 37.0355C82.9789 36.7189 85.4702 38.7206 85.7565 41.4886L86.8386 51.9502L86.8256 58.8302C86.8205 61.5603 84.6263 63.7816 81.8965 63.8203L78.9425 63.8621C76.0574 63.903 73.7366 61.5002 73.8777 58.6182L74.2342 51.3332Z" fill="white" stroke="#080809"/>
<path d="M74.2342 70.3332L74.7961 60.8222C74.9393 58.3971 76.805 56.4259 79.2185 56.1495L80.2141 56.0355C82.9789 55.7189 85.4702 57.7206 85.7565 60.4886L86.8386 70.9502L86.8256 77.8302C86.8205 80.5603 84.6263 82.7816 81.8965 82.8203L78.9425 82.8621C76.0574 82.903 73.7366 80.5002 73.8777 77.6182L74.2342 70.3332Z" fill="white" stroke="#080809"/>
<path d="M74.2342 88.3332L74.7961 78.8222C74.9393 76.3971 76.805 74.4259 79.2185 74.1495L80.2141 74.0355C82.9789 73.7189 85.4702 75.7206 85.7565 78.4886L86.8386 88.9502L86.8256 95.8302C86.8205 98.5603 84.6263 100.782 81.8965 100.82L78.9425 100.862C76.0574 100.903 73.7366 98.5002 73.8777 95.6182L74.2342 88.3332Z" fill="white" stroke="#080809"/>
<path d="M74.2342 104.333L74.7961 94.8222C74.9393 92.3971 76.805 90.4259 79.2185 90.1495L80.2141 90.0355C82.9789 89.7189 85.4702 91.7206 85.7565 94.4886L86.8386 104.95L86.8256 111.83C86.8205 114.56 84.6263 116.782 81.8965 116.82L78.9425 116.862C76.0574 116.903 73.7366 114.5 73.8777 111.618L74.2342 104.333Z" fill="white" stroke="#080809"/>
<path d="M74.2342 122.333L74.7961 112.822C74.9393 110.397 76.805 108.426 79.2185 108.15L80.2141 108.036C82.9789 107.719 85.4702 109.721 85.7565 112.489L86.8386 122.95L86.8256 129.83C86.8205 132.56 84.6263 134.782 81.8965 134.82L78.9425 134.862C76.0574 134.903 73.7366 132.5 73.8777 129.618L74.2342 122.333Z" fill="white" stroke="#080809"/>
<path d="M74.2342 141.333L74.7961 131.822C74.9393 129.397 76.805 127.426 79.2185 127.15L80.2141 127.036C82.9789 126.719 85.4702 128.721 85.7565 131.489L86.8386 141.95L86.8256 148.83C86.8205 151.56 84.6263 153.782 81.8965 153.82L78.9425 153.862C76.0574 153.903 73.7366 151.5 73.8777 148.618L74.2342 141.333Z" fill="white" stroke="#080809"/>
<path d="M74.2342 159.333L74.7961 149.822C74.9393 147.397 76.805 145.426 79.2185 145.15L80.2141 145.036C82.9789 144.719 85.4702 146.721 85.7565 149.489L86.8386 159.95L86.8256 166.83C86.8205 169.56 84.6263 171.782 81.8965 171.82L78.9425 171.862C76.0574 171.903 73.7366 169.5 73.8777 166.618L74.2342 159.333Z" fill="white" stroke="#080809"/>
<path d="M89.3179 30.0486L79.8042 29.5341C77.3784 29.4029 75.398 27.547 75.1096 25.1349L74.9906 24.1398C74.6603 21.3767 76.6495 18.8755 79.4161 18.5754L89.8721 17.4414L96.7521 17.4201C99.4823 17.4117 101.714 19.5948 101.767 22.3244L101.823 25.2781C101.878 28.163 99.4871 30.4957 96.6045 30.369L89.3179 30.0486Z" fill="white" stroke="#080809"/>
<path d="M104.318 29.0486L94.8042 28.534C92.3784 28.4028 90.398 26.547 90.1096 24.1349L89.9906 23.1398C89.6603 20.3766 91.6495 17.8754 94.4161 17.5754L104.872 16.4413L111.752 16.4201C114.482 16.4116 116.714 18.5947 116.767 21.3244L116.823 24.2781C116.878 27.1629 114.487 29.4957 111.605 29.3689L104.318 29.0486Z" fill="white" stroke="#080809"/>
<path d="M123.318 29.0486L113.804 28.5341C111.378 28.4029 109.398 26.547 109.11 24.1349L108.991 23.1398C108.66 20.3767 110.65 17.8755 113.416 17.5754L123.872 16.4414L130.752 16.4201C133.482 16.4117 135.714 18.5948 135.767 21.3244L135.823 24.2781C135.878 27.163 133.487 29.4957 130.605 29.369L123.318 29.0486Z" fill="white" stroke="#080809"/>
<path d="M140.237 31.3468L131.23 28.2415C128.933 27.4498 127.538 25.1218 127.922 22.7231L128.081 21.7336C128.521 18.9859 131.12 17.1265 133.863 17.597L144.229 19.3754L150.851 21.2427C153.479 21.9837 155.026 24.6955 154.327 27.3347L153.571 30.1905C152.833 32.9798 149.893 34.5669 147.156 33.6541L140.237 31.3468Z" fill="white" stroke="#080809"/>
<path d="M155.053 39.0074L148.623 31.9765C146.984 30.1837 146.87 27.472 148.354 25.5485L148.966 24.7549C150.665 22.5514 153.837 22.1596 156.022 23.8833L164.279 30.3976L169.204 35.2014C171.159 37.1077 171.223 40.2293 169.348 42.2141L167.32 44.3618C165.338 46.4594 161.998 46.4494 160.029 44.3399L155.053 39.0074Z" fill="white" stroke="#080809"/>
<path d="M167.099 53.9309L162.401 45.6421C161.203 43.5286 161.698 40.86 163.573 39.3161L164.347 38.6793C166.496 36.9107 169.675 37.2368 171.42 39.4046L178.014 47.5977L181.743 53.3797C183.222 55.6741 182.588 58.7312 180.318 60.2475L177.861 61.8882C175.461 63.4907 172.207 62.7352 170.759 60.2395L167.099 53.9309Z" fill="white" stroke="#080809"/>
<path d="M175.123 70.5519L173.055 61.2516C172.527 58.8802 173.781 56.4729 176.026 55.545L176.952 55.1623C179.524 54.0994 182.469 55.3409 183.503 57.9242L187.414 67.6876L189.288 74.3073C190.032 76.9341 188.532 79.6721 185.917 80.4581L183.088 81.3087C180.325 82.1394 177.434 80.4653 176.779 77.6552L175.123 70.5519Z" fill="white" stroke="#080809"/>
<path d="M179.157 87.9421L177.757 78.5179C177.4 76.115 178.822 73.8031 181.127 73.0377L182.078 72.722C184.719 71.8452 187.568 73.2935 188.416 75.944L191.62 85.9614L193.018 92.6979C193.573 95.3711 191.881 97.995 189.217 98.5926L186.334 99.2393C183.519 99.8709 180.755 97.995 180.302 95.1453L179.157 87.9421Z" fill="white" stroke="#080809"/>
<path d="M179.914 105.742L181.151 96.2953C181.466 93.8866 183.467 92.0529 185.894 91.9488L186.895 91.9058C189.675 91.7864 192.018 93.9601 192.107 96.7415L192.443 107.253L191.941 114.115C191.742 116.838 189.395 118.898 186.67 118.742L183.72 118.574C180.839 118.41 178.695 115.848 179.041 112.984L179.914 105.742Z" fill="white" stroke="#080809"/>
<path d="M187.754 129.407L183.478 137.921C182.388 140.092 179.895 141.165 177.568 140.464L176.609 140.175C173.944 139.373 172.447 136.55 173.279 133.894L176.421 123.857L179.152 117.543C180.237 115.037 183.13 113.864 185.653 114.908L188.383 116.037C191.049 117.14 192.231 120.265 190.962 122.856L187.754 129.407Z" fill="white" stroke="#080809"/>
<path d="M175.28 148.985L167.559 154.567C165.591 155.991 162.884 155.793 161.143 154.099L160.425 153.4C158.43 151.459 158.404 148.264 160.367 146.291L167.783 138.834L173.12 134.491C175.237 132.768 178.345 133.061 180.103 135.151L182.004 137.412C183.861 139.62 183.469 142.938 181.147 144.652L175.28 148.985Z" fill="white" stroke="#080809"/>
<path d="M159.06 162.093L150.643 166.559C148.498 167.698 145.844 167.129 144.353 165.211L143.737 164.42C142.029 162.223 142.444 159.054 144.659 157.37L153.032 151.006L158.916 147.439C161.25 146.024 164.289 146.743 165.741 149.055L167.313 151.556C168.848 153.999 168.003 157.231 165.468 158.609L159.06 162.093Z" fill="white" stroke="#080809"/>
<path d="M136.923 170.151L127.574 171.992C125.191 172.461 122.815 171.149 121.942 168.882L121.582 167.947C120.583 165.35 121.896 162.436 124.504 161.465L134.36 157.795L141.024 156.083C143.668 155.403 146.368 156.97 147.09 159.603L147.871 162.452C148.634 165.235 146.89 168.084 144.064 168.67L136.923 170.151Z" fill="white" stroke="#080809"/>
<path d="M114.133 173.798L104.608 174.009C102.179 174.062 100.063 172.363 99.5921 169.979L99.3978 168.996C98.8583 166.266 100.652 163.621 103.387 163.111L113.727 161.185L120.585 160.641C123.307 160.425 125.699 162.432 125.958 165.15L126.239 168.091C126.514 170.963 124.307 173.471 121.423 173.564L114.133 173.798Z" fill="white" stroke="#080809"/>
</svg>
