<svg width="244" height="281" viewBox="0 0 244 281" fill="none" xmlns="http://www.w3.org/2000/svg">
<rect width="244" height="281" fill="none"/>
<circle cx="78.5449" cy="84.5794" r="25" transform="rotate(-29.3193 78.5449 84.5794)" fill="#080809"/>
<circle cx="77.8337" cy="123.96" r="25" transform="rotate(-29.3193 77.8337 123.96)" fill="#080809"/>
<circle cx="77.0446" cy="163.399" r="25" transform="rotate(-29.3193 77.0446 163.399)" fill="#080809"/>
<circle cx="76.2556" cy="202.837" r="25" transform="rotate(-29.3193 76.2556 202.837)" fill="#080809"/>
<circle cx="103.04" cy="67.0395" r="25" transform="rotate(-29.3193 103.04 67.0395)" fill="#080809"/>
<circle cx="139.04" cy="73.0395" r="25" transform="rotate(-29.3193 139.04 73.0395)" fill="#080809"/>
<circle cx="169.04" cy="96.0395" r="25" transform="rotate(-29.3193 169.04 96.0395)" fill="#080809"/>
<circle cx="148.04" cy="207.04" r="25" transform="rotate(-29.3193 148.04 207.04)" fill="#080809"/>
<circle cx="114.04" cy="212.04" r="25" transform="rotate(-29.3193 114.04 212.04)" fill="#080809"/>
<circle cx="179.04" cy="175.04" r="25" transform="rotate(-29.3193 179.04 175.04)" fill="#080809"/>
<circle cx="183.04" cy="132.04" r="25" transform="rotate(-29.3193 183.04 132.04)" fill="#080809"/>
</svg>
