<svg width="221" height="190" viewBox="0 0 221 190" fill="none" xmlns="http://www.w3.org/2000/svg">
<rect width="221" height="190" fill="none"/>
<path d="M139.775 80.2565L149.288 80.7768C151.714 80.9095 153.693 82.7665 153.98 85.1788L154.098 86.1739C154.427 88.9373 152.436 91.4372 149.67 91.7356L139.213 92.8634L132.333 92.8805C129.603 92.8873 127.372 90.7029 127.321 87.9732L127.266 85.0195C127.213 82.1346 129.606 79.8033 132.488 79.9318L139.775 80.2565Z" fill="white" stroke="#080809"/>
<path d="M122.774 80.2566L132.288 80.7769C134.713 80.9095 136.693 82.7665 136.979 85.1788L137.098 86.174C137.427 88.9373 135.436 91.4373 132.669 91.7357L122.212 92.8635L115.332 92.8806C112.602 92.8874 110.371 90.703 110.321 87.9733L110.266 85.0196C110.212 82.1346 112.605 79.8034 115.488 79.9318L122.774 80.2566Z" fill="white" stroke="#080809"/>
<path d="M104.774 80.3352L114.288 80.8555C116.713 80.9882 118.693 82.8452 118.98 85.2575L119.098 86.2526C119.427 89.016 117.436 91.516 114.669 91.8144L104.212 92.9421L97.3324 92.9593C94.6023 92.9661 92.3715 90.7816 92.3209 88.052L92.2661 85.0982C92.2126 82.2133 94.6053 79.882 97.4879 80.0105L104.774 80.3352Z" fill="white" stroke="#080809"/>
<path d="M85.7745 80.4182L95.2879 80.9385C97.7136 81.0712 99.6929 82.9282 99.9798 85.3405L100.098 86.3356C100.427 89.099 98.4361 91.599 95.6693 91.8974L85.2126 93.0252L78.3326 93.0423C75.6025 93.0491 73.3717 90.8646 73.321 88.135L73.2663 85.1812C73.2128 82.2963 75.6055 79.965 78.488 80.0935L85.7745 80.4182Z" fill="white" stroke="#080809"/>
<path d="M67.7747 80.4968L77.2881 81.0172C79.7137 81.1498 81.6931 83.0068 81.98 85.4191L82.0984 86.4143C82.4271 89.1776 80.4363 91.6776 77.6695 91.976L67.2128 93.1038L60.3328 93.1209C57.6027 93.1277 55.3718 90.9432 55.3212 88.2136L55.2665 85.2598C55.213 82.3749 57.6057 80.0437 60.4882 80.1721L67.7747 80.4968Z" fill="white" stroke="#080809"/>
<path d="M54.2342 38.3332L54.7961 28.8222C54.9393 26.3971 56.805 24.4259 59.2185 24.1495L60.2142 24.0355C62.9789 23.7189 65.4702 25.7206 65.7565 28.4886L66.8386 38.9502L66.8256 45.8302C66.8205 48.5603 64.6264 50.7816 61.8965 50.8203L58.9425 50.8621C56.0574 50.903 53.7366 48.5002 53.8777 45.6182L54.2342 38.3332Z" fill="white" stroke="#080809"/>
<path d="M54.2342 56.3334L54.7961 46.8223C54.9393 44.3973 56.805 42.4261 59.2185 42.1497L60.2142 42.0356C62.9789 41.719 65.4702 43.7207 65.7565 46.4887L66.8386 56.9503L66.8256 63.8303C66.8205 66.5604 64.6264 68.7817 61.8965 68.8204L58.9425 68.8623C56.0574 68.9031 53.7366 66.5003 53.8777 63.6183L54.2342 56.3334Z" fill="white" stroke="#080809"/>
<path d="M54.2342 75.3334L54.7961 65.8223C54.9393 63.3973 56.805 61.4261 59.2185 61.1497L60.2142 61.0356C62.9789 60.719 65.4702 62.7207 65.7565 65.4887L66.8386 75.9503L66.8256 82.8303C66.8205 85.5604 64.6264 87.7817 61.8965 87.8204L58.9425 87.8623C56.0574 87.9031 53.7366 85.5003 53.8777 82.6183L54.2342 75.3334Z" fill="white" stroke="#080809"/>
<path d="M54.2342 93.3334L54.7961 83.8223C54.9393 81.3973 56.805 79.4261 59.2185 79.1497L60.2142 79.0356C62.9789 78.719 65.4702 80.7207 65.7565 83.4887L66.8386 93.9503L66.8256 100.83C66.8205 103.56 64.6264 105.782 61.8965 105.82L58.9425 105.862C56.0574 105.903 53.7366 103.5 53.8777 100.618L54.2342 93.3334Z" fill="white" stroke="#080809"/>
<path d="M138.775 16.2564L148.288 16.7767C150.714 16.9094 152.693 18.7664 152.98 21.1787L153.098 22.1738C153.427 24.9372 151.436 27.4372 148.67 27.7356L138.213 28.8633L131.333 28.8805C128.603 28.8873 126.372 26.7028 126.321 23.9732L126.266 21.0194C126.213 18.1345 128.606 15.8032 131.488 15.9317L138.775 16.2564Z" fill="white" stroke="#080809"/>
<path d="M121.774 16.2565L131.288 16.7768C133.713 16.9095 135.693 18.7665 135.979 21.1788L136.098 22.1739C136.427 24.9373 134.436 27.4372 131.669 27.7356L121.212 28.8634L114.332 28.8805C111.602 28.8873 109.371 26.7029 109.321 23.9732L109.266 21.0195C109.212 18.1346 111.605 15.8033 114.488 15.9318L121.774 16.2565Z" fill="white" stroke="#080809"/>
<path d="M103.774 16.3352L113.288 16.8555C115.713 16.9881 117.693 18.8451 117.98 21.2574L118.098 22.2526C118.427 25.0159 116.436 27.5159 113.669 27.8143L103.212 28.9421L96.3324 28.9592C93.6023 28.966 91.3715 26.7816 91.3209 24.0519L91.2661 21.0982C91.2126 18.2133 93.6053 15.882 96.4879 16.0104L103.774 16.3352Z" fill="white" stroke="#080809"/>
<path d="M84.7745 16.4182L94.2879 16.9385C96.7136 17.0711 98.6929 18.9281 98.9798 21.3404L99.0982 22.3356C99.4269 25.0989 97.4361 27.5989 94.6693 27.8973L84.2126 29.0251L77.3326 29.0422C74.6025 29.049 72.3717 26.8646 72.321 24.1349L72.2663 21.1812C72.2128 18.2963 74.6055 15.965 77.488 16.0934L84.7745 16.4182Z" fill="white" stroke="#080809"/>
<path d="M66.7747 16.4968L76.2881 17.0171C78.7137 17.1498 80.6931 19.0068 80.98 21.4191L81.0984 22.4142C81.4271 25.1776 79.4363 27.6775 76.6695 27.9759L66.2128 29.1037L59.3328 29.1208C56.6027 29.1276 54.3718 26.9432 54.3212 24.2135L54.2665 21.2598C54.213 18.3749 56.6057 16.0436 59.4882 16.1721L66.7747 16.4968Z" fill="white" stroke="#080809"/>
<path d="M54.2342 109.333L54.7961 99.8223C54.9393 97.3972 56.805 95.426 59.2185 95.1496L60.2142 95.0356C62.9789 94.719 65.4702 96.7206 65.7565 99.4887L66.8386 109.95L66.8256 116.83C66.8205 119.56 64.6264 121.782 61.8965 121.82L58.9425 121.862C56.0574 121.903 53.7366 119.5 53.8777 116.618L54.2342 109.333Z" fill="white" stroke="#080809"/>
<path d="M54.2342 127.333L54.7961 117.822C54.9393 115.397 56.805 113.426 59.2185 113.149L60.2142 113.035C62.9789 112.719 65.4702 114.72 65.7565 117.489L66.8386 127.95L66.8256 134.83C66.8205 137.56 64.6264 139.781 61.8965 139.82L58.9425 139.862C56.0574 139.903 53.7366 137.5 53.8777 134.618L54.2342 127.333Z" fill="white" stroke="#080809"/>
<path d="M54.2342 146.333L54.7961 136.822C54.9393 134.397 56.805 132.426 59.2185 132.149L60.2142 132.035C62.9789 131.719 65.4702 133.72 65.7565 136.489L66.8386 146.95L66.8256 153.83C66.8205 156.56 64.6264 158.781 61.8965 158.82L58.9425 158.862C56.0574 158.903 53.7366 156.5 53.8777 153.618L54.2342 146.333Z" fill="white" stroke="#080809"/>
<path d="M54.2342 164.333L54.7961 154.822C54.9393 152.397 56.805 150.426 59.2185 150.149L60.2142 150.035C62.9789 149.719 65.4702 151.72 65.7565 154.489L66.8386 164.95L66.8256 171.83C66.8205 174.56 64.6264 176.781 61.8965 176.82L58.9425 176.862C56.0574 176.903 53.7366 174.5 53.8777 171.618L54.2342 164.333Z" fill="white" stroke="#080809"/>
<path d="M138.775 164.256L148.288 164.777C150.714 164.909 152.693 166.766 152.98 169.179L153.098 170.174C153.427 172.937 151.436 175.437 148.67 175.736L138.213 176.863L131.333 176.881C128.603 176.887 126.372 174.703 126.321 171.973L126.266 169.019C126.213 166.135 128.606 163.803 131.488 163.932L138.775 164.256Z" fill="white" stroke="#080809"/>
<path d="M121.774 164.257L131.288 164.777C133.713 164.91 135.693 166.767 135.979 169.179L136.098 170.174C136.427 172.937 134.436 175.437 131.669 175.736L121.212 176.863L114.332 176.881C111.602 176.887 109.371 174.703 109.321 171.973L109.266 169.02C109.212 166.135 111.605 163.803 114.488 163.932L121.774 164.257Z" fill="white" stroke="#080809"/>
<path d="M103.774 164.335L113.288 164.856C115.713 164.988 117.693 166.845 117.98 169.258L118.098 170.253C118.427 173.016 116.436 175.516 113.669 175.814L103.212 176.942L96.3324 176.959C93.6023 176.966 91.3715 174.782 91.3209 172.052L91.2661 169.098C91.2126 166.213 93.6053 163.882 96.4879 164.011L103.774 164.335Z" fill="white" stroke="#080809"/>
<path d="M84.7745 164.418L94.2879 164.939C96.7136 165.071 98.6929 166.928 98.9798 169.341L99.0982 170.336C99.4269 173.099 97.4361 175.599 94.6693 175.897L84.2126 177.025L77.3326 177.042C74.6025 177.049 72.3717 174.865 72.321 172.135L72.2663 169.181C72.2128 166.296 74.6055 163.965 77.488 164.094L84.7745 164.418Z" fill="white" stroke="#080809"/>
<path d="M66.7747 164.497L76.2881 165.017C78.7137 165.15 80.6931 167.007 80.98 169.419L81.0984 170.414C81.4271 173.178 79.4363 175.678 76.6695 175.976L66.2128 177.104L59.3328 177.121C56.6027 177.128 54.3718 174.943 54.3212 172.214L54.2665 169.26C54.213 166.375 56.6057 164.044 59.4882 164.172L66.7747 164.497Z" fill="white" stroke="#080809"/>
</svg>
