<svg width="236" height="280" viewBox="0 0 236 280" fill="none" xmlns="http://www.w3.org/2000/svg">
<rect width="236" height="280" fill="none"/>
<circle cx="90.8928" cy="82.5792" r="25" transform="rotate(-29.3193 90.8928 82.5792)" fill="#080809"/>
<circle cx="90.1037" cy="122.018" r="25" transform="rotate(-29.3193 90.1037 122.018)" fill="#080809"/>
<circle cx="89.3147" cy="161.456" r="25" transform="rotate(-29.3193 89.3147 161.456)" fill="#080809"/>
<circle cx="87.5463" cy="199.15" r="25" transform="rotate(-29.3193 87.5463 199.15)" fill="#080809"/>
<circle cx="162.498" cy="138.768" r="25" transform="rotate(60.5652 162.498 138.768)" fill="#080809"/>
<circle cx="123.059" cy="138.059" r="25" transform="rotate(60.5652 123.059 138.059)" fill="#080809"/>
<circle cx="160.498" cy="75.7683" r="25" transform="rotate(60.5652 160.498 75.7683)" fill="#080809"/>
<circle cx="121.059" cy="75.0587" r="25" transform="rotate(60.5652 121.059 75.0587)" fill="#080809"/>
<circle cx="160.498" cy="205.768" r="25" transform="rotate(60.5652 160.498 205.768)" fill="#080809"/>
<circle cx="121.059" cy="205.059" r="25" transform="rotate(60.5652 121.059 205.059)" fill="#080809"/>
</svg>
