<svg width="203" height="186" viewBox="0 0 203 186" fill="none" xmlns="http://www.w3.org/2000/svg">
<g clip-path="url(#clip0)">
<rect width="203" height="186" fill="none"/>
<path d="M145.775 76.2565L155.288 76.7768C157.714 76.9095 159.693 78.7665 159.98 81.1788L160.098 82.1739C160.427 84.9373 158.436 87.4372 155.67 87.7356L145.213 88.8634L138.333 88.8805C135.603 88.8873 133.372 86.7029 133.321 83.9732L133.266 81.0195C133.213 78.1346 135.606 75.8033 138.488 75.9318L145.775 76.2565Z" fill="white" stroke="#080809"/>
<path d="M128.774 76.2566L138.288 76.7769C140.713 76.9095 142.693 78.7665 142.979 81.1788L143.098 82.174C143.427 84.9373 141.436 87.4373 138.669 87.7357L128.212 88.8635L121.332 88.8806C118.602 88.8874 116.371 86.703 116.321 83.9733L116.266 81.0196C116.212 78.1346 118.605 75.8034 121.488 75.9318L128.774 76.2566Z" fill="white" stroke="#080809"/>
<path d="M110.774 76.3352L120.288 76.8555C122.713 76.9882 124.693 78.8452 124.98 81.2575L125.098 82.2526C125.427 85.016 123.436 87.516 120.669 87.8144L110.212 88.9421L103.332 88.9593C100.602 88.9661 98.3715 86.7816 98.3209 84.052L98.2661 81.0982C98.2126 78.2133 100.605 75.882 103.488 76.0105L110.774 76.3352Z" fill="white" stroke="#080809"/>
<path d="M91.7745 76.4182L101.288 76.9385C103.714 77.0712 105.693 78.9282 105.98 81.3405L106.098 82.3356C106.427 85.099 104.436 87.599 101.669 87.8974L91.2126 89.0252L84.3326 89.0423C81.6025 89.0491 79.3717 86.8646 79.321 84.135L79.2663 81.1812C79.2128 78.2963 81.6055 75.965 84.488 76.0935L91.7745 76.4182Z" fill="white" stroke="#080809"/>
<path d="M73.7747 76.4968L83.2881 77.0172C85.7137 77.1498 87.6931 79.0068 87.98 81.4191L88.0984 82.4143C88.4271 85.1776 86.4363 87.6776 83.6695 87.976L73.2128 89.1038L66.3328 89.1209C63.6027 89.1277 61.3718 86.9432 61.3212 84.2136L61.2665 81.2598C61.213 78.3749 63.6057 76.0437 66.4882 76.1721L73.7747 76.4968Z" fill="white" stroke="#080809"/>
<path d="M60.2342 34.3332L60.7961 24.8222C60.9393 22.3971 62.8049 20.4259 65.2185 20.1495L66.2141 20.0355C68.9789 19.7189 71.4702 21.7206 71.7565 24.4886L72.8385 34.9502L72.8256 41.8302C72.8205 44.5603 70.6263 46.7816 67.8965 46.8203L64.9425 46.8621C62.0574 46.903 59.7366 44.5002 59.8776 41.6182L60.2342 34.3332Z" fill="white" stroke="#080809"/>
<path d="M60.2342 52.3334L60.7961 42.8223C60.9393 40.3973 62.8049 38.4261 65.2185 38.1497L66.2141 38.0356C68.9789 37.719 71.4702 39.7207 71.7565 42.4887L72.8385 52.9503L72.8256 59.8303C72.8205 62.5604 70.6263 64.7817 67.8965 64.8204L64.9425 64.8623C62.0574 64.9031 59.7366 62.5003 59.8776 59.6183L60.2342 52.3334Z" fill="white" stroke="#080809"/>
<path d="M60.2342 71.3334L60.7961 61.8223C60.9393 59.3973 62.8049 57.4261 65.2185 57.1497L66.2141 57.0356C68.9789 56.719 71.4702 58.7207 71.7565 61.4887L72.8385 71.9503L72.8256 78.8303C72.8205 81.5604 70.6263 83.7817 67.8965 83.8204L64.9425 83.8623C62.0574 83.9031 59.7366 81.5003 59.8776 78.6183L60.2342 71.3334Z" fill="white" stroke="#080809"/>
<path d="M60.2342 89.3334L60.7961 79.8223C60.9393 77.3973 62.8049 75.4261 65.2185 75.1497L66.2141 75.0356C68.9789 74.719 71.4702 76.7207 71.7565 79.4887L72.8385 89.9503L72.8256 96.8303C72.8205 99.5604 70.6263 101.782 67.8965 101.82L64.9425 101.862C62.0574 101.903 59.7366 99.5003 59.8776 96.6183L60.2342 89.3334Z" fill="white" stroke="#080809"/>
<path d="M144.775 12.2564L154.288 12.7767C156.714 12.9094 158.693 14.7664 158.98 17.1787L159.098 18.1738C159.427 20.9372 157.436 23.4372 154.67 23.7356L144.213 24.8633L137.333 24.8805C134.603 24.8873 132.372 22.7028 132.321 19.9732L132.266 17.0194C132.213 14.1345 134.606 11.8032 137.488 11.9317L144.775 12.2564Z" fill="white" stroke="#080809"/>
<path d="M127.774 12.2565L137.288 12.7768C139.713 12.9095 141.693 14.7665 141.979 17.1788L142.098 18.1739C142.427 20.9373 140.436 23.4372 137.669 23.7356L127.212 24.8634L120.332 24.8805C117.602 24.8873 115.371 22.7029 115.321 19.9732L115.266 17.0195C115.212 14.1346 117.605 11.8033 120.488 11.9318L127.774 12.2565Z" fill="white" stroke="#080809"/>
<path d="M109.774 12.3352L119.288 12.8555C121.713 12.9881 123.693 14.8451 123.98 17.2574L124.098 18.2526C124.427 21.0159 122.436 23.5159 119.669 23.8143L109.212 24.9421L102.332 24.9592C99.6023 24.966 97.3715 22.7816 97.3209 20.0519L97.2661 17.0982C97.2126 14.2133 99.6053 11.882 102.488 12.0104L109.774 12.3352Z" fill="white" stroke="#080809"/>
<path d="M90.7745 12.4182L100.288 12.9385C102.714 13.0711 104.693 14.9281 104.98 17.3404L105.098 18.3356C105.427 21.0989 103.436 23.5989 100.669 23.8973L90.2126 25.0251L83.3326 25.0422C80.6025 25.049 78.3717 22.8646 78.321 20.1349L78.2663 17.1812C78.2128 14.2963 80.6055 11.965 83.488 12.0934L90.7745 12.4182Z" fill="white" stroke="#080809"/>
<path d="M72.7747 12.4968L82.2881 13.0171C84.7137 13.1498 86.6931 15.0068 86.98 17.4191L87.0984 18.4142C87.4271 21.1776 85.4363 23.6775 82.6695 23.9759L72.2128 25.1037L65.3328 25.1208C62.6027 25.1276 60.3718 22.9432 60.3212 20.2135L60.2665 17.2598C60.213 14.3749 62.6057 12.0436 65.4882 12.1721L72.7747 12.4968Z" fill="white" stroke="#080809"/>
<path d="M60.2342 105.333L60.7961 95.8223C60.9393 93.3972 62.8049 91.426 65.2185 91.1496L66.2141 91.0356C68.9789 90.719 71.4702 92.7206 71.7565 95.4887L72.8385 105.95L72.8256 112.83C72.8205 115.56 70.6263 117.782 67.8965 117.82L64.9425 117.862C62.0574 117.903 59.7366 115.5 59.8776 112.618L60.2342 105.333Z" fill="white" stroke="#080809"/>
<path d="M60.2342 123.333L60.7961 113.822C60.9393 111.397 62.8049 109.426 65.2185 109.149L66.2141 109.035C68.9789 108.719 71.4702 110.72 71.7565 113.489L72.8385 123.95L72.8256 130.83C72.8205 133.56 70.6263 135.781 67.8965 135.82L64.9425 135.862C62.0574 135.903 59.7366 133.5 59.8776 130.618L60.2342 123.333Z" fill="white" stroke="#080809"/>
<path d="M60.2342 142.333L60.7961 132.822C60.9393 130.397 62.8049 128.426 65.2185 128.149L66.2141 128.035C68.9789 127.719 71.4702 129.72 71.7565 132.489L72.8385 142.95L72.8256 149.83C72.8205 152.56 70.6263 154.781 67.8965 154.82L64.9425 154.862C62.0574 154.903 59.7366 152.5 59.8776 149.618L60.2342 142.333Z" fill="white" stroke="#080809"/>
<path d="M60.2342 160.333L60.7961 150.822C60.9393 148.397 62.8049 146.426 65.2185 146.149L66.2141 146.035C68.9789 145.719 71.4702 147.72 71.7565 150.489L72.8385 160.95L72.8256 167.83C72.8205 170.56 70.6263 172.781 67.8965 172.82L64.9425 172.862C62.0574 172.903 59.7366 170.5 59.8776 167.618L60.2342 160.333Z" fill="white" stroke="#080809"/>
</g>
<defs>
<clipPath id="clip0">
<rect width="203" height="186" fill="white"/>
</clipPath>
</defs>
</svg>
