<svg width="230" height="186" viewBox="0 0 230 186" fill="none" xmlns="http://www.w3.org/2000/svg">
<rect width="230" height="186" fill="none"/>
<path d="M167.059 36.2758L172.623 44.0102C174.041 45.9823 173.837 48.6887 172.139 50.4256L171.438 51.1422C169.493 53.1319 166.297 53.1502 164.329 51.183L156.89 43.7481L152.56 38.4015C150.842 36.2798 151.143 33.1721 153.237 31.4201L155.503 29.5242C157.715 27.6726 161.032 28.0731 162.74 30.3982L167.059 36.2758Z" fill="white" stroke="#080809"/>
<path d="M150.847 22.4894L158.564 28.0769C160.532 29.5016 161.19 32.1344 160.126 34.318L159.687 35.2188C158.467 37.7202 155.44 38.7445 152.952 37.4976L143.55 32.7852L137.756 29.0751C135.456 27.6029 134.763 24.5586 136.198 22.2361L137.751 19.7229C139.268 17.2683 142.542 16.6035 144.896 18.2719L150.847 22.4894Z" fill="white" stroke="#080809"/>
<path d="M128.54 16.7252L137.865 18.6757C140.243 19.1731 141.92 21.3076 141.839 23.7356L141.806 24.7372C141.714 27.5185 139.368 29.6893 136.588 29.5666L126.081 29.1027L119.277 28.081C116.577 27.6755 114.702 25.1793 115.064 22.4733L115.456 19.5452C115.838 16.6853 118.556 14.7419 121.386 15.3041L128.54 16.7252Z" fill="white" stroke="#080809"/>
<path d="M106.243 17.5565L115.733 16.7159C118.153 16.5015 120.377 18.0575 121.005 20.4043L121.264 21.3724C121.983 24.0607 120.369 26.8189 117.673 27.5085L107.483 30.1148L100.676 31.1122C97.9746 31.5079 95.4552 29.6637 95.0162 26.9691L94.5411 24.0533C94.077 21.2055 96.1131 18.557 98.9845 18.2734L106.243 17.5565Z" fill="white" stroke="#080809"/>
<path d="M86.0548 24.5778L94.5451 20.2545C96.7099 19.1522 99.3538 19.7654 100.812 21.7081L101.414 22.5096C103.085 24.735 102.617 27.8964 100.374 29.5427L91.8942 35.7648L85.9515 39.2316C83.5933 40.6074 80.5676 39.8371 79.1542 37.5013L77.6248 34.9737C76.1311 32.5051 77.0311 29.288 79.589 27.9528L86.0548 24.5778Z" fill="white" stroke="#080809"/>
<path d="M71.4619 35.8196L78.3313 29.2175C80.0828 27.5342 82.7909 27.3534 84.7507 28.7889L85.5591 29.3811C87.8041 31.0256 88.2744 34.1866 86.6055 36.4134L80.2979 44.8294L75.6176 49.8723C73.7604 51.8734 70.6414 52.0148 68.6107 50.1899L66.4134 48.2153C64.2673 46.2867 64.1945 42.9468 66.2545 40.9265L71.4619 35.8196Z" fill="white" stroke="#080809"/>
<path d="M60.6143 53.6096L63.4087 44.501C64.1212 42.1786 66.4 40.7043 68.8104 41.0063L69.8048 41.1309C72.5661 41.4768 74.5135 44.0107 74.1373 46.768L72.7156 57.1888L71.0765 63.8707C70.4261 66.5223 67.769 68.1619 65.1074 67.5541L62.2273 66.8965C59.4143 66.2541 57.7273 63.3707 58.5457 60.6038L60.6143 53.6096Z" fill="white" stroke="#080809"/>
<path d="M56.4894 71.667L57.7359 62.2212C58.0538 59.8128 60.0567 57.9813 62.4839 57.8798L63.4852 57.8379C66.2656 57.7215 68.606 59.8977 68.6919 62.6792L69.0164 73.1915L68.5072 80.0527C68.3051 82.7754 65.9564 84.8326 63.2309 84.6742L60.2816 84.5029C57.4011 84.3355 55.2597 81.7715 55.6082 78.9072L56.4894 71.667Z" fill="white" stroke="#080809"/>
<path d="M57.3046 90.7835L57.2743 81.2559C57.2665 78.8266 59.0061 76.7433 61.3977 76.3175L62.3844 76.1418C65.1241 75.6539 67.735 77.4969 68.1928 80.2418L69.9229 90.6159L70.3376 97.4834C70.5021 100.209 68.4503 102.562 65.7281 102.77L62.7825 102.996C59.9055 103.216 57.4398 100.962 57.4015 98.0765L57.3046 90.7835Z" fill="white" stroke="#080809"/>
<path d="M57.75 111.605L57.7196 102.077C57.7119 99.648 59.4514 97.5647 61.8431 97.1388L62.8298 96.9631C65.5695 96.4753 68.1803 98.3183 68.6381 101.063L70.3683 111.437L70.783 118.305C70.9475 121.03 68.8956 123.383 66.1735 123.592L63.2278 123.817C60.3508 124.037 57.8852 121.783 57.8468 118.898L57.75 111.605Z" fill="white" stroke="#080809"/>
<path d="M63.1702 133.616L59.6413 124.766C58.7415 122.509 59.5939 119.932 61.6618 118.658L62.5149 118.132C64.8838 116.671 67.9891 117.426 69.4235 119.811L74.8443 128.823L77.7533 135.058C78.9076 137.532 77.864 140.475 75.4087 141.669L72.7519 142.961C70.1571 144.223 67.0357 143.032 65.94 140.363L63.1702 133.616Z" fill="white" stroke="#080809"/>
<path d="M76.6042 151.632L70.3997 144.401C68.8177 142.557 68.7898 139.843 70.3335 137.968L70.9703 137.194C72.7387 135.045 75.9211 134.754 78.0504 136.545L86.0975 143.317L90.8687 148.274C92.762 150.241 92.7274 153.363 90.791 155.288L88.6957 157.371C86.6492 159.405 83.3105 159.289 81.4095 157.118L76.6042 151.632Z" fill="white" stroke="#080809"/>
<path d="M95.605 164.825L87.068 160.595C84.8913 159.516 83.8048 157.029 84.4925 154.699L84.7763 153.738C85.5641 151.069 88.3795 149.557 91.0397 150.374L101.094 153.462L107.423 156.159C109.934 157.23 111.123 160.117 110.092 162.645L108.978 165.381C107.889 168.053 104.771 169.252 102.173 167.997L95.605 164.825Z" fill="white" stroke="#080809"/>
<path d="M116.324 168.789L106.796 168.749C104.367 168.739 102.296 166.984 101.888 164.589L101.72 163.601C101.252 160.858 103.114 158.261 105.863 157.823L116.249 156.17L123.119 155.805C125.846 155.661 128.184 157.73 128.372 160.454L128.576 163.401C128.775 166.28 126.503 168.729 123.617 168.746L116.324 168.789Z" fill="white" stroke="#080809"/>
<path d="M139.371 165.085L130.237 167.795C127.908 168.486 125.419 167.404 124.338 165.228L123.891 164.331C122.652 161.839 123.686 158.815 126.191 157.604L135.659 153.024L142.132 150.693C144.701 149.768 147.537 151.075 148.502 153.629L149.548 156.392C150.569 159.09 149.1 162.091 146.342 162.94L139.371 165.085Z" fill="white" stroke="#080809"/>
<path d="M156.279 152.584L149.871 159.635C148.238 161.433 145.548 161.796 143.496 160.496L142.649 159.96C140.298 158.471 139.615 155.349 141.13 153.015L146.855 144.192L151.184 138.844C152.902 136.722 156.004 136.371 158.153 138.054L160.479 139.876C162.75 141.655 163.049 144.982 161.13 147.137L156.279 152.584Z" fill="white" stroke="#080809"/>
<path d="M168.328 137.035L162.607 144.654C161.148 146.597 158.505 147.21 156.34 146.107L155.447 145.653C152.967 144.39 151.995 141.345 153.285 138.88L158.16 129.56L161.97 123.832C163.482 121.558 166.538 120.918 168.835 122.393L171.321 123.99C173.749 125.549 174.357 128.834 172.648 131.158L168.328 137.035Z" fill="white" stroke="#080809"/>
<path d="M176.25 120.307L172.957 129.248C172.117 131.527 169.76 132.873 167.37 132.439L166.384 132.259C163.646 131.761 161.842 129.124 162.37 126.392L164.365 116.065L166.37 109.484C167.166 106.872 169.91 105.382 172.534 106.136L175.373 106.952C178.146 107.748 179.672 110.721 178.702 113.438L176.25 120.307Z" fill="white" stroke="#080809"/>
<path d="M185.973 165.748L185.531 175.265C185.419 177.692 183.578 179.687 181.169 179.994L180.174 180.12C177.414 180.472 174.897 178.502 174.576 175.738L173.361 165.291L173.287 158.411C173.258 155.681 175.423 153.433 178.153 153.359L181.106 153.28C183.99 153.202 186.341 155.576 186.237 158.459L185.973 165.748Z" fill="white" stroke="#080809"/>
<path d="M185.442 149.666L185.001 159.184C184.888 161.61 183.048 163.605 180.638 163.912L179.644 164.039C176.883 164.39 174.367 162.42 174.045 159.656L172.831 149.209L172.756 142.33C172.727 139.6 174.893 137.351 177.622 137.277L180.575 137.198C183.459 137.121 185.81 139.494 185.706 142.377L185.442 149.666Z" fill="white" stroke="#080809"/>
<path d="M185.201 130.668L184.76 140.185C184.647 142.612 182.807 144.607 180.397 144.914L179.403 145.04C176.642 145.392 174.126 143.422 173.804 140.658L172.59 130.211L172.515 123.331C172.486 120.601 174.652 118.352 177.381 118.279L180.334 118.2C183.218 118.122 185.569 120.495 185.465 123.379L185.201 130.668Z" fill="white" stroke="#080809"/>
<path d="M184.973 112.669L184.531 122.187C184.419 124.613 182.578 126.608 180.169 126.915L179.174 127.042C176.414 127.393 173.897 125.424 173.576 122.659L172.361 112.212L172.287 105.333C172.258 102.603 174.423 100.354 177.153 100.28L180.106 100.201C182.99 100.124 185.341 102.497 185.237 105.38L184.973 112.669Z" fill="white" stroke="#080809"/>
<path d="M171.774 99.2565L181.288 99.7768C183.713 99.9095 185.693 101.766 185.98 104.179L186.098 105.174C186.427 107.937 184.436 110.437 181.669 110.736L171.212 111.863L164.332 111.881C161.602 111.887 159.371 109.703 159.321 106.973L159.266 104.019C159.212 101.135 161.605 98.8033 164.488 98.9318L171.774 99.2565Z" fill="white" stroke="#080809"/>
<path d="M152.774 99.3395L162.288 99.8598C164.714 99.9925 166.693 101.849 166.98 104.262L167.098 105.257C167.427 108.02 165.436 110.52 162.669 110.819L152.213 111.946L145.333 111.964C142.602 111.97 140.372 109.786 140.321 107.056L140.266 104.102C140.213 101.218 142.605 98.8863 145.488 99.0148L152.774 99.3395Z" fill="white" stroke="#080809"/>
<path d="M134.775 99.4181L144.288 99.9384C146.714 100.071 148.693 101.928 148.98 104.34L149.098 105.336C149.427 108.099 147.436 110.599 144.67 110.897L134.213 112.025L127.333 112.042C124.603 112.049 122.372 109.865 122.321 107.135L122.266 104.181C122.213 101.296 124.606 98.9649 127.488 99.0934L134.775 99.4181Z" fill="white" stroke="#080809"/>
</svg>
