<svg width="220" height="280" viewBox="0 0 220 280" fill="none" xmlns="http://www.w3.org/2000/svg">
<rect width="220" height="280" fill="none"/>
<path d="M149.008 89.5001L154.213 97.4805C155.54 99.5153 155.212 102.21 153.436 103.867L152.704 104.551C150.669 106.45 147.476 106.322 145.6 104.267L138.508 96.5001L134.427 90.9612C132.808 88.7633 133.25 85.6727 135.422 84.0181L137.772 82.2277C140.067 80.479 143.362 81.0306 144.962 83.4314L149.008 89.5001Z" fill="white" stroke="#080809"/>
<path d="M132.608 75.4895L140.325 81.077C142.293 82.5016 142.952 85.1345 141.887 87.3181L141.448 88.2189C140.228 90.7203 137.201 91.7446 134.713 90.4977L125.311 85.7853L119.517 82.0752C117.218 80.603 116.524 77.5587 117.96 75.2361L119.512 72.723C121.029 70.2684 124.303 69.6035 126.657 71.272L132.608 75.4895Z" fill="white" stroke="#080809"/>
<path d="M110.301 69.7252L119.627 71.6758C122.004 72.1731 123.681 74.3077 123.6 76.7357L123.567 77.7373C123.475 80.5186 121.129 82.6894 118.349 82.5666L107.842 82.1028L101.038 81.081C98.3385 80.6756 96.463 78.1794 96.8251 75.4734L97.2169 72.5452C97.5996 69.6853 100.317 67.742 103.147 68.3042L110.301 69.7252Z" fill="white" stroke="#080809"/>
<path d="M88.0041 70.5566L97.4945 69.7159C99.9143 69.5016 102.138 71.0576 102.766 73.4044L103.025 74.3725C103.744 77.0608 102.13 79.8189 99.4337 80.5086L89.2444 83.1149L82.4371 84.1122C79.7358 84.508 77.2164 82.6638 76.7773 79.9692L76.3022 77.0534C75.8382 74.2055 77.8743 71.5571 80.7457 71.2735L88.0041 70.5566Z" fill="white" stroke="#080809"/>
<path d="M67.816 77.5778L76.3063 73.2546C78.4711 72.1523 81.115 72.7655 82.5735 74.7082L83.1752 75.5096C84.846 77.7351 84.3784 80.8964 82.1348 82.5428L73.6554 88.7649L67.7127 92.2317C65.3545 93.6074 62.3287 92.8372 60.9154 90.5013L59.386 87.9738C57.8922 85.5051 58.7922 82.288 61.3501 80.9529L67.816 77.5778Z" fill="white" stroke="#080809"/>
<path d="M53.2231 88.8197L60.0925 82.2176C61.844 80.5342 64.5521 80.3534 66.5118 81.789L67.3203 82.3812C69.5653 84.0257 70.0356 87.1866 68.3666 89.4135L62.059 97.8294L57.3788 102.872C55.5216 104.873 52.4026 105.015 50.3719 103.19L48.1746 101.215C46.0284 99.2867 45.9556 95.9469 48.0157 93.9266L53.2231 88.8197Z" fill="white" stroke="#080809"/>
<path d="M42.3755 106.61L45.1699 97.5011C45.8824 95.1786 48.1611 93.7043 50.5716 94.0063L51.566 94.1309C54.3272 94.4769 56.2747 97.0108 55.8985 99.768L54.4767 110.189L52.8377 116.871C52.1873 119.522 49.5302 121.162 46.8686 120.554L43.9885 119.897C41.1755 119.254 39.4885 116.371 40.3069 113.604L42.3755 106.61Z" fill="white" stroke="#080809"/>
<path d="M38.2508 124.667L39.4973 115.221C39.8151 112.813 41.8181 110.981 44.2453 110.88L45.2466 110.838C48.027 110.722 50.3673 112.898 50.4532 115.679L50.7778 126.192L50.2685 133.053C50.0665 135.775 47.7178 137.833 44.9922 137.674L42.043 137.503C39.1624 137.336 37.021 134.772 37.3696 131.907L38.2508 124.667Z" fill="white" stroke="#080809"/>
<path d="M39.0659 143.784L39.0356 134.256C39.0278 131.827 40.7673 129.743 43.159 129.318L44.1457 129.142C46.8854 128.654 49.4963 130.497 49.9541 133.242L51.6842 143.616L52.0989 150.483C52.2634 153.209 50.2116 155.562 47.4894 155.77L44.5437 155.996C41.6667 156.216 39.2011 153.962 39.1628 151.077L39.0659 143.784Z" fill="white" stroke="#080809"/>
<path d="M39.5112 164.605L39.4809 155.077C39.4731 152.648 41.2127 150.565 43.6044 150.139L44.591 149.963C47.3307 149.475 49.9416 151.318 50.3994 154.063L52.1295 164.437L52.5442 171.305C52.7087 174.03 50.6569 176.383 47.9347 176.592L44.9891 176.817C42.1121 177.037 39.6464 174.783 39.6081 171.898L39.5112 164.605Z" fill="white" stroke="#080809"/>
<path d="M44.9315 186.616L41.4026 177.766C40.5028 175.509 41.3552 172.932 43.4231 171.658L44.2762 171.132C46.6451 169.671 49.7504 170.426 51.1848 172.811L56.6056 181.823L59.5146 188.058C60.6689 190.532 59.6253 193.475 57.17 194.669L54.5132 195.961C51.9184 197.223 48.797 196.032 47.7013 193.363L44.9315 186.616Z" fill="white" stroke="#080809"/>
<path d="M58.3653 204.632L52.1608 197.401C50.5788 195.557 50.5509 192.844 52.0946 190.968L52.7314 190.194C54.4998 188.045 57.6823 187.754 59.8115 189.546L67.8587 196.317L72.6298 201.274C74.5231 203.241 74.4885 206.363 72.5521 208.288L70.4568 210.371C68.4103 212.405 65.0716 212.289 63.1706 210.118L58.3653 204.632Z" fill="white" stroke="#080809"/>
<path d="M77.3662 217.825L68.8292 213.595C66.6524 212.516 65.566 210.029 66.2537 207.699L66.5374 206.738C67.3253 204.069 70.1406 202.557 72.8008 203.374L82.8547 206.462L89.1837 209.159C91.6952 210.23 92.8837 213.117 91.8536 215.646L90.739 218.381C89.6503 221.054 86.5321 222.252 83.9339 220.997L77.3662 217.825Z" fill="white" stroke="#080809"/>
<path d="M98.085 221.789L88.5575 221.749C86.1282 221.739 84.0578 219.984 83.6495 217.589L83.4811 216.601C83.0135 213.858 84.8756 211.261 87.6238 210.823L98.0104 209.17L104.881 208.806C107.607 208.661 109.945 210.73 110.133 213.454L110.337 216.401C110.536 219.28 108.264 221.729 105.379 221.746L98.085 221.789Z" fill="white" stroke="#080809"/>
<path d="M121.132 218.085L111.998 220.795C109.669 221.487 107.181 220.404 106.099 218.228L105.653 217.331C104.414 214.839 105.447 211.815 107.952 210.604L117.42 206.024L123.893 203.693C126.462 202.768 129.298 204.075 130.264 206.629L131.309 209.392C132.33 212.091 130.861 215.091 128.103 215.94L121.132 218.085Z" fill="white" stroke="#080809"/>
<path d="M138.04 205.584L131.633 212.635C129.999 214.433 127.309 214.796 125.257 213.496L124.41 212.96C122.059 211.471 121.377 208.349 122.891 206.015L128.616 197.192L132.945 191.844C134.663 189.722 137.765 189.371 139.914 191.054L142.24 192.876C144.512 194.655 144.81 197.982 142.891 200.137L138.04 205.584Z" fill="white" stroke="#080809"/>
<path d="M150.089 190.035L144.368 197.654C142.91 199.597 140.266 200.21 138.101 199.107L137.208 198.653C134.728 197.39 133.757 194.345 135.046 191.88L139.921 182.56L143.732 176.832C145.244 174.558 148.299 173.918 150.597 175.393L153.082 176.99C155.51 178.549 156.118 181.834 154.409 184.159L150.089 190.035Z" fill="white" stroke="#080809"/>
<path d="M158.011 173.307L154.718 182.248C153.878 184.527 151.521 185.873 149.131 185.439L148.145 185.259C145.407 184.761 143.603 182.124 144.131 179.392L146.126 169.065L148.132 162.484C148.927 159.872 151.671 158.382 154.295 159.136L157.134 159.952C159.908 160.748 161.433 163.721 160.463 166.438L158.011 173.307Z" fill="white" stroke="#080809"/>
<path d="M167.734 218.748L167.292 228.266C167.18 230.692 165.339 232.687 162.93 232.994L161.935 233.121C159.175 233.472 156.658 231.502 156.337 228.738L155.122 218.291L155.048 211.412C155.019 208.682 157.184 206.433 159.914 206.359L162.867 206.28C165.751 206.202 168.102 208.576 167.998 211.459L167.734 218.748Z" fill="white" stroke="#080809"/>
<path d="M167.203 202.666L166.762 212.184C166.65 214.61 164.809 216.605 162.399 216.912L161.405 217.039C158.645 217.39 156.128 215.42 155.807 212.656L154.592 202.209L154.518 195.33C154.488 192.6 156.654 190.351 159.383 190.277L162.336 190.198C165.221 190.121 167.572 192.494 167.467 195.377L167.203 202.666Z" fill="white" stroke="#080809"/>
<path d="M166.962 183.668L166.521 193.185C166.408 195.612 164.568 197.607 162.158 197.914L161.164 198.04C158.403 198.392 155.887 196.422 155.566 193.658L154.351 183.211L154.277 176.331C154.247 173.601 156.413 171.352 159.142 171.279L162.095 171.2C164.98 171.122 167.331 173.495 167.226 176.379L166.962 183.668Z" fill="white" stroke="#080809"/>
<path d="M166.734 165.669L166.292 175.187C166.18 177.613 164.339 179.608 161.93 179.915L160.935 180.042C158.175 180.393 155.658 178.424 155.337 175.659L154.122 165.212L154.048 158.333C154.019 155.603 156.184 153.354 158.914 153.281L161.867 153.201C164.751 153.124 167.102 155.497 166.998 158.38L166.734 165.669Z" fill="white" stroke="#080809"/>
<path d="M153.535 152.257L163.049 152.777C165.474 152.91 167.454 154.767 167.741 157.179L167.859 158.174C168.188 160.937 166.197 163.437 163.43 163.736L152.974 164.863L146.094 164.881C143.363 164.887 141.133 162.703 141.082 159.973L141.027 157.02C140.974 154.135 143.366 151.803 146.249 151.932L153.535 152.257Z" fill="white" stroke="#080809"/>
<path d="M134.536 152.34L144.049 152.86C146.475 152.993 148.454 154.85 148.741 157.262L148.86 158.257C149.188 161.02 147.198 163.52 144.431 163.819L133.974 164.946L127.094 164.964C124.364 164.97 122.133 162.786 122.082 160.056L122.028 157.103C121.974 154.218 124.367 151.886 127.249 152.015L134.536 152.34Z" fill="white" stroke="#080809"/>
<path d="M116.536 152.418L126.049 152.938C128.475 153.071 130.454 154.928 130.741 157.34L130.86 158.336C131.188 161.099 129.198 163.599 126.431 163.897L115.974 165.025L109.094 165.042C106.364 165.049 104.133 162.865 104.082 160.135L104.028 157.181C103.974 154.296 106.367 151.965 109.249 152.093L116.536 152.418Z" fill="white" stroke="#080809"/>
<circle cx="45.5856" cy="126.864" r="25" transform="rotate(-28.3 45.5856 126.864)" fill="#080809"/>
<circle cx="41.5856" cy="167.864" r="25" transform="rotate(-28.3 41.5856 167.864)" fill="#080809"/>
<circle cx="60.5856" cy="199.864" r="25" transform="rotate(-28.3 60.5856 199.864)" fill="#080809"/>
<circle cx="63.5856" cy="88.8642" r="25" transform="rotate(-28.3 63.5856 88.8642)" fill="#080809"/>
<circle cx="104.586" cy="213.864" r="25" transform="rotate(-28.3 104.586 213.864)" fill="#080809"/>
<circle cx="166.586" cy="189.864" r="25" transform="rotate(-28.3 166.586 189.864)" fill="#080809"/>
<circle cx="163.586" cy="228.864" r="25" transform="rotate(-28.3 163.586 228.864)" fill="#080809"/>
<circle cx="141.586" cy="196.864" r="25" transform="rotate(-28.3 141.586 196.864)" fill="#080809"/>
<circle cx="118.586" cy="158.864" r="25" transform="rotate(-28.3 118.586 158.864)" fill="#080809"/>
<circle cx="159.586" cy="156.864" r="25" transform="rotate(-28.3 159.586 156.864)" fill="#080809"/>
<circle cx="171.586" cy="101.864" r="25" transform="rotate(-28.3 171.586 101.864)" fill="#080809"/>
<circle cx="141.586" cy="79.8642" r="25" transform="rotate(-28.3 141.586 79.8642)" fill="#080809"/>
<circle cx="102.586" cy="73.8642" r="25" transform="rotate(-28.3 102.586 73.8642)" fill="#080809"/>
</svg>
