<svg width="1591" height="2106" viewBox="0 0 1591 2106" fill="none" xmlns="http://www.w3.org/2000/svg">
<rect width="1591" height="2106" fill="white"/>
<circle cx="215.332" cy="142.213" r="25" transform="rotate(-9.61294 215.332 142.213)" fill="#080809"/>
<circle cx="204.415" cy="179.56" r="25" transform="rotate(-9.61294 204.415 179.56)" fill="#080809"/>
<circle cx="190.374" cy="216.423" r="25" transform="rotate(-9.61294 190.374 216.423)" fill="#080809"/>
<circle cx="176.333" cy="253.285" r="25" transform="rotate(-9.61294 176.333 253.285)" fill="#080809"/>
<circle cx="161.957" cy="288.176" r="25" transform="rotate(-9.61294 161.957 288.176)" fill="#080809"/>
<circle r="25" transform="matrix(-0.990392 -0.138287 -0.138287 0.990392 232.849 142.026)" fill="#080809"/>
<circle r="25" transform="matrix(-0.990392 -0.138287 -0.138287 0.990392 244.846 179.041)" fill="#080809"/>
<circle r="25" transform="matrix(-0.990392 -0.138287 -0.138287 0.990392 259.952 215.48)" fill="#080809"/>
<circle r="25" transform="matrix(-0.990392 -0.138287 -0.138287 0.990392 275.058 251.919)" fill="#080809"/>
<circle r="25" transform="matrix(-0.990392 -0.138287 -0.138287 0.990392 226.527 236.456)" fill="#080809"/>
<circle r="25" transform="matrix(-0.990392 -0.138287 -0.138287 0.990392 290.441 286.377)" fill="#080809"/>
<circle cx="521.113" cy="135.864" r="25" transform="rotate(-28.3 521.113 135.864)" fill="#080809"/>
<circle cx="520.955" cy="176.164" r="25" transform="rotate(-28.3 520.955 176.164)" fill="#080809"/>
<circle cx="519.465" cy="215.582" r="25" transform="rotate(-28.3 519.465 215.582)" fill="#080809"/>
<circle cx="517.974" cy="255" r="25" transform="rotate(-28.3 517.974 255)" fill="#080809"/>
<circle cx="515.535" cy="292.657" r="25" transform="rotate(-28.3 515.535 292.657)" fill="#080809"/>
<circle cx="561.113" cy="132.864" r="25" transform="rotate(-28.3 561.113 132.864)" fill="#080809"/>
<circle cx="597.113" cy="149.864" r="25" transform="rotate(-28.3 597.113 149.864)" fill="#080809"/>
<circle cx="602.113" cy="184.864" r="25" transform="rotate(-28.3 602.113 184.864)" fill="#080809"/>
<circle cx="560.113" cy="212.864" r="25" transform="rotate(-28.3 560.113 212.864)" fill="#080809"/>
<circle cx="602.113" cy="225.864" r="25" transform="rotate(-28.3 602.113 225.864)" fill="#080809"/>
<circle cx="558.113" cy="293.864" r="25" transform="rotate(-28.3 558.113 293.864)" fill="#080809"/>
<circle cx="597.113" cy="283.864" r="25" transform="rotate(-28.3 597.113 283.864)" fill="#080809"/>
<circle cx="624.113" cy="263.864" r="25" transform="rotate(-28.3 624.113 263.864)" fill="#080809"/>
<circle cx="882.864" cy="157.864" r="25" transform="rotate(-28.3 882.864 157.864)" fill="#080809"/>
<circle cx="843.864" cy="143.864" r="25" transform="rotate(-28.3 843.864 143.864)" fill="#080809"/>
<circle cx="805.864" cy="153.864" r="25" transform="rotate(-28.3 805.864 153.864)" fill="#080809"/>
<circle cx="786.864" cy="191.864" r="25" transform="rotate(-28.3 786.864 191.864)" fill="#080809"/>
<circle cx="783.864" cy="234.864" r="25" transform="rotate(-28.3 783.864 234.864)" fill="#080809"/>
<circle cx="804.864" cy="271.864" r="25" transform="rotate(-28.3 804.864 271.864)" fill="#080809"/>
<circle cx="844.864" cy="284.864" r="25" transform="rotate(-28.3 844.864 284.864)" fill="#080809"/>
<circle cx="885.864" cy="267.864" r="25" transform="rotate(-28.3 885.864 267.864)" fill="#080809"/>
<circle cx="1088.54" cy="158.579" r="25" transform="rotate(-29.3193 1088.54 158.579)" fill="#080809"/>
<circle cx="1087.83" cy="197.96" r="25" transform="rotate(-29.3193 1087.83 197.96)" fill="#080809"/>
<circle cx="1087.04" cy="237.398" r="25" transform="rotate(-29.3193 1087.04 237.398)" fill="#080809"/>
<circle cx="1086.26" cy="276.837" r="25" transform="rotate(-29.3193 1086.26 276.837)" fill="#080809"/>
<circle cx="1113.04" cy="141.039" r="25" transform="rotate(-29.3193 1113.04 141.039)" fill="#080809"/>
<circle cx="1149.04" cy="147.039" r="25" transform="rotate(-29.3193 1149.04 147.039)" fill="#080809"/>
<circle cx="1179.04" cy="170.039" r="25" transform="rotate(-29.3193 1179.04 170.039)" fill="#080809"/>
<circle cx="1158.04" cy="281.039" r="25" transform="rotate(-29.3193 1158.04 281.039)" fill="#080809"/>
<circle cx="1124.04" cy="286.04" r="25" transform="rotate(-29.3193 1124.04 286.04)" fill="#080809"/>
<circle cx="1189.04" cy="249.039" r="25" transform="rotate(-29.3193 1189.04 249.039)" fill="#080809"/>
<circle cx="1193.04" cy="206.039" r="25" transform="rotate(-29.3193 1193.04 206.039)" fill="#080809"/>
<circle cx="1381.89" cy="156.579" r="25" transform="rotate(-29.3193 1381.89 156.579)" fill="#080809"/>
<circle cx="1381.1" cy="196.018" r="25" transform="rotate(-29.3193 1381.1 196.018)" fill="#080809"/>
<circle cx="1380.31" cy="235.456" r="25" transform="rotate(-29.3193 1380.31 235.456)" fill="#080809"/>
<circle cx="1378.55" cy="273.15" r="25" transform="rotate(-29.3193 1378.55 273.15)" fill="#080809"/>
<circle cx="1453.5" cy="212.768" r="25" transform="rotate(60.5652 1453.5 212.768)" fill="#080809"/>
<circle cx="1414.06" cy="212.059" r="25" transform="rotate(60.5652 1414.06 212.059)" fill="#080809"/>
<circle cx="1451.5" cy="149.768" r="25" transform="rotate(60.5652 1451.5 149.768)" fill="#080809"/>
<circle cx="1412.06" cy="149.059" r="25" transform="rotate(60.5652 1412.06 149.059)" fill="#080809"/>
<circle cx="1451.5" cy="279.768" r="25" transform="rotate(60.5652 1451.5 279.768)" fill="#080809"/>
<circle cx="1412.06" cy="279.059" r="25" transform="rotate(60.5652 1412.06 279.059)" fill="#080809"/>
<circle cx="199.824" cy="487.579" r="25" transform="rotate(-29.3193 199.824 487.579)" fill="#080809"/>
<circle cx="199.824" cy="527.018" r="25" transform="rotate(-29.3193 199.824 527.018)" fill="#080809"/>
<circle cx="199.824" cy="566.456" r="25" transform="rotate(-29.3193 199.824 566.456)" fill="#080809"/>
<circle cx="199.824" cy="604.15" r="25" transform="rotate(-29.3193 199.824 604.15)" fill="#080809"/>
<circle cx="199.824" cy="648.04" r="25" transform="rotate(-29.3193 199.824 648.04)" fill="#080809"/>
<circle cx="273.282" cy="554.768" r="25" transform="rotate(60.5652 273.282 554.768)" fill="#080809"/>
<circle cx="233.843" cy="554.059" r="25" transform="rotate(60.5652 233.843 554.059)" fill="#080809"/>
<circle cx="271.282" cy="485.059" r="25" transform="rotate(60.5652 271.282 485.059)" fill="#080809"/>
<circle cx="306.843" cy="554.768" r="25" transform="rotate(60.5652 306.843 554.768)" fill="#080809"/>
<circle cx="304.843" cy="485.059" r="25" transform="rotate(60.5652 304.843 485.059)" fill="#080809"/>
<circle cx="231.843" cy="485.059" r="25" transform="rotate(60.5652 231.843 485.059)" fill="#080809"/>
<circle cx="481.864" cy="542.864" r="25" transform="rotate(-28.3 481.864 542.864)" fill="#080809"/>
<circle cx="477.864" cy="583.864" r="25" transform="rotate(-28.3 477.864 583.864)" fill="#080809"/>
<circle cx="496.864" cy="615.864" r="25" transform="rotate(-28.3 496.864 615.864)" fill="#080809"/>
<circle cx="499.864" cy="504.864" r="25" transform="rotate(-28.3 499.864 504.864)" fill="#080809"/>
<circle cx="540.864" cy="629.864" r="25" transform="rotate(-28.3 540.864 629.864)" fill="#080809"/>
<circle cx="602.864" cy="605.864" r="25" transform="rotate(-28.3 602.864 605.864)" fill="#080809"/>
<circle cx="599.864" cy="644.864" r="25" transform="rotate(-28.3 599.864 644.864)" fill="#080809"/>
<circle cx="577.864" cy="612.864" r="25" transform="rotate(-28.3 577.864 612.864)" fill="#080809"/>
<circle cx="554.864" cy="574.864" r="25" transform="rotate(-28.3 554.864 574.864)" fill="#080809"/>
<circle cx="595.864" cy="572.864" r="25" transform="rotate(-28.3 595.864 572.864)" fill="#080809"/>
<circle cx="607.864" cy="517.864" r="25" transform="rotate(-28.3 607.864 517.864)" fill="#080809"/>
<circle cx="577.864" cy="495.864" r="25" transform="rotate(-28.3 577.864 495.864)" fill="#080809"/>
<circle cx="538.864" cy="489.864" r="25" transform="rotate(-28.3 538.864 489.864)" fill="#080809"/>
<circle cx="784.374" cy="494.579" r="25" transform="rotate(-29.3193 784.374 494.579)" fill="#080809"/>
<circle cx="784.374" cy="533.42" r="25" transform="rotate(-29.3193 784.374 533.42)" fill="#080809"/>
<circle cx="784.374" cy="572.859" r="25" transform="rotate(-29.3193 784.374 572.859)" fill="#080809"/>
<circle cx="784.374" cy="612.297" r="25" transform="rotate(-29.3193 784.374 612.297)" fill="#080809"/>
<circle cx="885.374" cy="494.996" r="25" transform="rotate(-29.3193 885.374 494.996)" fill="#080809"/>
<circle cx="817.374" cy="571.039" r="25" transform="rotate(-29.3193 817.374 571.039)" fill="#080809"/>
<circle cx="855.374" cy="574.039" r="25" transform="rotate(-29.3193 855.374 574.039)" fill="#080809"/>
<circle cx="885.374" cy="534.377" r="25" transform="rotate(-29.3193 885.374 534.377)" fill="#080809"/>
<circle cx="885.374" cy="573.815" r="25" transform="rotate(-29.3193 885.374 573.815)" fill="#080809"/>
<circle cx="885.374" cy="613.253" r="25" transform="rotate(-29.3193 885.374 613.253)" fill="#080809"/>
<circle cx="784.374" cy="642.039" r="25" transform="rotate(-29.3193 784.374 642.039)" fill="#080809"/>
<circle cx="885.374" cy="642.996" r="25" transform="rotate(-29.3193 885.374 642.996)" fill="#080809"/>
<circle cx="1120.82" cy="489.185" r="25" transform="rotate(-29.3193 1120.82 489.185)" fill="#080809"/>
<circle cx="1120.11" cy="528.566" r="25" transform="rotate(-29.3193 1120.11 528.566)" fill="#080809"/>
<circle cx="1119.32" cy="568.004" r="25" transform="rotate(-29.3193 1119.32 568.004)" fill="#080809"/>
<circle cx="1118.53" cy="607.442" r="25" transform="rotate(-29.3193 1118.53 607.442)" fill="#080809"/>
<circle cx="1116.77" cy="645.137" r="25" transform="rotate(-29.3193 1116.77 645.137)" fill="#080809"/>
<g clip-path="url(#clip0)">
<rect width="213" height="221" transform="translate(1288 457)" fill="white"/>
<circle cx="1420.15" cy="493.579" r="25" transform="rotate(-29.3193 1420.15 493.579)" fill="#080809"/>
<circle cx="1419.44" cy="532.96" r="25" transform="rotate(-29.3193 1419.44 532.96)" fill="#080809"/>
<circle cx="1418.65" cy="572.398" r="25" transform="rotate(-29.3193 1418.65 572.398)" fill="#080809"/>
<circle cx="1417.86" cy="611.837" r="25" transform="rotate(-29.3193 1417.86 611.837)" fill="#080809"/>
<circle cx="1387.37" cy="638.039" r="25" transform="rotate(-29.3193 1387.37 638.039)" fill="#080809"/>
<circle cx="1346.37" cy="637.04" r="25" transform="rotate(-29.3193 1346.37 637.04)" fill="#080809"/>
</g>
<circle r="25" transform="matrix(0.871904 0.489676 0.489676 -0.871904 1057.03 975.69)" fill="#080809"/>
<circle r="25" transform="matrix(0.871904 0.489676 0.489676 -0.871904 1057.03 936.252)" fill="#080809"/>
<circle r="25" transform="matrix(0.871904 0.489676 0.489676 -0.871904 1057.03 896.813)" fill="#080809"/>
<circle r="25" transform="matrix(0.871904 0.489676 0.489676 -0.871904 1057.03 859.119)" fill="#080809"/>
<circle r="25" transform="matrix(0.871904 0.489676 0.489676 -0.871904 1057.03 817.579)" fill="#080809"/>
<circle r="25" transform="matrix(0.871904 0.489676 0.489676 -0.871904 1180.69 972.69)" fill="#080809"/>
<circle r="25" transform="matrix(0.871904 0.489676 0.489676 -0.871904 1180.69 933.252)" fill="#080809"/>
<circle r="25" transform="matrix(0.871904 0.489676 0.489676 -0.871904 1180.69 893.813)" fill="#080809"/>
<circle r="25" transform="matrix(0.871904 0.489676 0.489676 -0.871904 1180.69 856.119)" fill="#080809"/>
<circle r="25" transform="matrix(0.871904 0.489676 0.489676 -0.871904 1180.69 815.579)" fill="#080809"/>
<circle r="25" transform="matrix(0.99492 -0.100669 -0.100669 -0.99492 1113.39 895.39)" fill="#080809"/>
<circle r="25" transform="matrix(0.871904 0.489676 0.489676 -0.871904 1141.04 924.04)" fill="#080809"/>
<circle r="25" transform="matrix(0.99492 -0.100669 -0.100669 -0.99492 1086.39 866.39)" fill="#080809"/>
<circle r="25" transform="matrix(0.871904 0.489676 0.489676 -0.871904 763.767 935.15)" fill="#080809"/>
<circle r="25" transform="matrix(0.871904 0.489676 0.489676 -0.871904 763.767 967.04)" fill="#080809"/>
<circle r="25" transform="matrix(0.871904 0.489676 0.489676 -0.871904 763.767 895.712)" fill="#080809"/>
<circle r="25" transform="matrix(0.871904 0.489676 0.489676 -0.871904 763.767 856.274)" fill="#080809"/>
<circle r="25" transform="matrix(0.871904 0.489676 0.489676 -0.871904 763.767 818.579)" fill="#080809"/>
<circle r="25" transform="matrix(0.871904 0.489676 0.489676 -0.871904 902.767 935.15)" fill="#080809"/>
<circle r="25" transform="matrix(0.871904 0.489676 0.489676 -0.871904 902.767 973.04)" fill="#080809"/>
<circle r="25" transform="matrix(0.871904 0.489676 0.489676 -0.871904 902.767 895.712)" fill="#080809"/>
<circle r="25" transform="matrix(0.871904 0.489676 0.489676 -0.871904 902.767 856.274)" fill="#080809"/>
<circle r="25" transform="matrix(0.871904 0.489676 0.489676 -0.871904 902.767 818.579)" fill="#080809"/>
<circle r="25" transform="matrix(0.996578 0.0826531 0.0826531 -0.996578 830.712 932.173)" fill="#080809"/>
<circle r="25" transform="matrix(0.996578 0.0826531 0.0826531 -0.996578 813.59 896.637)" fill="#080809"/>
<circle r="25" transform="matrix(0.996578 0.0826531 0.0826531 -0.996578 796.469 861.1)" fill="#080809"/>
<circle r="25" transform="matrix(0.551885 0.83392 0.83392 -0.551885 853.042 897.666)" fill="#080809"/>
<circle r="25" transform="matrix(0.551885 0.83392 0.83392 -0.551885 870.358 862.224)" fill="#080809"/>
<circle cx="1324.86" cy="878.864" r="25" transform="rotate(-28.3 1324.86 878.864)" fill="#080809"/>
<circle cx="1320.86" cy="919.864" r="25" transform="rotate(-28.3 1320.86 919.864)" fill="#080809"/>
<circle cx="1339.86" cy="951.864" r="25" transform="rotate(-28.3 1339.86 951.864)" fill="#080809"/>
<circle cx="1342.86" cy="840.864" r="25" transform="rotate(-28.3 1342.86 840.864)" fill="#080809"/>
<circle cx="1383.86" cy="965.864" r="25" transform="rotate(-28.3 1383.86 965.864)" fill="#080809"/>
<circle cx="1427.86" cy="961.864" r="25" transform="rotate(-28.3 1427.86 961.864)" fill="#080809"/>
<circle cx="1455.86" cy="931.864" r="25" transform="rotate(-28.3 1455.86 931.864)" fill="#080809"/>
<circle cx="1468.86" cy="892.864" r="25" transform="rotate(-28.3 1468.86 892.864)" fill="#080809"/>
<circle cx="1450.86" cy="853.864" r="25" transform="rotate(-28.3 1450.86 853.864)" fill="#080809"/>
<circle cx="1420.86" cy="831.864" r="25" transform="rotate(-28.3 1420.86 831.864)" fill="#080809"/>
<circle cx="1381.86" cy="825.864" r="25" transform="rotate(-28.3 1381.86 825.864)" fill="#080809"/>
<circle cx="216.113" cy="1187.86" r="25" transform="rotate(-28.3 216.113 1187.86)" fill="#080809"/>
<circle cx="215.955" cy="1228.16" r="25" transform="rotate(-28.3 215.955 1228.16)" fill="#080809"/>
<circle cx="214.465" cy="1267.58" r="25" transform="rotate(-28.3 214.465 1267.58)" fill="#080809"/>
<circle cx="212.974" cy="1307" r="25" transform="rotate(-28.3 212.974 1307)" fill="#080809"/>
<circle cx="210.535" cy="1344.66" r="25" transform="rotate(-28.3 210.535 1344.66)" fill="#080809"/>
<circle cx="256.113" cy="1184.86" r="25" transform="rotate(-28.3 256.113 1184.86)" fill="#080809"/>
<circle cx="292.113" cy="1201.86" r="25" transform="rotate(-28.3 292.113 1201.86)" fill="#080809"/>
<circle cx="289.113" cy="1245.86" r="25" transform="rotate(-28.3 289.113 1245.86)" fill="#080809"/>
<circle cx="255.113" cy="1264.86" r="25" transform="rotate(-28.3 255.113 1264.86)" fill="#080809"/>
<circle cx="472.864" cy="1243.86" r="25" transform="rotate(-28.3 472.864 1243.86)" fill="#080809"/>
<circle cx="468.864" cy="1284.86" r="25" transform="rotate(-28.3 468.864 1284.86)" fill="#080809"/>
<circle cx="487.864" cy="1316.86" r="25" transform="rotate(-28.3 487.864 1316.86)" fill="#080809"/>
<circle cx="490.864" cy="1205.86" r="25" transform="rotate(-28.3 490.864 1205.86)" fill="#080809"/>
<circle cx="531.864" cy="1330.86" r="25" transform="rotate(-28.3 531.864 1330.86)" fill="#080809"/>
<circle cx="575.864" cy="1326.86" r="25" transform="rotate(-28.3 575.864 1326.86)" fill="#080809"/>
<circle cx="558.864" cy="1284.86" r="25" transform="rotate(-28.3 558.864 1284.86)" fill="#080809"/>
<circle cx="617.864" cy="1339.86" r="25" transform="rotate(-28.3 617.864 1339.86)" fill="#080809"/>
<circle cx="603.864" cy="1296.86" r="25" transform="rotate(-28.3 603.864 1296.86)" fill="#080809"/>
<circle cx="616.864" cy="1257.86" r="25" transform="rotate(-28.3 616.864 1257.86)" fill="#080809"/>
<circle cx="598.864" cy="1218.86" r="25" transform="rotate(-28.3 598.864 1218.86)" fill="#080809"/>
<circle cx="568.864" cy="1196.86" r="25" transform="rotate(-28.3 568.864 1196.86)" fill="#080809"/>
<circle cx="529.864" cy="1190.86" r="25" transform="rotate(-28.3 529.864 1190.86)" fill="#080809"/>
<circle cx="826.113" cy="1187.86" r="25" transform="rotate(-28.3 826.113 1187.86)" fill="#080809"/>
<circle cx="825.955" cy="1228.16" r="25" transform="rotate(-28.3 825.955 1228.16)" fill="#080809"/>
<circle cx="824.465" cy="1267.58" r="25" transform="rotate(-28.3 824.465 1267.58)" fill="#080809"/>
<circle cx="822.974" cy="1307" r="25" transform="rotate(-28.3 822.974 1307)" fill="#080809"/>
<circle cx="820.535" cy="1344.66" r="25" transform="rotate(-28.3 820.535 1344.66)" fill="#080809"/>
<circle cx="866.113" cy="1184.86" r="25" transform="rotate(-28.3 866.113 1184.86)" fill="#080809"/>
<circle cx="902.113" cy="1201.86" r="25" transform="rotate(-28.3 902.113 1201.86)" fill="#080809"/>
<circle cx="899.113" cy="1245.86" r="25" transform="rotate(-28.3 899.113 1245.86)" fill="#080809"/>
<circle cx="865.113" cy="1264.86" r="25" transform="rotate(-28.3 865.113 1264.86)" fill="#080809"/>
<circle r="25" transform="matrix(-0.998335 -0.0576849 -0.0576849 0.998335 909.649 1338.4)" fill="#080809"/>
<circle r="25" transform="matrix(-0.998335 -0.0576849 -0.0576849 0.998335 883.649 1301.4)" fill="#080809"/>
<path d="M1181.34 1189.29C1169.32 1182.5 1154.07 1186.75 1147.29 1198.77C1140.5 1210.8 1144.75 1226.05 1156.77 1232.83C1168.8 1239.62 1184.05 1235.37 1190.83 1223.34C1197.62 1211.32 1193.37 1196.07 1181.34 1189.29Z" fill="#080809"/>
<path d="M1176.34 1309.29C1164.32 1302.5 1149.07 1306.75 1142.29 1318.77C1135.5 1330.8 1139.75 1346.05 1151.77 1352.83C1163.8 1359.62 1179.05 1355.37 1185.83 1343.34C1192.62 1331.32 1188.37 1316.07 1176.34 1309.29Z" fill="#080809"/>
<path d="M1134.34 1325.29C1122.32 1318.5 1107.07 1322.75 1100.29 1334.77C1093.5 1346.8 1097.75 1362.05 1109.77 1368.83C1121.8 1375.62 1137.05 1371.37 1143.83 1359.34C1150.62 1347.32 1146.37 1332.07 1134.34 1325.29Z" fill="#080809"/>
<path d="M1095.34 1313.29C1083.32 1306.5 1068.07 1310.75 1061.29 1322.77C1054.5 1334.8 1058.75 1350.05 1070.77 1356.83C1082.8 1363.62 1098.05 1359.37 1104.83 1347.34C1111.62 1335.32 1107.37 1320.07 1095.34 1313.29Z" fill="#080809"/>
<path d="M1161.34 1271.29C1149.32 1264.5 1134.07 1268.75 1127.29 1280.77C1120.5 1292.8 1124.75 1308.05 1136.77 1314.83C1148.8 1321.62 1164.05 1317.37 1170.83 1305.34C1177.62 1293.32 1173.37 1278.07 1161.34 1271.29Z" fill="#080809"/>
<path d="M1131.34 1244.29C1119.32 1237.5 1104.07 1241.75 1097.29 1253.77C1090.5 1265.8 1094.75 1281.05 1106.77 1287.83C1118.8 1294.62 1134.05 1290.37 1140.83 1278.34C1147.62 1266.32 1143.37 1251.07 1131.34 1244.29Z" fill="#080809"/>
<path d="M1095.34 1223.29C1083.32 1216.5 1068.07 1220.75 1061.29 1232.77C1054.5 1244.8 1058.75 1260.05 1070.77 1266.83C1082.8 1273.62 1098.05 1269.37 1104.83 1257.34C1111.62 1245.32 1107.37 1230.07 1095.34 1223.29Z" fill="#080809"/>
<path d="M1081.34 1186.29C1069.32 1179.5 1054.07 1183.75 1047.29 1195.77C1040.5 1207.8 1044.75 1223.05 1056.77 1229.83C1068.8 1236.62 1084.05 1232.37 1090.83 1220.34C1097.62 1208.32 1093.37 1193.07 1081.34 1186.29Z" fill="#080809"/>
<path d="M1114.34 1170.29C1102.32 1163.5 1087.07 1167.75 1080.29 1179.77C1073.5 1191.8 1077.75 1207.05 1089.77 1213.83C1101.8 1220.62 1117.05 1216.37 1123.83 1204.34C1130.62 1192.32 1126.37 1177.07 1114.34 1170.29Z" fill="#080809"/>
<path d="M1148.34 1163.29C1136.32 1156.5 1121.07 1160.75 1114.29 1172.77C1107.5 1184.8 1111.75 1200.05 1123.77 1206.83C1135.8 1213.62 1151.05 1209.37 1157.83 1197.34C1164.62 1185.32 1160.37 1170.07 1148.34 1163.29Z" fill="#080809"/>
<circle cx="1378.06" cy="1202.22" r="25" transform="rotate(-29.3193 1378.06 1202.22)" fill="#080809"/>
<circle cx="1343.77" cy="1201.85" r="25" transform="rotate(-29.3193 1343.77 1201.85)" fill="#080809"/>
<circle cx="1399.62" cy="1236.85" r="25" transform="rotate(-29.3193 1399.62 1236.85)" fill="#080809"/>
<circle cx="1398.83" cy="1276.29" r="25" transform="rotate(-29.3193 1398.83 1276.29)" fill="#080809"/>
<circle cx="1397.06" cy="1313.98" r="25" transform="rotate(-29.3193 1397.06 1313.98)" fill="#080809"/>
<circle cx="1396.77" cy="1344.48" r="25" transform="rotate(-29.3193 1396.77 1344.48)" fill="#080809"/>
<circle cx="1451.52" cy="1202.95" r="25" transform="rotate(60.5652 1451.52 1202.95)" fill="#080809"/>
<circle cx="1412.08" cy="1202.24" r="25" transform="rotate(60.5652 1412.08 1202.24)" fill="#080809"/>
<path d="M183.345 1506.29C171.32 1499.5 156.071 1503.75 149.286 1515.77C142.501 1527.8 146.748 1543.05 158.773 1549.83C170.798 1556.62 186.046 1552.37 192.832 1540.34C199.617 1528.32 195.369 1513.07 183.345 1506.29Z" fill="#080809"/>
<path d="M291.344 1505.29C279.32 1498.5 264.071 1502.75 257.286 1514.77C250.5 1526.8 254.748 1542.05 266.773 1548.83C278.798 1555.62 294.046 1551.37 300.831 1539.34C307.617 1527.32 303.369 1512.07 291.344 1505.29Z" fill="#080809"/>
<path d="M287.344 1539.29C275.32 1532.5 260.071 1536.75 253.286 1548.77C246.5 1560.8 250.748 1576.05 262.773 1582.83C274.798 1589.62 290.046 1585.37 296.831 1573.34C303.617 1561.32 299.369 1546.07 287.344 1539.29Z" fill="#080809"/>
<path d="M287.344 1581.29C275.32 1574.5 260.071 1578.75 253.286 1590.77C246.5 1602.8 250.748 1618.05 262.773 1624.83C274.798 1631.62 290.046 1627.37 296.831 1615.34C303.617 1603.32 299.369 1588.07 287.344 1581.29Z" fill="#080809"/>
<path d="M279.344 1621.29C267.32 1614.5 252.071 1618.75 245.286 1630.77C238.5 1642.8 242.748 1658.05 254.773 1664.83C266.798 1671.62 282.046 1667.37 288.831 1655.34C295.617 1643.32 291.369 1628.07 279.344 1621.29Z" fill="#080809"/>
<path d="M241.344 1640.29C229.32 1633.5 214.071 1637.75 207.286 1649.77C200.5 1661.8 204.748 1677.05 216.773 1683.83C228.798 1690.62 244.046 1686.37 250.831 1674.34C257.617 1662.32 253.369 1647.07 241.344 1640.29Z" fill="#080809"/>
<path d="M202.345 1631.29C190.32 1624.5 175.071 1628.75 168.286 1640.77C161.501 1652.8 165.748 1668.05 177.773 1674.83C189.798 1681.62 205.046 1677.37 211.832 1665.34C218.617 1653.32 214.369 1638.07 202.345 1631.29Z" fill="#080809"/>
<path d="M183.345 1594.29C171.32 1587.5 156.071 1591.75 149.286 1603.77C142.501 1615.8 146.748 1631.05 158.773 1637.83C170.798 1644.62 186.046 1640.37 192.832 1628.34C199.617 1616.32 195.369 1601.07 183.345 1594.29Z" fill="#080809"/>
<path d="M182.345 1549.29C170.32 1542.5 155.071 1546.75 148.286 1558.77C141.501 1570.8 145.748 1586.05 157.773 1592.83C169.798 1599.62 185.046 1595.37 191.832 1583.34C198.617 1571.32 194.369 1556.07 182.345 1549.29Z" fill="#080809"/>
<circle r="25" transform="matrix(0.903842 0.427867 0.427867 -0.903842 469.324 1543.59)" fill="#080809"/>
<circle r="25" transform="matrix(0.999393 -0.0348307 -0.0348307 -0.999393 552.291 1614.81)" fill="#080809"/>
<circle r="25" transform="matrix(0.999913 0.0131604 0.0131604 -0.999913 528.081 1653.91)" fill="#080809"/>
<circle r="25" transform="matrix(0.999913 0.0131604 0.0131604 -0.999913 508.53 1619.65)" fill="#080809"/>
<circle r="25" transform="matrix(0.999913 0.0131604 0.0131604 -0.999913 488.979 1585.39)" fill="#080809"/>
<circle r="25" transform="matrix(0.683036 0.730384 0.730384 -0.683036 573.149 1581.15)" fill="#080809"/>
<circle r="25" transform="matrix(0.683036 0.730384 0.730384 -0.683036 595.992 1544.51)" fill="#080809"/>
<circle r="25" transform="matrix(-0.871904 -0.489676 -0.489676 0.871904 902.546 1535.58)" fill="#080809"/>
<circle r="25" transform="matrix(-0.871904 -0.489676 -0.489676 0.871904 903.335 1575.02)" fill="#080809"/>
<circle r="25" transform="matrix(-0.871904 -0.489676 -0.489676 0.871904 904.125 1614.46)" fill="#080809"/>
<circle r="25" transform="matrix(-0.871904 -0.489676 -0.489676 0.871904 905.893 1652.15)" fill="#080809"/>
<circle r="25" transform="matrix(-0.871904 -0.489676 -0.489676 0.871904 764.546 1535.58)" fill="#080809"/>
<circle r="25" transform="matrix(-0.871904 -0.489676 -0.489676 0.871904 765.335 1575.02)" fill="#080809"/>
<circle r="25" transform="matrix(-0.871904 -0.489676 -0.489676 0.871904 766.125 1614.46)" fill="#080809"/>
<circle r="25" transform="matrix(-0.871904 -0.489676 -0.489676 0.871904 767.893 1652.15)" fill="#080809"/>
<circle r="25" transform="matrix(-0.996578 -0.0826531 -0.0826531 0.996578 837.455 1538.56)" fill="#080809"/>
<circle r="25" transform="matrix(-0.996578 -0.0826531 -0.0826531 0.996578 854.576 1574.09)" fill="#080809"/>
<circle r="25" transform="matrix(-0.996578 -0.0826531 -0.0826531 0.996578 871.698 1609.63)" fill="#080809"/>
<circle r="25" transform="matrix(-0.551885 -0.83392 -0.83392 0.551885 815.124 1573.06)" fill="#080809"/>
<circle r="25" transform="matrix(-0.551885 -0.83392 -0.83392 0.551885 797.809 1608.51)" fill="#080809"/>
<circle cx="1070.03" cy="1532.02" r="25" transform="rotate(-65.5038 1070.03 1532.02)" fill="#080809"/>
<circle cx="1094.27" cy="1564.21" r="25" transform="rotate(-65.5038 1094.27 1564.21)" fill="#080809"/>
<circle cx="1116.92" cy="1596.51" r="25" transform="rotate(-65.5038 1116.92 1596.51)" fill="#080809"/>
<circle cx="1139.56" cy="1628.81" r="25" transform="rotate(-65.5038 1139.56 1628.81)" fill="#080809"/>
<circle cx="1160.39" cy="1660.27" r="25" transform="rotate(-65.5038 1160.39 1660.27)" fill="#080809"/>
<circle r="25" transform="matrix(-0.414632 -0.909989 -0.909989 0.414632 1166.39 1527.02)" fill="#080809"/>
<circle r="25" transform="matrix(-0.414632 -0.909989 -0.909989 0.414632 1142.15 1559.21)" fill="#080809"/>
<circle r="25" transform="matrix(-0.414632 -0.909989 -0.909989 0.414632 1119.5 1591.51)" fill="#080809"/>
<circle r="25" transform="matrix(-0.414632 -0.909989 -0.909989 0.414632 1096.85 1623.81)" fill="#080809"/>
<circle r="25" transform="matrix(-0.414632 -0.909989 -0.909989 0.414632 1076.03 1655.27)" fill="#080809"/>
<path d="M1347.84 1567.51C1353.15 1580.26 1367.78 1586.29 1380.53 1580.98C1393.28 1575.68 1399.31 1561.04 1394 1548.3C1388.69 1535.55 1374.06 1529.52 1361.31 1534.82C1348.57 1540.13 1342.53 1554.77 1347.84 1567.51Z" fill="#080809"/>
<path d="M1467.77 1528.3C1462.46 1541.04 1447.83 1547.07 1435.08 1541.77C1422.33 1536.46 1416.3 1521.83 1421.61 1509.08C1426.91 1496.33 1441.55 1490.3 1454.3 1495.61C1467.04 1500.91 1473.07 1515.55 1467.77 1528.3Z" fill="#080809"/>
<path d="M1440.77 1564.3C1435.46 1577.04 1420.83 1583.07 1408.08 1577.77C1395.33 1572.46 1389.3 1557.83 1394.61 1545.08C1399.91 1532.33 1414.55 1526.3 1427.3 1531.61C1440.04 1536.91 1446.07 1551.55 1440.77 1564.3Z" fill="#080809"/>
<circle r="25" transform="matrix(-0.923195 0.384332 0.384332 0.923195 1345.69 1518.69)" fill="#080809"/>
<circle cx="1390.78" cy="1589.29" r="25" transform="rotate(-28.3 1390.78 1589.29)" fill="#080809"/>
<circle cx="1390.86" cy="1631.86" r="25" transform="rotate(-28.3 1390.86 1631.86)" fill="#080809"/>
<circle cx="1390.86" cy="1665.86" r="25" transform="rotate(-28.3 1390.86 1665.86)" fill="#080809"/>
<circle cx="261.318" cy="1866.02" r="25" transform="rotate(58.582 261.318 1866.02)" fill="#080809"/>
<circle cx="221.877" cy="1866.67" r="25" transform="rotate(58.582 221.877 1866.67)" fill="#080809"/>
<circle cx="184.144" cy="1866.29" r="25" transform="rotate(58.582 184.144 1866.29)" fill="#080809"/>
<circle cx="264.318" cy="1986.02" r="25" transform="rotate(58.582 264.318 1986.02)" fill="#080809"/>
<circle cx="224.878" cy="1986.67" r="25" transform="rotate(58.582 224.878 1986.67)" fill="#080809"/>
<circle cx="184.367" cy="1987.37" r="25" transform="rotate(58.582 184.367 1987.37)" fill="#080809"/>
<circle cx="223.696" cy="1926.7" r="25" transform="rotate(4.03098 223.696 1926.7)" fill="#080809"/>
<circle cx="249.696" cy="1899.7" r="25" transform="rotate(4.03098 249.696 1899.7)" fill="#080809"/>
<circle cx="198.696" cy="1958.7" r="25" transform="rotate(4.03098 198.696 1958.7)" fill="#080809"/>
<circle cx="208.482" cy="838.679" r="25" transform="rotate(-30.7707 208.482 838.679)" fill="#080809"/>
<circle cx="209.175" cy="804.975" r="25" transform="rotate(-30.7707 209.175 804.975)" fill="#080809"/>
<circle cx="207.336" cy="986.394" r="25" transform="rotate(-30.7707 207.336 986.394)" fill="#080809"/>
<circle cx="208.692" cy="878.125" r="25" transform="rotate(-30.7707 208.692 878.125)" fill="#080809"/>
<circle cx="208.902" cy="917.57" r="25" transform="rotate(-30.7707 208.902 917.57)" fill="#080809"/>
<circle cx="208.089" cy="955.297" r="25" transform="rotate(-30.7707 208.089 955.297)" fill="#080809"/>
<circle cx="277.775" cy="852.841" r="25" transform="rotate(38.6198 277.775 852.841)" fill="#080809"/>
<circle cx="309.041" cy="836.841" r="25" transform="rotate(38.6198 309.041 836.841)" fill="#080809"/>
<circle cx="242.041" cy="868.592" r="25" transform="rotate(38.6198 242.041 868.592)" fill="#080809"/>
<circle r="25" transform="matrix(-0.899053 0.437841 0.437841 0.899053 274.447 929.273)" fill="#080809"/>
<circle r="25" transform="matrix(-0.899053 0.437841 0.437841 0.899053 299.376 947.284)" fill="#080809"/>
<circle r="25" transform="matrix(-0.899053 0.437841 0.437841 0.899053 242.327 911.127)" fill="#080809"/>
<circle r="25" transform="matrix(0.871904 0.489676 0.489676 -0.871904 507.795 971.69)" fill="#080809"/>
<circle r="25" transform="matrix(0.871904 0.489676 0.489676 -0.871904 507.795 932.252)" fill="#080809"/>
<circle r="25" transform="matrix(0.871904 0.489676 0.489676 -0.871904 507.795 892.813)" fill="#080809"/>
<circle r="25" transform="matrix(0.871904 0.489676 0.489676 -0.871904 507.794 855.119)" fill="#080809"/>
<circle r="25" transform="matrix(0.871904 0.489676 0.489676 -0.871904 508.795 820.579)" fill="#080809"/>
<path d="M603.099 948.708C591.074 941.923 575.826 946.17 569.04 958.195C562.255 970.22 566.503 985.469 578.527 992.254C590.552 999.039 605.801 994.792 612.586 982.767C619.371 970.742 615.124 955.493 603.099 948.708Z" fill="#080809"/>
<path d="M643.099 948.708C631.074 941.923 615.826 946.17 609.041 958.195C602.255 970.22 606.503 985.469 618.528 992.254C630.552 999.039 645.801 994.792 652.586 982.767C659.372 970.742 655.124 955.493 643.099 948.708Z" fill="#080809"/>
<circle r="25" transform="matrix(0.491433 -0.870915 -0.870915 -0.491433 547.813 970.481)" fill="#080809"/>
<defs>
<clipPath id="clip0">
<rect width="213" height="221" fill="none" transform="translate(1288 457)"/>
</clipPath>
</defs>
</svg>
