<svg width="218" height="217" viewBox="0 0 218 217" fill="none" xmlns="http://www.w3.org/2000/svg">
<rect width="218" height="217" fill="none"/>
<path d="M145.775 97.2566L155.288 97.7769C157.714 97.9095 159.693 99.7665 159.98 102.179L160.098 103.174C160.427 105.937 158.436 108.437 155.67 108.736L145.213 109.863L138.333 109.881C135.603 109.887 133.372 107.703 133.321 104.973L133.267 102.02C133.213 99.1346 135.606 96.8034 138.488 96.9318L145.775 97.2566Z" fill="white" stroke="#080809"/>
<path d="M128.774 97.2566L138.288 97.7769C140.713 97.9096 142.693 99.7666 142.98 102.179L143.098 103.174C143.427 105.937 141.436 108.437 138.669 108.736L128.212 109.864L121.332 109.881C118.602 109.887 116.371 107.703 116.321 104.973L116.266 102.02C116.212 99.1347 118.605 96.8034 121.488 96.9319L128.774 97.2566Z" fill="white" stroke="#080809"/>
<path d="M110.774 97.3353L120.288 97.8556C122.713 97.9883 124.693 99.8453 124.98 102.258L125.098 103.253C125.427 106.016 123.436 108.516 120.669 108.814L110.213 109.942L103.333 109.959C100.602 109.966 98.3715 107.782 98.3209 105.052L98.2662 102.098C98.2127 99.2134 100.605 96.8821 103.488 97.0106L110.774 97.3353Z" fill="white" stroke="#080809"/>
<path d="M91.7745 97.4183L101.288 97.9386C103.714 98.0713 105.693 99.9283 105.98 102.341L106.098 103.336C106.427 106.099 104.436 108.599 101.669 108.897L91.2127 110.025L84.3327 110.042C81.6026 110.049 79.3717 107.865 79.3211 105.135L79.2663 102.181C79.2129 99.2964 81.6056 96.9651 84.4881 97.0936L91.7745 97.4183Z" fill="white" stroke="#080809"/>
<path d="M73.7747 97.4969L83.2881 98.0172C85.7138 98.1499 87.6931 100.007 87.9801 102.419L88.0984 103.414C88.4271 106.178 86.4364 108.678 83.6696 108.976L73.2129 110.104L66.3329 110.121C63.6027 110.128 61.3719 107.943 61.3213 105.214L61.2665 102.26C61.213 99.375 63.6057 97.0437 66.4883 97.1722L73.7747 97.4969Z" fill="white" stroke="#080809"/>
<path d="M59.2342 40.3332L59.7961 30.8222C59.9393 28.3971 61.8049 26.4259 64.2185 26.1495L65.2141 26.0355C67.9789 25.7189 70.4702 27.7205 70.7565 30.4886L71.8385 40.9501L71.8256 47.8301C71.8205 50.5603 69.6263 52.7816 66.8965 52.8202L63.9425 52.8621C61.0574 52.903 58.7366 50.5001 58.8776 47.6182L59.2342 40.3332Z" fill="white" stroke="#080809"/>
<path d="M59.2342 59.3333L59.7961 49.8223C59.9393 47.3972 61.8049 45.426 64.2185 45.1496L65.2141 45.0356C67.9789 44.719 70.4702 46.7206 70.7565 49.4887L71.8385 59.9502L71.8256 66.8303C71.8205 69.5604 69.6263 71.7817 66.8965 71.8204L63.9425 71.8622C61.0574 71.9031 58.7366 69.5002 58.8776 66.6183L59.2342 59.3333Z" fill="white" stroke="#080809"/>
<path d="M59.2343 77.3333L59.7961 67.8223C59.9394 65.3972 61.805 63.426 64.2185 63.1496L65.2142 63.0356C67.979 62.719 70.4702 64.7206 70.7565 67.4887L71.8386 77.9502L71.8257 84.8303C71.8205 87.5604 69.6264 89.7817 66.8965 89.8204L63.9426 89.8622C61.0575 89.9031 58.7367 87.5002 58.8777 84.6183L59.2343 77.3333Z" fill="white" stroke="#080809"/>
<path d="M59.2342 96.3333L59.7961 86.8223C59.9393 84.3972 61.8049 82.426 64.2185 82.1496L65.2141 82.0356C67.9789 81.719 70.4702 83.7206 70.7565 86.4887L71.8385 96.9502L71.8256 103.83C71.8205 106.56 69.6263 108.782 66.8965 108.82L63.9425 108.862C61.0574 108.903 58.7366 106.5 58.8776 103.618L59.2342 96.3333Z" fill="white" stroke="#080809"/>
<path d="M59.2343 114.333L59.7961 104.822C59.9394 102.397 61.805 100.426 64.2185 100.15L65.2142 100.036C67.979 99.719 70.4702 101.721 70.7565 104.489L71.8386 114.95L71.8257 121.83C71.8205 124.56 69.6264 126.782 66.8965 126.82L63.9426 126.862C61.0575 126.903 58.7367 124.5 58.8777 121.618L59.2343 114.333Z" fill="white" stroke="#080809"/>
<path d="M59.2342 130.333L59.7961 120.822C59.9393 118.397 61.8049 116.426 64.2185 116.15L65.2141 116.036C67.9789 115.719 70.4702 117.721 70.7565 120.489L71.8385 130.95L71.8256 137.83C71.8205 140.561 69.6263 142.782 66.8965 142.82L63.9425 142.862C61.0574 142.903 58.7366 140.5 58.8776 137.618L59.2342 130.333Z" fill="white" stroke="#080809"/>
<path d="M59.2343 148.333L59.7961 138.822C59.9394 136.397 61.805 134.426 64.2185 134.15L65.2142 134.036C67.979 133.719 70.4702 135.721 70.7565 138.489L71.8386 148.95L71.8257 155.83C71.8205 158.561 69.6264 160.782 66.8965 160.82L63.9426 160.862C61.0575 160.903 58.7367 158.5 58.8777 155.618L59.2343 148.333Z" fill="white" stroke="#080809"/>
<path d="M59.2342 167.333L59.7961 157.822C59.9393 155.397 61.8049 153.426 64.2185 153.15L65.2141 153.036C67.9789 152.719 70.4702 154.721 70.7565 157.489L71.8385 167.95L71.8256 174.83C71.8205 177.561 69.6263 179.782 66.8965 179.82L63.9425 179.862C61.0574 179.903 58.7366 177.5 58.8776 174.618L59.2342 167.333Z" fill="white" stroke="#080809"/>
<path d="M59.2342 185.333L59.7961 175.822C59.9393 173.397 61.8049 171.426 64.2185 171.15L65.2141 171.036C67.9789 170.719 70.4702 172.721 70.7565 175.489L71.8385 185.95L71.8256 192.83C71.8205 195.561 69.6263 197.782 66.8965 197.82L63.9425 197.862C61.0574 197.903 58.7366 195.5 58.8776 192.618L59.2342 185.333Z" fill="white" stroke="#080809"/>
<path d="M156.234 39.3332L156.796 29.8222C156.939 27.3971 158.805 25.4259 161.219 25.1495L162.214 25.0355C164.979 24.7189 167.47 26.7205 167.757 29.4886L168.839 39.9501L168.826 46.8301C168.821 49.5603 166.626 51.7816 163.897 51.8202L160.943 51.8621C158.057 51.903 155.737 49.5001 155.878 46.6182L156.234 39.3332Z" fill="white" stroke="#080809"/>
<path d="M156.234 58.3333L156.796 48.8223C156.939 46.3972 158.805 44.426 161.219 44.1496L162.214 44.0356C164.979 43.719 167.47 45.7206 167.757 48.4887L168.839 58.9502L168.826 65.8303C168.821 68.5604 166.626 70.7817 163.897 70.8204L160.943 70.8622C158.057 70.9031 155.737 68.5002 155.878 65.6183L156.234 58.3333Z" fill="white" stroke="#080809"/>
<path d="M156.234 76.3333L156.796 66.8223C156.939 64.3972 158.805 62.426 161.219 62.1496L162.214 62.0356C164.979 61.719 167.47 63.7206 167.757 66.4887L168.839 76.9502L168.826 83.8303C168.821 86.5604 166.626 88.7817 163.897 88.8204L160.943 88.8622C158.057 88.9031 155.737 86.5002 155.878 83.6183L156.234 76.3333Z" fill="white" stroke="#080809"/>
<path d="M156.234 95.3333L156.796 85.8223C156.939 83.3972 158.805 81.426 161.219 81.1496L162.214 81.0356C164.979 80.719 167.47 82.7206 167.757 85.4887L168.839 95.9502L168.826 102.83C168.821 105.56 166.626 107.782 163.897 107.82L160.943 107.862C158.057 107.903 155.737 105.5 155.878 102.618L156.234 95.3333Z" fill="white" stroke="#080809"/>
<path d="M156.234 113.333L156.796 103.822C156.939 101.397 158.805 99.426 161.219 99.1496L162.214 99.0356C164.979 98.719 167.47 100.721 167.757 103.489L168.839 113.95L168.826 120.83C168.821 123.56 166.626 125.782 163.897 125.82L160.943 125.862C158.057 125.903 155.737 123.5 155.878 120.618L156.234 113.333Z" fill="white" stroke="#080809"/>
<path d="M156.234 129.333L156.796 119.822C156.939 117.397 158.805 115.426 161.219 115.15L162.214 115.036C164.979 114.719 167.47 116.721 167.757 119.489L168.839 129.95L168.826 136.83C168.821 139.561 166.626 141.782 163.897 141.82L160.943 141.862C158.057 141.903 155.737 139.5 155.878 136.618L156.234 129.333Z" fill="white" stroke="#080809"/>
<path d="M156.234 147.333L156.796 137.822C156.939 135.397 158.805 133.426 161.219 133.15L162.214 133.036C164.979 132.719 167.47 134.721 167.757 137.489L168.839 147.95L168.826 154.83C168.821 157.56 166.626 159.782 163.897 159.82L160.943 159.862C158.057 159.903 155.737 157.5 155.878 154.618L156.234 147.333Z" fill="white" stroke="#080809"/>
<path d="M156.234 166.333L156.796 156.822C156.939 154.397 158.805 152.426 161.219 152.15L162.214 152.036C164.979 151.719 167.47 153.721 167.757 156.489L168.839 166.95L168.826 173.83C168.821 176.561 166.626 178.782 163.897 178.82L160.943 178.862C158.057 178.903 155.737 176.5 155.878 173.618L156.234 166.333Z" fill="white" stroke="#080809"/>
<path d="M156.234 184.333L156.796 174.822C156.939 172.397 158.805 170.426 161.219 170.15L162.214 170.036C164.979 169.719 167.47 171.721 167.757 174.489L168.839 184.95L168.826 191.83C168.821 194.561 166.626 196.782 163.897 196.82L160.943 196.862C158.057 196.903 155.737 194.5 155.878 191.618L156.234 184.333Z" fill="white" stroke="#080809"/>
</svg>
