<svg width="212" height="215" viewBox="0 0 212 215" fill="none" xmlns="http://www.w3.org/2000/svg">
<rect width="212" height="215" fill="none"/>
<path d="M110.234 55.3332L110.796 45.8222C110.939 43.3971 112.805 41.4259 115.218 41.1495L116.214 41.0355C118.979 40.7189 121.47 42.7205 121.756 45.4886L122.839 55.9501L122.826 62.8301C122.82 65.5603 120.626 67.7816 117.896 67.8202L114.943 67.8621C112.057 67.903 109.737 65.5001 109.878 62.6182L110.234 55.3332Z" fill="white" stroke="#080809"/>
<path d="M116.616 35.1753L126.138 35.5094C128.566 35.5946 130.581 37.4125 130.915 39.8187L131.053 40.8114C131.436 43.5678 129.494 46.1062 126.734 46.4587L116.301 47.7907L109.423 47.9424C106.693 48.0026 104.42 45.8622 104.316 43.1341L104.204 40.182C104.094 37.2987 106.441 34.921 109.325 34.9931L116.616 35.1753Z" fill="white" stroke="#080809"/>
<path d="M110.234 73.3333L110.796 63.8223C110.939 61.3972 112.805 59.426 115.218 59.1496L116.214 59.0356C118.979 58.719 121.47 60.7206 121.756 63.4887L122.839 73.9502L122.826 80.8303C122.82 83.5604 120.626 85.7817 117.896 85.8204L114.943 85.8622C112.057 85.9031 109.737 83.5002 109.878 80.6183L110.234 73.3333Z" fill="white" stroke="#080809"/>
<path d="M110.234 92.3333L110.796 82.8223C110.939 80.3972 112.805 78.426 115.218 78.1496L116.214 78.0356C118.979 77.719 121.47 79.7206 121.756 82.4887L122.839 92.9502L122.826 99.8303C122.82 102.56 120.626 104.782 117.896 104.82L114.943 104.862C112.057 104.903 109.737 102.5 109.878 99.6183L110.234 92.3333Z" fill="white" stroke="#080809"/>
<path d="M110.234 110.333L110.796 100.822C110.939 98.3972 112.805 96.426 115.218 96.1496L116.214 96.0356C118.979 95.719 121.47 97.7206 121.756 100.489L122.839 110.95L122.826 117.83C122.82 120.56 120.626 122.782 117.896 122.82L114.943 122.862C112.057 122.903 109.737 120.5 109.878 117.618L110.234 110.333Z" fill="white" stroke="#080809"/>
<path d="M110.234 126.333L110.796 116.822C110.939 114.397 112.805 112.426 115.218 112.15L116.214 112.036C118.979 111.719 121.47 113.721 121.756 116.489L122.839 126.95L122.826 133.83C122.82 136.56 120.626 138.782 117.896 138.82L114.943 138.862C112.057 138.903 109.737 136.5 109.878 133.618L110.234 126.333Z" fill="white" stroke="#080809"/>
<path d="M110.234 144.333L110.796 134.822C110.939 132.397 112.805 130.426 115.218 130.149L116.214 130.035C118.979 129.719 121.47 131.72 121.756 134.489L122.839 144.95L122.826 151.83C122.82 154.56 120.626 156.781 117.896 156.82L114.943 156.862C112.057 156.903 109.737 154.5 109.878 151.618L110.234 144.333Z" fill="white" stroke="#080809"/>
<path d="M110.234 163.333L110.796 153.822C110.939 151.397 112.805 149.426 115.218 149.149L116.214 149.035C118.979 148.719 121.47 150.72 121.756 153.489L122.839 163.95L122.826 170.83C122.82 173.56 120.626 175.781 117.896 175.82L114.943 175.862C112.057 175.903 109.737 173.5 109.878 170.618L110.234 163.333Z" fill="white" stroke="#080809"/>
<path d="M110.234 181.333L110.796 171.822C110.939 169.397 112.805 167.426 115.218 167.149L116.214 167.035C118.979 166.719 121.47 168.72 121.756 171.489L122.839 181.95L122.826 188.83C122.82 191.56 120.626 193.781 117.896 193.82L114.943 193.862C112.057 193.903 109.737 191.5 109.878 188.618L110.234 181.333Z" fill="white" stroke="#080809"/>
<path d="M115.616 182.175L125.138 182.509C127.566 182.595 129.581 184.412 129.915 186.819L130.053 187.811C130.436 190.568 128.494 193.106 125.734 193.459L115.301 194.791L108.423 194.942C105.693 195.003 103.42 192.862 103.316 190.134L103.204 187.182C103.094 184.299 105.441 181.921 108.325 181.993L115.616 182.175Z" fill="white" stroke="#080809"/>
</svg>
