<svg width="210" height="217" viewBox="0 0 210 217" fill="none" xmlns="http://www.w3.org/2000/svg">
<rect width="210" height="217" fill="none"/>
<path d="M165.855 42.3332L165.294 32.8222C165.15 30.3971 163.285 28.4259 160.871 28.1495L159.875 28.0355C157.111 27.7189 154.619 29.7205 154.333 32.4886L153.251 42.9501L153.264 49.8301C153.269 52.5603 155.463 54.7816 158.193 54.8202L161.147 54.8621C164.032 54.903 166.353 52.5001 166.212 49.6182L165.855 42.3332Z" fill="white" stroke="#080809"/>
<path d="M165.855 60.3332L165.293 50.8221C165.15 48.397 163.285 46.4258 160.871 46.1494L159.875 46.0354C157.111 45.7188 154.619 47.7205 154.333 50.4885L153.251 60.9501L153.264 67.8301C153.269 70.5602 155.463 72.7815 158.193 72.8202L161.147 72.862C164.032 72.9029 166.353 70.5001 166.212 67.6181L165.855 60.3332Z" fill="white" stroke="#080809"/>
<path d="M165.855 79.3332L165.294 69.8222C165.15 67.3971 163.285 65.4259 160.871 65.1495L159.875 65.0355C157.111 64.7188 154.619 66.7205 154.333 69.4886L153.251 79.9501L153.264 86.8301C153.269 89.5602 155.463 91.7815 158.193 91.8202L161.147 91.8621C164.032 91.903 166.353 89.5001 166.212 86.6181L165.855 79.3332Z" fill="white" stroke="#080809"/>
<path d="M165.855 97.3332L165.293 87.8221C165.15 85.397 163.285 83.4258 160.871 83.1494L159.875 83.0354C157.111 82.7188 154.619 84.7205 154.333 87.4885L153.251 97.9501L153.264 104.83C153.269 107.56 155.463 109.781 158.193 109.82L161.147 109.862C164.032 109.903 166.353 107.5 166.212 104.618L165.855 97.3332Z" fill="white" stroke="#080809"/>
<path d="M165.855 113.333L165.294 103.822C165.15 101.397 163.285 99.426 160.871 99.1496L159.875 99.0356C157.111 98.719 154.619 100.721 154.333 103.489L153.251 113.95L153.264 120.83C153.269 123.56 155.463 125.782 158.193 125.82L161.147 125.862C164.032 125.903 166.353 123.5 166.212 120.618L165.855 113.333Z" fill="white" stroke="#080809"/>
<path d="M165.855 131.333L165.293 121.822C165.15 119.397 163.285 117.426 160.871 117.15L159.875 117.036C157.111 116.719 154.619 118.721 154.333 121.489L153.251 131.95L153.264 138.83C153.269 141.56 155.463 143.782 158.193 143.82L161.147 143.862C164.032 143.903 166.353 141.5 166.212 138.618L165.855 131.333Z" fill="white" stroke="#080809"/>
<path d="M165.855 150.333L165.294 140.822C165.15 138.397 163.285 136.426 160.871 136.15L159.875 136.036C157.111 135.719 154.619 137.721 154.333 140.489L153.251 150.95L153.264 157.83C153.269 160.56 155.463 162.782 158.193 162.82L161.147 162.862C164.032 162.903 166.353 160.5 166.212 157.618L165.855 150.333Z" fill="white" stroke="#080809"/>
<path d="M165.855 168.333L165.294 158.822C165.15 156.397 163.285 154.426 160.871 154.15L159.875 154.036C157.111 153.719 154.619 155.721 154.333 158.489L153.251 168.95L153.264 175.83C153.269 178.56 155.463 180.782 158.193 180.82L161.147 180.862C164.032 180.903 166.353 178.5 166.212 175.618L165.855 168.333Z" fill="white" stroke="#080809"/>
<path d="M63.4602 184.5L58.2556 176.52C56.9285 174.485 57.2561 171.791 59.032 170.133L59.7647 169.449C61.7991 167.55 64.9923 167.678 66.8687 169.733L73.9602 177.5L78.0414 183.039C79.661 185.237 79.218 188.327 77.0464 189.982L74.6965 191.772C72.4013 193.521 69.1065 192.97 67.506 190.569L63.4602 184.5Z" fill="white" stroke="#080809"/>
<path d="M79.8607 198.511L72.1435 192.923C70.1758 191.498 69.5169 188.866 70.5815 186.682L71.0207 185.781C72.2402 183.28 75.2674 182.256 77.7553 183.502L87.1578 188.215L92.9518 191.925C95.251 193.397 95.9441 196.441 94.509 198.764L92.9561 201.277C91.4393 203.732 88.1655 204.397 85.8114 202.728L79.8607 198.511Z" fill="white" stroke="#080809"/>
<path d="M102.168 204.275L92.8419 202.324C90.464 201.827 88.7878 199.692 88.8683 197.264L88.9015 196.263C88.9938 193.481 91.3391 191.311 94.1193 191.433L104.626 191.897L111.43 192.919C114.13 193.324 116.005 195.821 115.643 198.527L115.252 201.455C114.869 204.315 112.152 206.258 109.322 205.696L102.168 204.275Z" fill="white" stroke="#080809"/>
<path d="M124.464 203.443L114.974 204.284C112.554 204.498 110.33 202.943 109.703 200.596L109.444 199.628C108.725 196.939 110.339 194.181 113.035 193.491L123.224 190.885L130.031 189.888C132.733 189.492 135.252 191.336 135.691 194.031L136.166 196.947C136.63 199.795 134.594 202.443 131.723 202.727L124.464 203.443Z" fill="white" stroke="#080809"/>
<path d="M144.653 196.422L136.162 200.746C133.997 201.848 131.354 201.235 129.895 199.292L129.293 198.491C127.622 196.265 128.09 193.104 130.334 191.457L138.813 185.235L144.756 181.768C147.114 180.393 150.14 181.163 151.553 183.499L153.083 186.026C154.576 188.495 153.676 191.712 151.118 193.047L144.653 196.422Z" fill="white" stroke="#080809"/>
<path d="M159.245 185.18L152.376 191.782C150.624 193.466 147.916 193.647 145.957 192.211L145.148 191.619C142.903 189.974 142.433 186.813 144.102 184.587L150.409 176.171L155.09 171.128C156.947 169.127 160.066 168.985 162.097 170.81L164.294 172.785C166.44 174.713 166.513 178.053 164.453 180.073L159.245 185.18Z" fill="white" stroke="#080809"/>
</svg>
