<svg width="232" height="217" viewBox="0 0 232 217" fill="none" xmlns="http://www.w3.org/2000/svg">
<rect width="232" height="217" fill="none"/>
<path d="M90.9538 97.7615L98.5552 92.0174C100.493 90.5528 103.204 90.6932 104.98 92.3503L105.713 93.0339C107.748 94.9321 107.841 98.1265 105.921 100.141L98.6632 107.752L93.4199 112.207C91.3393 113.974 88.2254 113.746 86.4246 111.694L84.4759 109.474C82.5727 107.305 82.8951 103.98 85.1794 102.217L90.9538 97.7615Z" fill="white" stroke="#080809"/>
<path d="M105.954 84.7615L113.555 79.0174C115.493 77.5528 118.204 77.6932 119.98 79.3503L120.713 80.0339C122.748 81.9321 122.841 85.1265 120.921 87.1405L113.663 94.7522L108.42 99.2067C106.339 100.974 103.225 100.746 101.425 98.6942L99.4759 96.4738C97.5727 94.3051 97.8951 90.98 100.179 89.2173L105.954 84.7615Z" fill="white" stroke="#080809"/>
<path d="M120.954 70.7615L128.555 65.0174C130.493 63.5528 133.204 63.6932 134.98 65.3503L135.713 66.0339C137.748 67.9321 137.841 71.1265 135.921 73.1405L128.663 80.7522L123.42 85.2067C121.339 86.9744 118.225 86.7462 116.425 84.6942L114.476 82.4738C112.573 80.3051 112.895 76.98 115.179 75.2173L120.954 70.7615Z" fill="white" stroke="#080809"/>
<path d="M135.954 57.7615L143.555 52.0174C145.493 50.5528 148.204 50.6932 149.98 52.3503L150.713 53.0339C152.748 54.9321 152.841 58.1265 150.921 60.1405L143.663 67.7522L138.42 72.2067C136.339 73.9744 133.225 73.7462 131.425 71.6942L129.476 69.4738C127.573 67.3051 127.895 63.98 130.179 62.2173L135.954 57.7615Z" fill="white" stroke="#080809"/>
<path d="M150.954 44.7615L158.555 39.0174C160.493 37.5528 163.204 37.6932 164.98 39.3503L165.713 40.0339C167.748 41.9321 167.841 45.1265 165.921 47.1405L158.663 54.7522L153.42 59.2067C151.339 60.9744 148.225 60.7462 146.425 58.6942L144.476 56.4738C142.573 54.3051 142.895 50.98 145.179 49.2173L150.954 44.7615Z" fill="white" stroke="#080809"/>
<path d="M165.954 30.7615L173.555 25.0174C175.493 23.5528 178.204 23.6932 179.98 25.3503L180.713 26.0339C182.748 27.9321 182.841 31.1265 180.921 33.1405L173.663 40.7522L168.42 45.2067C166.339 46.9744 163.225 46.7462 161.425 44.6942L159.476 42.4738C157.573 40.3051 157.895 36.98 160.179 35.2173L165.954 30.7615Z" fill="white" stroke="#080809"/>
<path d="M95.058 108.488L102.773 114.079C104.74 115.505 105.397 118.138 104.332 120.321L103.892 121.221C102.671 123.722 99.6437 124.745 97.1564 123.497L87.7561 118.78L81.9639 115.067C79.6654 113.594 78.9736 110.549 80.4099 108.228L81.964 105.715C83.4819 103.261 86.756 102.598 89.1093 104.268L95.058 108.488Z" fill="white" stroke="#080809"/>
<path d="M111.874 119.034L119.588 124.625C121.555 126.051 122.213 128.684 121.147 130.867L120.708 131.768C119.487 134.269 116.459 135.292 113.972 134.044L104.572 129.327L98.7797 125.614C96.4812 124.141 95.7894 121.096 97.2257 118.774L98.7798 116.262C100.298 113.808 103.572 113.145 105.925 114.814L111.874 119.034Z" fill="white" stroke="#080809"/>
<path d="M129.646 129.289L137.36 134.88C139.328 136.305 139.985 138.939 138.92 141.122L138.48 142.022C137.259 144.523 134.232 145.546 131.744 144.298L122.344 139.581L116.552 135.868C114.253 134.395 113.562 131.35 114.998 129.028L116.552 126.516C118.07 124.062 121.344 123.399 123.697 125.068L129.646 129.289Z" fill="white" stroke="#080809"/>
<path d="M146.462 139.835L154.176 145.426C156.143 146.852 156.801 149.485 155.735 151.668L155.296 152.569C154.075 155.07 151.047 156.093 148.56 154.844L139.16 150.128L133.368 146.415C131.069 144.942 130.377 141.897 131.814 139.575L133.368 137.063C134.886 134.609 138.16 133.945 140.513 135.615L146.462 139.835Z" fill="white" stroke="#080809"/>
<path d="M163.278 150.382L170.992 155.973C172.959 157.399 173.617 160.032 172.551 162.215L172.112 163.115C170.891 165.616 167.863 166.639 165.376 165.391L155.976 160.674L150.183 156.961C147.885 155.488 147.193 152.443 148.629 150.122L150.183 147.609C151.701 145.155 154.976 144.492 157.329 146.161L163.278 150.382Z" fill="white" stroke="#080809"/>
<path d="M181.05 160.636L188.764 166.227C190.731 167.653 191.389 170.286 190.323 172.469L189.884 173.37C188.663 175.87 185.635 176.893 183.148 175.645L173.748 170.928L167.955 167.216C165.657 165.742 164.965 162.698 166.401 160.376L167.956 157.863C169.473 155.41 172.748 154.746 175.101 156.416L181.05 160.636Z" fill="white" stroke="#080809"/>
<path d="M78.2342 43.3332L78.7961 33.8222C78.9393 31.3971 80.805 29.4259 83.2185 29.1495L84.2141 29.0355C86.9789 28.7188 89.4702 30.7205 89.7565 33.4886L90.8386 43.9501L90.8256 50.8301C90.8205 53.5602 88.6263 55.7815 85.8965 55.8202L82.9425 55.8621C80.0574 55.903 77.7366 53.5001 77.8777 50.6181L78.2342 43.3332Z" fill="white" stroke="#080809"/>
<path d="M78.2342 61.3333L78.7961 51.8223C78.9393 49.3972 80.805 47.426 83.2185 47.1496L84.2141 47.0356C86.9789 46.719 89.4702 48.7206 89.7565 51.4887L90.8386 61.9502L90.8256 68.8302C90.8205 71.5604 88.6263 73.7817 85.8965 73.8203L82.9425 73.8622C80.0574 73.9031 77.7366 71.5002 77.8777 68.6183L78.2342 61.3333Z" fill="white" stroke="#080809"/>
<path d="M78.2342 80.3333L78.7961 70.8223C78.9393 68.3972 80.805 66.426 83.2185 66.1496L84.2141 66.0356C86.9789 65.719 89.4702 67.7206 89.7565 70.4887L90.8386 80.9502L90.8256 87.8302C90.8205 90.5604 88.6263 92.7817 85.8965 92.8203L82.9425 92.8622C80.0574 92.9031 77.7366 90.5002 77.8777 87.6183L78.2342 80.3333Z" fill="white" stroke="#080809"/>
<path d="M78.2343 95.3332L78.7961 85.8222C78.9394 83.3971 80.805 81.4259 83.2185 81.1495L84.2142 81.0355C86.979 80.7189 89.4702 82.7205 89.7565 85.4886L90.8386 95.9501L90.8257 102.83C90.8205 105.56 88.6264 107.782 85.8965 107.82L82.9426 107.862C80.0575 107.903 77.7367 105.5 77.8777 102.618L78.2343 95.3332Z" fill="white" stroke="#080809"/>
<path d="M78.2342 114.333L78.7961 104.822C78.9393 102.397 80.805 100.426 83.2185 100.15L84.2141 100.036C86.9789 99.719 89.4702 101.721 89.7565 104.489L90.8386 114.95L90.8256 121.83C90.8205 124.56 88.6263 126.782 85.8965 126.82L82.9425 126.862C80.0574 126.903 77.7366 124.5 77.8777 121.618L78.2342 114.333Z" fill="white" stroke="#080809"/>
<path d="M78.2342 132.333L78.7961 122.822C78.9393 120.397 80.805 118.426 83.2185 118.149L84.2141 118.035C86.9789 117.719 89.4702 119.72 89.7565 122.489L90.8386 132.95L90.8256 139.83C90.8205 142.56 88.6263 144.781 85.8965 144.82L82.9425 144.862C80.0574 144.903 77.7366 142.5 77.8777 139.618L78.2342 132.333Z" fill="white" stroke="#080809"/>
<path d="M78.2342 151.333L78.7961 141.822C78.9393 139.397 80.805 137.426 83.2185 137.149L84.2141 137.035C86.9789 136.719 89.4702 138.72 89.7565 141.489L90.8386 151.95L90.8256 158.83C90.8205 161.56 88.6263 163.781 85.8965 163.82L82.9425 163.862C80.0574 163.903 77.7366 161.5 77.8777 158.618L78.2342 151.333Z" fill="white" stroke="#080809"/>
<path d="M78.2342 169.333L78.7961 159.822C78.9393 157.397 80.805 155.426 83.2185 155.149L84.2141 155.035C86.9789 154.719 89.4702 156.72 89.7565 159.489L90.8386 169.95L90.8256 176.83C90.8205 179.56 88.6263 181.781 85.8965 181.82L82.9425 181.862C80.0574 181.903 77.7366 179.5 77.8777 176.618L78.2342 169.333Z" fill="white" stroke="#080809"/>
<path d="M78.2343 184.333L78.7961 174.822C78.9394 172.397 80.805 170.426 83.2185 170.15L84.2142 170.035C86.979 169.719 89.4702 171.721 89.7565 174.489L90.8386 184.95L90.8257 191.83C90.8205 194.56 88.6264 196.782 85.8965 196.82L82.9426 196.862C80.0575 196.903 77.7367 194.5 77.8777 191.618L78.2343 184.333Z" fill="white" stroke="#080809"/>
</svg>
