<svg width="244" height="218" viewBox="0 0 244 218" fill="none" xmlns="http://www.w3.org/2000/svg">
<g clip-path="url(#clip0)">
<rect width="244" height="218" fill="none"/>
<circle cx="97.577" cy="34.9748" r="25" transform="rotate(-30.7707 97.577 34.9748)" fill="#080809"/>
<circle cx="96.4315" cy="182.69" r="25" transform="rotate(-30.7707 96.4315 182.69)" fill="#080809"/>
<circle cx="97.7872" cy="74.4204" r="25" transform="rotate(-30.7707 97.7872 74.4204)" fill="#080809"/>
<circle cx="97.9972" cy="113.866" r="25" transform="rotate(-30.7707 97.9972 113.866)" fill="#080809"/>
<circle cx="97.1842" cy="151.593" r="25" transform="rotate(-30.7707 97.1842 151.593)" fill="#080809"/>
<circle cx="164.849" cy="63.1074" r="25" transform="rotate(22.6023 164.849 63.1074)" fill="#080809"/>
<circle cx="134.849" cy="88.1074" r="25" transform="rotate(22.6023 134.849 88.1074)" fill="#080809"/>
<circle r="25" transform="matrix(-0.923195 0.384332 0.384332 0.923195 161.849 153.107)" fill="#080809"/>
<circle r="25" transform="matrix(-0.923195 0.384332 0.384332 0.923195 130.849 133.107)" fill="#080809"/>
</g>
<defs>
<clipPath id="clip0">
<rect width="244" height="218" fill="white"/>
</clipPath>
</defs>
</svg>
