<svg width="221" height="217" viewBox="0 0 221 217" fill="none" xmlns="http://www.w3.org/2000/svg">
<rect width="221" height="217" fill="none"/>
<path d="M53.2342 52.3332L53.7961 42.8222C53.9393 40.3971 55.805 38.4259 58.2185 38.1495L59.2142 38.0355C61.9789 37.7189 64.4702 39.7205 64.7565 42.4886L65.8386 52.9501L65.8256 59.8301C65.8205 62.5603 63.6264 64.7816 60.8965 64.8202L57.9425 64.8621C55.0574 64.903 52.7366 62.5001 52.8777 59.6182L53.2342 52.3332Z" fill="white" stroke="#080809"/>
<path d="M53.2343 70.3332L53.7961 60.8221C53.9394 58.397 55.805 56.4258 58.2185 56.1494L59.2142 56.0354C61.979 55.7188 64.4702 57.7205 64.7565 60.4885L65.8386 70.9501L65.8257 77.8301C65.8205 80.5602 63.6264 82.7815 60.8965 82.8202L57.9426 82.862C55.0575 82.9029 52.7367 80.5001 52.8777 77.6181L53.2343 70.3332Z" fill="white" stroke="#080809"/>
<path d="M53.2342 89.3332L53.7961 79.8222C53.9393 77.3971 55.805 75.4259 58.2185 75.1495L59.2142 75.0355C61.9789 74.7188 64.4702 76.7205 64.7565 79.4886L65.8386 89.9501L65.8256 96.8301C65.8205 99.5602 63.6264 101.782 60.8965 101.82L57.9425 101.862C55.0574 101.903 52.7366 99.5001 52.8777 96.6181L53.2342 89.3332Z" fill="white" stroke="#080809"/>
<path d="M53.2343 107.333L53.7961 97.8221C53.9394 95.397 55.805 93.4258 58.2185 93.1494L59.2142 93.0354C61.979 92.7188 64.4702 94.7205 64.7565 97.4885L65.8386 107.95L65.8257 114.83C65.8205 117.56 63.6264 119.781 60.8965 119.82L57.9426 119.862C55.0575 119.903 52.7367 117.5 52.8777 114.618L53.2343 107.333Z" fill="white" stroke="#080809"/>
<path d="M53.2342 123.333L53.7961 113.822C53.9393 111.397 55.805 109.426 58.2185 109.15L59.2142 109.036C61.9789 108.719 64.4702 110.721 64.7565 113.489L65.8386 123.95L65.8256 130.83C65.8205 133.56 63.6264 135.782 60.8965 135.82L57.9425 135.862C55.0574 135.903 52.7366 133.5 52.8777 130.618L53.2342 123.333Z" fill="white" stroke="#080809"/>
<path d="M53.2343 141.333L53.7961 131.822C53.9394 129.397 55.805 127.426 58.2185 127.15L59.2142 127.036C61.979 126.719 64.4702 128.721 64.7565 131.489L65.8386 141.95L65.8257 148.83C65.8205 151.56 63.6264 153.782 60.8965 153.82L57.9426 153.862C55.0575 153.903 52.7367 151.5 52.8777 148.618L53.2343 141.333Z" fill="white" stroke="#080809"/>
<path d="M53.2342 160.333L53.7961 150.822C53.9393 148.397 55.805 146.426 58.2185 146.15L59.2142 146.036C61.9789 145.719 64.4702 147.721 64.7565 150.489L65.8386 160.95L65.8256 167.83C65.8205 170.56 63.6264 172.782 60.8965 172.82L57.9425 172.862C55.0574 172.903 52.7366 170.5 52.8777 167.618L53.2342 160.333Z" fill="white" stroke="#080809"/>
<path d="M53.2342 178.333L53.7961 168.822C53.9393 166.397 55.805 164.426 58.2185 164.15L59.2142 164.036C61.9789 163.719 64.4702 165.721 64.7565 168.489L65.8386 178.95L65.8256 185.83C65.8205 188.56 63.6264 190.782 60.8965 190.82L57.9425 190.862C55.0574 190.903 52.7366 188.5 52.8777 185.618L53.2342 178.333Z" fill="white" stroke="#080809"/>
<path d="M139.775 178.256L149.288 178.777C151.714 178.909 153.693 180.766 153.98 183.179L154.098 184.174C154.427 186.937 152.436 189.437 149.67 189.736L139.213 190.863L132.333 190.881C129.603 190.887 127.372 188.703 127.321 185.973L127.266 183.019C127.213 180.135 129.606 177.803 132.488 177.932L139.775 178.256Z" fill="white" stroke="#080809"/>
<path d="M120.775 178.256L130.288 178.777C132.714 178.909 134.693 180.766 134.98 183.179L135.098 184.174C135.427 186.937 133.436 189.437 130.67 189.736L120.213 190.863L113.333 190.881C110.603 190.887 108.372 188.703 108.321 185.973L108.266 183.019C108.213 180.135 110.606 177.803 113.488 177.932L120.775 178.256Z" fill="white" stroke="#080809"/>
<path d="M101.775 178.256L111.288 178.777C113.714 178.909 115.693 180.766 115.98 183.179L116.098 184.174C116.427 186.937 114.436 189.437 111.67 189.736L101.213 190.863L94.3328 190.881C91.6027 190.887 89.3718 188.703 89.3212 185.973L89.2665 183.019C89.213 180.135 91.6057 177.803 94.4882 177.932L101.775 178.256Z" fill="white" stroke="#080809"/>
<path d="M83.7747 178.256L93.2881 178.777C95.7137 178.909 97.6931 180.766 97.98 183.179L98.0984 184.174C98.4271 186.937 96.4363 189.437 93.6695 189.736L83.2128 190.863L76.3328 190.881C73.6027 190.887 71.3718 188.703 71.3212 185.973L71.2665 183.019C71.213 180.135 73.6057 177.803 76.4882 177.932L83.7747 178.256Z" fill="white" stroke="#080809"/>
<path d="M64.7747 178.256L74.2881 178.777C76.7137 178.909 78.6931 180.766 78.98 183.179L79.0984 184.174C79.4271 186.937 77.4363 189.437 74.6695 189.736L64.2128 190.863L57.3328 190.881C54.6027 190.887 52.3718 188.703 52.3212 185.973L52.2665 183.019C52.213 180.135 54.6057 177.803 57.4882 177.932L64.7747 178.256Z" fill="white" stroke="#080809"/>
</svg>
