<svg width="236" height="220" viewBox="0 0 236 220" fill="none" xmlns="http://www.w3.org/2000/svg">
<rect width="236" height="220" fill="none"/>
<circle r="25" transform="matrix(0.871904 0.489676 0.489676 -0.871904 88.8928 168.15)" fill="#080809"/>
<circle r="25" transform="matrix(0.871904 0.489676 0.489676 -0.871904 88.1037 128.712)" fill="#080809"/>
<circle r="25" transform="matrix(0.871904 0.489676 0.489676 -0.871904 87.3147 89.2737)" fill="#080809"/>
<circle r="25" transform="matrix(0.871904 0.489676 0.489676 -0.871904 85.5463 51.5793)" fill="#080809"/>
<path d="M182.344 147.286C170.319 140.501 155.071 144.748 148.285 156.773C141.5 168.798 145.748 184.046 157.773 190.832C169.797 197.617 185.046 193.369 191.831 181.344C198.617 169.32 194.369 154.071 182.344 147.286Z" fill="#080809"/>
<circle r="25" transform="matrix(0.491433 -0.870915 -0.870915 -0.491433 127.058 170.059)" fill="#080809"/>
</svg>
