<svg width="230" height="215" viewBox="0 0 230 215" fill="none" xmlns="http://www.w3.org/2000/svg">
<rect width="230" height="215" fill="none"/>
<path d="M61.1649 48.3332L61.7267 38.8222C61.87 36.3971 63.7356 34.4259 66.1491 34.1495L67.1448 34.0355C69.9096 33.7188 72.4008 35.7205 72.6871 38.4886L73.7692 48.9501L73.7563 55.8301C73.7511 58.5602 71.557 60.7815 68.8271 60.8202L65.8732 60.8621C62.9881 60.903 60.6673 58.5001 60.8083 55.6181L61.1649 48.3332Z" fill="white" stroke="#080809"/>
<path d="M61.1649 66.3332L61.7267 56.8222C61.87 54.3971 63.7356 52.4259 66.1491 52.1495L67.1448 52.0355C69.9096 51.7189 72.4008 53.7206 72.6871 56.4886L73.7692 66.9502L73.7563 73.8302C73.7511 76.5603 71.557 78.7816 68.8271 78.8203L65.8732 78.8621C62.9881 78.903 60.6673 76.5002 60.8083 73.6182L61.1649 66.3332Z" fill="white" stroke="#080809"/>
<path d="M61.1649 85.3332L61.7267 75.8222C61.87 73.3971 63.7356 71.4259 66.1491 71.1495L67.1448 71.0355C69.9096 70.7189 72.4008 72.7206 72.6871 75.4886L73.7692 85.9502L73.7563 92.8302C73.7511 95.5603 71.557 97.7816 68.8271 97.8203L65.8732 97.8621C62.9881 97.903 60.6673 95.5002 60.8083 92.6182L61.1649 85.3332Z" fill="white" stroke="#080809"/>
<path d="M61.1649 103.333L61.7267 93.8222C61.87 91.3971 63.7356 89.4259 66.1491 89.1495L67.1448 89.0355C69.9096 88.7189 72.4008 90.7206 72.6871 93.4886L73.7692 103.95L73.7563 110.83C73.7511 113.56 71.557 115.782 68.8271 115.82L65.8732 115.862C62.9881 115.903 60.6673 113.5 60.8083 110.618L61.1649 103.333Z" fill="white" stroke="#080809"/>
<path d="M61.1649 119.333L61.7267 109.822C61.87 107.397 63.7356 105.426 66.1491 105.15L67.1448 105.036C69.9096 104.719 72.4008 106.721 72.6871 109.489L73.7692 119.95L73.7563 126.83C73.7511 129.56 71.557 131.782 68.8271 131.82L65.8732 131.862C62.9881 131.903 60.6673 129.5 60.8083 126.618L61.1649 119.333Z" fill="white" stroke="#080809"/>
<path d="M61.1649 137.333L61.7267 127.822C61.87 125.397 63.7356 123.426 66.1491 123.149L67.1448 123.035C69.9096 122.719 72.4008 124.72 72.6871 127.488L73.7692 137.95L73.7563 144.83C73.7511 147.56 71.557 149.781 68.8271 149.82L65.8732 149.862C62.9881 149.903 60.6673 147.5 60.8083 144.618L61.1649 137.333Z" fill="white" stroke="#080809"/>
<path d="M61.1649 156.333L61.7267 146.822C61.87 144.397 63.7356 142.426 66.1491 142.149L67.1448 142.035C69.9096 141.719 72.4008 143.72 72.6871 146.488L73.7692 156.95L73.7563 163.83C73.7511 166.56 71.557 168.781 68.8271 168.82L65.8732 168.862C62.9881 168.903 60.6673 166.5 60.8083 163.618L61.1649 156.333Z" fill="white" stroke="#080809"/>
<path d="M61.1649 174.333L61.7267 164.822C61.87 162.397 63.7356 160.426 66.1491 160.149L67.1448 160.035C69.9096 159.719 72.4008 161.72 72.6871 164.488L73.7692 174.95L73.7563 181.83C73.7511 184.56 71.557 186.781 68.8271 186.82L65.8732 186.862C62.9881 186.903 60.6673 184.5 60.8083 181.618L61.1649 174.333Z" fill="white" stroke="#080809"/>
<path d="M65.9905 48.938L62.8634 39.9382C62.0661 37.6435 63.0335 35.1077 65.1567 33.9272L66.0326 33.4402C68.4648 32.0879 71.533 32.9816 72.8586 35.4284L77.8684 44.6759L80.494 51.0353C81.5358 53.5588 80.3608 56.4515 77.8543 57.5337L75.1421 58.7048C72.4931 59.8485 69.4284 58.5189 68.4539 55.8031L65.9905 48.938Z" fill="white" stroke="#080809"/>
<path d="M72.8909 65.5629L69.7638 56.5631C68.9665 54.2684 69.9339 51.7326 72.0571 50.5521L72.933 50.0651C75.3652 48.7128 78.4334 49.6065 79.759 52.0533L84.7688 61.3008L87.3943 67.6602C88.4362 70.1837 87.2612 73.0764 84.7547 74.1586L82.0425 75.3297C79.3935 76.4735 76.3288 75.1438 75.3543 72.428L72.8909 65.5629Z" fill="white" stroke="#080809"/>
<path d="M80.1746 83.1114L77.0474 74.1116C76.2501 71.8168 77.2175 69.281 79.3407 68.1005L80.2166 67.6135C82.6488 66.2612 85.7171 67.1549 87.0426 69.6018L92.0525 78.8493L94.678 85.2086C95.7198 87.7322 94.5448 90.6249 92.0384 91.7071L89.3261 92.8781C86.6771 94.0219 83.6125 92.6923 82.6379 89.9765L80.1746 83.1114Z" fill="white" stroke="#080809"/>
<path d="M87.0749 99.7363L83.9478 90.7365C83.1504 88.4418 84.1179 85.906 86.2411 84.7255L87.1169 84.2385C89.5491 82.8862 92.6174 83.7799 93.943 86.2267L98.9528 95.4742L101.578 101.834C102.62 104.357 101.445 107.25 98.9387 108.332L96.2265 109.503C93.5774 110.647 90.5128 109.317 89.5383 106.601L87.0749 99.7363Z" fill="white" stroke="#080809"/>
<path d="M93.2081 114.514L90.081 105.514C89.2837 103.219 90.2511 100.684 92.3743 99.503L93.2502 99.0161C95.6824 97.6638 98.7506 98.5575 100.076 101.004L105.086 110.252L107.712 116.611C108.753 119.135 107.578 122.027 105.072 123.11L102.36 124.281C99.7107 125.424 96.646 124.095 95.6715 121.379L93.2081 114.514Z" fill="white" stroke="#080809"/>
<path d="M100.108 131.138L96.9813 122.139C96.1839 119.844 97.1514 117.308 99.2746 116.128L100.15 115.641C102.583 114.288 105.651 115.182 106.976 117.629L111.986 126.876L114.612 133.236C115.654 135.759 114.479 138.652 111.972 139.734L109.26 140.905C106.611 142.049 103.546 140.719 102.572 138.003L100.108 131.138Z" fill="white" stroke="#080809"/>
<path d="M107.392 148.687L104.265 139.687C103.468 137.392 104.435 134.856 106.558 133.676L107.434 133.189C109.866 131.837 112.935 132.73 114.26 135.177L119.27 144.425L121.896 150.784C122.937 153.308 121.762 156.2 119.256 157.283L116.544 158.454C113.895 159.597 110.83 158.268 109.856 155.552L107.392 148.687Z" fill="white" stroke="#080809"/>
<path d="M114.293 165.312L111.165 156.312C110.368 154.017 111.336 151.481 113.459 150.301L114.335 149.814C116.767 148.462 119.835 149.355 121.161 151.802L126.171 161.05L128.796 167.409C129.838 169.933 128.663 172.825 126.156 173.908L123.444 175.079C120.795 176.222 117.731 174.893 116.756 172.177L114.293 165.312Z" fill="white" stroke="#080809"/>
<path d="M181.857 52.938L184.984 43.9382C185.782 41.6435 184.814 39.1077 182.691 37.9272L181.815 37.4402C179.383 36.0879 176.315 36.9816 174.989 39.4284L169.979 48.6759L167.354 55.0353C166.312 57.5588 167.487 60.4515 169.993 61.5337L172.705 62.7048C175.355 63.8485 178.419 62.5189 179.394 59.8031L181.857 52.938Z" fill="white" stroke="#080809"/>
<path d="M174.957 69.5629L178.084 60.5631C178.881 58.2684 177.914 55.7326 175.79 54.5521L174.915 54.0651C172.482 52.7128 169.414 53.6065 168.089 56.0533L163.079 65.3008L160.453 71.6602C159.411 74.1837 160.586 77.0764 163.093 78.1586L165.805 79.3297C168.454 80.4735 171.519 79.1438 172.493 76.428L174.957 69.5629Z" fill="white" stroke="#080809"/>
<path d="M167.673 87.1114L170.8 78.1116C171.597 75.8168 170.63 73.281 168.507 72.1005L167.631 71.6135C165.199 70.2612 162.131 71.1549 160.805 73.6018L155.795 82.8493L153.17 89.2086C152.128 91.7322 153.303 94.6249 155.809 95.7071L158.521 96.8781C161.17 98.0219 164.235 96.6923 165.21 93.9765L167.673 87.1114Z" fill="white" stroke="#080809"/>
<path d="M160.773 103.736L163.9 94.7365C164.697 92.4418 163.73 89.906 161.607 88.7255L160.731 88.2385C158.298 86.8862 155.23 87.7799 153.905 90.2267L148.895 99.4742L146.269 105.834C145.227 108.357 146.402 111.25 148.909 112.332L151.621 113.503C154.27 114.647 157.335 113.317 158.309 110.601L160.773 103.736Z" fill="white" stroke="#080809"/>
<path d="M154.639 118.514L157.767 109.514C158.564 107.219 157.596 104.684 155.473 103.503L154.597 103.016C152.165 101.664 149.097 102.557 147.771 105.004L142.762 114.252L140.136 120.611C139.094 123.135 140.269 126.027 142.776 127.11L145.488 128.281C148.137 129.424 151.202 128.095 152.176 125.379L154.639 118.514Z" fill="white" stroke="#080809"/>
<path d="M147.739 135.138L150.866 126.139C151.664 123.844 150.696 121.308 148.573 120.128L147.697 119.641C145.265 118.288 142.197 119.182 140.871 121.629L135.861 130.876L133.236 137.236C132.194 139.759 133.369 142.652 135.875 143.734L138.588 144.905C141.237 146.049 144.301 144.719 145.276 142.003L147.739 135.138Z" fill="white" stroke="#080809"/>
<path d="M140.455 152.687L143.582 143.687C144.38 141.392 143.412 138.856 141.289 137.676L140.413 137.189C137.981 135.837 134.913 136.73 133.587 139.177L128.577 148.425L125.952 154.784C124.91 157.308 126.085 160.2 128.592 161.283L131.304 162.454C133.953 163.597 137.017 162.268 137.992 159.552L140.455 152.687Z" fill="white" stroke="#080809"/>
<path d="M133.555 169.312L136.682 160.312C137.479 158.017 136.512 155.481 134.389 154.301L133.513 153.814C131.081 152.462 128.012 153.355 126.687 155.802L121.677 165.05L119.052 171.409C118.01 173.933 119.185 176.825 121.691 177.908L124.403 179.079C127.052 180.222 130.117 178.893 131.092 176.177L133.555 169.312Z" fill="white" stroke="#080809"/>
<path d="M174.165 48.3332L174.727 38.8222C174.87 36.3971 176.736 34.4259 179.149 34.1495L180.145 34.0355C182.91 33.7189 185.401 35.7205 185.687 38.4886L186.769 48.9501L186.756 55.8301C186.751 58.5603 184.557 60.7816 181.827 60.8202L178.873 60.8621C175.988 60.903 173.667 58.5001 173.808 55.6182L174.165 48.3332Z" fill="white" stroke="#080809"/>
<path d="M174.165 66.3333L174.727 56.8222C174.87 54.3972 176.736 52.426 179.149 52.1496L180.145 52.0355C182.91 51.7189 185.401 53.7206 185.687 56.4887L186.769 66.9502L186.756 73.8302C186.751 76.5603 184.557 78.7816 181.827 78.8203L178.873 78.8622C175.988 78.903 173.667 76.5002 173.808 73.6182L174.165 66.3333Z" fill="white" stroke="#080809"/>
<path d="M174.165 85.3333L174.727 75.8222C174.87 73.3972 176.736 71.426 179.149 71.1496L180.145 71.0355C182.91 70.7189 185.401 72.7206 185.687 75.4887L186.769 85.9502L186.756 92.8302C186.751 95.5603 184.557 97.7816 181.827 97.8203L178.873 97.8622C175.988 97.903 173.667 95.5002 173.808 92.6182L174.165 85.3333Z" fill="white" stroke="#080809"/>
<path d="M174.165 103.333L174.727 93.8222C174.87 91.3972 176.736 89.426 179.149 89.1496L180.145 89.0355C182.91 88.7189 185.401 90.7206 185.687 93.4887L186.769 103.95L186.756 110.83C186.751 113.56 184.557 115.782 181.827 115.82L178.873 115.862C175.988 115.903 173.667 113.5 173.808 110.618L174.165 103.333Z" fill="white" stroke="#080809"/>
<path d="M174.165 119.333L174.727 109.822C174.87 107.397 176.736 105.426 179.149 105.15L180.145 105.036C182.91 104.719 185.401 106.721 185.687 109.489L186.769 119.95L186.756 126.83C186.751 129.56 184.557 131.782 181.827 131.82L178.873 131.862C175.988 131.903 173.667 129.5 173.808 126.618L174.165 119.333Z" fill="white" stroke="#080809"/>
<path d="M174.165 137.333L174.727 127.822C174.87 125.397 176.736 123.426 179.149 123.149L180.145 123.035C182.91 122.719 185.401 124.72 185.687 127.488L186.769 137.95L186.756 144.83C186.751 147.56 184.557 149.781 181.827 149.82L178.873 149.862C175.988 149.903 173.667 147.5 173.808 144.618L174.165 137.333Z" fill="white" stroke="#080809"/>
<path d="M174.165 156.333L174.727 146.822C174.87 144.397 176.736 142.426 179.149 142.149L180.145 142.035C182.91 141.719 185.401 143.72 185.687 146.488L186.769 156.95L186.756 163.83C186.751 166.56 184.557 168.781 181.827 168.82L178.873 168.862C175.988 168.903 173.667 166.5 173.808 163.618L174.165 156.333Z" fill="white" stroke="#080809"/>
<path d="M174.165 174.333L174.727 164.822C174.87 162.397 176.736 160.426 179.149 160.149L180.145 160.035C182.91 159.719 185.401 161.72 185.687 164.488L186.769 174.95L186.756 181.83C186.751 184.56 184.557 186.781 181.827 186.82L178.873 186.862C175.988 186.903 173.667 184.5 173.808 181.618L174.165 174.333Z" fill="white" stroke="#080809"/>
</svg>
