<svg width="218" height="215" viewBox="0 0 218 215" fill="none" xmlns="http://www.w3.org/2000/svg">
<g clip-path="url(#clip0)">
<rect width="218" height="215" fill="none"/>
<circle r="25" transform="matrix(0.871904 0.489676 0.489676 -0.871904 41.8928 153.15)" fill="#080809"/>
<circle r="25" transform="matrix(0.871904 0.489676 0.489676 -0.871904 41.1037 113.712)" fill="#080809"/>
<circle r="25" transform="matrix(0.871904 0.489676 0.489676 -0.871904 40.3147 74.2737)" fill="#080809"/>
<circle r="25" transform="matrix(0.871904 0.489676 0.489676 -0.871904 38.5463 36.5793)" fill="#080809"/>
<circle r="25" transform="matrix(0.871904 0.489676 0.489676 -0.871904 179.893 153.15)" fill="#080809"/>
<circle r="25" transform="matrix(0.871904 0.489676 0.489676 -0.871904 179.104 113.712)" fill="#080809"/>
<circle r="25" transform="matrix(0.871904 0.489676 0.489676 -0.871904 178.315 74.2737)" fill="#080809"/>
<circle r="25" transform="matrix(0.871904 0.489676 0.489676 -0.871904 176.546 36.5793)" fill="#080809"/>
<circle r="25" transform="matrix(0.996578 0.0826531 0.0826531 -0.996578 106.984 150.173)" fill="#080809"/>
<circle r="25" transform="matrix(0.996578 0.0826531 0.0826531 -0.996578 89.8629 114.637)" fill="#080809"/>
<circle r="25" transform="matrix(0.996578 0.0826531 0.0826531 -0.996578 72.7415 79.0999)" fill="#080809"/>
<circle r="25" transform="matrix(0.551885 0.83392 0.83392 -0.551885 129.315 115.666)" fill="#080809"/>
<circle r="25" transform="matrix(0.551885 0.83392 0.83392 -0.551885 146.63 80.2237)" fill="#080809"/>
</g>
<defs>
<clipPath id="clip0">
<rect width="218" height="215" fill="white"/>
</clipPath>
</defs>
</svg>
