<svg width="203" height="217" viewBox="0 0 203 217" fill="none" xmlns="http://www.w3.org/2000/svg">
<rect width="203" height="217" fill="none"/>
<path d="M69.7549 51.7052L64.7786 43.5804C63.5098 41.5088 63.9136 38.825 65.7359 37.2184L66.4876 36.5557C68.575 34.7153 71.7634 34.9335 73.5807 37.0409L80.4492 45.0058L84.3717 50.6581C85.9282 52.901 85.3978 55.9779 83.1802 57.5702L80.7804 59.2933C78.4366 60.9762 75.1588 60.3314 73.627 57.8862L69.7549 51.7052Z" fill="white" stroke="#080809"/>
<path d="M61.2342 48.3332L61.7961 38.8222C61.9393 36.3971 63.8049 34.4259 66.2185 34.1495L67.2141 34.0355C69.9789 33.7189 72.4702 35.7205 72.7565 38.4886L73.8385 48.9501L73.8256 55.8301C73.8205 58.5603 71.6263 60.7816 68.8965 60.8202L65.9425 60.8621C63.0574 60.903 60.7366 58.5001 60.8776 55.6182L61.2342 48.3332Z" fill="white" stroke="#080809"/>
<path d="M61.2342 66.3333L61.7961 56.8222C61.9393 54.3972 63.8049 52.426 66.2185 52.1496L67.2141 52.0355C69.9789 51.7189 72.4702 53.7206 72.7565 56.4887L73.8385 66.9502L73.8256 73.8302C73.8205 76.5603 71.6263 78.7816 68.8965 78.8203L65.9425 78.8622C63.0574 78.903 60.7366 76.5002 60.8776 73.6182L61.2342 66.3333Z" fill="white" stroke="#080809"/>
<path d="M61.2342 85.3333L61.7961 75.8222C61.9393 73.3972 63.8049 71.426 66.2185 71.1496L67.2141 71.0355C69.9789 70.7189 72.4702 72.7206 72.7565 75.4887L73.8385 85.9502L73.8256 92.8302C73.8205 95.5603 71.6263 97.7816 68.8965 97.8203L65.9425 97.8622C63.0574 97.903 60.7366 95.5002 60.8776 92.6182L61.2342 85.3333Z" fill="white" stroke="#080809"/>
<path d="M61.2342 103.333L61.7961 93.8222C61.9393 91.3972 63.8049 89.426 66.2185 89.1496L67.2141 89.0355C69.9789 88.7189 72.4702 90.7206 72.7565 93.4887L73.8385 103.95L73.8256 110.83C73.8205 113.56 71.6263 115.782 68.8965 115.82L65.9425 115.862C63.0574 115.903 60.7366 113.5 60.8776 110.618L61.2342 103.333Z" fill="white" stroke="#080809"/>
<path d="M61.2342 119.333L61.7961 109.822C61.9393 107.397 63.8049 105.426 66.2185 105.15L67.2141 105.036C69.9789 104.719 72.4702 106.721 72.7565 109.489L73.8385 119.95L73.8256 126.83C73.8205 129.56 71.6263 131.782 68.8965 131.82L65.9425 131.862C63.0574 131.903 60.7366 129.5 60.8776 126.618L61.2342 119.333Z" fill="white" stroke="#080809"/>
<path d="M61.2342 137.333L61.7961 127.822C61.9393 125.397 63.8049 123.426 66.2185 123.149L67.2141 123.035C69.9789 122.719 72.4702 124.72 72.7565 127.488L73.8385 137.95L73.8256 144.83C73.8205 147.56 71.6263 149.781 68.8965 149.82L65.9425 149.862C63.0574 149.903 60.7366 147.5 60.8776 144.618L61.2342 137.333Z" fill="white" stroke="#080809"/>
<path d="M61.2342 156.333L61.7961 146.822C61.9393 144.397 63.8049 142.426 66.2185 142.149L67.2141 142.035C69.9789 141.719 72.4702 143.72 72.7565 146.488L73.8385 156.95L73.8256 163.83C73.8205 166.56 71.6263 168.781 68.8965 168.82L65.9425 168.862C63.0574 168.903 60.7366 166.5 60.8776 163.618L61.2342 156.333Z" fill="white" stroke="#080809"/>
<path d="M61.2342 174.333L61.7961 164.822C61.9393 162.397 63.8049 160.426 66.2185 160.149L67.2141 160.035C69.9789 159.719 72.4702 161.72 72.7565 164.488L73.8385 174.95L73.8256 181.83C73.8205 184.56 71.6263 186.781 68.8965 186.82L65.9425 186.862C63.0574 186.903 60.7366 184.5 60.8776 181.618L61.2342 174.333Z" fill="white" stroke="#080809"/>
<path d="M80.0452 66.4739L75.0689 58.3491C73.8001 56.2774 74.2039 53.5936 76.0262 51.987L76.7779 51.3243C78.8653 49.484 82.0536 49.7021 83.871 51.8095L90.7394 59.7744L94.662 65.4267C96.2185 67.6697 95.6881 70.7465 93.4704 72.3389L91.0707 74.0619C88.7269 75.7448 85.4491 75.1001 83.9173 72.6548L80.0452 66.4739Z" fill="white" stroke="#080809"/>
<path d="M90.9071 82.063L85.9309 73.9382C84.662 71.8666 85.0659 69.1827 86.8881 67.5761L87.6398 66.9134C89.7273 65.0731 92.9156 65.2912 94.7329 67.3987L101.601 75.3635L105.524 81.0158C107.08 83.2588 106.55 86.3356 104.332 87.928L101.933 89.651C99.5889 91.3339 96.311 90.6892 94.7792 88.244L90.9071 82.063Z" fill="white" stroke="#080809"/>
<path d="M101.197 96.8317L96.221 88.7069C94.9522 86.6352 95.356 83.9514 97.1783 82.3448L97.93 81.6821C100.017 79.8418 103.206 80.0599 105.023 82.1673L111.892 90.1322L115.814 95.7845C117.371 98.0274 116.84 101.104 114.623 102.697L112.223 104.42C109.879 106.103 106.601 105.458 105.069 103.013L101.197 96.8317Z" fill="white" stroke="#080809"/>
<path d="M110.344 109.959L105.368 101.835C104.099 99.7629 104.503 97.0791 106.325 95.4725L107.077 94.8098C109.164 92.9694 112.352 93.1876 114.17 95.295L121.038 103.26L124.961 108.912C126.517 111.155 125.987 114.232 123.769 115.824L121.369 117.547C119.026 119.23 115.748 118.586 114.216 116.14L110.344 109.959Z" fill="white" stroke="#080809"/>
<path d="M120.634 124.728L115.658 116.603C114.389 114.531 114.793 111.847 116.615 110.241L117.367 109.578C119.454 107.738 122.642 107.956 124.46 110.063L131.328 118.028L135.251 123.68C136.807 125.923 136.277 129 134.059 130.593L131.659 132.316C129.316 133.999 126.038 133.354 124.506 130.909L120.634 124.728Z" fill="white" stroke="#080809"/>
<path d="M131.496 140.317L126.52 132.192C125.251 130.12 125.655 127.436 127.477 125.83L128.229 125.167C130.316 123.327 133.504 123.545 135.322 125.652L142.19 133.617L146.113 139.269C147.669 141.512 147.139 144.589 144.921 146.182L142.521 147.905C140.178 149.588 136.9 148.943 135.368 146.498L131.496 140.317Z" fill="white" stroke="#080809"/>
<path d="M141.786 155.085L136.81 146.961C135.541 144.889 135.945 142.205 137.767 140.598L138.519 139.936C140.606 138.095 143.795 138.314 145.612 140.421L152.48 148.386L156.403 154.038C157.959 156.281 157.429 159.358 155.211 160.95L152.812 162.673C150.468 164.356 147.19 163.712 145.658 161.266L141.786 155.085Z" fill="white" stroke="#080809"/>
<path d="M151.914 169.463L146.938 161.338C145.669 159.267 146.073 156.583 147.895 154.976L148.647 154.313C150.734 152.473 153.922 152.691 155.74 154.799L162.608 162.763L166.531 168.416C168.087 170.659 167.557 173.736 165.339 175.328L162.94 177.051C160.596 178.734 157.318 178.089 155.786 175.644L151.914 169.463Z" fill="white" stroke="#080809"/>
<path d="M159.234 48.3332L159.796 38.8222C159.939 36.3971 161.805 34.4259 164.218 34.1495L165.214 34.0355C167.979 33.7189 170.47 35.7205 170.756 38.4886L171.839 48.9501L171.826 55.8301C171.82 58.5603 169.626 60.7816 166.896 60.8202L163.943 60.8621C161.057 60.903 158.737 58.5001 158.878 55.6182L159.234 48.3332Z" fill="white" stroke="#080809"/>
<path d="M159.234 66.3333L159.796 56.8222C159.939 54.3972 161.805 52.426 164.218 52.1496L165.214 52.0355C167.979 51.7189 170.47 53.7206 170.756 56.4887L171.839 66.9502L171.826 73.8302C171.82 76.5603 169.626 78.7816 166.896 78.8203L163.943 78.8622C161.057 78.903 158.737 76.5002 158.878 73.6182L159.234 66.3333Z" fill="white" stroke="#080809"/>
<path d="M159.234 85.3333L159.796 75.8222C159.939 73.3972 161.805 71.426 164.218 71.1496L165.214 71.0355C167.979 70.7189 170.47 72.7206 170.756 75.4887L171.839 85.9502L171.826 92.8302C171.82 95.5603 169.626 97.7816 166.896 97.8203L163.943 97.8622C161.057 97.903 158.737 95.5002 158.878 92.6182L159.234 85.3333Z" fill="white" stroke="#080809"/>
<path d="M159.234 103.333L159.796 93.8222C159.939 91.3972 161.805 89.426 164.218 89.1496L165.214 89.0355C167.979 88.7189 170.47 90.7206 170.756 93.4887L171.839 103.95L171.826 110.83C171.82 113.56 169.626 115.782 166.896 115.82L163.943 115.862C161.057 115.903 158.737 113.5 158.878 110.618L159.234 103.333Z" fill="white" stroke="#080809"/>
<path d="M159.234 119.333L159.796 109.822C159.939 107.397 161.805 105.426 164.218 105.15L165.214 105.036C167.979 104.719 170.47 106.721 170.756 109.489L171.839 119.95L171.826 126.83C171.82 129.56 169.626 131.782 166.896 131.82L163.943 131.862C161.057 131.903 158.737 129.5 158.878 126.618L159.234 119.333Z" fill="white" stroke="#080809"/>
<path d="M159.234 137.333L159.796 127.822C159.939 125.397 161.805 123.426 164.218 123.149L165.214 123.035C167.979 122.719 170.47 124.72 170.756 127.488L171.839 137.95L171.826 144.83C171.82 147.56 169.626 149.781 166.896 149.82L163.943 149.862C161.057 149.903 158.737 147.5 158.878 144.618L159.234 137.333Z" fill="white" stroke="#080809"/>
<path d="M159.234 156.333L159.796 146.822C159.939 144.397 161.805 142.426 164.218 142.149L165.214 142.035C167.979 141.719 170.47 143.72 170.756 146.488L171.839 156.95L171.826 163.83C171.82 166.56 169.626 168.781 166.896 168.82L163.943 168.862C161.057 168.903 158.737 166.5 158.878 163.618L159.234 156.333Z" fill="white" stroke="#080809"/>
<path d="M159.234 174.333L159.796 164.822C159.939 162.397 161.805 160.426 164.218 160.149L165.214 160.035C167.979 159.719 170.47 161.72 170.756 164.488L171.839 174.95L171.826 181.83C171.82 184.56 169.626 186.781 166.896 186.82L163.943 186.862C161.057 186.903 158.737 184.5 158.878 181.618L159.234 174.333Z" fill="white" stroke="#080809"/>
</svg>
