<svg width="212" height="216" viewBox="0 0 212 216" fill="none" xmlns="http://www.w3.org/2000/svg">
<g clip-path="url(#clip0)">
<rect width="212" height="216" fill="none"/>
<circle r="25" transform="matrix(0.871904 0.489676 0.489676 -0.871904 57.8928 170.15)" fill="#080809"/>
<circle r="25" transform="matrix(0.871904 0.489676 0.489676 -0.871904 57.1037 130.712)" fill="#080809"/>
<circle r="25" transform="matrix(0.871904 0.489676 0.489676 -0.871904 56.3147 91.2738)" fill="#080809"/>
<circle r="25" transform="matrix(0.871904 0.489676 0.489676 -0.871904 54.5463 53.5794)" fill="#080809"/>
<circle r="25" transform="matrix(0.871904 0.489676 0.489676 -0.871904 156.893 167.15)" fill="#080809"/>
<circle r="25" transform="matrix(0.871904 0.489676 0.489676 -0.871904 156.103 127.712)" fill="#080809"/>
<circle r="25" transform="matrix(0.871904 0.489676 0.489676 -0.871904 155.314 88.2737)" fill="#080809"/>
<circle r="25" transform="matrix(0.871904 0.489676 0.489676 -0.871904 153.546 50.5793)" fill="#080809"/>
<circle r="25" transform="matrix(0.999976 -0.00687016 -0.00687016 -0.999976 117.004 123.646)" fill="#080809"/>
<circle r="25" transform="matrix(0.999976 -0.00687016 -0.00687016 -0.999976 96.7713 89.7846)" fill="#080809"/>
</g>
<defs>
<clipPath id="clip0">
<rect width="212" height="216" fill="white"/>
</clipPath>
</defs>
</svg>
