<svg width="218" height="220" viewBox="0 0 218 220" fill="none" xmlns="http://www.w3.org/2000/svg">
<rect width="218" height="220" fill="none"/>
<path d="M99.3577 45.0486L89.8439 44.534C87.4182 44.4028 85.4377 42.547 85.1493 40.1349L85.0304 39.1398C84.7 36.3766 86.6893 33.8754 89.4559 33.5754L99.9119 32.4413L106.792 32.4201C109.522 32.4116 111.754 34.5947 111.806 37.3244L111.863 40.2781C111.918 43.1629 109.527 45.4957 106.644 45.3689L99.3577 45.0486Z" fill="white" stroke="#080809"/>
<path d="M80.6446 47.9208L71.7667 51.3789C69.5031 52.2607 66.9332 51.3878 65.6749 49.3097L65.1558 48.4525C63.7144 46.072 64.4939 42.9728 66.89 41.5575L75.9457 36.2088L82.2035 33.3497C84.6868 32.2151 87.621 33.2822 88.7952 35.7469L90.0659 38.4139C91.307 41.0188 90.0917 44.1306 87.4138 45.205L80.6446 47.9208Z" fill="white" stroke="#080809"/>
<path d="M118.632 44.4185L109.249 42.7655C106.857 42.344 105.113 40.2639 105.117 37.8346L105.118 36.8324C105.122 34.0496 107.397 31.8053 110.179 31.8395L120.696 31.9689L127.529 32.7738C130.24 33.0932 132.194 35.5285 131.918 38.2446L131.62 41.1838C131.328 44.0544 128.674 46.0832 125.828 45.6113L118.632 44.4185Z" fill="white" stroke="#080809"/>
<path d="M136.277 47.3467L127.269 44.2415C124.973 43.4497 123.577 41.1218 123.962 38.7231L124.121 37.7335C124.561 34.9858 127.16 33.1264 129.903 33.597L140.269 35.3754L146.891 37.2427C149.518 37.9836 151.066 40.6954 150.367 43.3346L149.611 46.1905C148.873 48.9798 145.933 50.5669 143.196 49.6541L136.277 47.3467Z" fill="white" stroke="#080809"/>
<path d="M151.093 55.0074L144.663 47.9764C143.023 46.1837 142.91 43.472 144.394 41.5484L145.006 40.7549C146.705 38.5514 149.877 38.1596 152.062 39.8832L160.319 46.3976L165.244 51.2014C167.198 53.1076 167.262 56.2292 165.388 58.214L163.359 60.3617C161.378 62.4594 158.037 62.4493 156.069 60.3398L151.093 55.0074Z" fill="white" stroke="#080809"/>
<path d="M163.139 69.9308L158.441 61.642C157.243 59.5286 157.737 56.8599 159.613 55.3161L160.387 54.6792C162.535 52.9107 165.714 53.2367 167.459 55.4046L174.054 63.5976L177.783 69.3796C179.262 71.674 178.628 74.7311 176.357 76.2474L173.901 77.8881C171.501 79.4906 168.247 78.7352 166.799 76.2395L163.139 69.9308Z" fill="white" stroke="#080809"/>
<path d="M171.163 86.5518L169.095 77.2515C168.567 74.8802 169.82 72.4728 172.066 71.545L172.992 71.1622C175.564 70.0993 178.508 71.3408 179.543 73.9242L183.453 83.6876L185.328 90.3072C186.072 92.9341 184.571 95.672 181.957 96.458L179.128 97.3086C176.365 98.1393 173.474 96.4653 172.819 93.6552L171.163 86.5518Z" fill="white" stroke="#080809"/>
<path d="M175.197 103.942L173.797 94.5178C173.44 92.1149 174.861 89.8031 177.167 89.0376L178.118 88.7219C180.759 87.8451 183.608 89.2934 184.456 91.944L187.66 101.961L189.058 108.698C189.613 111.371 187.921 113.995 185.257 114.593L182.374 115.239C179.559 115.871 176.795 113.995 176.342 111.145L175.197 103.942Z" fill="white" stroke="#080809"/>
<path d="M175.954 121.742L177.19 112.295C177.506 109.887 179.507 108.053 181.934 107.949L182.935 107.906C185.715 107.786 188.058 109.96 188.147 112.741L188.483 123.253L187.981 130.115C187.782 132.838 185.435 134.898 182.71 134.742L179.76 134.574C176.879 134.41 174.735 131.848 175.081 128.984L175.954 121.742Z" fill="white" stroke="#080809"/>
<path d="M183.794 145.407L179.518 153.921C178.427 156.092 175.935 157.165 173.608 156.464L172.649 156.175C169.984 155.373 168.487 152.55 169.318 149.894L172.46 139.857L175.192 133.542C176.276 131.037 179.17 129.864 181.693 130.908L184.423 132.037C187.089 133.14 188.271 136.265 187.002 138.856L183.794 145.407Z" fill="white" stroke="#080809"/>
<path d="M174.975 160.316L168.151 166.964C166.411 168.66 163.704 168.859 161.735 167.437L160.922 166.85C158.666 165.221 158.174 162.063 159.828 159.825L166.078 151.366L170.724 146.292C172.567 144.278 175.685 144.115 177.728 145.926L179.939 147.886C182.098 149.8 182.194 153.139 180.148 155.173L174.975 160.316Z" fill="white" stroke="#080809"/>
<path d="M160.099 174.093L151.683 178.559C149.537 179.697 146.884 179.129 145.392 177.211L144.777 176.42C143.069 174.223 143.483 171.054 145.699 169.37L154.072 163.006L159.955 159.439C162.29 158.024 165.328 158.743 166.781 161.055L168.353 163.556C169.888 165.999 169.042 169.231 166.507 170.609L160.099 174.093Z" fill="white" stroke="#080809"/>
<path d="M145.03 182.723L136.163 186.207C133.902 187.095 131.329 186.229 130.065 184.155L129.543 183.299C128.095 180.923 128.866 177.822 131.258 176.399L140.298 171.025L146.547 168.147C149.027 167.006 151.965 168.064 153.146 170.526L154.424 173.189C155.673 175.79 154.467 178.905 151.792 179.988L145.03 182.723Z" fill="white" stroke="#080809"/>
<path d="M125.672 187.627L116.147 187.837C113.718 187.891 111.603 186.191 111.132 183.808L110.937 182.825C110.398 180.095 112.191 177.45 114.927 176.94L125.266 175.014L132.125 174.47C134.846 174.254 137.238 176.261 137.498 178.978L137.779 181.919C138.053 184.792 135.846 187.299 132.962 187.392L125.672 187.627Z" fill="white" stroke="#080809"/>
<path d="M105.672 189.627L96.1472 189.837C93.7185 189.891 91.6026 188.191 91.1316 185.808L90.9373 184.825C90.3978 182.095 92.1911 179.45 94.9269 178.94L105.266 177.014L112.125 176.47C114.846 176.254 117.238 178.261 117.498 180.978L117.779 183.919C118.053 186.792 115.846 189.299 112.962 189.392L105.672 189.627Z" fill="white" stroke="#080809"/>
<path d="M80.4283 187.274L89.7974 189.005C92.1863 189.446 94.5467 188.106 95.3928 185.829L95.7418 184.89C96.7109 182.281 95.3636 179.383 92.7445 178.443L82.846 174.888L76.1629 173.254C73.5109 172.606 70.829 174.204 70.1381 176.846L69.3905 179.704C68.6603 182.495 70.4378 185.324 73.2698 185.876L80.4283 187.274Z" fill="white" stroke="#080809"/>
<path d="M67.1865 55.0074L73.6161 47.9764C75.2556 46.1837 75.3692 43.472 73.8855 41.5484L73.2734 40.7549C71.5738 38.5514 68.4021 38.1596 66.2173 39.8832L57.9603 46.3976L53.0351 51.2014C51.0806 53.1076 51.0166 56.2292 52.8912 58.214L54.9197 60.3617C56.901 62.4594 60.2416 62.4493 62.2102 60.3398L67.1865 55.0074Z" fill="white" stroke="#080809"/>
<path d="M55.1404 69.9308L59.8384 61.642C61.0363 59.5286 60.5418 56.8599 58.6661 55.3161L57.8924 54.6792C55.7438 52.9107 52.5647 53.2367 50.8198 55.4046L44.2252 63.5976L40.4965 69.3796C39.0168 71.674 39.6512 74.7311 41.9216 76.2474L44.3783 77.8881C46.7778 79.4906 50.0319 78.7352 51.48 76.2395L55.1404 69.9308Z" fill="white" stroke="#080809"/>
<path d="M47.1158 86.5518L49.1844 77.2515C49.7119 74.8802 48.4586 72.4728 46.2134 71.545L45.2872 71.1622C42.7154 70.0993 39.7706 71.3408 38.736 73.9242L34.8257 83.6876L32.9509 90.3072C32.2069 92.9341 33.7076 95.672 36.3221 96.458L39.1513 97.3086C41.9145 98.1393 44.8054 96.4653 45.4603 93.6552L47.1158 86.5518Z" fill="white" stroke="#080809"/>
<path d="M43.0822 103.942L44.4824 94.5178C44.8395 92.1149 43.4177 89.8031 41.1121 89.0376L40.161 88.7219C37.5199 87.8451 34.6711 89.2934 33.8233 91.944L30.6191 101.961L29.2211 108.698C28.6663 111.371 30.3584 113.995 33.0223 114.593L35.9049 115.239C38.7203 115.871 41.4845 113.995 41.9374 111.145L43.0822 103.942Z" fill="white" stroke="#080809"/>
<path d="M42.325 121.742L41.0887 112.295C40.7735 109.887 38.7725 108.053 36.3454 107.949L35.3442 107.906C32.5639 107.786 30.2212 109.96 30.1323 112.741L29.7964 123.253L30.2982 130.115C30.4974 132.838 32.8438 134.898 35.5695 134.742L38.519 134.574C41.3997 134.41 43.5439 131.848 43.1984 128.984L42.325 121.742Z" fill="white" stroke="#080809"/>
<path d="M34.485 145.407L38.7613 153.921C39.8516 156.092 42.3445 157.165 44.6707 156.464L45.6303 156.175C48.295 155.373 49.792 152.55 48.9606 149.894L45.8186 139.857L43.0867 133.542C42.0027 131.037 39.1091 129.864 36.5863 130.908L33.8565 132.037C31.1903 133.14 30.0085 136.265 31.2774 138.856L34.485 145.407Z" fill="white" stroke="#080809"/>
<path d="M46.9589 164.985L54.6798 170.567C56.6484 171.991 59.3553 171.793 61.0963 170.099L61.8146 169.4C63.809 167.459 63.8351 164.264 61.8726 162.291L54.4557 154.834L49.1196 150.491C47.0021 148.768 43.8937 149.061 42.1366 151.151L40.2353 153.412C38.3783 155.62 38.7707 158.938 41.0917 160.652L46.9589 164.985Z" fill="white" stroke="#080809"/>
<path d="M62.0311 179.093L70.4473 183.559C72.5932 184.697 75.247 184.129 76.7382 182.211L77.3533 181.42C79.0615 179.223 78.6472 176.054 76.4317 174.37L68.0586 168.006L62.1752 164.439C59.8406 163.024 56.8022 163.743 55.3497 166.055L53.7778 168.556C52.2426 170.999 53.0882 174.231 55.6232 175.609L62.0311 179.093Z" fill="white" stroke="#080809"/>
</svg>
