<svg width="289" height="242" viewBox="0 0 289 242" fill="none" xmlns="http://www.w3.org/2000/svg">
<rect width="289" height="242" fill="none"/>
<circle cx="74.8641" cy="103.864" r="25" transform="rotate(-28.3 74.8641 103.864)" fill="#080809"/>
<circle cx="70.8641" cy="144.864" r="25" transform="rotate(-28.3 70.8641 144.864)" fill="#080809"/>
<circle cx="89.8641" cy="176.864" r="25" transform="rotate(-28.3 89.8641 176.864)" fill="#080809"/>
<circle cx="92.8641" cy="65.8641" r="25" transform="rotate(-28.3 92.8641 65.8641)" fill="#080809"/>
<circle cx="133.864" cy="190.864" r="25" transform="rotate(-28.3 133.864 190.864)" fill="#080809"/>
<circle cx="177.864" cy="186.864" r="25" transform="rotate(-28.3 177.864 186.864)" fill="#080809"/>
<circle cx="205.864" cy="156.864" r="25" transform="rotate(-28.3 205.864 156.864)" fill="#080809"/>
<circle cx="218.864" cy="117.864" r="25" transform="rotate(-28.3 218.864 117.864)" fill="#080809"/>
<circle cx="200.864" cy="78.8641" r="25" transform="rotate(-28.3 200.864 78.8641)" fill="#080809"/>
<circle cx="170.864" cy="56.8641" r="25" transform="rotate(-28.3 170.864 56.8641)" fill="#080809"/>
<circle cx="131.864" cy="50.8641" r="25" transform="rotate(-28.3 131.864 50.8641)" fill="#080809"/>
</svg>
