<svg width="215" height="220" viewBox="0 0 215 220" fill="none" xmlns="http://www.w3.org/2000/svg">
<rect width="215" height="220" fill="none"/>
<path d="M140.261 91.8394L146.248 84.4274C147.774 82.5376 150.438 82.0184 152.563 83.1966L153.439 83.6827C155.873 85.0324 156.736 88.1094 155.36 90.5281L150.158 99.6691L146.148 105.259C144.556 107.478 141.48 108.009 139.236 106.454L136.808 104.771C134.437 103.127 133.946 99.8223 135.736 97.5594L140.261 91.8394Z" fill="white" stroke="#080809"/>
<path d="M132.774 96.2566L142.288 96.7769C144.713 96.9096 146.693 98.7666 146.979 101.179L147.098 102.174C147.427 104.937 145.436 107.437 142.669 107.736L132.212 108.864L125.332 108.881C122.602 108.887 120.371 106.703 120.321 103.973L120.266 101.02C120.212 98.1347 122.605 95.8035 125.488 95.9319L132.774 96.2566Z" fill="white" stroke="#080809"/>
<path d="M114.774 96.3353L124.288 96.8556C126.713 96.9883 128.693 98.8453 128.98 101.258L129.098 102.253C129.427 105.016 127.436 107.516 124.669 107.814L114.212 108.942L107.332 108.959C104.602 108.966 102.371 106.782 102.321 104.052L102.266 101.098C102.213 98.2134 104.605 95.8821 107.488 96.0106L114.774 96.3353Z" fill="white" stroke="#080809"/>
<path d="M95.7745 96.4183L105.288 96.9386C107.714 97.0713 109.693 98.9283 109.98 101.341L110.098 102.336C110.427 105.099 108.436 107.599 105.669 107.897L95.2126 109.025L88.3326 109.042C85.6025 109.049 83.3717 106.865 83.321 104.135L83.2663 101.181C83.2128 98.2964 85.6055 95.9651 88.488 96.0936L95.7745 96.4183Z" fill="white" stroke="#080809"/>
<path d="M77.7747 96.4969L87.2881 97.0172C89.7137 97.1499 91.6931 99.0069 91.98 101.419L92.0984 102.414C92.4271 105.178 90.4363 107.678 87.6695 107.976L77.2128 109.104L70.3328 109.121C67.6027 109.128 65.3718 106.943 65.3212 104.214L65.2665 101.26C65.213 98.375 67.6057 96.0437 70.4882 96.1722L77.7747 96.4969Z" fill="white" stroke="#080809"/>
<path d="M64.2342 54.3333L64.7961 44.8223C64.9393 42.3972 66.8049 40.426 69.2185 40.1496L70.2141 40.0356C72.9789 39.719 75.4702 41.7206 75.7565 44.4887L76.8385 54.9502L76.8256 61.8302C76.8205 64.5604 74.6263 66.7817 71.8965 66.8203L68.9425 66.8622C66.0574 66.9031 63.7366 64.5002 63.8776 61.6183L64.2342 54.3333Z" fill="white" stroke="#080809"/>
<path d="M64.2342 72.3334L64.7961 62.8224C64.9393 60.3973 66.8049 58.4261 69.2185 58.1497L70.2141 58.0357C72.9789 57.7191 75.4702 59.7207 75.7565 62.4888L76.8385 72.9503L76.8256 79.8304C76.8205 82.5605 74.6263 84.7818 71.8965 84.8205L68.9425 84.8623C66.0574 84.9032 63.7366 82.5003 63.8776 79.6184L64.2342 72.3334Z" fill="white" stroke="#080809"/>
<path d="M64.2342 91.3334L64.7961 81.8224C64.9393 79.3973 66.8049 77.4261 69.2185 77.1497L70.2141 77.0357C72.9789 76.7191 75.4702 78.7207 75.7565 81.4888L76.8385 91.9503L76.8256 98.8304C76.8205 101.56 74.6263 103.782 71.8965 103.82L68.9425 103.862C66.0574 103.903 63.7366 101.5 63.8776 98.6184L64.2342 91.3334Z" fill="white" stroke="#080809"/>
<path d="M64.2342 109.333L64.7961 99.8224C64.9393 97.3973 66.8049 95.4261 69.2185 95.1497L70.2141 95.0357C72.9789 94.7191 75.4702 96.7207 75.7565 99.4888L76.8385 109.95L76.8256 116.83C76.8205 119.56 74.6263 121.782 71.8965 121.82L68.9425 121.862C66.0574 121.903 63.7366 119.5 63.8776 116.618L64.2342 109.333Z" fill="white" stroke="#080809"/>
<path d="M161.938 78.4038L157.954 87.0586C156.938 89.2654 154.483 90.4227 152.135 89.8021L151.166 89.5461C148.475 88.8351 146.883 86.0643 147.623 83.3817L150.422 73.2435L152.937 66.8396C153.935 64.2985 156.787 63.0277 159.344 63.9848L162.11 65.0205C164.813 66.0321 166.1 69.1147 164.92 71.7478L161.938 78.4038Z" fill="white" stroke="#080809"/>
<path d="M162.111 56.2856L163.952 65.6338C164.421 68.0174 163.109 70.3933 160.842 71.2659L159.907 71.6258C157.309 72.6254 154.396 71.3122 153.425 68.7042L149.755 58.848L148.043 52.1844C147.363 49.5401 148.931 46.8398 151.564 46.118L154.413 45.337C157.196 44.5742 160.045 46.3186 160.63 49.1439L162.111 56.2856Z" fill="white" stroke="#080809"/>
<path d="M150.475 39.9985L157.451 46.4887C159.229 48.1435 159.561 50.8373 158.237 52.8741L157.691 53.7143C156.174 56.0476 153.044 56.6936 150.728 55.1515L141.973 49.3235L136.677 44.932C134.575 43.1894 134.26 40.0831 135.968 37.9538L137.817 35.6496C139.623 33.3992 142.954 33.1401 145.086 35.0842L150.475 39.9985Z" fill="white" stroke="#080809"/>
<path d="M131.774 32.2566L141.288 32.7769C143.713 32.9095 145.693 34.7665 145.979 37.1788L146.098 38.174C146.427 40.9373 144.436 43.4373 141.669 43.7357L131.212 44.8635L124.332 44.8806C121.602 44.8874 119.371 42.703 119.321 39.9733L119.266 37.0196C119.212 34.1347 121.605 31.8034 124.488 31.9318L131.774 32.2566Z" fill="white" stroke="#080809"/>
<path d="M113.774 32.3352L123.288 32.8555C125.713 32.9882 127.693 34.8452 127.98 37.2575L128.098 38.2527C128.427 41.016 126.436 43.516 123.669 43.8144L113.212 44.9422L106.332 44.9593C103.602 44.9661 101.371 42.7816 101.321 40.052L101.266 37.0982C101.213 34.2133 103.605 31.8821 106.488 32.0105L113.774 32.3352Z" fill="white" stroke="#080809"/>
<path d="M94.7745 32.4183L104.288 32.9386C106.714 33.0712 108.693 34.9282 108.98 37.3405L109.098 38.3357C109.427 41.099 107.436 43.599 104.669 43.8974L94.2126 45.0252L87.3326 45.0423C84.6025 45.0491 82.3717 42.8646 82.321 40.135L82.2663 37.1812C82.2128 34.2963 84.6055 31.9651 87.488 32.0935L94.7745 32.4183Z" fill="white" stroke="#080809"/>
<path d="M76.7747 32.4969L86.2881 33.0172C88.7137 33.1498 90.6931 35.0068 90.98 37.4191L91.0984 38.4143C91.4271 41.1776 89.4363 43.6776 86.6695 43.976L76.2128 45.1038L69.3328 45.1209C66.6027 45.1277 64.3718 42.9433 64.3212 40.2136L64.2665 37.2599C64.213 34.375 66.6057 32.0437 69.4882 32.1721L76.7747 32.4969Z" fill="white" stroke="#080809"/>
<path d="M64.2342 125.333L64.7961 115.822C64.9393 113.397 66.8049 111.426 69.2185 111.15L70.2141 111.036C72.9789 110.719 75.4702 112.721 75.7565 115.489L76.8385 125.95L76.8256 132.83C76.8205 135.56 74.6263 137.782 71.8965 137.82L68.9425 137.862C66.0574 137.903 63.7366 135.5 63.8776 132.618L64.2342 125.333Z" fill="white" stroke="#080809"/>
<path d="M64.2342 143.333L64.7961 133.822C64.9393 131.397 66.8049 129.426 69.2185 129.149L70.2141 129.035C72.9789 128.719 75.4702 130.72 75.7565 133.489L76.8385 143.95L76.8256 150.83C76.8205 153.56 74.6263 155.782 71.8965 155.82L68.9425 155.862C66.0574 155.903 63.7366 153.5 63.8776 150.618L64.2342 143.333Z" fill="white" stroke="#080809"/>
<path d="M64.2342 162.333L64.7961 152.822C64.9393 150.397 66.8049 148.426 69.2185 148.149L70.2141 148.035C72.9789 147.719 75.4702 149.72 75.7565 152.489L76.8385 162.95L76.8256 169.83C76.8205 172.56 74.6263 174.782 71.8965 174.82L68.9425 174.862C66.0574 174.903 63.7366 172.5 63.8776 169.618L64.2342 162.333Z" fill="white" stroke="#080809"/>
<path d="M64.2342 180.333L64.7961 170.822C64.9393 168.397 66.8049 166.426 69.2185 166.149L70.2141 166.035C72.9789 165.719 75.4702 167.72 75.7565 170.489L76.8385 180.95L76.8256 187.83C76.8205 190.56 74.6263 192.782 71.8965 192.82L68.9425 192.862C66.0574 192.903 63.7366 190.5 63.8776 187.618L64.2342 180.333Z" fill="white" stroke="#080809"/>
</svg>
