<svg width="210" height="220" viewBox="0 0 210 220" fill="none" xmlns="http://www.w3.org/2000/svg">
<rect width="210" height="220" fill="none"/>
<path d="M95.3577 45.0486L85.8439 44.534C83.4182 44.4028 81.4377 42.547 81.1493 40.1349L81.0304 39.1398C80.7 36.3766 82.6893 33.8754 85.4559 33.5754L95.9119 32.4413L102.792 32.4201C105.522 32.4116 107.754 34.5947 107.806 37.3244L107.863 40.2781C107.918 43.1629 105.527 45.4957 102.644 45.3689L95.3577 45.0486Z" fill="white" stroke="#080809"/>
<path d="M76.6446 47.9208L67.7667 51.3789C65.5031 52.2607 62.9332 51.3878 61.6749 49.3097L61.1558 48.4525C59.7144 46.072 60.4939 42.9728 62.89 41.5575L71.9457 36.2088L78.2035 33.3497C80.6868 32.2151 83.621 33.2822 84.7952 35.7469L86.0659 38.4139C87.307 41.0188 86.0917 44.1306 83.4138 45.205L76.6446 47.9208Z" fill="white" stroke="#080809"/>
<path d="M114.632 44.4185L105.249 42.7655C102.857 42.344 101.113 40.2639 101.117 37.8346L101.118 36.8324C101.122 34.0496 103.397 31.8053 106.179 31.8395L116.696 31.9689L123.529 32.7738C126.24 33.0932 128.194 35.5285 127.918 38.2446L127.62 41.1838C127.328 44.0544 124.674 46.0832 121.828 45.6113L114.632 44.4185Z" fill="white" stroke="#080809"/>
<path d="M132.277 47.3467L123.269 44.2415C120.973 43.4497 119.577 41.1218 119.962 38.7231L120.121 37.7335C120.561 34.9858 123.16 33.1264 125.903 33.597L136.269 35.3754L142.891 37.2427C145.518 37.9836 147.066 40.6954 146.367 43.3346L145.611 46.1905C144.873 48.9798 141.933 50.5669 139.196 49.6541L132.277 47.3467Z" fill="white" stroke="#080809"/>
<path d="M147.093 55.0074L140.663 47.9764C139.024 46.1837 138.91 43.472 140.394 41.5484L141.006 40.7549C142.705 38.5514 145.877 38.1596 148.062 39.8832L156.319 46.3976L161.244 51.2014C163.198 53.1076 163.262 56.2292 161.388 58.214L159.359 60.3617C157.378 62.4594 154.037 62.4493 152.069 60.3398L147.093 55.0074Z" fill="white" stroke="#080809"/>
<path d="M159.139 69.9308L154.441 61.642C153.243 59.5286 153.737 56.8599 155.613 55.3161L156.387 54.6792C158.535 52.9107 161.714 53.2367 163.459 55.4046L170.054 63.5976L173.783 69.3796C175.262 71.674 174.628 74.7311 172.357 76.2474L169.901 77.8881C167.501 79.4906 164.247 78.7352 162.799 76.2395L159.139 69.9308Z" fill="white" stroke="#080809"/>
<path d="M167.163 86.5518L165.095 77.2515C164.567 74.8802 165.821 72.4728 168.066 71.545L168.992 71.1622C171.564 70.0993 174.508 71.3408 175.543 73.9242L179.453 83.6876L181.328 90.3072C182.072 92.9341 180.572 95.672 177.957 96.458L175.128 97.3086C172.365 98.1393 169.474 96.4653 168.819 93.6552L167.163 86.5518Z" fill="white" stroke="#080809"/>
<path d="M171.197 103.942L169.797 94.5178C169.44 92.1149 170.861 89.8031 173.167 89.0376L174.118 88.7219C176.759 87.8451 179.608 89.2934 180.456 91.944L183.66 101.961L185.058 108.698C185.613 111.371 183.921 113.995 181.257 114.593L178.374 115.239C175.559 115.871 172.795 113.995 172.342 111.145L171.197 103.942Z" fill="white" stroke="#080809"/>
<path d="M171.954 121.742L173.19 112.295C173.506 109.887 175.507 108.053 177.934 107.949L178.935 107.906C181.715 107.786 184.058 109.96 184.147 112.741L184.483 123.253L183.981 130.115C183.782 132.838 181.435 134.898 178.71 134.742L175.76 134.574C172.879 134.41 170.735 131.848 171.081 128.984L171.954 121.742Z" fill="white" stroke="#080809"/>
<path d="M179.794 145.407L175.518 153.921C174.427 156.092 171.935 157.165 169.608 156.464L168.649 156.175C165.984 155.373 164.487 152.55 165.318 149.894L168.46 139.857L171.192 133.542C172.276 131.037 175.17 129.864 177.693 130.908L180.423 132.037C183.089 133.14 184.271 136.265 183.002 138.856L179.794 145.407Z" fill="white" stroke="#080809"/>
<path d="M170.975 160.316L164.151 166.964C162.411 168.66 159.704 168.859 157.735 167.437L156.922 166.85C154.666 165.221 154.174 162.063 155.828 159.825L162.078 151.366L166.724 146.292C168.567 144.278 171.685 144.115 173.728 145.926L175.939 147.886C178.098 149.8 178.194 153.139 176.148 155.173L170.975 160.316Z" fill="white" stroke="#080809"/>
<path d="M156.099 174.093L147.683 178.559C145.537 179.697 142.884 179.129 141.392 177.211L140.777 176.42C139.069 174.223 139.483 171.054 141.699 169.37L150.072 163.006L155.955 159.439C158.29 158.024 161.328 158.743 162.781 161.055L164.353 163.556C165.888 165.999 165.042 169.231 162.507 170.609L156.099 174.093Z" fill="white" stroke="#080809"/>
<path d="M141.03 182.723L132.163 186.207C129.902 187.095 127.329 186.229 126.065 184.155L125.543 183.299C124.095 180.923 124.866 177.822 127.258 176.399L136.298 171.025L142.547 168.147C145.027 167.006 147.965 168.064 149.146 170.526L150.424 173.189C151.673 175.79 150.467 178.905 147.792 179.988L141.03 182.723Z" fill="white" stroke="#080809"/>
<path d="M121.672 187.627L112.147 187.837C109.718 187.891 107.603 186.191 107.132 183.808L106.937 182.825C106.398 180.095 108.191 177.45 110.927 176.94L121.266 175.014L128.125 174.47C130.846 174.254 133.238 176.261 133.498 178.978L133.779 181.919C134.053 184.792 131.846 187.299 128.962 187.392L121.672 187.627Z" fill="white" stroke="#080809"/>
<path d="M101.672 189.627L92.1472 189.837C89.7185 189.891 87.6026 188.191 87.1316 185.808L86.9373 184.825C86.3978 182.095 88.1911 179.45 90.9269 178.94L101.266 177.014L108.125 176.47C110.846 176.254 113.238 178.261 113.498 180.978L113.779 183.919C114.053 186.792 111.846 189.299 108.962 189.392L101.672 189.627Z" fill="white" stroke="#080809"/>
<path d="M76.4284 187.274L85.7975 189.005C88.1864 189.446 90.5468 188.106 91.3928 185.829L91.7418 184.89C92.7109 182.281 91.3637 179.383 88.7446 178.443L78.8461 174.888L72.1629 173.254C69.5109 172.606 66.829 174.204 66.1381 176.846L65.3905 179.704C64.6603 182.495 66.4379 185.324 69.2698 185.876L76.4284 187.274Z" fill="white" stroke="#080809"/>
<path d="M63.1865 55.0074L69.6162 47.9764C71.2556 46.1837 71.3692 43.472 69.8855 41.5484L69.2734 40.7549C67.5738 38.5514 64.4021 38.1596 62.2174 39.8832L53.9604 46.3976L49.0351 51.2014C47.0807 53.1076 47.0166 56.2292 48.8913 58.214L50.9198 60.3617C52.901 62.4594 56.2416 62.4493 58.2103 60.3398L63.1865 55.0074Z" fill="white" stroke="#080809"/>
<path d="M51.1404 69.9308L55.8385 61.642C57.0363 59.5286 56.5418 56.8599 54.6662 55.3161L53.8924 54.6792C51.7438 52.9107 48.5647 53.2367 46.8198 55.4046L40.2252 63.5976L36.4965 69.3796C35.0169 71.674 35.6512 74.7311 37.9216 76.2474L40.3783 77.8881C42.7778 79.4906 46.0319 78.7352 47.48 76.2395L51.1404 69.9308Z" fill="white" stroke="#080809"/>
<path d="M43.1158 86.5518L45.1845 77.2515C45.7119 74.8802 44.4586 72.4728 42.2135 71.545L41.2873 71.1622C38.7154 70.0993 35.7706 71.3408 34.736 73.9242L30.8257 83.6876L28.9509 90.3072C28.2069 92.9341 29.7076 95.672 32.3221 96.458L35.1513 97.3086C37.9145 98.1393 40.8054 96.4653 41.4603 93.6552L43.1158 86.5518Z" fill="white" stroke="#080809"/>
<path d="M39.0822 103.942L40.4825 94.5178C40.8395 92.1149 39.4177 89.8031 37.1121 89.0376L36.161 88.7219C33.5199 87.8451 30.6712 89.2934 29.8234 91.944L26.6192 101.961L25.2211 108.698C24.6663 111.371 26.3584 113.995 29.0223 114.593L31.9049 115.239C34.7204 115.871 37.4845 113.995 37.9374 111.145L39.0822 103.942Z" fill="white" stroke="#080809"/>
<path d="M38.3251 121.742L37.0887 112.295C36.7735 109.887 34.7725 108.053 32.3454 107.949L31.3442 107.906C28.5639 107.786 26.2212 109.96 26.1323 112.741L25.7964 123.253L26.2983 130.115C26.4974 132.838 28.8439 134.898 31.5696 134.742L34.519 134.574C37.3998 134.41 39.5439 131.848 39.1984 128.984L38.3251 121.742Z" fill="white" stroke="#080809"/>
<path d="M30.485 145.407L34.7613 153.921C35.8516 156.092 38.3446 157.165 40.6707 156.464L41.6304 156.175C44.2951 155.373 45.792 152.55 44.9607 149.894L41.8187 139.857L39.0868 133.542C38.0027 131.037 35.1091 129.864 32.5864 130.908L29.8565 132.037C27.1903 133.14 26.0085 136.265 27.2775 138.856L30.485 145.407Z" fill="white" stroke="#080809"/>
<path d="M42.9589 164.985L50.6798 170.567C52.6484 171.991 55.3553 171.793 57.0963 170.099L57.8146 169.4C59.809 167.459 59.8351 164.264 57.8726 162.291L50.4558 154.834L45.1196 150.491C43.0021 148.768 39.8938 149.061 38.1367 151.151L36.2353 153.412C34.3783 155.62 34.7707 158.938 37.0918 160.652L42.9589 164.985Z" fill="white" stroke="#080809"/>
<path d="M58.0312 179.093L66.4473 183.559C68.5932 184.697 71.2471 184.129 72.7382 182.211L73.3534 181.42C75.0615 179.223 74.6472 176.054 72.4318 174.37L64.0586 168.006L58.1752 164.439C55.8406 163.024 52.8023 163.743 51.3497 166.055L49.7779 168.556C48.2427 170.999 49.0882 174.231 51.6232 175.609L58.0312 179.093Z" fill="white" stroke="#080809"/>
<path d="M187.078 176.164L193.804 182.912C195.519 184.632 195.749 187.337 194.35 189.322L193.772 190.141C192.169 192.416 189.017 192.944 186.76 191.316L178.231 185.163L173.103 180.575C171.069 178.755 170.871 175.639 172.658 173.575L174.592 171.342C176.482 169.161 179.82 169.027 181.877 171.05L187.078 176.164Z" fill="white" stroke="#080809"/>
<path d="M175.134 165.518L181.861 172.265C183.576 173.986 183.806 176.69 182.406 178.676L181.829 179.495C180.225 181.77 177.074 182.298 174.817 180.669L166.287 174.516L161.16 169.929C159.125 168.108 158.927 164.992 160.714 162.929L162.649 160.696C164.538 158.515 167.876 158.381 169.933 160.404L175.134 165.518Z" fill="white" stroke="#080809"/>
<path d="M161.698 153.541L168.424 160.289C170.139 162.009 170.369 164.714 168.969 166.699L168.392 167.518C166.789 169.793 163.637 170.321 161.38 168.693L152.85 162.54L147.723 157.952C145.688 156.132 145.49 153.016 147.278 150.952L149.212 148.719C151.101 146.538 154.439 146.405 156.497 148.427L161.698 153.541Z" fill="white" stroke="#080809"/>
<path d="M147.514 140.899L154.24 147.647C155.955 149.367 156.185 152.071 154.786 154.057L154.208 154.876C152.605 157.151 149.453 157.679 147.196 156.051L138.667 149.897L133.539 145.31C131.505 143.489 131.306 140.374 133.094 138.31L135.028 136.077C136.917 133.896 140.255 133.762 142.313 135.785L147.514 140.899Z" fill="white" stroke="#080809"/>
<path d="M134.077 128.922L140.803 135.67C142.518 137.39 142.748 140.095 141.348 142.08L140.771 142.899C139.168 145.174 136.016 145.702 133.759 144.074L125.23 137.92L120.102 133.333C118.068 131.513 117.869 128.397 119.657 126.333L121.591 124.1C123.48 121.919 126.818 121.785 128.876 123.808L134.077 128.922Z" fill="white" stroke="#080809"/>
</svg>
