<svg width="217" height="242" viewBox="0 0 217 242" fill="none" xmlns="http://www.w3.org/2000/svg">
<rect width="217" height="242" fill="none"/>
<circle cx="37.8641" cy="99.8641" r="25" transform="rotate(-28.3 37.8641 99.8641)" fill="#080809"/>
<circle cx="33.8641" cy="140.864" r="25" transform="rotate(-28.3 33.8641 140.864)" fill="#080809"/>
<circle cx="52.8641" cy="172.864" r="25" transform="rotate(-28.3 52.8641 172.864)" fill="#080809"/>
<circle cx="55.8641" cy="61.8641" r="25" transform="rotate(-28.3 55.8641 61.8641)" fill="#080809"/>
<circle cx="96.8641" cy="186.864" r="25" transform="rotate(-28.3 96.8641 186.864)" fill="#080809"/>
<circle cx="140.864" cy="182.864" r="25" transform="rotate(-28.3 140.864 182.864)" fill="#080809"/>
<circle cx="123.864" cy="140.864" r="25" transform="rotate(-28.3 123.864 140.864)" fill="#080809"/>
<circle cx="182.864" cy="195.864" r="25" transform="rotate(-28.3 182.864 195.864)" fill="#080809"/>
<circle cx="168.864" cy="152.864" r="25" transform="rotate(-28.3 168.864 152.864)" fill="#080809"/>
<circle cx="181.864" cy="113.864" r="25" transform="rotate(-28.3 181.864 113.864)" fill="#080809"/>
<circle cx="163.864" cy="74.8641" r="25" transform="rotate(-28.3 163.864 74.8641)" fill="#080809"/>
<circle cx="133.864" cy="52.8641" r="25" transform="rotate(-28.3 133.864 52.8641)" fill="#080809"/>
<circle cx="94.8641" cy="46.8641" r="25" transform="rotate(-28.3 94.8641 46.8641)" fill="#080809"/>
</svg>
