<svg width="232" height="220" viewBox="0 0 232 220" fill="none" xmlns="http://www.w3.org/2000/svg">
<rect width="232" height="220" fill="none"/>
<path d="M165.078 178.164L171.804 184.912C173.519 186.632 173.749 189.337 172.35 191.322L171.772 192.141C170.169 194.416 167.017 194.944 164.76 193.316L156.231 187.163L151.103 182.575C149.069 180.755 148.871 177.639 150.658 175.575L152.592 173.342C154.482 171.161 157.82 171.027 159.877 173.05L165.078 178.164Z" fill="white" stroke="#080809"/>
<path d="M153.134 167.518L159.861 174.265C161.576 175.986 161.806 178.69 160.406 180.676L159.829 181.495C158.225 183.77 155.074 184.298 152.817 182.669L144.287 176.516L139.16 171.929C137.125 170.108 136.927 166.992 138.714 164.929L140.649 162.696C142.538 160.515 145.876 160.381 147.933 162.404L153.134 167.518Z" fill="white" stroke="#080809"/>
<path d="M139.698 155.541L146.424 162.289C148.139 164.009 148.369 166.714 146.969 168.699L146.392 169.518C144.789 171.793 141.637 172.321 139.38 170.693L130.85 164.54L125.723 159.952C123.688 158.132 123.49 155.016 125.278 152.952L127.212 150.719C129.101 148.538 132.439 148.405 134.497 150.427L139.698 155.541Z" fill="white" stroke="#080809"/>
<path d="M125.514 142.899L132.24 149.647C133.955 151.367 134.185 154.071 132.786 156.057L132.208 156.876C130.605 159.151 127.453 159.679 125.196 158.051L116.667 151.897L111.539 147.31C109.505 145.489 109.306 142.374 111.094 140.31L113.028 138.077C114.917 135.896 118.255 135.762 120.313 137.785L125.514 142.899Z" fill="white" stroke="#080809"/>
<path d="M112.077 130.922L118.803 137.67C120.518 139.39 120.748 142.095 119.348 144.08L118.771 144.899C117.168 147.174 114.016 147.702 111.759 146.074L103.23 139.92L98.1022 135.333C96.0675 133.513 95.8693 130.397 97.6568 128.333L99.5911 126.1C101.48 123.919 104.818 123.785 106.876 125.808L112.077 130.922Z" fill="white" stroke="#080809"/>
<path d="M97.2769 116.811L104.003 123.559C105.718 125.28 105.948 127.984 104.549 129.97L103.971 130.789C102.368 133.064 99.2161 133.591 96.9592 131.963L88.4297 125.81L83.3023 121.223C81.2677 119.402 81.0695 116.286 82.857 114.223L84.7913 111.99C86.6805 109.809 90.0184 109.675 92.0759 111.698L97.2769 116.811Z" fill="white" stroke="#080809"/>
<path d="M150.261 94.8394L156.248 87.4274C157.774 85.5376 160.438 85.0184 162.563 86.1966L163.439 86.6827C165.873 88.0324 166.736 91.1094 165.36 93.5281L160.158 102.669L156.148 108.259C154.556 110.478 151.48 111.009 149.236 109.454L146.808 107.771C144.437 106.127 143.946 102.822 145.736 100.559L150.261 94.8394Z" fill="white" stroke="#080809"/>
<path d="M142.774 99.2566L152.288 99.7769C154.713 99.9096 156.693 101.767 156.979 104.179L157.098 105.174C157.427 107.937 155.436 110.437 152.669 110.736L142.212 111.864L135.332 111.881C132.602 111.887 130.371 109.703 130.321 106.973L130.266 104.02C130.212 101.135 132.605 98.8035 135.488 98.9319L142.774 99.2566Z" fill="white" stroke="#080809"/>
<path d="M124.774 99.3353L134.288 99.8556C136.713 99.9883 138.693 101.845 138.98 104.258L139.098 105.253C139.427 108.016 137.436 110.516 134.669 110.814L124.212 111.942L117.332 111.959C114.602 111.966 112.371 109.782 112.321 107.052L112.266 104.098C112.213 101.213 114.605 98.8821 117.488 99.0106L124.774 99.3353Z" fill="white" stroke="#080809"/>
<path d="M105.774 99.4183L115.288 99.9386C117.714 100.071 119.693 101.928 119.98 104.341L120.098 105.336C120.427 108.099 118.436 110.599 115.669 110.897L105.213 112.025L98.3326 112.042C95.6025 112.049 93.3717 109.865 93.3211 107.135L93.2663 104.181C93.2128 101.296 95.6055 98.9651 98.488 99.0936L105.774 99.4183Z" fill="white" stroke="#080809"/>
<path d="M87.7747 99.4969L97.2881 100.017C99.7138 100.15 101.693 102.007 101.98 104.419L102.098 105.414C102.427 108.178 100.436 110.678 97.6695 110.976L87.2128 112.104L80.3328 112.121C77.6027 112.128 75.3718 109.943 75.3212 107.214L75.2665 104.26C75.213 101.375 77.6057 99.0437 80.4882 99.1722L87.7747 99.4969Z" fill="white" stroke="#080809"/>
<path d="M74.2342 57.3333L74.7961 47.8223C74.9393 45.3972 76.805 43.426 79.2185 43.1496L80.2141 43.0356C82.9789 42.719 85.4702 44.7206 85.7565 47.4887L86.8386 57.9502L86.8256 64.8302C86.8205 67.5604 84.6263 69.7817 81.8965 69.8203L78.9425 69.8622C76.0574 69.9031 73.7366 67.5002 73.8777 64.6183L74.2342 57.3333Z" fill="white" stroke="#080809"/>
<path d="M74.2342 75.3334L74.7961 65.8224C74.9393 63.3973 76.805 61.4261 79.2185 61.1497L80.2141 61.0357C82.9789 60.7191 85.4702 62.7207 85.7565 65.4888L86.8386 75.9503L86.8256 82.8304C86.8205 85.5605 84.6263 87.7818 81.8965 87.8205L78.9425 87.8623C76.0574 87.9032 73.7366 85.5003 73.8777 82.6184L74.2342 75.3334Z" fill="white" stroke="#080809"/>
<path d="M74.2342 94.3334L74.7961 84.8224C74.9393 82.3973 76.805 80.4261 79.2185 80.1497L80.2141 80.0357C82.9789 79.7191 85.4702 81.7207 85.7565 84.4888L86.8386 94.9503L86.8256 101.83C86.8205 104.56 84.6263 106.782 81.8965 106.82L78.9425 106.862C76.0574 106.903 73.7366 104.5 73.8777 101.618L74.2342 94.3334Z" fill="white" stroke="#080809"/>
<path d="M74.2342 112.333L74.7961 102.822C74.9393 100.397 76.805 98.4261 79.2185 98.1497L80.2141 98.0357C82.9789 97.7191 85.4702 99.7207 85.7565 102.489L86.8386 112.95L86.8256 119.83C86.8205 122.56 84.6263 124.782 81.8965 124.82L78.9425 124.862C76.0574 124.903 73.7366 122.5 73.8777 119.618L74.2342 112.333Z" fill="white" stroke="#080809"/>
<path d="M171.938 81.4038L167.954 90.0586C166.938 92.2654 164.483 93.4227 162.135 92.8021L161.166 92.5461C158.475 91.8351 156.883 89.0643 157.623 86.3817L160.422 76.2435L162.937 69.8396C163.935 67.2985 166.787 66.0277 169.344 66.9848L172.11 68.0205C174.813 69.0321 176.1 72.1147 174.92 74.7478L171.938 81.4038Z" fill="white" stroke="#080809"/>
<path d="M172.111 59.2856L173.952 68.6338C174.421 71.0174 173.109 73.3933 170.842 74.2659L169.907 74.6258C167.309 75.6254 164.396 74.3122 163.425 71.7042L159.755 61.848L158.043 55.1844C157.363 52.5401 158.931 49.8398 161.564 49.118L164.413 48.337C167.196 47.5742 170.045 49.3186 170.63 52.1439L172.111 59.2856Z" fill="white" stroke="#080809"/>
<path d="M160.475 42.9985L167.451 49.4887C169.229 51.1435 169.561 53.8373 168.237 55.8741L167.691 56.7143C166.174 59.0476 163.044 59.6936 160.728 58.1515L151.973 52.3235L146.677 47.932C144.575 46.1894 144.26 43.0831 145.968 40.9538L147.817 38.6496C149.623 36.3992 152.954 36.1401 155.086 38.0842L160.475 42.9985Z" fill="white" stroke="#080809"/>
<path d="M141.774 35.2566L151.288 35.7769C153.713 35.9095 155.693 37.7665 155.979 40.1788L156.098 41.174C156.427 43.9373 154.436 46.4373 151.669 46.7357L141.212 47.8635L134.332 47.8806C131.602 47.8874 129.371 45.703 129.321 42.9733L129.266 40.0196C129.212 37.1347 131.605 34.8034 134.488 34.9318L141.774 35.2566Z" fill="white" stroke="#080809"/>
<path d="M123.774 35.3352L133.288 35.8555C135.713 35.9882 137.693 37.8452 137.98 40.2575L138.098 41.2527C138.427 44.016 136.436 46.516 133.669 46.8144L123.212 47.9422L116.332 47.9593C113.602 47.9661 111.371 45.7816 111.321 43.052L111.266 40.0982C111.213 37.2133 113.605 34.8821 116.488 35.0105L123.774 35.3352Z" fill="white" stroke="#080809"/>
<path d="M104.774 35.4183L114.288 35.9386C116.714 36.0712 118.693 37.9282 118.98 40.3405L119.098 41.3357C119.427 44.099 117.436 46.599 114.669 46.8974L104.213 48.0252L97.3326 48.0423C94.6025 48.0491 92.3717 45.8646 92.321 43.135L92.2663 40.1812C92.2128 37.2963 94.6055 34.9651 97.488 35.0935L104.774 35.4183Z" fill="white" stroke="#080809"/>
<path d="M86.7747 35.4969L96.2881 36.0172C98.7138 36.1498 100.693 38.0068 100.98 40.4191L101.098 41.4143C101.427 44.1776 99.4363 46.6776 96.6695 46.976L86.2128 48.1038L79.3328 48.1209C76.6027 48.1277 74.3718 45.9433 74.3212 43.2136L74.2665 40.2599C74.213 37.375 76.6057 35.0437 79.4882 35.1721L86.7747 35.4969Z" fill="white" stroke="#080809"/>
<path d="M74.2342 128.333L74.7961 118.822C74.9393 116.397 76.805 114.426 79.2185 114.15L80.2141 114.036C82.9789 113.719 85.4702 115.721 85.7565 118.489L86.8386 128.95L86.8256 135.83C86.8205 138.56 84.6263 140.782 81.8965 140.82L78.9425 140.862C76.0574 140.903 73.7366 138.5 73.8777 135.618L74.2342 128.333Z" fill="white" stroke="#080809"/>
<path d="M74.2342 146.333L74.7961 136.822C74.9393 134.397 76.805 132.426 79.2185 132.149L80.2141 132.035C82.9789 131.719 85.4702 133.72 85.7565 136.489L86.8386 146.95L86.8256 153.83C86.8205 156.56 84.6263 158.782 81.8965 158.82L78.9425 158.862C76.0574 158.903 73.7366 156.5 73.8777 153.618L74.2342 146.333Z" fill="white" stroke="#080809"/>
<path d="M74.2342 165.333L74.7961 155.822C74.9393 153.397 76.805 151.426 79.2185 151.149L80.2141 151.035C82.9789 150.719 85.4702 152.72 85.7565 155.489L86.8386 165.95L86.8256 172.83C86.8205 175.56 84.6263 177.782 81.8965 177.82L78.9425 177.862C76.0574 177.903 73.7366 175.5 73.8777 172.618L74.2342 165.333Z" fill="white" stroke="#080809"/>
<path d="M74.2342 183.333L74.7961 173.822C74.9393 171.397 76.805 169.426 79.2185 169.149L80.2141 169.035C82.9789 168.719 85.4702 170.72 85.7565 173.489L86.8386 183.95L86.8256 190.83C86.8205 193.56 84.6263 195.782 81.8965 195.82L78.9425 195.862C76.0574 195.903 73.7366 193.5 73.8777 190.618L74.2342 183.333Z" fill="white" stroke="#080809"/>
</svg>
