<svg width="244" height="248" viewBox="0 0 244 248" fill="none" xmlns="http://www.w3.org/2000/svg">
<rect width="244" height="248" fill="none"/>
<circle cx="92.1127" cy="45.8642" r="25" transform="rotate(-28.3 92.1127 45.8642)" fill="#080809"/>
<circle cx="91.9552" cy="86.1637" r="25" transform="rotate(-28.3 91.9552 86.1637)" fill="#080809"/>
<circle cx="90.4647" cy="125.582" r="25" transform="rotate(-28.3 90.4647 125.582)" fill="#080809"/>
<circle cx="88.974" cy="165" r="25" transform="rotate(-28.3 88.974 165)" fill="#080809"/>
<circle cx="86.5353" cy="202.657" r="25" transform="rotate(-28.3 86.5353 202.657)" fill="#080809"/>
<circle cx="132.113" cy="42.8641" r="25" transform="rotate(-28.3 132.113 42.8641)" fill="#080809"/>
<circle cx="168.113" cy="59.8641" r="25" transform="rotate(-28.3 168.113 59.8641)" fill="#080809"/>
<circle cx="165.113" cy="103.864" r="25" transform="rotate(-28.3 165.113 103.864)" fill="#080809"/>
<circle cx="131.113" cy="122.864" r="25" transform="rotate(-28.3 131.113 122.864)" fill="#080809"/>
<circle r="25" transform="matrix(-0.998335 -0.0576849 -0.0576849 0.998335 175.649 196.401)" fill="#080809"/>
<circle r="25" transform="matrix(-0.998335 -0.0576849 -0.0576849 0.998335 149.649 159.401)" fill="#080809"/>
</svg>
