<svg width="234" height="228" viewBox="0 0 234 228" fill="none" xmlns="http://www.w3.org/2000/svg">
<rect width="234" height="228" fill="none"/>
<path d="M164.142 45.5L169.346 53.4804C170.673 55.5152 170.346 58.2095 168.57 59.867L167.837 60.5508C165.803 62.4496 162.61 62.322 160.733 60.2669L153.642 52.5L149.56 46.9612C147.941 44.7633 148.384 41.6726 150.555 40.018L152.905 38.2276C155.2 36.4789 158.495 37.0305 160.096 39.4313L164.142 45.5Z" fill="white" stroke="#080809"/>
<path d="M147.741 31.4894L155.458 37.0769C157.426 38.5015 158.085 41.1344 157.02 43.318L156.581 44.2188C155.362 46.7202 152.334 47.7445 149.847 46.4976L140.444 41.7852L134.65 38.0751C132.351 36.6029 131.658 33.5585 133.093 31.236L134.646 28.7229C136.163 26.2683 139.436 25.6034 141.79 27.2719L147.741 31.4894Z" fill="white" stroke="#080809"/>
<path d="M125.434 25.7251L134.76 27.6757C137.138 28.1731 138.814 30.3076 138.734 32.7356L138.7 33.7372C138.608 36.5185 136.263 38.6893 133.483 38.5666L122.975 38.1027L116.172 37.081C113.472 36.6755 111.596 34.1793 111.958 31.4733L112.35 28.5452C112.733 25.6853 115.45 23.7419 118.28 24.3041L125.434 25.7251Z" fill="white" stroke="#080809"/>
<path d="M103.137 26.5565L112.628 25.7158C115.048 25.5015 117.271 27.0575 117.899 29.4043L118.158 30.3724C118.877 33.0607 117.263 35.8189 114.567 36.5085L104.378 39.1148L97.5704 40.1122C94.8691 40.5079 92.3497 38.6637 91.9106 35.9691L91.4355 33.0533C90.9715 30.2055 93.0076 27.557 95.879 27.2734L103.137 26.5565Z" fill="white" stroke="#080809"/>
<path d="M82.9493 33.5777L91.4396 29.2545C93.6044 28.1522 96.2483 28.7654 97.7068 30.7081L98.3085 31.5095C99.9793 33.735 99.5117 36.8963 97.2681 38.5427L88.7887 44.7648L82.846 48.2316C80.4878 49.6073 77.462 48.8371 76.0487 46.5013L74.5193 43.9737C73.0255 41.5051 73.9255 38.288 76.4834 36.9528L82.9493 33.5777Z" fill="white" stroke="#080809"/>
<path d="M68.3564 44.8196L75.2258 38.2175C76.9773 36.5342 79.6854 36.3534 81.6451 37.7889L82.4536 38.3811C84.6986 40.0256 85.1689 43.1866 83.4999 45.4134L77.1923 53.8294L72.5121 58.8722C70.6549 60.8734 67.5359 61.0148 65.5052 59.1899L63.3079 57.2153C61.1617 55.2867 61.0889 51.9468 63.149 49.9265L68.3564 44.8196Z" fill="white" stroke="#080809"/>
<path d="M63.3049 68.6076L60.7345 59.4332C60.0791 57.094 61.2 54.6222 63.3915 53.5739L64.2955 53.1414C66.8059 51.9405 69.8137 53.0204 70.987 55.5438L75.4214 65.0806L77.6527 71.5887C78.5381 74.1713 77.1883 76.9866 74.6203 77.9134L71.8414 78.9162C69.1274 79.8957 66.1499 78.381 65.3434 75.6106L63.3049 68.6076Z" fill="white" stroke="#080809"/>
<path d="M76.2884 88.5624L70.593 80.9245C69.1408 78.977 69.2985 76.2675 70.9669 74.5017L71.6551 73.7733C73.5663 71.7505 76.7612 71.6774 78.7629 73.6106L86.3282 80.9169L90.7491 86.1885C92.5035 88.2804 92.2555 91.3927 90.192 93.1804L87.9592 95.1148C85.7784 97.0042 82.4554 96.6606 80.7073 94.3651L76.2884 88.5624Z" fill="white" stroke="#080809"/>
<path d="M69.1416 182.013L63.937 174.032C62.6099 171.997 62.9375 169.303 64.7134 167.646L65.4461 166.962C67.4805 165.063 70.6737 165.191 72.5501 167.246L79.6416 175.013L83.7228 180.551C85.3423 182.749 84.8994 185.84 82.7278 187.495L80.3779 189.285C78.0827 191.034 74.7879 190.482 73.1874 188.081L69.1416 182.013Z" fill="white" stroke="#080809"/>
<path d="M85.5421 196.023L77.8249 190.436C75.8572 189.011 75.1982 186.378 76.2629 184.195L76.7021 183.294C77.9216 180.792 80.9488 179.768 83.4367 181.015L92.8392 185.727L98.6332 189.438C100.932 190.91 101.626 193.954 100.19 196.277L98.6375 198.79C97.1207 201.244 93.8469 201.909 91.4928 200.241L85.5421 196.023Z" fill="white" stroke="#080809"/>
<path d="M107.849 201.787L98.5233 199.837C96.1454 199.34 94.4692 197.205 94.5497 194.777L94.5829 193.775C94.6752 190.994 97.0205 188.823 99.8007 188.946L110.308 189.41L117.112 190.432C119.811 190.837 121.687 193.333 121.325 196.039L120.933 198.967C120.55 201.827 117.833 203.771 115.003 203.209L107.849 201.787Z" fill="white" stroke="#080809"/>
<path d="M130.146 200.956L120.655 201.797C118.236 202.011 116.012 200.455 115.384 198.108L115.125 197.14C114.406 194.452 116.02 191.694 118.716 191.004L128.905 188.398L135.713 187.4C138.414 187.005 140.933 188.849 141.373 191.544L141.848 194.459C142.312 197.307 140.276 199.956 137.404 200.239L130.146 200.956Z" fill="white" stroke="#080809"/>
<path d="M150.334 193.935L141.844 198.258C139.679 199.36 137.035 198.747 135.576 196.804L134.975 196.003C133.304 193.778 133.772 190.616 136.015 188.97L144.494 182.748L150.437 179.281C152.795 177.905 155.821 178.676 157.235 181.011L158.764 183.539C160.258 186.008 159.358 189.225 156.8 190.56L150.334 193.935Z" fill="white" stroke="#080809"/>
<path d="M164.927 182.693L158.057 189.295C156.306 190.978 153.598 191.159 151.638 189.724L150.83 189.131C148.585 187.487 148.114 184.326 149.783 182.099L156.091 173.683L160.771 168.64C162.628 166.639 165.747 166.498 167.778 168.323L169.975 170.297C172.121 172.226 172.194 175.566 170.134 177.586L164.927 182.693Z" fill="white" stroke="#080809"/>
<path d="M169.978 158.905L172.549 168.079C173.204 170.419 172.083 172.89 169.892 173.939L168.988 174.371C166.477 175.572 163.47 174.492 162.296 171.969L157.862 162.432L155.63 155.924C154.745 153.341 156.095 150.526 158.663 149.599L161.442 148.596C164.156 147.617 167.133 149.132 167.94 151.902L169.978 158.905Z" fill="white" stroke="#080809"/>
<path d="M156.995 138.95L162.69 146.588C164.142 148.536 163.985 151.245 162.316 153.011L161.628 153.739C159.717 155.762 156.522 155.835 154.52 153.902L146.955 146.596L142.534 141.324C140.78 139.232 141.028 136.12 143.091 134.332L145.324 132.398C147.505 130.508 150.828 130.852 152.576 133.148L156.995 138.95Z" fill="white" stroke="#080809"/>
<path d="M90.777 103.045L84.296 96.0615C82.6436 94.2808 82.5101 91.57 83.9797 89.6356L84.586 88.8377C86.2694 86.6218 89.4382 86.2068 91.6355 87.9144L99.9399 94.3682L104.9 99.1359C106.868 101.028 106.955 104.149 105.095 106.147L103.083 108.31C101.117 110.422 97.7761 110.436 95.7921 108.341L90.777 103.045Z" fill="white" stroke="#080809"/>
<path d="M107.283 117.178L99.1837 112.16C97.1186 110.88 96.272 108.301 97.1768 106.047L97.5501 105.117C98.5866 102.534 101.532 101.295 104.103 102.36L113.82 106.384L119.866 109.667C122.265 110.97 123.176 113.957 121.911 116.377L120.543 118.995C119.207 121.552 115.989 122.451 113.521 120.956L107.283 117.178Z" fill="white" stroke="#080809"/>
<path d="M123.283 126.178L115.184 121.16C113.119 119.88 112.272 117.301 113.177 115.047L113.55 114.117C114.587 111.534 117.532 110.295 120.103 111.36L129.82 115.384L135.866 118.667C138.265 119.97 139.176 122.957 137.911 125.377L136.543 127.995C135.207 130.552 131.989 131.451 129.521 129.956L123.283 126.178Z" fill="white" stroke="#080809"/>
<path d="M139.147 136.991L132.266 130.401C130.512 128.721 130.219 126.023 131.572 124.005L132.13 123.173C133.68 120.862 136.819 120.261 139.113 121.836L147.783 127.789L153.016 132.256C155.092 134.029 155.362 137.14 153.623 139.244L151.741 141.521C149.903 143.746 146.57 143.957 144.466 141.982L139.147 136.991Z" fill="white" stroke="#080809"/>
</svg>
