<svg width="236" height="248" viewBox="0 0 236 248" fill="none" xmlns="http://www.w3.org/2000/svg">
<rect width="236" height="248" fill="none"/>
<path d="M180.344 47.2858C168.32 40.5006 153.071 44.7481 146.286 56.7729C139.5 68.7977 143.748 84.0463 155.773 90.8316C167.798 97.6169 183.046 93.3694 189.831 81.3445C196.617 69.3197 192.369 54.0711 180.344 47.2858Z" fill="#080809"/>
<path d="M175.344 167.286C163.32 160.501 148.071 164.748 141.286 176.773C134.5 188.798 138.748 204.046 150.773 210.832C162.798 217.617 178.046 213.369 184.831 201.345C191.617 189.32 187.369 174.071 175.344 167.286Z" fill="#080809"/>
<path d="M133.344 183.286C121.32 176.501 106.071 180.748 99.2857 192.773C92.5004 204.798 96.7479 220.046 108.773 226.832C120.798 233.617 136.046 229.369 142.831 217.345C149.617 205.32 145.369 190.071 133.344 183.286Z" fill="#080809"/>
<path d="M94.3444 171.286C82.3196 164.501 67.071 168.748 60.2857 180.773C53.5004 192.798 57.7479 208.046 69.7728 214.832C81.7976 221.617 97.0462 217.369 103.831 205.345C110.617 193.32 106.369 178.071 94.3444 171.286Z" fill="#080809"/>
<path d="M160.344 129.286C148.32 122.501 133.071 126.748 126.286 138.773C119.5 150.798 123.748 166.046 135.773 172.832C147.798 179.617 163.046 175.369 169.831 163.345C176.617 151.32 172.369 136.071 160.344 129.286Z" fill="#080809"/>
<path d="M130.344 102.286C118.32 95.5005 103.071 99.748 96.2857 111.773C89.5004 123.798 93.7479 139.046 105.773 145.832C117.798 152.617 133.046 148.369 139.831 136.345C146.617 124.32 142.369 109.071 130.344 102.286Z" fill="#080809"/>
<path d="M94.3444 81.2858C82.3196 74.5005 67.071 78.748 60.2857 90.7729C53.5004 102.798 57.7479 118.046 69.7728 124.832C81.7976 131.617 97.0462 127.369 103.831 115.345C110.617 103.32 106.369 88.0711 94.3444 81.2858Z" fill="#080809"/>
<path d="M80.3444 44.2858C68.3196 37.5006 53.071 41.7481 46.2857 53.7729C39.5004 65.7977 43.7479 81.0463 55.7728 87.8316C67.7976 94.6169 83.0462 90.3694 89.8315 78.3445C96.6168 66.3197 92.3693 51.0711 80.3444 44.2858Z" fill="#080809"/>
<path d="M113.344 28.2858C101.32 21.5006 86.071 25.7481 79.2857 37.7729C72.5004 49.7977 76.7479 65.0463 88.7728 71.8316C100.798 78.6169 116.046 74.3694 122.831 62.3445C129.617 50.3197 125.369 35.0711 113.344 28.2858Z" fill="#080809"/>
<path d="M147.344 21.2858C135.32 14.5006 120.071 18.7481 113.286 30.7729C106.5 42.7977 110.748 58.0463 122.773 64.8316C134.798 71.6169 150.046 67.3694 156.831 55.3445C163.617 43.3197 159.369 28.0711 147.344 21.2858Z" fill="#080809"/>
</svg>
