<svg width="194" height="228" viewBox="0 0 194 228" fill="none" xmlns="http://www.w3.org/2000/svg">
<rect width="194" height="228" fill="none"/>
<path d="M92.2342 57.3332L92.7961 47.8222C92.9393 45.3971 94.8049 43.4259 97.2185 43.1495L98.2141 43.0355C100.979 42.7189 103.47 44.7206 103.756 47.4886L104.839 57.9502L104.826 64.8302C104.82 67.5603 102.626 69.7816 99.8965 69.8203L96.9425 69.8621C94.0574 69.903 91.7366 67.5002 91.8776 64.6182L92.2342 57.3332Z" fill="white" stroke="#080809"/>
<path d="M92.2343 75.3333L92.7961 65.8223C92.9394 63.3972 94.805 61.426 97.2185 61.1496L98.2142 61.0356C100.979 60.719 103.47 62.7206 103.757 65.4887L104.839 75.9502L104.826 82.8303C104.821 85.5604 102.626 87.7817 99.8965 87.8204L96.9426 87.8622C94.0575 87.9031 91.7367 85.5002 91.8777 82.6183L92.2343 75.3333Z" fill="white" stroke="#080809"/>
<path d="M92.2342 94.3334L92.7961 84.8223C92.9393 82.3973 94.8049 80.4261 97.2185 80.1497L98.2141 80.0357C100.979 79.719 103.47 81.7207 103.756 84.4888L104.839 94.9503L104.826 101.83C104.82 104.56 102.626 106.782 99.8965 106.82L96.9425 106.862C94.0574 106.903 91.7366 104.5 91.8776 101.618L92.2342 94.3334Z" fill="white" stroke="#080809"/>
<path d="M92.2343 112.333L92.7961 102.822C92.9394 100.397 94.805 98.426 97.2185 98.1496L98.2142 98.0356C100.979 97.719 103.47 99.7207 103.757 102.489L104.839 112.95L104.826 119.83C104.821 122.56 102.626 124.782 99.8965 124.82L96.9426 124.862C94.0575 124.903 91.7367 122.5 91.8777 119.618L92.2343 112.333Z" fill="white" stroke="#080809"/>
<path d="M92.2342 128.333L92.7961 118.822C92.9393 116.397 94.8049 114.426 97.2185 114.15L98.2141 114.036C100.979 113.719 103.47 115.721 103.756 118.489L104.839 128.95L104.826 135.83C104.82 138.561 102.626 140.782 99.8965 140.82L96.9425 140.862C94.0574 140.903 91.7366 138.5 91.8776 135.618L92.2342 128.333Z" fill="white" stroke="#080809"/>
<path d="M92.2343 146.333L92.7961 136.822C92.9394 134.397 94.805 132.426 97.2185 132.149L98.2142 132.035C100.979 131.719 103.47 133.72 103.757 136.488L104.839 146.95L104.826 153.83C104.821 156.56 102.626 158.781 99.8965 158.82L96.9426 158.862C94.0575 158.903 91.7367 156.5 91.8777 153.618L92.2343 146.333Z" fill="white" stroke="#080809"/>
<path d="M92.2342 165.333L92.7961 155.822C92.9393 153.397 94.8049 151.426 97.2185 151.149L98.2141 151.035C100.979 150.719 103.47 152.72 103.756 155.489L104.839 165.95L104.826 172.83C104.82 175.56 102.626 177.781 99.8965 177.82L96.9425 177.862C94.0574 177.903 91.7366 175.5 91.8776 172.618L92.2342 165.333Z" fill="white" stroke="#080809"/>
<path d="M92.2342 183.333L92.7961 173.822C92.9393 171.397 94.8049 169.426 97.2185 169.149L98.2141 169.035C100.979 168.719 103.47 170.72 103.756 173.489L104.839 183.95L104.826 190.83C104.82 193.56 102.626 195.781 99.8965 195.82L96.9425 195.862C94.0574 195.903 91.7366 193.5 91.8776 190.618L92.2342 183.333Z" fill="white" stroke="#080809"/>
<path d="M145.775 42.2565L155.288 42.7768C157.714 42.9094 159.693 44.7664 159.98 47.1787L160.098 48.1739C160.427 50.9372 158.436 53.4372 155.67 53.7356L145.213 54.8634L138.333 54.8805C135.603 54.8873 133.372 52.7029 133.321 49.9732L133.266 47.0195C133.213 44.1346 135.606 41.8033 138.488 41.9317L145.775 42.2565Z" fill="white" stroke="#080809"/>
<path d="M126.775 42.2565L136.288 42.7768C138.714 42.9094 140.693 44.7664 140.98 47.1787L141.098 48.1739C141.427 50.9372 139.436 53.4372 136.67 53.7356L126.213 54.8634L119.333 54.8805C116.603 54.8873 114.372 52.7029 114.321 49.9732L114.266 47.0195C114.213 44.1346 116.606 41.8033 119.488 41.9317L126.775 42.2565Z" fill="white" stroke="#080809"/>
<path d="M107.775 42.2565L117.288 42.7768C119.714 42.9094 121.693 44.7664 121.98 47.1787L122.098 48.1739C122.427 50.9372 120.436 53.4372 117.67 53.7356L107.213 54.8634L100.333 54.8805C97.6027 54.8873 95.3718 52.7029 95.3212 49.9732L95.2665 47.0195C95.213 44.1346 97.6057 41.8033 100.488 41.9317L107.775 42.2565Z" fill="white" stroke="#080809"/>
<path d="M88.7747 42.2565L98.2881 42.7768C100.714 42.9094 102.693 44.7664 102.98 47.1787L103.098 48.1739C103.427 50.9372 101.436 53.4372 98.6695 53.7356L88.2128 54.8634L81.3328 54.8805C78.6027 54.8873 76.3718 52.7029 76.3212 49.9732L76.2665 47.0195C76.213 44.1346 78.6057 41.8033 81.4882 41.9317L88.7747 42.2565Z" fill="white" stroke="#080809"/>
<path d="M70.7747 42.2565L80.2881 42.7768C82.7137 42.9094 84.6931 44.7664 84.98 47.1787L85.0984 48.1739C85.4271 50.9372 83.4363 53.4372 80.6695 53.7356L70.2128 54.8634L63.3328 54.8805C60.6027 54.8873 58.3718 52.7029 58.3212 49.9732L58.2665 47.0195C58.213 44.1346 60.6057 41.8033 63.4882 41.9317L70.7747 42.2565Z" fill="white" stroke="#080809"/>
<path d="M51.7747 42.2565L61.2881 42.7768C63.7137 42.9094 65.6931 44.7664 65.98 47.1787L66.0984 48.1739C66.4271 50.9372 64.4363 53.4372 61.6695 53.7356L51.2128 54.8634L44.3328 54.8805C41.6027 54.8873 39.3718 52.7029 39.3212 49.9732L39.2665 47.0195C39.213 44.1346 41.6057 41.8033 44.4882 41.9317L51.7747 42.2565Z" fill="white" stroke="#080809"/>
</svg>
