<svg width="230" height="228" viewBox="0 0 230 228" fill="none" xmlns="http://www.w3.org/2000/svg">
<rect width="230" height="228" fill="none"/>
<path d="M58.3267 44.2077L59.1178 34.7129C59.3195 32.292 61.2322 30.3664 63.6517 30.1483L64.6498 30.0584C67.4214 29.8085 69.8636 31.8697 70.0831 34.6439L70.9124 45.1285L70.7335 52.0062C70.6625 54.7354 68.4154 56.9031 65.6854 56.8759L62.7313 56.8465C59.8461 56.8178 57.5839 54.3596 57.7945 51.4819L58.3267 44.2077Z" fill="white" stroke="#080809"/>
<path d="M57.3267 60.2076L58.1178 50.7129C58.3195 48.292 60.2322 46.3664 62.6517 46.1483L63.6498 46.0583C66.4214 45.8085 68.8636 47.8697 69.0831 50.6439L69.9124 61.1285L69.7335 68.0062C69.6625 70.7354 67.4154 72.9031 64.6854 72.8759L61.7313 72.8465C58.8461 72.8177 56.5839 70.3596 56.7945 67.4819L57.3267 60.2076Z" fill="white" stroke="#080809"/>
<path d="M56.7757 79.0775L57.7042 69.5952C57.9409 67.1775 59.8812 65.2798 62.3036 65.0967L63.303 65.0212C66.0779 64.8115 68.49 66.9078 68.6693 69.6849L69.3469 80.1803L69.0685 87.0548C68.958 89.7827 66.6797 91.9176 63.9504 91.8509L60.9971 91.7788C58.1125 91.7083 55.8862 89.2176 56.1383 86.3433L56.7757 79.0775Z" fill="white" stroke="#080809"/>
<path d="M56.1087 98.5982L56.3837 89.0746C56.4538 86.6463 58.2592 84.6197 60.6633 84.2707L61.655 84.1268C64.409 83.727 66.9595 85.6526 67.3291 88.4108L68.7259 98.835L68.9203 105.712C68.9975 108.441 66.8712 110.728 64.1438 110.849L61.1924 110.98C58.3099 111.107 55.9177 108.775 55.9718 105.891L56.1087 98.5982Z" fill="white" stroke="#080809"/>
<path d="M56.3188 117.641L56.5938 108.118C56.6639 105.689 58.4693 103.663 60.8734 103.314L61.8652 103.17C64.6192 102.77 67.1696 104.696 67.5392 107.454L68.9361 117.878L69.1305 124.755C69.2076 127.484 67.0814 129.771 64.3539 129.892L61.4026 130.023C58.52 130.15 56.1278 127.819 56.182 124.934L56.3188 117.641Z" fill="white" stroke="#080809"/>
<path d="M56.75 136.605L56.7196 127.077C56.7119 124.648 58.4514 122.565 60.8431 122.139L61.8298 121.963C64.5695 121.475 67.1803 123.318 67.6381 126.063L69.3683 136.437L69.783 143.305C69.9475 146.03 67.8956 148.383 65.1735 148.591L62.2278 148.817C59.3508 149.037 56.8852 146.783 56.8468 143.898L56.75 136.605Z" fill="white" stroke="#080809"/>
<path d="M177.48 45.4587L177.171 35.9361C177.092 33.508 175.28 31.4879 172.874 31.1474L171.882 31.0069C169.127 30.6169 166.583 32.5515 166.223 35.311L164.863 45.7401L164.693 52.618C164.626 55.3473 166.76 57.6262 169.488 57.7375L172.44 57.8579C175.323 57.9755 177.707 55.6352 177.642 52.7505L177.48 45.4587Z" fill="white" stroke="#080809"/>
<path d="M177.667 61.4888L177.358 51.9662C177.28 49.5382 175.467 47.5181 173.062 47.1775L172.069 47.0371C169.314 46.647 166.77 48.5817 166.411 51.3412L165.051 61.7702L164.88 68.6481C164.813 71.3774 166.947 73.6563 169.675 73.7676L172.627 73.888C175.51 74.0057 177.894 71.6654 177.829 68.7807L177.667 61.4888Z" fill="white" stroke="#080809"/>
<path d="M177.26 80.3624L176.814 70.8452C176.7 68.4186 174.858 66.4249 172.448 66.1192L171.454 65.9931C168.693 65.643 166.178 67.6142 165.858 70.3786L164.649 80.8263L164.579 87.7059C164.551 90.4359 166.718 92.6837 169.447 92.7555L172.4 92.8332C175.285 92.9091 177.634 90.5346 177.528 87.6511L177.26 80.3624Z" fill="white" stroke="#080809"/>
<path d="M176.936 99.8917L177.145 90.3664C177.198 87.9377 175.498 85.8222 173.114 85.3517L172.131 85.1576C169.401 84.6187 166.756 86.4126 166.247 89.1485L164.323 99.4884L163.78 106.347C163.565 109.069 165.573 111.46 168.29 111.719L171.231 111.999C174.104 112.273 176.611 110.066 176.703 107.182L176.936 99.8917Z" fill="white" stroke="#080809"/>
<path d="M175.761 118.899L175.969 109.374C176.022 106.945 174.322 104.83 171.939 104.359L170.955 104.165C168.225 103.626 165.581 105.42 165.072 108.156L163.148 118.496L162.605 125.355C162.389 128.076 164.397 130.468 167.115 130.727L170.056 131.007C172.928 131.281 175.435 129.073 175.528 126.189L175.761 118.899Z" fill="white" stroke="#080809"/>
<path d="M174.369 137.817L174.882 128.303C175.013 125.877 173.381 123.708 171.014 123.162L170.038 122.936C167.326 122.31 164.625 124.018 164.029 126.737L161.775 137.01L161.013 143.847C160.71 146.561 162.64 149.015 165.348 149.361L168.278 149.735C171.141 150.101 173.717 147.975 173.902 145.096L174.369 137.817Z" fill="white" stroke="#080809"/>
<path d="M62.1701 158.616L58.6413 149.766C57.7415 147.509 58.5938 144.932 60.6618 143.657L61.5148 143.132C63.8837 141.671 66.9891 142.426 68.4234 144.811L73.8443 153.823L76.7532 160.058C77.9076 162.532 76.8639 165.475 74.4087 166.669L71.7519 167.961C69.157 169.222 66.0356 168.032 64.9399 165.363L62.1701 158.616Z" fill="white" stroke="#080809"/>
<path d="M75.6041 176.631L69.3996 169.401C67.8177 167.557 67.7897 164.843 69.3334 162.968L69.9703 162.194C71.7386 160.045 74.9211 159.754 77.0503 161.545L85.0975 168.317L89.8686 173.274C91.7619 175.241 91.7273 178.363 89.7909 180.288L87.6956 182.37C85.6491 184.404 82.3105 184.289 80.4095 182.118L75.6041 176.631Z" fill="white" stroke="#080809"/>
<path d="M94.6049 189.825L86.0679 185.595C83.8912 184.516 82.8047 182.029 83.4925 179.699L83.7762 178.738C84.564 176.069 87.3794 174.557 90.0396 175.374L100.093 178.461L106.423 181.159C108.934 182.23 110.122 185.117 109.092 187.645L107.978 190.381C106.889 193.053 103.771 194.252 101.173 192.997L94.6049 189.825Z" fill="white" stroke="#080809"/>
<path d="M115.324 193.789L105.796 193.749C103.367 193.739 101.296 191.984 100.888 189.589L100.72 188.601C100.252 185.858 102.114 183.261 104.862 182.823L115.249 181.169L122.119 180.805C124.846 180.661 127.184 182.73 127.372 185.454L127.576 188.401C127.775 191.279 125.503 193.728 122.617 193.745L115.324 193.789Z" fill="white" stroke="#080809"/>
<path d="M138.371 190.085L129.237 192.795C126.908 193.486 124.419 192.403 123.337 190.228L122.891 189.331C121.652 186.839 122.686 183.815 125.191 182.603L134.659 178.024L141.132 175.693C143.701 174.768 146.536 176.075 147.502 178.628L148.548 181.392C149.569 184.09 148.1 187.091 145.342 187.939L138.371 190.085Z" fill="white" stroke="#080809"/>
<path d="M155.279 177.584L148.871 184.635C147.238 186.433 144.548 186.796 142.496 185.496L141.649 184.96C139.298 183.471 138.615 180.349 140.13 178.014L145.855 169.192L150.184 163.844C151.902 161.722 155.004 161.37 157.153 163.054L159.479 164.876C161.75 166.655 162.049 169.982 160.13 172.137L155.279 177.584Z" fill="white" stroke="#080809"/>
<path d="M167.328 162.035L161.607 169.654C160.148 171.597 157.505 172.21 155.34 171.107L154.447 170.653C151.967 169.39 150.995 166.345 152.285 163.879L157.16 154.56L160.97 148.831C162.482 146.558 165.538 145.918 167.835 147.393L170.321 148.99C172.749 150.549 173.357 153.834 171.648 156.158L167.328 162.035Z" fill="white" stroke="#080809"/>
</svg>
