<svg width="215" height="243" viewBox="0 0 215 243" fill="none" xmlns="http://www.w3.org/2000/svg">
<rect width="215" height="243" fill="none"/>
<path d="M66.3444 32.2858C54.3196 25.5006 39.071 29.7481 32.2857 41.7729C25.5004 53.7977 29.7479 69.0463 41.7728 75.8316C53.7976 82.6169 69.0462 78.3694 75.8315 66.3445C82.6168 54.3197 78.3693 39.0711 66.3444 32.2858Z" fill="#080809"/>
<path d="M174.344 31.2858C162.32 24.5006 147.071 28.7481 140.286 40.7729C133.5 52.7977 137.748 68.0463 149.773 74.8316C161.798 81.6169 177.046 77.3694 183.831 65.3445C190.617 53.3197 186.369 38.0711 174.344 31.2858Z" fill="#080809"/>
<path d="M170.344 65.2858C158.32 58.5006 143.071 62.7481 136.286 74.7729C129.5 86.7977 133.748 102.046 145.773 108.832C157.798 115.617 173.046 111.369 179.831 99.3445C186.617 87.3197 182.369 72.0711 170.344 65.2858Z" fill="#080809"/>
<path d="M170.344 107.286C158.32 100.501 143.071 104.748 136.286 116.773C129.5 128.798 133.748 144.046 145.773 150.832C157.798 157.617 173.046 153.369 179.831 141.345C186.617 129.32 182.369 114.071 170.344 107.286Z" fill="#080809"/>
<path d="M162.344 147.286C150.32 140.501 135.071 144.748 128.286 156.773C121.5 168.798 125.748 184.046 137.773 190.832C149.798 197.617 165.046 193.369 171.831 181.345C178.617 169.32 174.369 154.071 162.344 147.286Z" fill="#080809"/>
<path d="M124.344 166.286C112.32 159.501 97.071 163.748 90.2857 175.773C83.5004 187.798 87.7479 203.046 99.7728 209.832C111.798 216.617 127.046 212.369 133.831 200.345C140.617 188.32 136.369 173.071 124.344 166.286Z" fill="#080809"/>
<path d="M85.3444 157.286C73.3196 150.501 58.071 154.748 51.2857 166.773C44.5004 178.798 48.7479 194.046 60.7728 200.832C72.7976 207.617 88.0462 203.369 94.8315 191.345C101.617 179.32 97.3693 164.071 85.3444 157.286Z" fill="#080809"/>
<path d="M66.3444 120.286C54.3196 113.501 39.071 117.748 32.2857 129.773C25.5004 141.798 29.7479 157.046 41.7728 163.832C53.7976 170.617 69.0462 166.369 75.8315 154.345C82.6168 142.32 78.3693 127.071 66.3444 120.286Z" fill="#080809"/>
<path d="M65.3444 75.2858C53.3196 68.5006 38.071 72.7481 31.2857 84.7729C24.5004 96.7977 28.7479 112.046 40.7728 118.832C52.7976 125.617 68.0462 121.369 74.8315 109.345C81.6168 97.3197 77.3693 82.0711 65.3444 75.2858Z" fill="#080809"/>
</svg>
