<svg width="218" height="212" viewBox="0 0 218 212" fill="none" xmlns="http://www.w3.org/2000/svg">
<rect width="218" height="212" fill="none"/>
<path d="M169.97 57.0492L173.098 48.0494C173.895 45.7547 172.927 43.2189 170.804 42.0384L169.928 41.5514C167.496 40.1991 164.428 41.0928 163.102 43.5396L158.092 52.7871L155.467 59.1465C154.425 61.67 155.6 64.5627 158.107 65.6449L160.819 66.816C163.468 67.9598 166.532 66.6302 167.507 63.9143L169.97 57.0492Z" fill="white" stroke="#080809"/>
<path d="M163.07 73.6741L166.197 64.6743C166.994 62.3796 166.027 59.8438 163.904 58.6633L163.028 58.1763C160.596 56.824 157.528 57.7177 156.202 60.1645L151.192 69.412L148.567 75.7714C147.525 78.2949 148.7 81.1876 151.206 82.2698L153.918 83.4409C156.567 84.5846 159.632 83.255 160.607 80.5392L163.07 73.6741Z" fill="white" stroke="#080809"/>
<path d="M155.786 91.2226L158.913 82.2228C159.711 79.928 158.743 77.3922 156.62 76.2117L155.744 75.7247C153.312 74.3724 150.244 75.2661 148.918 77.713L143.908 86.9605L141.283 93.3198C140.241 95.8434 141.416 98.7361 143.923 99.8183L146.635 100.989C149.284 102.133 152.348 100.804 153.323 98.0877L155.786 91.2226Z" fill="white" stroke="#080809"/>
<path d="M148.886 107.848L152.013 98.8477C152.811 96.553 151.843 94.0172 149.72 92.8367L148.844 92.3497C146.412 90.9974 143.344 91.8911 142.018 94.3379L137.008 103.585L134.383 109.945C133.341 112.468 134.516 115.361 137.022 116.443L139.734 117.614C142.384 118.758 145.448 117.428 146.423 114.713L148.886 107.848Z" fill="white" stroke="#080809"/>
<path d="M142.753 122.625L145.88 113.625C146.677 111.331 145.71 108.795 143.587 107.614L142.711 107.127C140.279 105.775 137.21 106.669 135.885 109.116L130.875 118.363L128.249 124.722C127.208 127.246 128.383 130.139 130.889 131.221L133.601 132.392C136.25 133.536 139.315 132.206 140.289 129.49L142.753 122.625Z" fill="white" stroke="#080809"/>
<path d="M135.853 139.25L138.98 130.25C139.777 127.955 138.81 125.419 136.686 124.239L135.81 123.752C133.378 122.399 130.31 123.293 128.984 125.74L123.975 134.987L121.349 141.347C120.307 143.87 121.482 146.763 123.989 147.845L126.701 149.016C129.35 150.16 132.415 148.831 133.389 146.115L135.853 139.25Z" fill="white" stroke="#080809"/>
<path d="M128.569 156.798L131.696 147.798C132.493 145.504 131.526 142.968 129.403 141.787L128.527 141.3C126.095 139.948 123.026 140.842 121.701 143.288L116.691 152.536L114.065 158.895C113.023 161.419 114.198 164.312 116.705 165.394L119.417 166.565C122.066 167.709 125.131 166.379 126.105 163.663L128.569 156.798Z" fill="white" stroke="#080809"/>
<path d="M121.668 173.423L124.795 164.423C125.593 162.128 124.625 159.593 122.502 158.412L121.626 157.925C119.194 156.573 116.126 157.467 114.8 159.913L109.79 169.161L107.165 175.52C106.123 178.044 107.298 180.936 109.805 182.019L112.517 183.19C115.166 184.334 118.23 183.004 119.205 180.288L121.668 173.423Z" fill="white" stroke="#080809"/>
<path d="M55.1038 59.0492L51.9767 50.0494C51.1794 47.7547 52.1468 45.2189 54.27 44.0384L55.1459 43.5514C57.578 42.1991 60.6463 43.0928 61.9719 45.5397L66.9817 54.7871L69.6072 61.1465C70.6491 63.67 69.4741 66.5628 66.9676 67.645L64.2554 68.816C61.6064 69.9598 58.5417 68.6302 57.5672 65.9143L55.1038 59.0492Z" fill="white" stroke="#080809"/>
<path d="M62.0042 75.6741L58.8771 66.6743C58.0798 64.3796 59.0472 61.8438 61.1704 60.6633L62.0463 60.1763C64.4784 58.824 67.5467 59.7177 68.8723 62.1645L73.8821 71.412L76.5076 77.7714C77.5495 80.2949 76.3745 83.1876 73.868 84.2699L71.1558 85.4409C68.5068 86.5847 65.4421 85.2551 64.4676 82.5392L62.0042 75.6741Z" fill="white" stroke="#080809"/>
<path d="M69.2878 93.2226L66.1607 84.2228C65.3634 81.9281 66.3308 79.3923 68.454 78.2118L69.3299 77.7248C71.7621 76.3725 74.8303 77.2662 76.1559 79.713L81.1658 88.9605L83.7913 95.3199C84.8331 97.8434 83.6581 100.736 81.1516 101.818L78.4394 102.989C75.7904 104.133 72.7257 102.804 71.7512 100.088L69.2878 93.2226Z" fill="white" stroke="#080809"/>
<path d="M76.1882 109.848L73.0611 100.848C72.2637 98.553 73.2312 96.0172 75.3543 94.8367L76.2302 94.3497C78.6624 92.9974 81.7307 93.8911 83.0562 96.338L88.0661 105.585L90.6916 111.945C91.7334 114.468 90.5584 117.361 88.052 118.443L85.3397 119.614C82.6907 120.758 79.6261 119.428 78.6516 116.713L76.1882 109.848Z" fill="white" stroke="#080809"/>
<path d="M82.3214 124.625L79.1943 115.625C78.397 113.331 79.3644 110.795 81.4876 109.614L82.3635 109.127C84.7956 107.775 87.8639 108.669 89.1895 111.116L94.1993 120.363L96.8248 126.722C97.8667 129.246 96.6917 132.139 94.1852 133.221L91.473 134.392C88.824 135.536 85.7593 134.206 84.7848 131.49L82.3214 124.625Z" fill="white" stroke="#080809"/>
<path d="M89.2217 141.25L86.0946 132.25C85.2972 129.955 86.2647 127.419 88.3879 126.239L89.2637 125.752C91.6959 124.399 94.7642 125.293 96.0898 127.74L101.1 136.988L103.725 143.347C104.767 145.87 103.592 148.763 101.085 149.845L98.3732 151.016C95.7242 152.16 92.6596 150.831 91.6851 148.115L89.2217 141.25Z" fill="white" stroke="#080809"/>
<path d="M96.5055 158.798L93.3784 149.798C92.581 147.504 93.5485 144.968 95.6717 143.787L96.5475 143.3C98.9797 141.948 102.048 142.842 103.374 145.288L108.383 154.536L111.009 160.895C112.051 163.419 110.876 166.312 108.369 167.394L105.657 168.565C103.008 169.709 99.9434 168.379 98.9689 165.663L96.5055 158.798Z" fill="white" stroke="#080809"/>
<path d="M103.406 175.423L100.279 166.423C99.4814 164.128 100.449 161.593 102.572 160.412L103.448 159.925C105.88 158.573 108.948 159.467 110.274 161.913L115.284 171.161L117.909 177.52C118.951 180.044 117.776 182.937 115.27 184.019L112.557 185.19C109.908 186.334 106.844 185.004 105.869 182.288L103.406 175.423Z" fill="white" stroke="#080809"/>
</svg>
