<svg width="215" height="212" viewBox="0 0 215 212" fill="none" xmlns="http://www.w3.org/2000/svg">
<rect width="215" height="212" fill="none"/>
<path d="M43.736 168.97L46.1056 178.198C46.7098 180.551 48.9178 182.13 51.3397 181.939L52.3388 181.861C55.1131 181.643 57.1758 179.202 56.9277 176.431L55.99 165.955L54.6622 159.204C54.1353 156.526 51.557 154.765 48.87 155.249L45.9626 155.772C43.1228 156.284 41.3042 159.086 41.9935 161.888L43.736 168.97Z" fill="white" stroke="#080809"/>
<path d="M40.2952 151.302L42.6648 160.53C43.269 162.883 45.477 164.461 47.8989 164.271L48.898 164.193C51.6723 163.975 53.735 161.534 53.4869 158.762L52.5492 148.287L51.2214 141.536C50.6945 138.858 48.1162 137.097 45.4293 137.58L42.5218 138.104C39.6821 138.615 37.8634 141.418 38.5527 144.219L40.2952 151.302Z" fill="white" stroke="#080809"/>
<path d="M36.6633 132.652L39.0329 141.881C39.6371 144.234 41.8451 145.812 44.267 145.622L45.2661 145.543C48.0404 145.326 50.1031 142.885 49.855 140.113L48.9173 129.637L47.5895 122.887C47.0626 120.208 44.4843 118.447 41.7974 118.931L38.8899 119.454C36.0502 119.966 34.2315 122.768 34.9208 125.57L36.6633 132.652Z" fill="white" stroke="#080809"/>
<path d="M33.2225 114.984L35.5921 124.212C36.1963 126.565 38.4043 128.144 40.8262 127.954L41.8253 127.875C44.5996 127.657 46.6623 125.217 46.4142 122.445L45.4765 111.969L44.1487 105.219C43.6218 102.54 41.0435 100.779 38.3566 101.263L35.4491 101.786C32.6094 102.298 30.7907 105.1 31.48 107.902L33.2225 114.984Z" fill="white" stroke="#080809"/>
<path d="M30.1641 99.2792L32.5336 108.507C33.1378 110.86 35.3458 112.439 37.7677 112.249L38.7668 112.17C41.5411 111.952 43.6038 109.512 43.3557 106.74L42.4181 96.2643L41.0902 89.5136C40.5633 86.8348 37.985 85.0739 35.2981 85.5578L32.3906 86.0813C29.5509 86.5927 27.7322 89.3949 28.4215 92.1967L30.1641 99.2792Z" fill="white" stroke="#080809"/>
<path d="M26.7233 81.6115L29.0929 90.8397C29.6971 93.1927 31.9051 94.7709 34.327 94.5809L35.3261 94.5025C38.1004 94.2847 40.1631 91.8438 39.915 89.072L38.9773 78.5966L37.6495 71.8459C37.1226 69.1671 34.5443 67.4062 31.8574 67.89L28.9499 68.4136C26.1102 68.925 24.2915 71.7272 24.9808 74.529L26.7233 81.6115Z" fill="white" stroke="#080809"/>
<path d="M23.0914 62.9618L25.461 72.1901C26.0652 74.5431 28.2732 76.1213 30.6951 75.9312L31.6942 75.8528C34.4685 75.6351 36.5312 73.1942 36.2831 70.4224L35.3454 59.9469L34.0176 53.1962C33.4907 50.5174 30.9124 48.7565 28.2255 49.2404L25.318 49.764C22.4783 50.2753 20.6596 53.0775 21.3489 55.8794L23.0914 62.9618Z" fill="white" stroke="#080809"/>
<path d="M19.6506 45.2937L22.0202 54.522C22.6244 56.875 24.8324 58.4532 27.2543 58.2631L28.2534 58.1847C31.0277 57.967 33.0904 55.5261 32.8423 52.7543L31.9046 42.2788L30.5768 35.5282C30.0499 32.8494 27.4716 31.0885 24.7847 31.5723L21.8772 32.0959C19.0375 32.6073 17.2188 35.4094 17.9081 38.2113L19.6506 45.2937Z" fill="white" stroke="#080809"/>
<path d="M170.304 167.97L167.935 177.198C167.331 179.551 165.123 181.13 162.701 180.939L161.702 180.861C158.927 180.643 156.865 178.202 157.113 175.431L158.051 164.955L159.378 158.204C159.905 155.526 162.484 153.765 165.17 154.249L168.078 154.772C170.918 155.284 172.736 158.086 172.047 160.888L170.304 167.97Z" fill="white" stroke="#080809"/>
<path d="M173.745 150.302L171.376 159.53C170.772 161.883 168.564 163.461 166.142 163.271L165.143 163.193C162.368 162.975 160.306 160.534 160.554 157.762L161.491 147.287L162.819 140.536C163.346 137.858 165.924 136.097 168.611 136.58L171.519 137.104C174.358 137.615 176.177 140.418 175.488 143.219L173.745 150.302Z" fill="white" stroke="#080809"/>
<path d="M177.377 131.652L175.008 140.881C174.403 143.234 172.195 144.812 169.774 144.622L168.774 144.543C166 144.326 163.937 141.885 164.186 139.113L165.123 128.637L166.451 121.887C166.978 119.208 169.556 117.447 172.243 117.931L175.151 118.454C177.99 118.966 179.809 121.768 179.12 124.57L177.377 131.652Z" fill="white" stroke="#080809"/>
<path d="M180.818 113.984L178.448 123.212C177.844 125.565 175.636 127.144 173.214 126.954L172.215 126.875C169.441 126.657 167.378 124.217 167.626 121.445L168.564 110.969L169.892 104.219C170.419 101.54 172.997 99.7789 175.684 100.263L178.591 100.786C181.431 101.298 183.25 104.1 182.561 106.902L180.818 113.984Z" fill="white" stroke="#080809"/>
<path d="M183.876 98.2792L181.507 107.507C180.903 109.86 178.695 111.439 176.273 111.249L175.274 111.17C172.499 110.952 170.437 108.512 170.685 105.74L171.622 95.2643L172.95 88.5136C173.477 85.8348 176.056 84.0739 178.742 84.5578L181.65 85.0813C184.49 85.5927 186.308 88.3949 185.619 91.1967L183.876 98.2792Z" fill="white" stroke="#080809"/>
<path d="M187.317 80.6115L184.948 89.8397C184.343 92.1927 182.135 93.7709 179.714 93.5809L178.714 93.5025C175.94 93.2847 173.877 90.8438 174.126 88.072L175.063 77.5966L176.391 70.8459C176.918 68.1671 179.496 66.4062 182.183 66.89L185.091 67.4136C187.93 67.925 189.749 70.7272 189.06 73.529L187.317 80.6115Z" fill="white" stroke="#080809"/>
<path d="M190.949 61.9618L188.58 71.1901C187.975 73.5431 185.767 75.1213 183.345 74.9312L182.346 74.8528C179.572 74.6351 177.509 72.1942 177.757 69.4224L178.695 58.9469L180.023 52.1962C180.55 49.5174 183.128 47.7565 185.815 48.2404L188.723 48.764C191.562 49.2753 193.381 52.0775 192.692 54.8794L190.949 61.9618Z" fill="white" stroke="#080809"/>
<path d="M194.39 44.2937L192.02 53.522C191.416 55.875 189.208 57.4532 186.786 57.2631L185.787 57.1847C183.013 56.967 180.95 54.5261 181.198 51.7543L182.136 41.2788L183.464 34.5282C183.991 31.8494 186.569 30.0885 189.256 30.5723L192.163 31.0959C195.003 31.6073 196.822 34.4094 196.132 37.2113L194.39 44.2937Z" fill="white" stroke="#080809"/>
<path d="M50.0303 167.244L46.9032 176.244C46.1058 178.538 47.0733 181.074 49.1965 182.255L50.0723 182.742C52.5045 184.094 55.5728 183.2 56.8983 180.753L61.9082 171.506L64.5337 165.147C65.5755 162.623 64.4005 159.73 61.8941 158.648L59.1818 157.477C56.5328 156.333 53.4682 157.663 52.4937 160.379L50.0303 167.244Z" fill="white" stroke="#080809"/>
<path d="M56.9307 150.619L53.8035 159.619C53.0062 161.913 53.9736 164.449 56.0968 165.63L56.9727 166.117C59.4049 167.469 62.4732 166.575 63.7987 164.128L68.8086 154.881L71.4341 148.522C72.4759 145.998 71.3009 143.105 68.7945 142.023L66.0822 140.852C63.4332 139.708 60.3686 141.038 59.394 143.754L56.9307 150.619Z" fill="white" stroke="#080809"/>
<path d="M64.2143 133.07L61.0872 142.07C60.2898 144.365 61.2573 146.901 63.3805 148.081L64.2563 148.568C66.6885 149.921 69.7568 149.027 71.0824 146.58L76.0922 137.333L78.7177 130.973C79.7596 128.45 78.5846 125.557 76.0781 124.475L73.3659 123.304C70.7168 122.16 67.6522 123.489 66.6777 126.205L64.2143 133.07Z" fill="white" stroke="#080809"/>
<path d="M71.1146 116.445L67.9875 125.445C67.1902 127.74 68.1576 130.276 70.2808 131.456L71.1567 131.943C73.5888 133.296 76.6571 132.402 77.9827 129.955L82.9925 120.708L85.618 114.348C86.6599 111.825 85.4849 108.932 82.9784 107.85L80.2662 106.679C77.6172 105.535 74.5525 106.865 73.578 109.58L71.1146 116.445Z" fill="white" stroke="#080809"/>
<path d="M77.2479 101.668L74.1207 110.668C73.3234 112.962 74.2908 115.498 76.414 116.679L77.2899 117.166C79.7221 118.518 82.7904 117.624 84.1159 115.177L89.1258 105.93L91.7513 99.5706C92.7931 97.0471 91.6181 94.1544 89.1117 93.0722L86.3994 91.9011C83.7504 90.7573 80.6858 92.0869 79.7112 94.8028L77.2479 101.668Z" fill="white" stroke="#080809"/>
<path d="M84.1481 85.0434L81.021 94.0432C80.2237 96.338 81.1911 98.8738 83.3143 100.054L84.1902 100.541C86.6224 101.894 89.6906 101 91.0162 98.553L96.026 89.3055L98.6515 82.9461C99.6934 80.4226 98.5184 77.5299 96.0119 76.4477L93.2997 75.2766C90.6507 74.1329 87.586 75.4625 86.6115 78.1783L84.1481 85.0434Z" fill="white" stroke="#080809"/>
<path d="M91.432 67.495L88.3048 76.4948C87.5075 78.7895 88.4749 81.3253 90.5981 82.5058L91.474 82.9928C93.9062 84.3451 96.9744 83.4514 98.3 81.0045L103.31 71.7571L105.935 65.3977C106.977 62.8742 105.802 59.9814 103.296 58.8992L100.584 57.7282C97.9345 56.5844 94.8698 57.914 93.8953 60.6299L91.432 67.495Z" fill="white" stroke="#080809"/>
<path d="M98.3323 50.87L95.2052 59.8698C94.4079 62.1646 95.3753 64.7004 97.4985 65.8809L98.3744 66.3679C100.807 67.7202 103.875 66.8265 105.2 64.3796L110.21 55.1321L112.836 48.7728C113.878 46.2492 112.703 43.3565 110.196 42.2743L107.484 41.1032C104.835 39.9595 101.77 41.2891 100.796 44.0049L98.3323 50.87Z" fill="white" stroke="#080809"/>
<path d="M164.897 165.244L168.024 174.244C168.821 176.538 167.854 179.074 165.731 180.255L164.855 180.742C162.423 182.094 159.354 181.2 158.029 178.753L153.019 169.506L150.393 163.146C149.352 160.623 150.527 157.73 153.033 156.648L155.745 155.477C158.394 154.333 161.459 155.663 162.433 158.379L164.897 165.244Z" fill="white" stroke="#080809"/>
<path d="M157.996 148.619L161.124 157.619C161.921 159.913 160.953 162.449 158.83 163.63L157.954 164.117C155.522 165.469 152.454 164.575 151.128 162.128L146.119 152.881L143.493 146.522C142.451 143.998 143.626 141.105 146.133 140.023L148.845 138.852C151.494 137.708 154.559 139.038 155.533 141.754L157.996 148.619Z" fill="white" stroke="#080809"/>
<path d="M150.713 131.07L153.84 140.07C154.637 142.365 153.67 144.901 151.547 146.081L150.671 146.568C148.239 147.921 145.17 147.027 143.845 144.58L138.835 135.332L136.209 128.973C135.168 126.45 136.343 123.557 138.849 122.475L141.561 121.304C144.21 120.16 147.275 121.489 148.249 124.205L150.713 131.07Z" fill="white" stroke="#080809"/>
<path d="M143.812 114.445L146.94 123.445C147.737 125.74 146.77 128.276 144.646 129.456L143.77 129.943C141.338 131.296 138.27 130.402 136.944 127.955L131.935 118.708L129.309 112.348C128.267 109.825 129.442 106.932 131.949 105.85L134.661 104.679C137.31 103.535 140.375 104.865 141.349 107.58L143.812 114.445Z" fill="white" stroke="#080809"/>
<path d="M137.679 99.6679L140.806 108.668C141.604 110.962 140.636 113.498 138.513 114.679L137.637 115.166C135.205 116.518 132.137 115.624 130.811 113.177L125.801 103.93L123.176 97.5706C122.134 95.0471 123.309 92.1543 125.815 91.0721L128.528 89.9011C131.177 88.7573 134.241 90.0869 135.216 92.8028L137.679 99.6679Z" fill="white" stroke="#080809"/>
<path d="M130.779 83.0434L133.906 92.0432C134.703 94.3379 133.736 96.8737 131.613 98.0542L130.737 98.5412C128.305 99.8935 125.236 98.9998 123.911 96.553L118.901 87.3055L116.276 80.9461C115.234 78.4226 116.409 75.5299 118.915 74.4477L121.627 73.2766C124.276 72.1328 127.341 73.4624 128.316 76.1783L130.779 83.0434Z" fill="white" stroke="#080809"/>
<path d="M123.495 65.4949L126.622 74.4947C127.42 76.7895 126.452 79.3253 124.329 80.5058L123.453 80.9928C121.021 82.3451 117.953 81.4514 116.627 79.0045L111.617 69.757L108.992 63.3977C107.95 60.8741 109.125 57.9814 111.631 56.8992L114.344 55.7281C116.993 54.5844 120.057 55.914 121.032 58.6298L123.495 65.4949Z" fill="white" stroke="#080809"/>
<path d="M116.595 48.87L119.722 57.8698C120.519 60.1645 119.552 62.7003 117.429 63.8808L116.553 64.3678C114.121 65.7201 111.052 64.8264 109.727 62.3796L104.717 53.1321L102.091 46.7727C101.05 44.2492 102.225 41.3565 104.731 40.2743L107.443 39.1032C110.092 37.9594 113.157 39.2891 114.131 42.0049L116.595 48.87Z" fill="white" stroke="#080809"/>
</svg>
