<svg width="236" height="220" viewBox="0 0 236 220" fill="none" xmlns="http://www.w3.org/2000/svg">
<g clip-path="url(#clip0)">
<rect width="236" height="220" fill="none"/>
<circle r="25" transform="matrix(-0.871904 -0.489676 -0.489676 0.871904 185.546 51.5793)" fill="#080809"/>
<circle r="25" transform="matrix(-0.871904 -0.489676 -0.489676 0.871904 186.335 91.0175)" fill="#080809"/>
<circle r="25" transform="matrix(-0.871904 -0.489676 -0.489676 0.871904 187.125 130.456)" fill="#080809"/>
<circle r="25" transform="matrix(-0.871904 -0.489676 -0.489676 0.871904 188.893 168.15)" fill="#080809"/>
<circle r="25" transform="matrix(-0.871904 -0.489676 -0.489676 0.871904 47.5464 51.5793)" fill="#080809"/>
<circle r="25" transform="matrix(-0.871904 -0.489676 -0.489676 0.871904 48.3355 91.0175)" fill="#080809"/>
<circle r="25" transform="matrix(-0.871904 -0.489676 -0.489676 0.871904 49.1246 130.456)" fill="#080809"/>
<circle r="25" transform="matrix(-0.871904 -0.489676 -0.489676 0.871904 50.8929 168.15)" fill="#080809"/>
<circle r="25" transform="matrix(-0.996578 -0.0826531 -0.0826531 0.996578 120.455 54.5562)" fill="#080809"/>
<circle r="25" transform="matrix(-0.996578 -0.0826531 -0.0826531 0.996578 137.576 90.0929)" fill="#080809"/>
<circle r="25" transform="matrix(-0.996578 -0.0826531 -0.0826531 0.996578 154.698 125.63)" fill="#080809"/>
<circle r="25" transform="matrix(-0.551885 -0.83392 -0.83392 0.551885 98.1244 89.0633)" fill="#080809"/>
<circle r="25" transform="matrix(-0.551885 -0.83392 -0.83392 0.551885 80.8087 124.506)" fill="#080809"/>
</g>
<defs>
<clipPath id="clip0">
<rect width="236" height="220" fill="white"/>
</clipPath>
</defs>
</svg>
