<svg width="232" height="212" viewBox="0 0 210 212" fill="none" xmlns="http://www.w3.org/2000/svg">
<rect width="210" height="212" fill="none"/>
<path d="M156.179 161.971L161.165 170.09C162.436 172.16 162.036 174.844 160.216 176.453L159.465 177.117C157.379 178.96 154.191 178.745 152.371 176.64L145.493 168.684L141.564 163.036C140.004 160.795 140.531 157.718 142.747 156.122L145.144 154.397C147.486 152.711 150.765 153.352 152.299 155.795L156.179 161.971Z" fill="white" stroke="#080809"/>
<path d="M147.01 148.576L151.996 156.695C153.267 158.765 152.867 161.45 151.047 163.058L150.296 163.722C148.21 165.565 145.022 165.351 143.202 163.245L136.324 155.289L132.395 149.641C130.835 147.4 131.362 144.323 133.578 142.728L135.975 141.002C138.317 139.316 141.596 139.957 143.13 142.4L147.01 148.576Z" fill="white" stroke="#080809"/>
<path d="M136.702 133.82L141.688 141.939C142.959 144.009 142.559 146.694 140.738 148.302L139.988 148.966C137.902 150.809 134.714 150.595 132.894 148.489L126.016 140.533L122.086 134.885C120.527 132.644 121.054 129.567 123.27 127.972L125.667 126.246C128.009 124.56 131.288 125.201 132.822 127.644L136.702 133.82Z" fill="white" stroke="#080809"/>
<path d="M125.821 118.244L130.807 126.363C132.079 128.433 131.678 131.118 129.858 132.726L129.107 133.39C127.022 135.233 123.833 135.019 122.013 132.913L115.135 124.957L111.206 119.309C109.646 117.068 110.173 113.991 112.389 112.396L114.787 110.67C117.128 108.984 120.407 109.625 121.942 112.068L125.821 118.244Z" fill="white" stroke="#080809"/>
<path d="M115.513 103.488L120.499 111.607C121.771 113.677 121.37 116.361 119.55 117.97L118.799 118.634C116.714 120.477 113.525 120.262 111.705 118.157L104.827 110.201L100.898 104.553C99.3383 102.312 99.865 99.2344 102.081 97.6394L104.478 95.9135C106.82 94.2277 110.099 94.8685 111.634 97.3119L115.513 103.488Z" fill="white" stroke="#080809"/>
<path d="M106.351 90.3716L111.337 98.4903C112.608 100.56 112.208 103.245 110.387 104.854L109.636 105.517C107.551 107.36 104.363 107.146 102.543 105.04L95.6646 97.0839L91.7352 91.4364C90.176 89.1953 90.7026 86.1178 92.9184 84.5228L95.316 82.7969C97.6578 81.1111 100.936 81.7519 102.471 84.1953L106.351 90.3716Z" fill="white" stroke="#080809"/>
<path d="M96.0428 75.6157L101.029 83.7345C102.3 85.8046 101.9 88.4889 100.079 90.0977L99.3285 90.7613C97.2433 92.6042 94.0547 92.3899 92.2348 90.2847L85.3567 82.3281L81.4273 76.6806C79.8681 74.4395 80.3947 71.362 82.6105 69.767L85.0081 68.041C87.3499 66.3553 90.6285 66.9961 92.1633 69.4394L96.0428 75.6157Z" fill="white" stroke="#080809"/>
<path d="M85.1619 60.0398L90.148 68.1586C91.4193 70.2287 91.0188 72.913 89.1985 74.5218L88.4475 75.1854C86.3623 77.0283 83.1738 76.814 81.3538 74.7088L74.4758 66.7522L70.5464 61.1047C68.9871 58.8636 69.5138 55.7861 71.7296 54.1911L74.1272 52.4651C76.469 50.7794 79.7476 51.4202 81.2824 53.8635L85.1619 60.0398Z" fill="white" stroke="#080809"/>
<path d="M74.8538 45.2836L79.8399 53.4024C81.1112 55.4725 80.7106 58.1568 78.8903 59.7656L78.1394 60.4292C76.0542 62.2721 72.8656 62.0578 71.0457 59.9526L64.1676 51.996L60.2383 46.3485C58.679 44.1074 59.2057 41.0299 61.4214 39.4349L63.8191 37.7089C66.1608 36.0232 69.4394 36.664 70.9742 39.1073L74.8538 45.2836Z" fill="white" stroke="#080809"/>
<path d="M68.8634 161.409L63.8774 169.528C62.606 171.598 63.0066 174.282 64.8269 175.891L65.5778 176.554C67.663 178.397 70.8516 178.183 72.6715 176.078L79.5496 168.121L83.479 162.474C85.0382 160.233 84.5115 157.155 82.2958 155.56L79.8982 153.834C77.5564 152.148 74.2778 152.789 72.743 155.232L68.8634 161.409Z" fill="white" stroke="#080809"/>
<path d="M78.0324 148.014L73.0464 156.133C71.775 158.203 72.1756 160.887 73.9959 162.496L74.7468 163.16C76.832 165.002 80.0206 164.788 81.8405 162.683L88.7186 154.726L92.648 149.079C94.2072 146.838 93.6805 143.76 91.4648 142.165L89.0672 140.439C86.7254 138.754 83.4468 139.394 81.912 141.838L78.0324 148.014Z" fill="white" stroke="#080809"/>
<path d="M88.3406 133.258L83.3545 141.377C82.0832 143.447 82.4837 146.131 84.304 147.74L85.055 148.403C87.1402 150.246 90.3287 150.032 92.1487 147.927L99.0267 139.97L102.956 134.323C104.515 132.082 103.989 129.004 101.773 127.409L99.3753 125.683C97.0335 123.997 93.7549 124.638 92.2202 127.082L88.3406 133.258Z" fill="white" stroke="#080809"/>
<path d="M99.2213 117.682L94.2352 125.801C92.9638 127.871 93.3644 130.555 95.1847 132.164L95.9356 132.827C98.0208 134.67 101.209 134.456 103.029 132.351L109.907 124.394L113.837 118.747C115.396 116.506 114.869 113.428 112.654 111.833L110.256 110.107C107.914 108.421 104.636 109.062 103.101 111.506L99.2213 117.682Z" fill="white" stroke="#080809"/>
<path d="M109.529 102.926L104.543 111.044C103.272 113.115 103.673 115.799 105.493 117.408L106.244 118.071C108.329 119.914 111.518 119.7 113.337 117.595L120.216 109.638L124.145 103.99C125.704 101.749 125.177 98.6719 122.962 97.0769L120.564 95.351C118.222 93.6652 114.944 94.306 113.409 96.7494L109.529 102.926Z" fill="white" stroke="#080809"/>
<path d="M118.692 89.8091L113.706 97.9278C112.434 99.9979 112.835 102.682 114.655 104.291L115.406 104.955C117.491 106.798 120.68 106.583 122.5 104.478L129.378 96.5214L133.307 90.8739C134.867 88.6328 134.34 85.5553 132.124 83.9603L129.726 82.2344C127.385 80.5486 124.106 81.1894 122.571 83.6328L118.692 89.8091Z" fill="white" stroke="#080809"/>
<path d="M129 75.0532L124.014 83.172C122.742 85.2421 123.143 87.9264 124.963 89.5352L125.714 90.1988C127.799 92.0417 130.988 91.8274 132.808 89.7222L139.686 81.7656L143.615 76.1181C145.174 73.877 144.648 70.7995 142.432 69.2045L140.034 67.4785C137.693 65.7928 134.414 66.4336 132.879 68.8769L129 75.0532Z" fill="white" stroke="#080809"/>
<path d="M139.881 59.4773L134.894 67.5961C133.623 69.6662 134.024 72.3505 135.844 73.9593L136.595 74.6229C138.68 76.4658 141.869 76.2515 143.689 74.1463L150.567 66.1897L154.496 60.5422C156.055 58.3011 155.529 55.2236 153.313 53.6286L150.915 51.9026C148.574 50.2169 145.295 50.8577 143.76 53.301L139.881 59.4773Z" fill="white" stroke="#080809"/>
<path d="M150.189 44.7211L145.203 52.8399C143.931 54.91 144.332 57.5943 146.152 59.2031L146.903 59.8667C148.988 61.7096 152.177 61.4953 153.997 59.3901L160.875 51.4335L164.804 45.786C166.363 43.5449 165.837 40.4674 163.621 38.8724L161.223 37.1464C158.882 35.4607 155.603 36.1015 154.068 38.5448L150.189 44.7211Z" fill="white" stroke="#080809"/>
</svg>
