<svg width="232" height="212" viewBox="0 0 232 212" fill="none" xmlns="http://www.w3.org/2000/svg">
<rect width="232" height="212" fill="none"/>
<path d="M118.234 111.333L118.796 101.822C118.939 99.3971 120.805 97.4259 123.218 97.1495L124.214 97.0355C126.979 96.7188 129.47 98.7205 129.756 101.489L130.838 111.95L130.825 118.83C130.82 121.56 128.626 123.782 125.896 123.82L122.942 123.862C120.057 123.903 117.736 121.5 117.877 118.618L118.234 111.333Z" fill="white" stroke="#080809"/>
<path d="M118.234 127.333L118.796 117.822C118.939 115.397 120.805 113.426 123.218 113.15L124.214 113.036C126.979 112.719 129.47 114.721 129.756 117.489L130.838 127.95L130.825 134.83C130.82 137.56 128.626 139.782 125.896 139.82L122.942 139.862C120.057 139.903 117.736 137.5 117.877 134.618L118.234 127.333Z" fill="white" stroke="#080809"/>
<path d="M118.234 145.333L118.796 135.822C118.939 133.397 120.805 131.426 123.218 131.149L124.214 131.035C126.979 130.719 129.47 132.72 129.756 135.488L130.838 145.95L130.825 152.83C130.82 155.56 128.626 157.781 125.896 157.82L122.942 157.862C120.057 157.903 117.736 155.5 117.877 152.618L118.234 145.333Z" fill="white" stroke="#080809"/>
<path d="M118.234 164.333L118.796 154.822C118.939 152.397 120.805 150.426 123.218 150.149L124.214 150.035C126.979 149.719 129.47 151.72 129.756 154.488L130.838 164.95L130.825 171.83C130.82 174.56 128.626 176.781 125.896 176.82L122.942 176.862C120.057 176.903 117.736 174.5 117.877 171.618L118.234 164.333Z" fill="white" stroke="#080809"/>
<path d="M118.234 182.333L118.796 172.822C118.939 170.397 120.805 168.426 123.218 168.149L124.214 168.035C126.979 167.719 129.47 169.72 129.756 172.488L130.838 182.95L130.825 189.83C130.82 192.56 128.626 194.781 125.896 194.82L122.942 194.862C120.057 194.903 117.736 192.5 117.877 189.618L118.234 182.333Z" fill="white" stroke="#080809"/>
<path d="M125.772 99.6596L130.036 108.18C131.124 110.352 130.492 112.992 128.539 114.437L127.733 115.033C125.496 116.688 122.338 116.199 120.708 113.943L114.545 105.421L111.12 99.4542C109.76 97.0865 110.552 94.0662 112.897 92.6691L115.435 91.1574C117.914 89.6809 121.125 90.6033 122.442 93.1704L125.772 99.6596Z" fill="white" stroke="#080809"/>
<path d="M117.781 85.7985L122.045 94.3188C123.132 96.4912 122.5 99.1308 120.548 100.576L119.742 101.172C117.505 102.827 114.347 102.337 112.716 100.082L106.553 91.5599L103.128 85.5932C101.769 83.2254 102.56 80.2051 104.906 78.8081L107.444 77.2963C109.923 75.8198 113.134 76.7422 114.451 79.3094L117.781 85.7985Z" fill="white" stroke="#080809"/>
<path d="M108.79 70.2052L113.054 78.7254C114.141 80.8978 113.51 83.5374 111.557 84.9824L110.751 85.5785C108.514 87.2338 105.356 86.7441 103.725 84.4891L97.5625 75.9665L94.1372 69.9998C92.778 67.6321 93.5693 64.6118 95.9149 63.2147L98.453 61.703C100.932 60.2265 104.143 61.1489 105.46 63.716L108.79 70.2052Z" fill="white" stroke="#080809"/>
<path d="M99.2995 53.7452L103.563 62.2654C104.651 64.4378 104.019 67.0774 102.066 68.5224L101.261 69.1185C99.0236 70.7737 95.8655 70.2841 94.2349 68.029L88.072 59.5065L84.6466 53.5398C83.2874 51.1721 84.0787 48.1518 86.4243 46.7547L88.9625 45.243C91.4415 43.7664 94.6522 44.6888 95.9696 47.256L99.2995 53.7452Z" fill="white" stroke="#080809"/>
<path d="M90.3085 38.1514L94.5724 46.6716C95.6596 48.8441 95.028 51.4836 93.0752 52.9286L92.2696 53.5247C90.0326 55.18 86.8745 54.6903 85.2439 52.4353L79.081 43.9128L75.6557 37.946C74.2964 35.5783 75.0877 32.558 77.4333 31.1609L79.9715 29.6492C82.4505 28.1727 85.6612 29.0951 86.9786 31.6622L90.3085 38.1514Z" fill="white" stroke="#080809"/>
<path d="M124.018 99.7339L119.553 108.151C118.415 110.297 118.984 112.95 120.902 114.441L121.693 115.056C123.89 116.764 127.059 116.35 128.742 114.134L135.106 105.76L138.672 99.876C140.087 97.5412 139.367 94.503 137.055 93.0507L134.554 91.4792C132.11 89.9443 128.879 90.7903 127.501 93.3255L124.018 99.7339Z" fill="white" stroke="#080809"/>
<path d="M132.336 86.0662L127.871 94.4829C126.733 96.629 127.302 99.2828 129.22 100.774L130.011 101.389C132.208 103.097 135.377 102.682 137.06 100.466L143.424 92.0922L146.99 86.2084C148.405 83.8736 147.685 80.8353 145.373 79.383L142.872 77.8115C140.428 76.2766 137.197 77.1227 135.819 79.6578L132.336 86.0662Z" fill="white" stroke="#080809"/>
<path d="M141.694 70.6905L137.229 79.1072C136.091 81.2532 136.66 83.907 138.578 85.3979L139.369 86.0129C141.566 87.7208 144.735 87.3061 146.418 85.0904L152.782 76.7165L156.348 70.8326C157.763 68.4978 157.043 65.4596 154.731 64.0073L152.23 62.4358C149.786 60.9009 146.555 61.7469 145.177 64.2821L141.694 70.6905Z" fill="white" stroke="#080809"/>
<path d="M151.572 54.4601L147.107 62.8768C145.969 65.0229 146.538 67.6767 148.456 69.1676L149.247 69.7826C151.444 71.4905 154.613 71.0758 156.297 68.8601L162.66 60.4861L166.226 54.6023C167.641 52.2675 166.921 49.2292 164.61 47.7769L162.108 46.2054C159.665 44.6706 156.433 45.5166 155.055 48.0517L151.572 54.4601Z" fill="white" stroke="#080809"/>
<path d="M160.931 39.084L156.466 47.5007C155.327 49.6467 155.896 52.3005 157.814 53.7914L158.605 54.4064C160.802 56.1143 163.971 55.6996 165.655 53.4839L172.018 45.11L175.584 39.2261C176.999 36.8913 176.28 33.8531 173.968 32.4008L171.466 30.8293C169.023 29.2944 165.791 30.1404 164.413 32.6756L160.931 39.084Z" fill="white" stroke="#080809"/>
</svg>
