<svg width="244" height="219" viewBox="0 0 244 219" fill="none" xmlns="http://www.w3.org/2000/svg">
<rect width="244" height="219" fill="none"/>
<path d="M74.8404 81.513C80.1469 94.2597 94.7819 100.291 107.529 94.9846C120.275 89.6781 126.307 75.0431 121 62.2964C115.694 49.5498 101.059 43.5183 88.312 48.8248C75.5653 54.1314 69.5339 68.7664 74.8404 81.513Z" fill="#080809"/>
<path d="M194.768 42.2965C189.461 55.0431 174.827 61.0746 162.08 55.768C149.333 50.4615 143.302 35.8265 148.608 23.0799C153.915 10.3332 168.55 4.30178 181.296 9.6083C194.043 14.9148 200.075 29.5498 194.768 42.2965Z" fill="#080809"/>
<path d="M167.768 78.2965C162.461 91.0431 147.827 97.0746 135.08 91.768C122.333 86.4615 116.302 71.8265 121.608 59.0799C126.915 46.3332 141.55 40.3018 154.296 45.6083C167.043 50.9148 173.075 65.5498 167.768 78.2965Z" fill="#080809"/>
<circle r="25" transform="matrix(-0.923195 0.384332 0.384332 0.923195 72.6881 32.6882)" fill="#080809"/>
<circle cx="117.775" cy="103.287" r="25" transform="rotate(-28.3 117.775 103.287)" fill="#080809"/>
<circle cx="117.864" cy="145.864" r="25" transform="rotate(-28.3 117.864 145.864)" fill="#080809"/>
<circle cx="117.864" cy="179.864" r="25" transform="rotate(-28.3 117.864 179.864)" fill="#080809"/>
</svg>
