<svg width="234" height="212" viewBox="0 0 234 212" fill="none" xmlns="http://www.w3.org/2000/svg">
<rect width="234" height="212" fill="none"/>
<path d="M144.029 59.0781L149.827 51.5177C151.305 49.5899 153.955 49.0037 156.109 50.128L156.997 50.5919C159.464 51.8798 160.404 54.934 159.089 57.3866L154.12 66.6559L150.252 72.3455C148.717 74.6033 145.655 75.2124 143.373 73.7139L140.903 72.0924C138.491 70.5086 137.917 67.2177 139.649 64.9104L144.029 59.0781Z" fill="white" stroke="#080809"/>
<path d="M133.937 73.9829L139.735 66.4225C141.213 64.4947 143.863 63.9085 146.016 65.0328L146.905 65.4967C149.372 66.7846 150.312 69.8388 148.997 72.2914L144.028 81.5607L140.16 87.2503C138.625 89.5081 135.562 90.1172 133.28 88.6187L130.811 86.9971C128.399 85.4134 127.824 82.1225 129.557 79.8152L133.937 73.9829Z" fill="white" stroke="#080809"/>
<path d="M123.284 89.7157L129.082 82.1552C130.56 80.2275 133.21 79.6413 135.364 80.7656L136.252 81.2294C138.719 82.5174 139.66 85.5716 138.345 88.0242L133.375 97.2934L129.507 102.983C127.972 105.241 124.91 105.85 122.628 104.351L120.158 102.73C117.746 101.146 117.172 97.8553 118.904 95.548L123.284 89.7157Z" fill="white" stroke="#080809"/>
<path d="M113.192 104.62L118.99 97.0599C120.468 95.1322 123.118 94.5459 125.271 95.6703L126.16 96.1341C128.627 97.4221 129.567 100.476 128.252 102.929L123.283 112.198L119.415 117.888C117.88 120.146 114.817 120.755 112.535 119.256L110.066 117.635C107.654 116.051 107.08 112.76 108.812 110.453L113.192 104.62Z" fill="white" stroke="#080809"/>
<path d="M148.775 43.2565L158.288 43.7768C160.714 43.9095 162.693 45.7665 162.98 48.1788L163.098 49.1739C163.427 51.9373 161.436 54.4373 158.67 54.7357L148.213 55.8634L141.333 55.8805C138.603 55.8873 136.372 53.7029 136.321 50.9732L136.266 48.0195C136.213 45.1346 138.606 42.8033 141.488 42.9318L148.775 43.2565Z" fill="white" stroke="#080809"/>
<path d="M131.774 43.2566L141.288 43.7769C143.713 43.9095 145.693 45.7665 145.979 48.1788L146.098 49.174C146.427 51.9373 144.436 54.4373 141.669 54.7357L131.212 55.8635L124.332 55.8806C121.602 55.8874 119.371 53.703 119.321 50.9733L119.266 48.0196C119.212 45.1347 121.605 42.8034 124.488 42.9318L131.774 43.2566Z" fill="white" stroke="#080809"/>
<path d="M113.774 43.3352L123.288 43.8555C125.713 43.9882 127.693 45.8452 127.98 48.2575L128.098 49.2526C128.427 52.016 126.436 54.516 123.669 54.8144L113.212 55.9422L106.332 55.9593C103.602 55.9661 101.371 53.7816 101.321 51.052L101.266 48.0982C101.213 45.2133 103.605 42.882 106.488 43.0105L113.774 43.3352Z" fill="white" stroke="#080809"/>
<path d="M94.7745 43.4182L104.288 43.9385C106.714 44.0712 108.693 45.9282 108.98 48.3405L109.098 49.3357C109.427 52.099 107.436 54.599 104.669 54.8974L94.2126 56.0252L87.3326 56.0423C84.6025 56.0491 82.3717 53.8646 82.321 51.135L82.2663 48.1812C82.2128 45.2963 84.6055 42.9651 87.488 43.0935L94.7745 43.4182Z" fill="white" stroke="#080809"/>
<path d="M76.7747 43.4969L86.2881 44.0172C88.7137 44.1498 90.6931 46.0068 90.98 48.4191L91.0984 49.4143C91.4271 52.1776 89.4363 54.6776 86.6695 54.976L76.2128 56.1038L69.3328 56.1209C66.6027 56.1277 64.3718 53.9433 64.3212 51.2136L64.2665 48.2599C64.213 45.3749 66.6057 43.0437 69.4882 43.1721L76.7747 43.4969Z" fill="white" stroke="#080809"/>
<path d="M104.221 117.869L110.019 110.308C111.497 108.381 114.147 107.794 116.301 108.919L117.189 109.383C119.656 110.671 120.597 113.725 119.282 116.177L114.312 125.447L110.444 131.136C108.909 133.394 105.847 134.003 103.565 132.505L101.095 130.883C98.6833 129.299 98.1088 126.009 99.8414 123.701L104.221 117.869Z" fill="white" stroke="#080809"/>
<path d="M94.1291 132.773L99.9269 125.213C101.405 123.285 104.055 122.699 106.209 123.823L107.097 124.287C109.564 125.575 110.504 128.629 109.19 131.082L104.22 140.351L100.352 146.041C98.817 148.299 95.7547 148.908 93.4726 147.409L91.0032 145.788C88.5913 144.204 88.0168 140.913 89.7494 138.606L94.1291 132.773Z" fill="white" stroke="#080809"/>
<path d="M83.4764 148.506L89.2742 140.946C90.7525 139.018 93.4025 138.432 95.556 139.556L96.4444 140.02C98.9112 141.308 99.8518 144.362 98.5369 146.814L93.5674 156.084L89.6992 161.773C88.1643 164.031 85.102 164.64 82.8199 163.142L80.3505 161.52C77.9386 159.936 77.3641 156.646 79.0967 154.338L83.4764 148.506Z" fill="white" stroke="#080809"/>
<path d="M73.3844 163.411L79.1822 155.85C80.6605 153.923 83.3105 153.336 85.464 154.461L86.3523 154.925C88.8192 156.212 89.7597 159.267 88.4448 161.719L83.4754 170.989L79.6072 176.678C78.0722 178.936 75.01 179.545 72.7279 178.047L70.2584 176.425C67.8465 174.841 67.272 171.55 69.0047 169.243L73.3844 163.411Z" fill="white" stroke="#080809"/>
<path d="M148.775 171.257L158.288 171.777C160.714 171.909 162.693 173.766 162.98 176.179L163.098 177.174C163.427 179.937 161.436 182.437 158.67 182.736L148.213 183.863L141.333 183.881C138.603 183.887 136.372 181.703 136.321 178.973L136.266 176.02C136.213 173.135 138.606 170.803 141.488 170.932L148.775 171.257Z" fill="white" stroke="#080809"/>
<path d="M131.774 171.257L141.288 171.777C143.713 171.91 145.693 173.767 145.979 176.179L146.098 177.174C146.427 179.937 144.436 182.437 141.669 182.736L131.212 183.863L124.332 183.881C121.602 183.887 119.371 181.703 119.321 178.973L119.266 176.02C119.212 173.135 121.605 170.803 124.488 170.932L131.774 171.257Z" fill="white" stroke="#080809"/>
<path d="M113.774 171.335L123.288 171.856C125.713 171.988 127.693 173.845 127.98 176.258L128.098 177.253C128.427 180.016 126.436 182.516 123.669 182.814L113.212 183.942L106.332 183.959C103.602 183.966 101.371 181.782 101.321 179.052L101.266 176.098C101.213 173.213 103.605 170.882 106.488 171.011L113.774 171.335Z" fill="white" stroke="#080809"/>
<path d="M94.7745 171.418L104.288 171.939C106.714 172.071 108.693 173.928 108.98 176.341L109.098 177.336C109.427 180.099 107.436 182.599 104.669 182.897L94.2126 184.025L87.3326 184.042C84.6025 184.049 82.3717 181.865 82.321 179.135L82.2663 176.181C82.2128 173.296 84.6055 170.965 87.488 171.094L94.7745 171.418Z" fill="white" stroke="#080809"/>
<path d="M76.7747 171.497L86.2881 172.017C88.7137 172.15 90.6931 174.007 90.98 176.419L91.0984 177.414C91.4271 180.178 89.4363 182.678 86.6695 182.976L76.2128 184.104L69.3328 184.121C66.6027 184.128 64.3718 181.943 64.3212 179.214L64.2665 176.26C64.213 173.375 66.6057 171.044 69.4882 171.172L76.7747 171.497Z" fill="white" stroke="#080809"/>
</svg>
