<svg width="236" height="219" viewBox="0 0 236 219" fill="none" xmlns="http://www.w3.org/2000/svg">
<g clip-path="url(#clip0)">
<rect width="236" height="219" fill="none"/>
<circle cx="155.318" cy="65.0173" r="25" transform="rotate(58.582 155.318 65.0173)" fill="#080809"/>
<circle cx="115.877" cy="65.673" r="25" transform="rotate(58.582 115.877 65.673)" fill="#080809"/>
<circle cx="78.1436" cy="65.2862" r="25" transform="rotate(58.582 78.1436 65.2862)" fill="#080809"/>
<circle cx="158.318" cy="185.017" r="25" transform="rotate(58.582 158.318 185.017)" fill="#080809"/>
<circle cx="118.878" cy="185.673" r="25" transform="rotate(58.582 118.878 185.673)" fill="#080809"/>
<circle cx="78.3667" cy="186.367" r="25" transform="rotate(58.582 78.3667 186.367)" fill="#080809"/>
<circle cx="117.696" cy="125.696" r="25" transform="rotate(4.03098 117.696 125.696)" fill="#080809"/>
<circle cx="143.695" cy="98.6955" r="25" transform="rotate(4.03098 143.695 98.6955)" fill="#080809"/>
<circle cx="92.6954" cy="157.696" r="25" transform="rotate(4.03098 92.6954 157.696)" fill="#080809"/>
</g>
<defs>
<clipPath id="clip0">
<rect width="236" height="219" fill="white"/>
</clipPath>
</defs>
</svg>
